<?xml version="1.0" standalone="no"?>
 <!DOCTYPE svg PUBLIC "-//W3C//DTD SVG 1.1//EN" 
 "http://www.w3.org/Graphics/SVG/1.1/DTD/svg11.dtd"> 
<svg xmlns="http://www.w3.org/2000/svg" version="1.1" 
    width="29.7002cm" height="21.0007cm" viewBox="0 0 116930 82680 ">
<title>SVG Picture created as ControlBoard-F.SilkS.svg date 2016/08/17 08:37:07 </title>
  <desc>Picture generated by PCBNEW </desc>
<g style="fill:#000000; fill-opacity:1;stroke:#000000; stroke-opacity:1;
stroke-linecap:round; stroke-linejoin:round; "
 transform="translate(0 0) scale(1 1)">
</g>
<g style="fill:#000000; fill-opacity:0.0; 
stroke:#000000; stroke-width:-0.000393701; stroke-opacity:1; 
stroke-linecap:round; stroke-linejoin:round;">
</g>
<g style="fill:#000000; fill-opacity:0.0; 
stroke:#000000; stroke-width:59.0551; stroke-opacity:1; 
stroke-linecap:round; stroke-linejoin:round;">
<path d="M11000 63800
L29000 63800
" />
<path d="M10000 73800
L10000 64800
" />
<path d="M29000 74800
L11000 74800
" />
<path d="M30000 64800
L30000 73800
" />
<path d="M30000 64800 A1000 1000 0.0 0 0 29000 63800 " />
<path d="M11000 63800 A1000 1000 0.0 0 0 10000 64800 " />
<path d="M10000 73800 A1000 1000 0.0 0 0 11000 74800 " />
<path d="M29000 74800 A1000 1000 0.0 0 0 30000 73800 " />
</g>
<g style="fill:#000000; fill-opacity:0.0; 
stroke:#000000; stroke-width:60; stroke-opacity:1; 
stroke-linecap:round; stroke-linejoin:round;">
<path d="M33220 67200
L32220 67200
" />
<path d="M33320 66500 A100 100 0.0 0 0 33220 66400 " />
<path d="M32220 66400 A100 100 0.0 0 0 32120 66500 " />
<path d="M32120 67100 A100 100 0.0 0 0 32220 67200 " />
<path d="M33220 67200 A100 100 0.0 0 0 33320 67100 " />
<path d="M33320 67100
L33320 66500
" />
<path d="M32120 67100
L32120 66500
" />
<path d="M32220 66400
L33220 66400
" />
<path d="M33220 66200
L32220 66200
" />
<path d="M33320 65500 A100 100 0.0 0 0 33220 65400 " />
<path d="M32220 65400 A100 100 0.0 0 0 32120 65500 " />
<path d="M32120 66100 A100 100 0.0 0 0 32220 66200 " />
<path d="M33220 66200 A100 100 0.0 0 0 33320 66100 " />
<path d="M33320 66100
L33320 65500
" />
<path d="M32120 66100
L32120 65500
" />
<path d="M32220 65400
L33220 65400
" />
<path d="M33220 65200
L32220 65200
" />
<path d="M33320 64500 A100 100 0.0 0 0 33220 64400 " />
<path d="M32220 64400 A100 100 0.0 0 0 32120 64500 " />
<path d="M32120 65100 A100 100 0.0 0 0 32220 65200 " />
<path d="M33220 65200 A100 100 0.0 0 0 33320 65100 " />
<path d="M33320 65100
L33320 64500
" />
<path d="M32120 65100
L32120 64500
" />
<path d="M32220 64400
L33220 64400
" />
</g>
<g style="fill:#000000; fill-opacity:0.0; 
stroke:#000000; stroke-width:59.0551; stroke-opacity:1; 
stroke-linecap:round; stroke-linejoin:round;">
<path d="M12000 115000
L10000 115000
" />
<path d="M12000 119000
L12000 115000
" />
<path d="M10000 119000
L12000 119000
" />
<path d="M36400 51300
L36400 49300
" />
<path d="M32400 51300
L36400 51300
" />
<path d="M32400 49300
L32400 51300
" />
<path d="M27750 49300
L27750 51300
" />
<path d="M31750 49300
L27750 49300
" />
<path d="M31750 51300
L31750 49300
" />
<path d="M18500 49300
L18500 51300
" />
<path d="M22500 49300
L18500 49300
" />
<path d="M22500 51300
L22500 49300
" />
<path d="M12000 105000
L10000 105000
" />
<path d="M12000 109000
L12000 105000
" />
<path d="M10000 109000
L12000 109000
" />
<path d="M12000 110000
L10000 110000
" />
<path d="M12000 114000
L12000 110000
" />
<path d="M10000 114000
L12000 114000
" />
<path d="M18000 51300
L18000 49300
" />
<path d="M14000 51300
L18000 51300
" />
<path d="M14000 49300
L14000 51300
" />
<path d="M41000 51300
L41000 49300
" />
<path d="M37000 51300
L41000 51300
" />
<path d="M37000 49300
L37000 51300
" />
<path d="M24629 75865
L24236 75865
" />
<path d="M24236 75334
L24629 75334
" />
<path d="M22370 75334
L22763 75334
" />
<path d="M22763 75865
L22370 75865
" />
<path d="M32420 69584
L32813 69584
" />
<path d="M32813 70115
L32420 70115
" />
<path d="M37000 108000
L17000 108000
" />
<path d="M37000 98000
L37000 108000
" />
<path d="M17000 98000
L37000 98000
" />
<path d="M17000 108000
L17000 98000
" />
<path d="M38750 88750
L38750 78750
" />
<path d="M14750 88750
L38750 88750
" />
<path d="M14750 88250
L14750 88750
" />
<path d="M14750 78750
L14750 88250
" />
<path d="M38750 78750
L14750 78750
" />
<path d="M37000 119000
L17000 119000
" />
<path d="M37000 109000
L37000 119000
" />
<path d="M17000 109000
L37000 109000
" />
<path d="M17000 119000
L17000 109000
" />
<path d="M11300 84700
L11300 81700
" />
<path d="M10300 84700
L10300 81700
" />
<path d="M10189 85810
L10189 85200
" />
<path d="M11300 81700
L10300 81700
" />
<path d="M10300 84700
L11300 84700
" />
<path d="M11410 85200
L11410 85810
" />
<path d="M11410 85810
L10189 85810
" />
<path d="M36513 96763
L36513 96488
" />
<path d="M36986 96488
L36986 96763
" />
<path d="M36513 92263
L36513 91988
" />
<path d="M36986 91988
L36986 92263
" />
<path d="M25263 92263
L25263 91988
" />
<path d="M25736 91988
L25736 92263
" />
<path d="M25263 97013
L25263 96738
" />
<path d="M25736 96738
L25736 97013
" />
<path d="M32538 68613
L32813 68613
" />
<path d="M32813 69086
L32538 69086
" />
<path d="M10000 96800
L12000 96800
" />
<path d="M10000 88800
L10000 96800
" />
<path d="M12000 88800
L10000 88800
" />
<path d="M43000 73100
L43000 78100
" />
<path d="M43000 78100
L41000 78100
" />
<path d="M41000 78100
L41000 74100
" />
<path d="M43000 73100
L42000 73100
" />
<path d="M41500 72989
L40889 72989
" />
<path d="M42000 73100
L42000 74100
" />
<path d="M42000 74100
L41000 74100
" />
<path d="M40889 72989
L40889 73600
" />
<path d="M42900 64300
L42900 69300
" />
<path d="M42900 69300
L40900 69300
" />
<path d="M40900 69300
L40900 65300
" />
<path d="M42900 64300
L41900 64300
" />
<path d="M41400 64189
L40789 64189
" />
<path d="M41900 64300
L41900 65300
" />
<path d="M41900 65300
L40900 65300
" />
<path d="M40789 64189
L40789 64800
" />
<path d="M12500 100300
L12500 103300
" />
<path d="M12500 103300
L14500 103300
" />
<path d="M14500 103300
L14500 99300
" />
<path d="M14500 99300
L13500 99300
" />
<path d="M13000 99189
L12389 99189
" />
<path d="M13500 99300
L13500 100300
" />
<path d="M13500 100300
L12500 100300
" />
<path d="M12389 99189
L12389 99800
" />
<path d="M43000 117500
L45000 117500
" />
<path d="M43000 113500
L43000 117500
" />
<path d="M45000 113500
L43000 113500
" />
<path d="M43000 100000
L43000 80000
" />
<path d="M45000 100000
L43000 100000
" />
<path d="M45000 80000
L43000 80000
" />
<path d="M27484 91299
L27803 91299
L27840 91281
L27859 91262
L27878 91224
L27878 91149
L27859 91112
L27840 91093
L27803 91074
L27484 91074
" />
<path d="M27484 90718
L27484 90793
L27503 90831
L27521 90850
L27578 90887
L27653 90906
L27803 90906
L27840 90887
L27859 90868
L27878 90831
L27878 90756
L27859 90718
L27840 90700
L27803 90681
L27709 90681
L27671 90700
L27653 90718
L27634 90756
L27634 90831
L27653 90868
L27671 90887
L27709 90906
" />
</g>
<g style="fill:#000000; fill-opacity:0.0; 
stroke:#000000; stroke-width:12.8; stroke-opacity:1; 
stroke-linecap:round; stroke-linejoin:round;">
<path d="M32299 66140
L32299 66249
L32292 66271
L32277 66285
L32256 66292
L32241 66292
" />
<path d="M32372 66292
L32372 66140
L32429 66140
L32444 66148
L32451 66155
L32458 66169
L32458 66191
L32451 66205
L32444 66213
L32429 66220
L32372 66220
" />
<path d="M32603 66292
L32516 66292
" />
<path d="M32560 66292
L32560 66140
L32545 66162
L32531 66176
L32516 66184
" />
<path d="M32299 65140
L32299 65249
L32292 65271
L32277 65285
L32256 65292
L32241 65292
" />
<path d="M32372 65292
L32372 65140
L32429 65140
L32444 65148
L32451 65155
L32458 65169
L32458 65191
L32451 65205
L32444 65213
L32429 65220
L32372 65220
" />
<path d="M32516 65155
L32524 65148
L32538 65140
L32574 65140
L32589 65148
L32596 65155
L32603 65169
L32603 65184
L32596 65205
L32509 65292
L32603 65292
" />
<path d="M32299 66390
L32299 66499
L32292 66521
L32277 66535
L32256 66542
L32241 66542
" />
<path d="M32372 66390
L32372 66513
L32379 66528
L32386 66535
L32400 66542
L32429 66542
L32444 66535
L32451 66528
L32458 66513
L32458 66390
" />
<path d="M32531 66542
L32531 66390
L32581 66499
L32632 66390
L32632 66542
" />
<path d="M32704 66542
L32704 66390
L32762 66390
L32777 66398
L32784 66405
L32791 66419
L32791 66441
L32784 66455
L32777 66463
L32762 66470
L32704 66470
" />
<path d="M32856 66463
L32907 66463
" />
<path d="M32929 66542
L32856 66542
L32856 66390
L32929 66390
" />
<path d="M33081 66542
L33030 66470
" />
<path d="M32994 66542
L32994 66390
L33052 66390
L33066 66398
L33074 66405
L33081 66419
L33081 66441
L33074 66455
L33066 66463
L33052 66470
L32994 66470
" />
<path d="M33131 66390
L33226 66390
L33175 66448
L33197 66448
L33211 66455
L33218 66463
L33226 66477
L33226 66513
L33218 66528
L33211 66535
L33197 66542
L33153 66542
L33139 66535
L33131 66528
" />
<path d="M32299 64140
L32299 64249
L32292 64271
L32277 64285
L32256 64292
L32241 64292
" />
<path d="M32372 64292
L32372 64140
L32429 64140
L32444 64148
L32451 64155
L32458 64169
L32458 64191
L32451 64205
L32444 64213
L32429 64220
L32372 64220
" />
<path d="M32509 64140
L32603 64140
L32552 64198
L32574 64198
L32589 64205
L32596 64213
L32603 64227
L32603 64263
L32596 64278
L32589 64285
L32574 64292
L32531 64292
L32516 64285
L32509 64278
" />
<path d="M32299 65390
L32299 65499
L32292 65521
L32277 65535
L32256 65542
L32241 65542
" />
<path d="M32372 65390
L32372 65513
L32379 65528
L32386 65535
L32400 65542
L32429 65542
L32444 65535
L32451 65528
L32458 65513
L32458 65390
" />
<path d="M32531 65542
L32531 65390
L32581 65499
L32632 65390
L32632 65542
" />
<path d="M32704 65542
L32704 65390
L32762 65390
L32777 65398
L32784 65405
L32791 65419
L32791 65441
L32784 65455
L32777 65463
L32762 65470
L32704 65470
" />
<path d="M32856 65463
L32907 65463
" />
<path d="M32929 65542
L32856 65542
L32856 65390
L32929 65390
" />
<path d="M33081 65542
L33030 65470
" />
<path d="M32994 65542
L32994 65390
L33052 65390
L33066 65398
L33074 65405
L33081 65419
L33081 65441
L33074 65455
L33066 65463
L33052 65470
L32994 65470
" />
<path d="M33131 65390
L33226 65390
L33175 65448
L33197 65448
L33211 65455
L33218 65463
L33226 65477
L33226 65513
L33218 65528
L33211 65535
L33197 65542
L33153 65542
L33139 65535
L33131 65528
" />
</g>
<g style="fill:#000000; fill-opacity:0.0; 
stroke:#000000; stroke-width:59.0551; stroke-opacity:1; 
stroke-linecap:round; stroke-linejoin:round;">
<path d="M10509 87385
L10509 86992
L10659 86992
L10696 87011
L10715 87029
L10734 87067
L10734 87123
L10715 87161
L10696 87179
L10659 87198
L10509 87198
" />
<path d="M11071 86992
L10996 86992
L10959 87011
L10940 87029
L10903 87086
L10884 87161
L10884 87310
L10903 87348
L10921 87367
L10959 87385
L11034 87385
L11071 87367
L11090 87348
L11109 87310
L11109 87217
L11090 87179
L11071 87161
L11034 87142
L10959 87142
L10921 87161
L10903 87179
L10884 87217
" />
<path d="M36142 92191
L36161 92210
L36180 92266
L36180 92304
L36161 92360
L36123 92397
L36086 92416
L36011 92435
L35955 92435
L35880 92416
L35842 92397
L35805 92360
L35786 92304
L35786 92266
L35805 92210
L35823 92191
" />
<path d="M35823 92041
L35805 92022
L35786 91985
L35786 91891
L35805 91854
L35823 91835
L35861 91816
L35898 91816
L35955 91835
L36180 92060
L36180 91816
" />
<path d="M41209 71770
L41209 71376
L41359 71376
L41396 71395
L41415 71414
L41434 71451
L41434 71507
L41415 71545
L41396 71564
L41359 71582
L41209 71582
" />
<path d="M41771 71507
L41771 71770
" />
<path d="M41678 71357
L41584 71638
L41828 71638
" />
<path d="M16134 91299
L16453 91299
L16490 91281
L16509 91262
L16528 91224
L16528 91149
L16509 91112
L16490 91093
L16453 91074
L16134 91074
" />
<path d="M16303 90831
L16284 90868
L16265 90887
L16228 90906
L16209 90906
L16171 90887
L16153 90868
L16134 90831
L16134 90756
L16153 90718
L16171 90700
L16209 90681
L16228 90681
L16265 90700
L16284 90718
L16303 90756
L16303 90831
L16321 90868
L16340 90887
L16378 90906
L16453 90906
L16490 90887
L16509 90868
L16528 90831
L16528 90756
L16509 90718
L16490 90700
L16453 90681
L16378 90681
L16340 90700
L16321 90718
L16303 90756
" />
</g> 
</svg>
