G04 #@! TF.FileFunction,Copper,L2,Bot,Signal*
%FSLAX46Y46*%
G04 Gerber Fmt 4.6, Leading zero omitted, Abs format (unit mm)*
G04 Created by KiCad (PCBNEW 4.0.3-stable) date Wednesday, August 17, 2016 'PMt' 02:01:32 PM*
%MOMM*%
%LPD*%
G01*
G04 APERTURE LIST*
%ADD10C,0.100000*%
%ADD11R,1.778000X1.778000*%
%ADD12C,1.778000*%
%ADD13R,2.032000X1.727200*%
%ADD14O,2.032000X1.727200*%
%ADD15R,1.727200X1.727200*%
%ADD16O,1.727200X1.727200*%
%ADD17C,0.600000*%
%ADD18C,0.400000*%
%ADD19C,1.000000*%
%ADD20C,0.500000*%
%ADD21C,0.700000*%
%ADD22C,0.254000*%
G04 APERTURE END LIST*
D10*
D11*
X90678000Y-227330000D03*
D12*
X88138000Y-227330000D03*
X85598000Y-227330000D03*
X83058000Y-227330000D03*
X80518000Y-227330000D03*
X77978000Y-227330000D03*
X75438000Y-227330000D03*
X72898000Y-227330000D03*
X72898000Y-234950000D03*
X75438000Y-234950000D03*
X77978000Y-234950000D03*
X80518000Y-234950000D03*
X83058000Y-234950000D03*
X85598000Y-234950000D03*
X88138000Y-234950000D03*
X90678000Y-234950000D03*
D11*
X68580000Y-164592000D03*
D12*
X66040000Y-164592000D03*
X63500000Y-164592000D03*
X60960000Y-164592000D03*
X58420000Y-164592000D03*
X55880000Y-164592000D03*
X53340000Y-164592000D03*
X50800000Y-164592000D03*
X48260000Y-164592000D03*
X45720000Y-164592000D03*
X43180000Y-164592000D03*
X40640000Y-164592000D03*
X38100000Y-164592000D03*
X35560000Y-164592000D03*
X33020000Y-164592000D03*
X33020000Y-187452000D03*
X35560000Y-187452000D03*
X38100000Y-187452000D03*
X40640000Y-187452000D03*
X43180000Y-187452000D03*
X45720000Y-187452000D03*
X48260000Y-187452000D03*
X50800000Y-187452000D03*
X53340000Y-187452000D03*
X55880000Y-187452000D03*
X58420000Y-187452000D03*
X60960000Y-187452000D03*
X63500000Y-187452000D03*
X66040000Y-187452000D03*
X68580000Y-187452000D03*
D11*
X27940000Y-299720000D03*
D12*
X27940000Y-294640000D03*
D11*
X84836000Y-127762000D03*
D12*
X89916000Y-127762000D03*
D11*
X78105000Y-127762000D03*
D12*
X73025000Y-127762000D03*
D11*
X54610000Y-127762000D03*
D12*
X49530000Y-127762000D03*
D11*
X27940000Y-274320000D03*
D12*
X27940000Y-269240000D03*
D11*
X27940000Y-287020000D03*
D12*
X27940000Y-281940000D03*
D11*
X38100000Y-127762000D03*
D12*
X43180000Y-127762000D03*
D11*
X96520000Y-127762000D03*
D12*
X101600000Y-127762000D03*
X45720000Y-251460000D03*
X45720000Y-271780000D03*
X91440000Y-271780000D03*
X91440000Y-251460000D03*
X95885000Y-219075000D03*
X95885000Y-216535000D03*
X95885000Y-213995000D03*
X95885000Y-211455000D03*
X95885000Y-208915000D03*
X95885000Y-206375000D03*
X90805000Y-206375000D03*
X88265000Y-206375000D03*
X85725000Y-206375000D03*
X83185000Y-206375000D03*
X78105000Y-206375000D03*
X75565000Y-206375000D03*
X73025000Y-206375000D03*
X70485000Y-206375000D03*
X65405000Y-206375000D03*
X62865000Y-206375000D03*
X60325000Y-206375000D03*
X57785000Y-206375000D03*
X52705000Y-206375000D03*
X50165000Y-206375000D03*
X47625000Y-206375000D03*
X45085000Y-206375000D03*
X40005000Y-206375000D03*
X40005000Y-208915000D03*
X40005000Y-211455000D03*
X40005000Y-213995000D03*
X40005000Y-216535000D03*
X40005000Y-219075000D03*
X45720000Y-279400000D03*
X45720000Y-299720000D03*
X91440000Y-299720000D03*
X91440000Y-279400000D03*
D13*
X27432000Y-216408000D03*
D14*
X27432000Y-213868000D03*
X27432000Y-211328000D03*
X27432000Y-208788000D03*
D11*
X27940000Y-228092000D03*
D12*
X27940000Y-233172000D03*
X27940000Y-238252000D03*
X27940000Y-243332000D03*
D15*
X105410000Y-186944000D03*
D16*
X107950000Y-186944000D03*
X105410000Y-189484000D03*
X107950000Y-189484000D03*
X105410000Y-192024000D03*
X107950000Y-192024000D03*
X105410000Y-194564000D03*
X107950000Y-194564000D03*
X105410000Y-197104000D03*
X107950000Y-197104000D03*
D15*
X105156000Y-164592000D03*
D16*
X107696000Y-164592000D03*
X105156000Y-167132000D03*
X107696000Y-167132000D03*
X105156000Y-169672000D03*
X107696000Y-169672000D03*
X105156000Y-172212000D03*
X107696000Y-172212000D03*
X105156000Y-174752000D03*
X107696000Y-174752000D03*
D15*
X33020000Y-253492000D03*
D16*
X35560000Y-253492000D03*
X33020000Y-256032000D03*
X35560000Y-256032000D03*
X33020000Y-258572000D03*
X35560000Y-258572000D03*
X33020000Y-261112000D03*
X35560000Y-261112000D03*
D11*
X90678000Y-238760000D03*
D12*
X88138000Y-238760000D03*
X85598000Y-238760000D03*
X83058000Y-238760000D03*
X80518000Y-238760000D03*
X77978000Y-238760000D03*
X75438000Y-238760000D03*
X72898000Y-238760000D03*
X72898000Y-246380000D03*
X75438000Y-246380000D03*
X77978000Y-246380000D03*
X80518000Y-246380000D03*
X83058000Y-246380000D03*
X85598000Y-246380000D03*
X88138000Y-246380000D03*
X90678000Y-246380000D03*
D11*
X61849000Y-227330000D03*
D12*
X59309000Y-227330000D03*
X56769000Y-227330000D03*
X54229000Y-227330000D03*
X51689000Y-227330000D03*
X49149000Y-227330000D03*
X46609000Y-227330000D03*
X44069000Y-227330000D03*
X44069000Y-234950000D03*
X46609000Y-234950000D03*
X49149000Y-234950000D03*
X51689000Y-234950000D03*
X54229000Y-234950000D03*
X56769000Y-234950000D03*
X59309000Y-234950000D03*
X61849000Y-234950000D03*
D11*
X61849000Y-239395000D03*
D12*
X59309000Y-239395000D03*
X56769000Y-239395000D03*
X54229000Y-239395000D03*
X51689000Y-239395000D03*
X49149000Y-239395000D03*
X46609000Y-239395000D03*
X44069000Y-239395000D03*
X44069000Y-247015000D03*
X46609000Y-247015000D03*
X49149000Y-247015000D03*
X51689000Y-247015000D03*
X54229000Y-247015000D03*
X56769000Y-247015000D03*
X59309000Y-247015000D03*
X61849000Y-247015000D03*
D11*
X97536000Y-197612000D03*
D12*
X97536000Y-195072000D03*
X97536000Y-192532000D03*
X97536000Y-189992000D03*
X97536000Y-187452000D03*
X97536000Y-184912000D03*
X97536000Y-182372000D03*
X97536000Y-179832000D03*
X97536000Y-177292000D03*
X97536000Y-174752000D03*
X97536000Y-172212000D03*
X97536000Y-169672000D03*
X97536000Y-167132000D03*
X97536000Y-164592000D03*
X87376000Y-164592000D03*
X87376000Y-167132000D03*
X87376000Y-169672000D03*
X87376000Y-172212000D03*
X87376000Y-174752000D03*
X87376000Y-177292000D03*
X87376000Y-179832000D03*
X87376000Y-182372000D03*
X87376000Y-184912000D03*
X87376000Y-187452000D03*
X87376000Y-189992000D03*
X87376000Y-192532000D03*
X87376000Y-195072000D03*
X87376000Y-197612000D03*
D11*
X111760000Y-290830000D03*
D12*
X111760000Y-295910000D03*
D11*
X111760000Y-205740000D03*
D12*
X111760000Y-210820000D03*
X111760000Y-215900000D03*
X111760000Y-220980000D03*
X111760000Y-226060000D03*
X111760000Y-231140000D03*
X111760000Y-236220000D03*
X111760000Y-241300000D03*
X111760000Y-246380000D03*
X111760000Y-251460000D03*
D17*
X41910000Y-168910000D03*
X34925000Y-213360000D03*
X62992000Y-190373000D03*
X57277000Y-190373000D03*
X83300000Y-173500000D03*
X75100000Y-165000000D03*
X72500000Y-163700000D03*
X83000000Y-242500000D03*
X83700000Y-230900000D03*
X54200000Y-231300000D03*
X83900000Y-171200000D03*
X83900000Y-165900000D03*
X33655000Y-201930000D03*
X33655000Y-201930000D03*
X86360000Y-160655000D03*
X37915989Y-232410000D03*
X43815000Y-243205000D03*
X37915989Y-211454991D03*
X65405000Y-191135000D03*
X60960000Y-193040000D03*
X52705000Y-194945000D03*
X74472482Y-167817482D03*
X83820000Y-153670002D03*
X53975000Y-197485000D03*
X85200000Y-180999998D03*
X39300000Y-237600000D03*
D18*
X33020000Y-187452000D02*
X34309001Y-188741001D01*
X34309001Y-188741001D02*
X54590999Y-188741001D01*
X54590999Y-188741001D02*
X54991001Y-188340999D01*
X54991001Y-188340999D02*
X55880000Y-187452000D01*
X95885000Y-206375000D02*
X93610000Y-204100000D01*
X93610000Y-204100000D02*
X76719000Y-204100000D01*
X76719000Y-204100000D02*
X63291999Y-190672999D01*
X63291999Y-190672999D02*
X62992000Y-190373000D01*
X41910000Y-168910000D02*
X43180000Y-167640000D01*
X43180000Y-167640000D02*
X43180000Y-164592000D01*
X27432000Y-216408000D02*
X31877000Y-216408000D01*
X31877000Y-216408000D02*
X34925000Y-213360000D01*
X57277000Y-190373000D02*
X62992000Y-190373000D01*
X33020000Y-187452000D02*
X33020000Y-199390000D01*
X33020000Y-199390000D02*
X40005000Y-206375000D01*
X83300000Y-173500000D02*
X83300000Y-171800000D01*
X83300000Y-171800000D02*
X83900000Y-171200000D01*
X83600000Y-165900000D02*
X83900000Y-165900000D01*
X83600000Y-165900000D02*
X83600001Y-170900001D01*
X76000000Y-165900000D02*
X83600000Y-165900000D01*
X83600001Y-170900001D02*
X83900000Y-171200000D01*
X75100000Y-165000000D02*
X76000000Y-165900000D01*
X47512000Y-162800000D02*
X71600000Y-162800000D01*
X71600000Y-162800000D02*
X72500000Y-163700000D01*
X45720000Y-164592000D02*
X47512000Y-162800000D01*
X83000000Y-242500000D02*
X83000000Y-238818000D01*
X83000000Y-238818000D02*
X83058000Y-238760000D01*
X83700000Y-230900000D02*
X83700000Y-227972000D01*
X83700000Y-227972000D02*
X83058000Y-227330000D01*
X54200000Y-231300000D02*
X54200000Y-227359000D01*
X54200000Y-227359000D02*
X54229000Y-227330000D01*
X81000000Y-171000000D02*
X81000000Y-168800000D01*
X81000000Y-168800000D02*
X83900000Y-165900000D01*
X80800000Y-171200000D02*
X81000000Y-171000000D01*
X83900000Y-171200000D02*
X80800000Y-171200000D01*
X60960000Y-164592000D02*
X59670999Y-165881001D01*
X31730999Y-200005999D02*
X33355001Y-201630001D01*
X33355001Y-201630001D02*
X33655000Y-201930000D01*
X59670999Y-165881001D02*
X52683277Y-165881001D01*
X52683277Y-165881001D02*
X31730999Y-186833279D01*
X31730999Y-186833279D02*
X31730999Y-200005999D01*
D19*
X27940000Y-299720000D02*
X27940000Y-297831000D01*
X27940000Y-297831000D02*
X29829001Y-295941999D01*
X29829001Y-295941999D02*
X29829001Y-290798001D01*
X29829001Y-290798001D02*
X27940000Y-288909000D01*
X27940000Y-288909000D02*
X27940000Y-287020000D01*
X27940000Y-299720000D02*
X45720000Y-299720000D01*
X27940000Y-281940000D02*
X43180000Y-281940000D01*
X43180000Y-281940000D02*
X45720000Y-279400000D01*
D20*
X85725000Y-161290000D02*
X86360000Y-160655000D01*
X36322000Y-161290000D02*
X85725000Y-161290000D01*
X33020000Y-164592000D02*
X36322000Y-161290000D01*
X46609000Y-234950000D02*
X44069000Y-232410000D01*
X44069000Y-232410000D02*
X37915989Y-232410000D01*
X45720000Y-243205000D02*
X46609000Y-244094000D01*
X46609000Y-244094000D02*
X46609000Y-247015000D01*
X43815000Y-243205000D02*
X45720000Y-243205000D01*
X33020000Y-164592000D02*
X30980988Y-166631012D01*
X30980988Y-166631012D02*
X30980988Y-204335988D01*
X37915989Y-211270989D02*
X37915989Y-211454991D01*
X30980988Y-204335988D02*
X37915989Y-211270989D01*
X48895000Y-232664000D02*
X66167000Y-232664000D01*
X66167000Y-232664000D02*
X70739000Y-232664000D01*
X61849000Y-234950000D02*
X63881000Y-234950000D01*
X63881000Y-234950000D02*
X66167000Y-232664000D01*
X62750765Y-244094000D02*
X64770000Y-244094000D01*
X64770000Y-244094000D02*
X68580000Y-244094000D01*
X61849000Y-247015000D02*
X62737999Y-246126001D01*
X62737999Y-246126001D02*
X64770000Y-244094000D01*
X49530000Y-244094000D02*
X68580000Y-244094000D01*
X68580000Y-244094000D02*
X77724000Y-244094000D01*
X59309000Y-239395000D02*
X59309000Y-240652235D01*
X59309000Y-240652235D02*
X62750765Y-244094000D01*
X70739000Y-232664000D02*
X77724000Y-232664000D01*
X59309000Y-227330000D02*
X59309000Y-228587235D01*
X59309000Y-228587235D02*
X63385765Y-232664000D01*
X63385765Y-232664000D02*
X70739000Y-232664000D01*
X75438000Y-234950000D02*
X77724000Y-232664000D01*
X77724000Y-232664000D02*
X77978000Y-232410000D01*
X46609000Y-234950000D02*
X48895000Y-232664000D01*
X46609000Y-247015000D02*
X49530000Y-244094000D01*
X77724000Y-244094000D02*
X77978000Y-243840000D01*
X77978000Y-232410000D02*
X88138000Y-232410000D01*
X75438000Y-246380000D02*
X77978000Y-243840000D01*
X77978000Y-243840000D02*
X88138000Y-243840000D01*
X90678000Y-234950000D02*
X88138000Y-232410000D01*
X88138000Y-232410000D02*
X88138000Y-227330000D01*
X88138000Y-238760000D02*
X88138000Y-237490000D01*
X88138000Y-237490000D02*
X90678000Y-234950000D01*
X90678000Y-246380000D02*
X88138000Y-243840000D01*
X88138000Y-243840000D02*
X88138000Y-238760000D01*
X91440000Y-251460000D02*
X91440000Y-247142000D01*
X91440000Y-247142000D02*
X90678000Y-246380000D01*
D18*
X38423451Y-213995000D02*
X38747765Y-213995000D01*
X35756451Y-211328000D02*
X38423451Y-213995000D01*
X27432000Y-211328000D02*
X35756451Y-211328000D01*
X38747765Y-213995000D02*
X40005000Y-213995000D01*
X63500000Y-189230000D02*
X60198000Y-189230000D01*
X60198000Y-189230000D02*
X58420000Y-187452000D01*
X65405000Y-191135000D02*
X63500000Y-189230000D01*
X53405002Y-192466998D02*
X57531001Y-188340999D01*
X53405002Y-196147276D02*
X53405002Y-192466998D01*
X42265600Y-207286678D02*
X53405002Y-196147276D01*
X40005000Y-213995000D02*
X42265600Y-211734400D01*
X57531001Y-188340999D02*
X58420000Y-187452000D01*
X42265600Y-211734400D02*
X42265600Y-207286678D01*
X39116001Y-212343999D02*
X40005000Y-211455000D01*
X37620993Y-212343999D02*
X39116001Y-212343999D01*
X34064994Y-208788000D02*
X37620993Y-212343999D01*
X27432000Y-208788000D02*
X34064994Y-208788000D01*
X95885000Y-211455000D02*
X73657278Y-211455000D01*
X73657278Y-211455000D02*
X60960000Y-198757722D01*
X60960000Y-198757722D02*
X60960000Y-193040000D01*
X40005000Y-211455000D02*
X41294001Y-210165999D01*
X41294001Y-210165999D02*
X41294001Y-206355999D01*
X41294001Y-206355999D02*
X52705000Y-194945000D01*
X66040000Y-187452000D02*
X66040000Y-176249964D01*
X66040000Y-176249964D02*
X74172483Y-168117481D01*
X74172483Y-168117481D02*
X74472482Y-167817482D01*
D21*
X44069000Y-239395000D02*
X42811765Y-239395000D01*
X36965987Y-233549222D02*
X36965987Y-231953998D01*
X43180001Y-228218999D02*
X44069000Y-227330000D01*
X39939002Y-231459998D02*
X43180001Y-228218999D01*
X37459987Y-231459998D02*
X39939002Y-231459998D01*
X42811765Y-239395000D02*
X36965987Y-233549222D01*
X36965987Y-231953998D02*
X37459987Y-231459998D01*
X43180001Y-240283999D02*
X44069000Y-239395000D01*
X42529999Y-256382131D02*
X42529999Y-240934001D01*
X42529999Y-240934001D02*
X43180001Y-240283999D01*
X91440000Y-279400000D02*
X65547868Y-279400000D01*
X65547868Y-279400000D02*
X42529999Y-256382131D01*
X44069000Y-227330000D02*
X46609000Y-224790000D01*
X46609000Y-224790000D02*
X70358000Y-224790000D01*
X70358000Y-224790000D02*
X72009001Y-226441001D01*
X72009001Y-226441001D02*
X72898000Y-227330000D01*
X44069000Y-239395000D02*
X45974000Y-237490000D01*
X45974000Y-237490000D02*
X71628000Y-237490000D01*
X71628000Y-237490000D02*
X72009001Y-237871001D01*
X72009001Y-237871001D02*
X72898000Y-238760000D01*
X27940000Y-269240000D02*
X28828999Y-268351001D01*
X28828999Y-268351001D02*
X30561129Y-268351001D01*
X30561129Y-268351001D02*
X42529999Y-256382131D01*
D18*
X63500000Y-175198276D02*
X63500000Y-186194765D01*
X76658265Y-162040011D02*
X63500000Y-175198276D01*
X86158993Y-162040011D02*
X76658265Y-162040011D01*
X63500000Y-186194765D02*
X63500000Y-187452000D01*
X39389000Y-127762000D02*
X71481998Y-159854998D01*
X87160002Y-161039002D02*
X86158993Y-162040011D01*
X87160002Y-160270998D02*
X87160002Y-161039002D01*
X71481998Y-159854998D02*
X86744002Y-159854998D01*
X38100000Y-127762000D02*
X39389000Y-127762000D01*
X86744002Y-159854998D02*
X87160002Y-160270998D01*
X96520000Y-140970002D02*
X84119999Y-153370003D01*
X84119999Y-153370003D02*
X83820000Y-153670002D01*
X96520000Y-127762000D02*
X96520000Y-140970002D01*
X111760000Y-290830000D02*
X111760000Y-254000000D01*
X58422722Y-197485000D02*
X53975000Y-197485000D01*
X111760000Y-254000000D02*
X91967001Y-234207001D01*
X91967001Y-234207001D02*
X91967001Y-226120999D01*
X91967001Y-226120999D02*
X91787001Y-225940999D01*
X86878721Y-225940999D02*
X58422722Y-197485000D01*
X91787001Y-225940999D02*
X86878721Y-225940999D01*
X97536000Y-192532000D02*
X103124000Y-186944000D01*
X103124000Y-186944000D02*
X105410000Y-186944000D01*
X99313999Y-189103001D02*
X102736601Y-185680399D01*
X102736601Y-185680399D02*
X106686399Y-185680399D01*
X106686399Y-185680399D02*
X107086401Y-186080401D01*
X107086401Y-186080401D02*
X107950000Y-186944000D01*
X97536000Y-189992000D02*
X98424999Y-189103001D01*
X98424999Y-189103001D02*
X99313999Y-189103001D01*
X101235147Y-159407547D02*
X105156000Y-163328400D01*
X87376000Y-189992000D02*
X93246944Y-184121056D01*
X93246944Y-184121056D02*
X93246944Y-161412541D01*
X105156000Y-163328400D02*
X105156000Y-164592000D01*
X93246944Y-161412541D02*
X95251938Y-159407547D01*
X95251938Y-159407547D02*
X101235147Y-159407547D01*
X104040085Y-165868399D02*
X106419601Y-165868399D01*
X106419601Y-165868399D02*
X106832401Y-165455599D01*
X93846955Y-161661073D02*
X95500470Y-160007558D01*
X103441242Y-164309071D02*
X103441242Y-165269554D01*
X87376000Y-192532000D02*
X93846955Y-186061045D01*
X106832401Y-165455599D02*
X107696000Y-164592000D01*
X103441242Y-165269554D02*
X104040085Y-165868399D01*
X99139729Y-160007558D02*
X103441242Y-164309071D01*
X93846955Y-186061045D02*
X93846955Y-161661073D01*
X95500470Y-160007558D02*
X99139729Y-160007558D01*
X104134415Y-167132000D02*
X105156000Y-167132000D01*
X102841231Y-165838816D02*
X104134415Y-167132000D01*
X102841231Y-164557603D02*
X102841231Y-165838816D01*
X94446966Y-188001034D02*
X94446966Y-161909605D01*
X95749002Y-160607569D02*
X98891197Y-160607569D01*
X98891197Y-160607569D02*
X102841231Y-164557603D01*
X87376000Y-195072000D02*
X94446966Y-188001034D01*
X94446966Y-161909605D02*
X95749002Y-160607569D01*
X106832401Y-167995599D02*
X107696000Y-167132000D01*
X98617265Y-161207580D02*
X102241220Y-164831535D01*
X104549471Y-168395601D02*
X106432399Y-168395601D01*
X106432399Y-168395601D02*
X106832401Y-167995599D01*
X102241220Y-166087350D02*
X104549471Y-168395601D01*
X102241220Y-164831535D02*
X102241220Y-166087350D01*
X87376000Y-197612000D02*
X95046977Y-189941023D01*
X95997534Y-161207580D02*
X98617265Y-161207580D01*
X95046977Y-189941023D02*
X95046978Y-162158136D01*
X95046978Y-162158136D02*
X95997534Y-161207580D01*
X104134412Y-169672000D02*
X105156000Y-169672000D01*
X97711056Y-162010791D02*
X101641209Y-165940944D01*
X96093667Y-162010791D02*
X97711056Y-162010791D01*
X95646988Y-197011988D02*
X95646988Y-162457470D01*
X101641209Y-165940944D02*
X101641209Y-167178797D01*
X95646988Y-162457470D02*
X96093667Y-162010791D01*
X96247000Y-197612000D02*
X95646988Y-197011988D01*
X101641209Y-167178797D02*
X104134412Y-169672000D01*
X97536000Y-197612000D02*
X96247000Y-197612000D01*
X101041199Y-167427329D02*
X104549471Y-170935601D01*
X97536000Y-195072000D02*
X96246999Y-193782999D01*
X98151999Y-163302999D02*
X101041199Y-166192199D01*
X106832401Y-170535599D02*
X107696000Y-169672000D01*
X96246999Y-163973279D02*
X96917279Y-163302999D01*
X101041199Y-166192199D02*
X101041199Y-167427329D01*
X96917279Y-163302999D02*
X98151999Y-163302999D01*
X106432399Y-170935601D02*
X106832401Y-170535599D01*
X96246999Y-193782999D02*
X96246999Y-163973279D01*
X104549471Y-170935601D02*
X106432399Y-170935601D01*
X88264999Y-186563001D02*
X87376000Y-187452000D01*
X89535000Y-185293000D02*
X88264999Y-186563001D01*
X78105000Y-127762000D02*
X78105000Y-150896004D01*
X89535000Y-162326004D02*
X89535000Y-185293000D01*
X89560046Y-162300958D02*
X89535000Y-162326004D01*
X89560046Y-159276870D02*
X89560046Y-162300958D01*
X87738130Y-157454954D02*
X89560046Y-159276870D01*
X84663950Y-157454954D02*
X87738130Y-157454954D01*
X78105000Y-150896004D02*
X84663950Y-157454954D01*
X88960035Y-159525402D02*
X88960035Y-162009514D01*
X88264999Y-184023001D02*
X87376000Y-184912000D01*
X87489598Y-158054965D02*
X88960035Y-159525402D01*
X88960035Y-162009514D02*
X88665001Y-162304548D01*
X84415418Y-158054965D02*
X87489598Y-158054965D01*
X88665001Y-162304548D02*
X88665001Y-183622999D01*
X88665001Y-183622999D02*
X88264999Y-184023001D01*
X73025000Y-146664547D02*
X84415418Y-158054965D01*
X73025000Y-127762000D02*
X73025000Y-146664547D01*
X87241066Y-158654976D02*
X88360024Y-159773934D01*
X88360024Y-159773934D02*
X88360024Y-161536066D01*
X84166886Y-158654976D02*
X87241066Y-158654976D01*
X86000001Y-179163999D02*
X86000001Y-180996001D01*
X54610000Y-129098090D02*
X84166886Y-158654976D01*
X54610000Y-127762000D02*
X54610000Y-129098090D01*
X88360024Y-161536066D02*
X85830000Y-164066090D01*
X85830000Y-178993998D02*
X86000001Y-179163999D01*
X85830000Y-164066090D02*
X85830000Y-178993998D01*
X86487001Y-181483001D02*
X87376000Y-182372000D01*
X86000001Y-180996001D02*
X86487001Y-181483001D01*
X85200000Y-180575734D02*
X85200000Y-180999998D01*
X85200000Y-163847547D02*
X85200000Y-180575734D01*
X87760013Y-161287534D02*
X85200000Y-163847547D01*
X86992534Y-159254987D02*
X87760013Y-160022466D01*
X49530000Y-127762000D02*
X81022987Y-159254987D01*
X81022987Y-159254987D02*
X86992534Y-159254987D01*
X87760013Y-160022466D02*
X87760013Y-161287534D01*
X33020000Y-234697888D02*
X37107901Y-230609987D01*
X37107901Y-230609987D02*
X38733291Y-230609987D01*
X64516001Y-207263999D02*
X65405000Y-206375000D01*
X64115999Y-207664001D02*
X64516001Y-207263999D01*
X33020000Y-253492000D02*
X33020000Y-234697888D01*
X38733291Y-230609987D02*
X61679277Y-207664001D01*
X61679277Y-207664001D02*
X64115999Y-207664001D01*
X36859369Y-230009976D02*
X38179196Y-230009976D01*
X60325000Y-207864172D02*
X60325000Y-207632235D01*
X60325000Y-207632235D02*
X60325000Y-206375000D01*
X31756399Y-254768399D02*
X31756399Y-235112946D01*
X33020000Y-256032000D02*
X31756399Y-254768399D01*
X38179196Y-230009976D02*
X60325000Y-207864172D01*
X31756399Y-235112946D02*
X36859369Y-230009976D01*
X39300000Y-237600000D02*
X39300000Y-252292000D01*
X39300000Y-252292000D02*
X35560000Y-256032000D01*
X52705000Y-207632235D02*
X52705000Y-206375000D01*
X52705000Y-214635627D02*
X52705000Y-207632235D01*
X36610837Y-229409965D02*
X37930662Y-229409965D01*
X31156388Y-234864414D02*
X36610837Y-229409965D01*
X31156388Y-256708388D02*
X31156388Y-234864414D01*
X33020000Y-258572000D02*
X31156388Y-256708388D01*
X37930662Y-229409965D02*
X52705000Y-214635627D01*
X32413471Y-259835601D02*
X30556377Y-257978507D01*
X50165000Y-207632235D02*
X50165000Y-206375000D01*
X36362305Y-228809954D02*
X37682130Y-228809954D01*
X37682130Y-228809954D02*
X50165000Y-216327084D01*
X35560000Y-258572000D02*
X34296399Y-259835601D01*
X30556377Y-234615882D02*
X36362305Y-228809954D01*
X34296399Y-259835601D02*
X32413471Y-259835601D01*
X50165000Y-216327084D02*
X50165000Y-207632235D01*
X30556377Y-257978507D02*
X30556377Y-234615882D01*
X47625000Y-218018541D02*
X47625000Y-207632235D01*
X37433598Y-228209943D02*
X47625000Y-218018541D01*
X29956366Y-234367350D02*
X36113773Y-228209943D01*
X29956366Y-258227038D02*
X29956366Y-234367350D01*
X33020000Y-261112000D02*
X32841328Y-261112000D01*
X47625000Y-207632235D02*
X47625000Y-206375000D01*
X32841328Y-261112000D02*
X29956366Y-258227038D01*
X36113773Y-228209943D02*
X37433598Y-228209943D01*
X45085000Y-219709998D02*
X45085000Y-207632235D01*
X45085000Y-207632235D02*
X45085000Y-206375000D01*
X29356355Y-259318485D02*
X29356355Y-234118818D01*
X35865241Y-227609932D02*
X37185066Y-227609932D01*
X35560000Y-261112000D02*
X34296399Y-262375601D01*
X29356355Y-234118818D02*
X35865241Y-227609932D01*
X32413471Y-262375601D02*
X29356355Y-259318485D01*
X34296399Y-262375601D02*
X32413471Y-262375601D01*
X37185066Y-227609932D02*
X45085000Y-219709998D01*
D22*
G36*
X107751037Y-126537190D02*
X110812324Y-128582676D01*
X112857810Y-131643963D01*
X113590000Y-135324926D01*
X113590000Y-304730074D01*
X112857810Y-308411037D01*
X110812324Y-311472324D01*
X107751037Y-313517810D01*
X104070069Y-314250000D01*
X35629926Y-314250000D01*
X31948963Y-313517810D01*
X28887676Y-311472324D01*
X26842190Y-308411037D01*
X26233619Y-305351540D01*
X32774518Y-305351540D01*
X33197616Y-306375515D01*
X33980365Y-307159631D01*
X35003599Y-307584515D01*
X36111540Y-307585482D01*
X37135515Y-307162384D01*
X37919631Y-306379635D01*
X38344515Y-305356401D01*
X38344519Y-305351540D01*
X101354518Y-305351540D01*
X101777616Y-306375515D01*
X102560365Y-307159631D01*
X103583599Y-307584515D01*
X104691540Y-307585482D01*
X105715515Y-307162384D01*
X106499631Y-306379635D01*
X106924515Y-305356401D01*
X106925482Y-304248460D01*
X106502384Y-303224485D01*
X105719635Y-302440369D01*
X104696401Y-302015485D01*
X103588460Y-302014518D01*
X102564485Y-302437616D01*
X101780369Y-303220365D01*
X101355485Y-304243599D01*
X101354518Y-305351540D01*
X38344519Y-305351540D01*
X38345482Y-304248460D01*
X37922384Y-303224485D01*
X37139635Y-302440369D01*
X36116401Y-302015485D01*
X35008460Y-302014518D01*
X33984485Y-302437616D01*
X33200369Y-303220365D01*
X32775485Y-304243599D01*
X32774518Y-305351540D01*
X26233619Y-305351540D01*
X26110000Y-304730069D01*
X26110000Y-286131000D01*
X26403560Y-286131000D01*
X26403560Y-287909000D01*
X26447838Y-288144317D01*
X26586910Y-288360441D01*
X26799110Y-288505431D01*
X26805000Y-288506624D01*
X26805000Y-288909000D01*
X26891397Y-289343346D01*
X26980642Y-289476910D01*
X27137434Y-289711566D01*
X28694001Y-291268133D01*
X28694001Y-293302926D01*
X28244472Y-293116265D01*
X27638188Y-293115736D01*
X27077851Y-293347262D01*
X26648769Y-293775596D01*
X26416265Y-294335528D01*
X26415736Y-294941812D01*
X26647262Y-295502149D01*
X27075596Y-295931231D01*
X27635528Y-296163735D01*
X28001813Y-296164055D01*
X27137434Y-297028434D01*
X26891397Y-297396654D01*
X26805000Y-297831000D01*
X26805000Y-298234712D01*
X26599559Y-298366910D01*
X26454569Y-298579110D01*
X26403560Y-298831000D01*
X26403560Y-300609000D01*
X26447838Y-300844317D01*
X26586910Y-301060441D01*
X26799110Y-301205431D01*
X27051000Y-301256440D01*
X28829000Y-301256440D01*
X29064317Y-301212162D01*
X29280441Y-301073090D01*
X29425431Y-300860890D01*
X29426624Y-300855000D01*
X44699637Y-300855000D01*
X44855596Y-301011231D01*
X45415528Y-301243735D01*
X46021812Y-301244264D01*
X46582149Y-301012738D01*
X46803076Y-300792196D01*
X90547409Y-300792196D01*
X90632467Y-301047539D01*
X91201965Y-301255516D01*
X91807700Y-301229723D01*
X92247533Y-301047539D01*
X92332591Y-300792196D01*
X91440000Y-299899605D01*
X90547409Y-300792196D01*
X46803076Y-300792196D01*
X47011231Y-300584404D01*
X47243735Y-300024472D01*
X47244208Y-299481965D01*
X89904484Y-299481965D01*
X89930277Y-300087700D01*
X90112461Y-300527533D01*
X90367804Y-300612591D01*
X91260395Y-299720000D01*
X91619605Y-299720000D01*
X92512196Y-300612591D01*
X92767539Y-300527533D01*
X92975516Y-299958035D01*
X92949723Y-299352300D01*
X92767539Y-298912467D01*
X92512196Y-298827409D01*
X91619605Y-299720000D01*
X91260395Y-299720000D01*
X90367804Y-298827409D01*
X90112461Y-298912467D01*
X89904484Y-299481965D01*
X47244208Y-299481965D01*
X47244264Y-299418188D01*
X47012738Y-298857851D01*
X46803058Y-298647804D01*
X90547409Y-298647804D01*
X91440000Y-299540395D01*
X92332591Y-298647804D01*
X92247533Y-298392461D01*
X91678035Y-298184484D01*
X91072300Y-298210277D01*
X90632467Y-298392461D01*
X90547409Y-298647804D01*
X46803058Y-298647804D01*
X46584404Y-298428769D01*
X46024472Y-298196265D01*
X45418188Y-298195736D01*
X44857851Y-298427262D01*
X44699838Y-298585000D01*
X29425288Y-298585000D01*
X29293090Y-298379559D01*
X29116935Y-298259197D01*
X30393936Y-296982196D01*
X110867409Y-296982196D01*
X110952467Y-297237539D01*
X111521965Y-297445516D01*
X112127700Y-297419723D01*
X112567533Y-297237539D01*
X112652591Y-296982196D01*
X111760000Y-296089605D01*
X110867409Y-296982196D01*
X30393936Y-296982196D01*
X30631567Y-296744565D01*
X30664017Y-296696000D01*
X30877604Y-296376345D01*
X30964001Y-295941999D01*
X30964001Y-295671965D01*
X110224484Y-295671965D01*
X110250277Y-296277700D01*
X110432461Y-296717533D01*
X110687804Y-296802591D01*
X111580395Y-295910000D01*
X111939605Y-295910000D01*
X112832196Y-296802591D01*
X113087539Y-296717533D01*
X113295516Y-296148035D01*
X113269723Y-295542300D01*
X113087539Y-295102467D01*
X112832196Y-295017409D01*
X111939605Y-295910000D01*
X111580395Y-295910000D01*
X110687804Y-295017409D01*
X110432461Y-295102467D01*
X110224484Y-295671965D01*
X30964001Y-295671965D01*
X30964001Y-294837804D01*
X110867409Y-294837804D01*
X111760000Y-295730395D01*
X112652591Y-294837804D01*
X112567533Y-294582461D01*
X111998035Y-294374484D01*
X111392300Y-294400277D01*
X110952467Y-294582461D01*
X110867409Y-294837804D01*
X30964001Y-294837804D01*
X30964001Y-290798001D01*
X30877604Y-290363655D01*
X30631567Y-289995435D01*
X29115414Y-288479282D01*
X29280441Y-288373090D01*
X29425431Y-288160890D01*
X29476440Y-287909000D01*
X29476440Y-286131000D01*
X29432162Y-285895683D01*
X29293090Y-285679559D01*
X29080890Y-285534569D01*
X28829000Y-285483560D01*
X27051000Y-285483560D01*
X26815683Y-285527838D01*
X26599559Y-285666910D01*
X26454569Y-285879110D01*
X26403560Y-286131000D01*
X26110000Y-286131000D01*
X26110000Y-282241812D01*
X26415736Y-282241812D01*
X26647262Y-282802149D01*
X27075596Y-283231231D01*
X27635528Y-283463735D01*
X28241812Y-283464264D01*
X28802149Y-283232738D01*
X28960162Y-283075000D01*
X43180000Y-283075000D01*
X43614346Y-282988603D01*
X43982566Y-282742566D01*
X45801061Y-280924071D01*
X46021812Y-280924264D01*
X46582149Y-280692738D01*
X47011231Y-280264404D01*
X47243735Y-279704472D01*
X47244264Y-279098188D01*
X47012738Y-278537851D01*
X46584404Y-278108769D01*
X46024472Y-277876265D01*
X45418188Y-277875736D01*
X44857851Y-278107262D01*
X44428769Y-278535596D01*
X44196265Y-279095528D01*
X44196070Y-279318797D01*
X42709868Y-280805000D01*
X28960363Y-280805000D01*
X28804404Y-280648769D01*
X28244472Y-280416265D01*
X27638188Y-280415736D01*
X27077851Y-280647262D01*
X26648769Y-281075596D01*
X26416265Y-281635528D01*
X26415736Y-282241812D01*
X26110000Y-282241812D01*
X26110000Y-274605750D01*
X26416000Y-274605750D01*
X26416000Y-275335309D01*
X26512673Y-275568698D01*
X26691301Y-275747327D01*
X26924690Y-275844000D01*
X27654250Y-275844000D01*
X27813000Y-275685250D01*
X27813000Y-274447000D01*
X28067000Y-274447000D01*
X28067000Y-275685250D01*
X28225750Y-275844000D01*
X28955310Y-275844000D01*
X29188699Y-275747327D01*
X29367327Y-275568698D01*
X29464000Y-275335309D01*
X29464000Y-274605750D01*
X29305250Y-274447000D01*
X28067000Y-274447000D01*
X27813000Y-274447000D01*
X26574750Y-274447000D01*
X26416000Y-274605750D01*
X26110000Y-274605750D01*
X26110000Y-273304691D01*
X26416000Y-273304691D01*
X26416000Y-274034250D01*
X26574750Y-274193000D01*
X27813000Y-274193000D01*
X27813000Y-272954750D01*
X28067000Y-272954750D01*
X28067000Y-274193000D01*
X29305250Y-274193000D01*
X29464000Y-274034250D01*
X29464000Y-273304691D01*
X29367327Y-273071302D01*
X29188699Y-272892673D01*
X28955310Y-272796000D01*
X28225750Y-272796000D01*
X28067000Y-272954750D01*
X27813000Y-272954750D01*
X27654250Y-272796000D01*
X26924690Y-272796000D01*
X26691301Y-272892673D01*
X26512673Y-273071302D01*
X26416000Y-273304691D01*
X26110000Y-273304691D01*
X26110000Y-272081812D01*
X44195736Y-272081812D01*
X44427262Y-272642149D01*
X44855596Y-273071231D01*
X45415528Y-273303735D01*
X46021812Y-273304264D01*
X46582149Y-273072738D01*
X47011231Y-272644404D01*
X47243735Y-272084472D01*
X47244264Y-271478188D01*
X47012738Y-270917851D01*
X46584404Y-270488769D01*
X46024472Y-270256265D01*
X45418188Y-270255736D01*
X44857851Y-270487262D01*
X44428769Y-270915596D01*
X44196265Y-271475528D01*
X44195736Y-272081812D01*
X26110000Y-272081812D01*
X26110000Y-228377750D01*
X26416000Y-228377750D01*
X26416000Y-229107309D01*
X26512673Y-229340698D01*
X26691301Y-229519327D01*
X26924690Y-229616000D01*
X27654250Y-229616000D01*
X27813000Y-229457250D01*
X27813000Y-228219000D01*
X28067000Y-228219000D01*
X28067000Y-229457250D01*
X28225750Y-229616000D01*
X28955310Y-229616000D01*
X29188699Y-229519327D01*
X29367327Y-229340698D01*
X29464000Y-229107309D01*
X29464000Y-228377750D01*
X29305250Y-228219000D01*
X28067000Y-228219000D01*
X27813000Y-228219000D01*
X26574750Y-228219000D01*
X26416000Y-228377750D01*
X26110000Y-228377750D01*
X26110000Y-227076691D01*
X26416000Y-227076691D01*
X26416000Y-227806250D01*
X26574750Y-227965000D01*
X27813000Y-227965000D01*
X27813000Y-226726750D01*
X28067000Y-226726750D01*
X28067000Y-227965000D01*
X29305250Y-227965000D01*
X29464000Y-227806250D01*
X29464000Y-227076691D01*
X29367327Y-226843302D01*
X29188699Y-226664673D01*
X28955310Y-226568000D01*
X28225750Y-226568000D01*
X28067000Y-226726750D01*
X27813000Y-226726750D01*
X27654250Y-226568000D01*
X26924690Y-226568000D01*
X26691301Y-226664673D01*
X26512673Y-226843302D01*
X26416000Y-227076691D01*
X26110000Y-227076691D01*
X26110000Y-220147196D01*
X39112409Y-220147196D01*
X39197467Y-220402539D01*
X39766965Y-220610516D01*
X40372700Y-220584723D01*
X40812533Y-220402539D01*
X40897591Y-220147196D01*
X40005000Y-219254605D01*
X39112409Y-220147196D01*
X26110000Y-220147196D01*
X26110000Y-218836965D01*
X38469484Y-218836965D01*
X38495277Y-219442700D01*
X38677461Y-219882533D01*
X38932804Y-219967591D01*
X39825395Y-219075000D01*
X40184605Y-219075000D01*
X41077196Y-219967591D01*
X41332539Y-219882533D01*
X41540516Y-219313035D01*
X41514723Y-218707300D01*
X41332539Y-218267467D01*
X41077196Y-218182409D01*
X40184605Y-219075000D01*
X39825395Y-219075000D01*
X38932804Y-218182409D01*
X38677461Y-218267467D01*
X38469484Y-218836965D01*
X26110000Y-218836965D01*
X26110000Y-217831059D01*
X26164110Y-217868031D01*
X26416000Y-217919040D01*
X28448000Y-217919040D01*
X28683317Y-217874762D01*
X28899441Y-217735690D01*
X29044431Y-217523490D01*
X29095440Y-217271600D01*
X29095440Y-217243000D01*
X31877000Y-217243000D01*
X32196541Y-217179439D01*
X32467434Y-216998434D01*
X35213333Y-214252535D01*
X35453943Y-214153117D01*
X35717192Y-213890327D01*
X35859838Y-213546799D01*
X35860162Y-213174833D01*
X35718117Y-212831057D01*
X35455327Y-212567808D01*
X35111799Y-212425162D01*
X34739833Y-212424838D01*
X34396057Y-212566883D01*
X34132808Y-212829673D01*
X34032222Y-213071910D01*
X31531132Y-215573000D01*
X29095440Y-215573000D01*
X29095440Y-215544400D01*
X29051162Y-215309083D01*
X28912090Y-215092959D01*
X28699890Y-214947969D01*
X28605073Y-214928768D01*
X28782732Y-214770036D01*
X29036709Y-214242791D01*
X29039358Y-214227026D01*
X28918217Y-213995000D01*
X27559000Y-213995000D01*
X27559000Y-214015000D01*
X27305000Y-214015000D01*
X27305000Y-213995000D01*
X27285000Y-213995000D01*
X27285000Y-213741000D01*
X27305000Y-213741000D01*
X27305000Y-213721000D01*
X27559000Y-213721000D01*
X27559000Y-213741000D01*
X28918217Y-213741000D01*
X29039358Y-213508974D01*
X29036709Y-213493209D01*
X28782732Y-212965964D01*
X28366931Y-212594461D01*
X28676415Y-212387670D01*
X28826535Y-212163000D01*
X35410583Y-212163000D01*
X37833017Y-214585434D01*
X38103911Y-214766440D01*
X38423451Y-214830000D01*
X38701044Y-214830000D01*
X38712262Y-214857149D01*
X39119737Y-215265336D01*
X38713769Y-215670596D01*
X38481265Y-216230528D01*
X38480736Y-216836812D01*
X38712262Y-217397149D01*
X39140596Y-217826231D01*
X39167506Y-217837405D01*
X39112409Y-218002804D01*
X40005000Y-218895395D01*
X40897591Y-218002804D01*
X40842647Y-217837862D01*
X40867149Y-217827738D01*
X41296231Y-217399404D01*
X41528735Y-216839472D01*
X41529264Y-216233188D01*
X41297738Y-215672851D01*
X40890263Y-215264664D01*
X41296231Y-214859404D01*
X41528735Y-214299472D01*
X41529264Y-213693188D01*
X41517106Y-213663762D01*
X42856034Y-212324834D01*
X42879309Y-212290000D01*
X43037039Y-212053941D01*
X43100600Y-211734400D01*
X43100600Y-207632546D01*
X43705640Y-207027506D01*
X43792262Y-207237149D01*
X44220596Y-207666231D01*
X44250000Y-207678441D01*
X44250000Y-219364130D01*
X36839198Y-226774932D01*
X35865241Y-226774932D01*
X35545700Y-226838493D01*
X35360410Y-226962300D01*
X35274807Y-227019498D01*
X29452526Y-232841779D01*
X29232738Y-232309851D01*
X28804404Y-231880769D01*
X28244472Y-231648265D01*
X27638188Y-231647736D01*
X27077851Y-231879262D01*
X26648769Y-232307596D01*
X26416265Y-232867528D01*
X26415736Y-233473812D01*
X26647262Y-234034149D01*
X27075596Y-234463231D01*
X27635528Y-234695735D01*
X28241812Y-234696264D01*
X28521355Y-234580759D01*
X28521355Y-236843237D01*
X28244472Y-236728265D01*
X27638188Y-236727736D01*
X27077851Y-236959262D01*
X26648769Y-237387596D01*
X26416265Y-237947528D01*
X26415736Y-238553812D01*
X26647262Y-239114149D01*
X27075596Y-239543231D01*
X27635528Y-239775735D01*
X28241812Y-239776264D01*
X28521355Y-239660759D01*
X28521355Y-241923237D01*
X28244472Y-241808265D01*
X27638188Y-241807736D01*
X27077851Y-242039262D01*
X26648769Y-242467596D01*
X26416265Y-243027528D01*
X26415736Y-243633812D01*
X26647262Y-244194149D01*
X27075596Y-244623231D01*
X27635528Y-244855735D01*
X28241812Y-244856264D01*
X28521355Y-244740759D01*
X28521355Y-259318485D01*
X28584916Y-259638026D01*
X28765921Y-259908919D01*
X31823037Y-262966035D01*
X32093930Y-263147040D01*
X32413471Y-263210601D01*
X34296399Y-263210601D01*
X34311541Y-263207589D01*
X30153129Y-267366001D01*
X28828999Y-267366001D01*
X28452056Y-267440980D01*
X28132499Y-267654501D01*
X28070886Y-267716114D01*
X27638188Y-267715736D01*
X27077851Y-267947262D01*
X26648769Y-268375596D01*
X26416265Y-268935528D01*
X26415736Y-269541812D01*
X26647262Y-270102149D01*
X27075596Y-270531231D01*
X27635528Y-270763735D01*
X28241812Y-270764264D01*
X28802149Y-270532738D01*
X29231231Y-270104404D01*
X29463735Y-269544472D01*
X29463917Y-269336001D01*
X30561129Y-269336001D01*
X30938072Y-269261022D01*
X31257629Y-269047501D01*
X42529999Y-257775131D01*
X64851368Y-280096501D01*
X65170925Y-280310021D01*
X65547868Y-280385000D01*
X90269899Y-280385000D01*
X90575596Y-280691231D01*
X91135528Y-280923735D01*
X91741812Y-280924264D01*
X92302149Y-280692738D01*
X92731231Y-280264404D01*
X92963735Y-279704472D01*
X92964264Y-279098188D01*
X92732738Y-278537851D01*
X92304404Y-278108769D01*
X91744472Y-277876265D01*
X91138188Y-277875736D01*
X90577851Y-278107262D01*
X90269576Y-278415000D01*
X65955869Y-278415000D01*
X60393065Y-272852196D01*
X90547409Y-272852196D01*
X90632467Y-273107539D01*
X91201965Y-273315516D01*
X91807700Y-273289723D01*
X92247533Y-273107539D01*
X92332591Y-272852196D01*
X91440000Y-271959605D01*
X90547409Y-272852196D01*
X60393065Y-272852196D01*
X59082834Y-271541965D01*
X89904484Y-271541965D01*
X89930277Y-272147700D01*
X90112461Y-272587533D01*
X90367804Y-272672591D01*
X91260395Y-271780000D01*
X91619605Y-271780000D01*
X92512196Y-272672591D01*
X92767539Y-272587533D01*
X92975516Y-272018035D01*
X92949723Y-271412300D01*
X92767539Y-270972467D01*
X92512196Y-270887409D01*
X91619605Y-271780000D01*
X91260395Y-271780000D01*
X90367804Y-270887409D01*
X90112461Y-270972467D01*
X89904484Y-271541965D01*
X59082834Y-271541965D01*
X58248673Y-270707804D01*
X90547409Y-270707804D01*
X91440000Y-271600395D01*
X92332591Y-270707804D01*
X92247533Y-270452461D01*
X91678035Y-270244484D01*
X91072300Y-270270277D01*
X90632467Y-270452461D01*
X90547409Y-270707804D01*
X58248673Y-270707804D01*
X43514999Y-255974131D01*
X43514999Y-251761812D01*
X44195736Y-251761812D01*
X44427262Y-252322149D01*
X44855596Y-252751231D01*
X45415528Y-252983735D01*
X46021812Y-252984264D01*
X46582149Y-252752738D01*
X47011231Y-252324404D01*
X47243735Y-251764472D01*
X47244264Y-251158188D01*
X47012738Y-250597851D01*
X46584404Y-250168769D01*
X46024472Y-249936265D01*
X45418188Y-249935736D01*
X44857851Y-250167262D01*
X44428769Y-250595596D01*
X44196265Y-251155528D01*
X44195736Y-251761812D01*
X43514999Y-251761812D01*
X43514999Y-248435122D01*
X43764528Y-248538735D01*
X44370812Y-248539264D01*
X44931149Y-248307738D01*
X45339336Y-247900263D01*
X45744596Y-248306231D01*
X46304528Y-248538735D01*
X46910812Y-248539264D01*
X47471149Y-248307738D01*
X47879336Y-247900263D01*
X48284596Y-248306231D01*
X48844528Y-248538735D01*
X49450812Y-248539264D01*
X50011149Y-248307738D01*
X50232076Y-248087196D01*
X50796409Y-248087196D01*
X50881467Y-248342539D01*
X51450965Y-248550516D01*
X52056700Y-248524723D01*
X52496533Y-248342539D01*
X52581591Y-248087196D01*
X53336409Y-248087196D01*
X53421467Y-248342539D01*
X53990965Y-248550516D01*
X54596700Y-248524723D01*
X55036533Y-248342539D01*
X55121591Y-248087196D01*
X55876409Y-248087196D01*
X55961467Y-248342539D01*
X56530965Y-248550516D01*
X57136700Y-248524723D01*
X57576533Y-248342539D01*
X57661591Y-248087196D01*
X58416409Y-248087196D01*
X58501467Y-248342539D01*
X59070965Y-248550516D01*
X59676700Y-248524723D01*
X60116533Y-248342539D01*
X60201591Y-248087196D01*
X59309000Y-247194605D01*
X58416409Y-248087196D01*
X57661591Y-248087196D01*
X56769000Y-247194605D01*
X55876409Y-248087196D01*
X55121591Y-248087196D01*
X54229000Y-247194605D01*
X53336409Y-248087196D01*
X52581591Y-248087196D01*
X51689000Y-247194605D01*
X50796409Y-248087196D01*
X50232076Y-248087196D01*
X50440231Y-247879404D01*
X50451405Y-247852494D01*
X50616804Y-247907591D01*
X51509395Y-247015000D01*
X51868605Y-247015000D01*
X52761196Y-247907591D01*
X52959000Y-247841700D01*
X53156804Y-247907591D01*
X54049395Y-247015000D01*
X54408605Y-247015000D01*
X55301196Y-247907591D01*
X55499000Y-247841700D01*
X55696804Y-247907591D01*
X56589395Y-247015000D01*
X56948605Y-247015000D01*
X57841196Y-247907591D01*
X58039000Y-247841700D01*
X58236804Y-247907591D01*
X59129395Y-247015000D01*
X58236804Y-246122409D01*
X58039000Y-246188300D01*
X57841196Y-246122409D01*
X56948605Y-247015000D01*
X56589395Y-247015000D01*
X55696804Y-246122409D01*
X55499000Y-246188300D01*
X55301196Y-246122409D01*
X54408605Y-247015000D01*
X54049395Y-247015000D01*
X53156804Y-246122409D01*
X52959000Y-246188300D01*
X52761196Y-246122409D01*
X51868605Y-247015000D01*
X51509395Y-247015000D01*
X50616804Y-246122409D01*
X50451862Y-246177353D01*
X50441738Y-246152851D01*
X50232058Y-245942804D01*
X50796409Y-245942804D01*
X51689000Y-246835395D01*
X52581591Y-245942804D01*
X53336409Y-245942804D01*
X54229000Y-246835395D01*
X55121591Y-245942804D01*
X55876409Y-245942804D01*
X56769000Y-246835395D01*
X57661591Y-245942804D01*
X58416409Y-245942804D01*
X59309000Y-246835395D01*
X60201591Y-245942804D01*
X60116533Y-245687461D01*
X59547035Y-245479484D01*
X58941300Y-245505277D01*
X58501467Y-245687461D01*
X58416409Y-245942804D01*
X57661591Y-245942804D01*
X57576533Y-245687461D01*
X57007035Y-245479484D01*
X56401300Y-245505277D01*
X55961467Y-245687461D01*
X55876409Y-245942804D01*
X55121591Y-245942804D01*
X55036533Y-245687461D01*
X54467035Y-245479484D01*
X53861300Y-245505277D01*
X53421467Y-245687461D01*
X53336409Y-245942804D01*
X52581591Y-245942804D01*
X52496533Y-245687461D01*
X51927035Y-245479484D01*
X51321300Y-245505277D01*
X50881467Y-245687461D01*
X50796409Y-245942804D01*
X50232058Y-245942804D01*
X50013404Y-245723769D01*
X49453472Y-245491265D01*
X49384375Y-245491205D01*
X49896579Y-244979000D01*
X62633420Y-244979000D01*
X62121183Y-245491237D01*
X61547188Y-245490736D01*
X60986851Y-245722262D01*
X60557769Y-246150596D01*
X60546595Y-246177506D01*
X60381196Y-246122409D01*
X59488605Y-247015000D01*
X60381196Y-247907591D01*
X60546138Y-247852647D01*
X60556262Y-247877149D01*
X60984596Y-248306231D01*
X61544528Y-248538735D01*
X62150812Y-248539264D01*
X62711149Y-248307738D01*
X63140231Y-247879404D01*
X63372735Y-247319472D01*
X63373239Y-246742341D01*
X65136579Y-244979000D01*
X72297866Y-244979000D01*
X72035851Y-245087262D01*
X71606769Y-245515596D01*
X71374265Y-246075528D01*
X71373736Y-246681812D01*
X71605262Y-247242149D01*
X72033596Y-247671231D01*
X72593528Y-247903735D01*
X73199812Y-247904264D01*
X73760149Y-247672738D01*
X74168336Y-247265263D01*
X74573596Y-247671231D01*
X75133528Y-247903735D01*
X75739812Y-247904264D01*
X76300149Y-247672738D01*
X76708336Y-247265263D01*
X77113596Y-247671231D01*
X77673528Y-247903735D01*
X78279812Y-247904264D01*
X78840149Y-247672738D01*
X79061076Y-247452196D01*
X79625409Y-247452196D01*
X79710467Y-247707539D01*
X80279965Y-247915516D01*
X80885700Y-247889723D01*
X81325533Y-247707539D01*
X81410591Y-247452196D01*
X82165409Y-247452196D01*
X82250467Y-247707539D01*
X82819965Y-247915516D01*
X83425700Y-247889723D01*
X83865533Y-247707539D01*
X83950591Y-247452196D01*
X84705409Y-247452196D01*
X84790467Y-247707539D01*
X85359965Y-247915516D01*
X85965700Y-247889723D01*
X86405533Y-247707539D01*
X86490591Y-247452196D01*
X87245409Y-247452196D01*
X87330467Y-247707539D01*
X87899965Y-247915516D01*
X88505700Y-247889723D01*
X88945533Y-247707539D01*
X89030591Y-247452196D01*
X88138000Y-246559605D01*
X87245409Y-247452196D01*
X86490591Y-247452196D01*
X85598000Y-246559605D01*
X84705409Y-247452196D01*
X83950591Y-247452196D01*
X83058000Y-246559605D01*
X82165409Y-247452196D01*
X81410591Y-247452196D01*
X80518000Y-246559605D01*
X79625409Y-247452196D01*
X79061076Y-247452196D01*
X79269231Y-247244404D01*
X79280405Y-247217494D01*
X79445804Y-247272591D01*
X80338395Y-246380000D01*
X80697605Y-246380000D01*
X81590196Y-247272591D01*
X81788000Y-247206700D01*
X81985804Y-247272591D01*
X82878395Y-246380000D01*
X83237605Y-246380000D01*
X84130196Y-247272591D01*
X84328000Y-247206700D01*
X84525804Y-247272591D01*
X85418395Y-246380000D01*
X85777605Y-246380000D01*
X86670196Y-247272591D01*
X86868000Y-247206700D01*
X87065804Y-247272591D01*
X87958395Y-246380000D01*
X87065804Y-245487409D01*
X86868000Y-245553300D01*
X86670196Y-245487409D01*
X85777605Y-246380000D01*
X85418395Y-246380000D01*
X84525804Y-245487409D01*
X84328000Y-245553300D01*
X84130196Y-245487409D01*
X83237605Y-246380000D01*
X82878395Y-246380000D01*
X81985804Y-245487409D01*
X81788000Y-245553300D01*
X81590196Y-245487409D01*
X80697605Y-246380000D01*
X80338395Y-246380000D01*
X79445804Y-245487409D01*
X79280862Y-245542353D01*
X79270738Y-245517851D01*
X79061058Y-245307804D01*
X79625409Y-245307804D01*
X80518000Y-246200395D01*
X81410591Y-245307804D01*
X82165409Y-245307804D01*
X83058000Y-246200395D01*
X83950591Y-245307804D01*
X84705409Y-245307804D01*
X85598000Y-246200395D01*
X86490591Y-245307804D01*
X86405533Y-245052461D01*
X85836035Y-244844484D01*
X85230300Y-244870277D01*
X84790467Y-245052461D01*
X84705409Y-245307804D01*
X83950591Y-245307804D01*
X83865533Y-245052461D01*
X83296035Y-244844484D01*
X82690300Y-244870277D01*
X82250467Y-245052461D01*
X82165409Y-245307804D01*
X81410591Y-245307804D01*
X81325533Y-245052461D01*
X80756035Y-244844484D01*
X80150300Y-244870277D01*
X79710467Y-245052461D01*
X79625409Y-245307804D01*
X79061058Y-245307804D01*
X78842404Y-245088769D01*
X78282472Y-244856265D01*
X78213374Y-244856205D01*
X78344579Y-244725000D01*
X87771420Y-244725000D01*
X87910718Y-244864298D01*
X87770300Y-244870277D01*
X87330467Y-245052461D01*
X87245409Y-245307804D01*
X88138000Y-246200395D01*
X88152143Y-246186253D01*
X88331748Y-246365858D01*
X88317605Y-246380000D01*
X89210196Y-247272591D01*
X89375138Y-247217647D01*
X89385262Y-247242149D01*
X89813596Y-247671231D01*
X90373528Y-247903735D01*
X90555000Y-247903893D01*
X90555000Y-250190073D01*
X90148769Y-250595596D01*
X89916265Y-251155528D01*
X89915736Y-251761812D01*
X90147262Y-252322149D01*
X90575596Y-252751231D01*
X91135528Y-252983735D01*
X91741812Y-252984264D01*
X92302149Y-252752738D01*
X92731231Y-252324404D01*
X92963735Y-251764472D01*
X92964264Y-251158188D01*
X92732738Y-250597851D01*
X92325000Y-250189401D01*
X92325000Y-247142005D01*
X92325001Y-247142000D01*
X92257633Y-246803326D01*
X92257633Y-246803325D01*
X92192722Y-246706178D01*
X92201735Y-246684472D01*
X92202264Y-246078188D01*
X91970738Y-245517851D01*
X91542404Y-245088769D01*
X90982472Y-244856265D01*
X90405341Y-244855761D01*
X89023000Y-243473420D01*
X89023000Y-240029927D01*
X89183154Y-239870052D01*
X89185838Y-239884317D01*
X89324910Y-240100441D01*
X89537110Y-240245431D01*
X89789000Y-240296440D01*
X91567000Y-240296440D01*
X91802317Y-240252162D01*
X92018441Y-240113090D01*
X92163431Y-239900890D01*
X92214440Y-239649000D01*
X92214440Y-237871000D01*
X92170162Y-237635683D01*
X92031090Y-237419559D01*
X91818890Y-237274569D01*
X91567000Y-237223560D01*
X89789000Y-237223560D01*
X89625198Y-237254381D01*
X90405816Y-236473763D01*
X90979812Y-236474264D01*
X91540149Y-236242738D01*
X91969231Y-235814404D01*
X92093724Y-235514592D01*
X110925000Y-254345868D01*
X110925000Y-289293560D01*
X110871000Y-289293560D01*
X110635683Y-289337838D01*
X110419559Y-289476910D01*
X110274569Y-289689110D01*
X110223560Y-289941000D01*
X110223560Y-291719000D01*
X110267838Y-291954317D01*
X110406910Y-292170441D01*
X110619110Y-292315431D01*
X110871000Y-292366440D01*
X112649000Y-292366440D01*
X112884317Y-292322162D01*
X113100441Y-292183090D01*
X113245431Y-291970890D01*
X113296440Y-291719000D01*
X113296440Y-289941000D01*
X113252162Y-289705683D01*
X113113090Y-289489559D01*
X112900890Y-289344569D01*
X112649000Y-289293560D01*
X112595000Y-289293560D01*
X112595000Y-254000000D01*
X112557513Y-253811541D01*
X112531440Y-253680460D01*
X112350434Y-253409566D01*
X111919458Y-252978590D01*
X112127700Y-252969723D01*
X112567533Y-252787539D01*
X112652591Y-252532196D01*
X111760000Y-251639605D01*
X111745858Y-251653748D01*
X111566253Y-251474143D01*
X111580395Y-251460000D01*
X111939605Y-251460000D01*
X112832196Y-252352591D01*
X113087539Y-252267533D01*
X113295516Y-251698035D01*
X113269723Y-251092300D01*
X113087539Y-250652467D01*
X112832196Y-250567409D01*
X111939605Y-251460000D01*
X111580395Y-251460000D01*
X110687804Y-250567409D01*
X110432461Y-250652467D01*
X110224484Y-251221965D01*
X110227226Y-251286358D01*
X109328672Y-250387804D01*
X110867409Y-250387804D01*
X111760000Y-251280395D01*
X112652591Y-250387804D01*
X112567533Y-250132461D01*
X111998035Y-249924484D01*
X111392300Y-249950277D01*
X110952467Y-250132461D01*
X110867409Y-250387804D01*
X109328672Y-250387804D01*
X106393064Y-247452196D01*
X110867409Y-247452196D01*
X110952467Y-247707539D01*
X111521965Y-247915516D01*
X112127700Y-247889723D01*
X112567533Y-247707539D01*
X112652591Y-247452196D01*
X111760000Y-246559605D01*
X110867409Y-247452196D01*
X106393064Y-247452196D01*
X105082833Y-246141965D01*
X110224484Y-246141965D01*
X110250277Y-246747700D01*
X110432461Y-247187533D01*
X110687804Y-247272591D01*
X111580395Y-246380000D01*
X111939605Y-246380000D01*
X112832196Y-247272591D01*
X113087539Y-247187533D01*
X113295516Y-246618035D01*
X113269723Y-246012300D01*
X113087539Y-245572467D01*
X112832196Y-245487409D01*
X111939605Y-246380000D01*
X111580395Y-246380000D01*
X110687804Y-245487409D01*
X110432461Y-245572467D01*
X110224484Y-246141965D01*
X105082833Y-246141965D01*
X104248672Y-245307804D01*
X110867409Y-245307804D01*
X111760000Y-246200395D01*
X112652591Y-245307804D01*
X112567533Y-245052461D01*
X111998035Y-244844484D01*
X111392300Y-244870277D01*
X110952467Y-245052461D01*
X110867409Y-245307804D01*
X104248672Y-245307804D01*
X100542680Y-241601812D01*
X110235736Y-241601812D01*
X110467262Y-242162149D01*
X110895596Y-242591231D01*
X111455528Y-242823735D01*
X112061812Y-242824264D01*
X112622149Y-242592738D01*
X113051231Y-242164404D01*
X113283735Y-241604472D01*
X113284264Y-240998188D01*
X113052738Y-240437851D01*
X112624404Y-240008769D01*
X112064472Y-239776265D01*
X111458188Y-239775736D01*
X110897851Y-240007262D01*
X110468769Y-240435596D01*
X110236265Y-240995528D01*
X110235736Y-241601812D01*
X100542680Y-241601812D01*
X95462680Y-236521812D01*
X110235736Y-236521812D01*
X110467262Y-237082149D01*
X110895596Y-237511231D01*
X111455528Y-237743735D01*
X112061812Y-237744264D01*
X112622149Y-237512738D01*
X113051231Y-237084404D01*
X113283735Y-236524472D01*
X113284264Y-235918188D01*
X113052738Y-235357851D01*
X112624404Y-234928769D01*
X112064472Y-234696265D01*
X111458188Y-234695736D01*
X110897851Y-234927262D01*
X110468769Y-235355596D01*
X110236265Y-235915528D01*
X110235736Y-236521812D01*
X95462680Y-236521812D01*
X92802001Y-233861133D01*
X92802001Y-231441812D01*
X110235736Y-231441812D01*
X110467262Y-232002149D01*
X110895596Y-232431231D01*
X111455528Y-232663735D01*
X112061812Y-232664264D01*
X112622149Y-232432738D01*
X113051231Y-232004404D01*
X113283735Y-231444472D01*
X113284264Y-230838188D01*
X113052738Y-230277851D01*
X112624404Y-229848769D01*
X112064472Y-229616265D01*
X111458188Y-229615736D01*
X110897851Y-229847262D01*
X110468769Y-230275596D01*
X110236265Y-230835528D01*
X110235736Y-231441812D01*
X92802001Y-231441812D01*
X92802001Y-226361812D01*
X110235736Y-226361812D01*
X110467262Y-226922149D01*
X110895596Y-227351231D01*
X111455528Y-227583735D01*
X112061812Y-227584264D01*
X112622149Y-227352738D01*
X113051231Y-226924404D01*
X113283735Y-226364472D01*
X113284264Y-225758188D01*
X113052738Y-225197851D01*
X112624404Y-224768769D01*
X112064472Y-224536265D01*
X111458188Y-224535736D01*
X110897851Y-224767262D01*
X110468769Y-225195596D01*
X110236265Y-225755528D01*
X110235736Y-226361812D01*
X92802001Y-226361812D01*
X92802001Y-226120999D01*
X92738440Y-225801458D01*
X92557435Y-225530565D01*
X92377435Y-225350565D01*
X92148882Y-225197851D01*
X92106542Y-225169560D01*
X91787001Y-225105999D01*
X87224589Y-225105999D01*
X83400402Y-221281812D01*
X110235736Y-221281812D01*
X110467262Y-221842149D01*
X110895596Y-222271231D01*
X111455528Y-222503735D01*
X112061812Y-222504264D01*
X112622149Y-222272738D01*
X113051231Y-221844404D01*
X113283735Y-221284472D01*
X113284264Y-220678188D01*
X113052738Y-220117851D01*
X112624404Y-219688769D01*
X112064472Y-219456265D01*
X111458188Y-219455736D01*
X110897851Y-219687262D01*
X110468769Y-220115596D01*
X110236265Y-220675528D01*
X110235736Y-221281812D01*
X83400402Y-221281812D01*
X82265786Y-220147196D01*
X94992409Y-220147196D01*
X95077467Y-220402539D01*
X95646965Y-220610516D01*
X96252700Y-220584723D01*
X96692533Y-220402539D01*
X96777591Y-220147196D01*
X95885000Y-219254605D01*
X94992409Y-220147196D01*
X82265786Y-220147196D01*
X80955555Y-218836965D01*
X94349484Y-218836965D01*
X94375277Y-219442700D01*
X94557461Y-219882533D01*
X94812804Y-219967591D01*
X95705395Y-219075000D01*
X96064605Y-219075000D01*
X96957196Y-219967591D01*
X97212539Y-219882533D01*
X97420516Y-219313035D01*
X97394723Y-218707300D01*
X97212539Y-218267467D01*
X96957196Y-218182409D01*
X96064605Y-219075000D01*
X95705395Y-219075000D01*
X94812804Y-218182409D01*
X94557461Y-218267467D01*
X94349484Y-218836965D01*
X80955555Y-218836965D01*
X74408590Y-212290000D01*
X94581044Y-212290000D01*
X94592262Y-212317149D01*
X94999737Y-212725336D01*
X94593769Y-213130596D01*
X94361265Y-213690528D01*
X94360736Y-214296812D01*
X94592262Y-214857149D01*
X94999737Y-215265336D01*
X94593769Y-215670596D01*
X94361265Y-216230528D01*
X94360736Y-216836812D01*
X94592262Y-217397149D01*
X95020596Y-217826231D01*
X95047506Y-217837405D01*
X94992409Y-218002804D01*
X95885000Y-218895395D01*
X96777591Y-218002804D01*
X96722647Y-217837862D01*
X96747149Y-217827738D01*
X97176231Y-217399404D01*
X97408735Y-216839472D01*
X97409264Y-216233188D01*
X97396300Y-216201812D01*
X110235736Y-216201812D01*
X110467262Y-216762149D01*
X110895596Y-217191231D01*
X111455528Y-217423735D01*
X112061812Y-217424264D01*
X112622149Y-217192738D01*
X113051231Y-216764404D01*
X113283735Y-216204472D01*
X113284264Y-215598188D01*
X113052738Y-215037851D01*
X112624404Y-214608769D01*
X112064472Y-214376265D01*
X111458188Y-214375736D01*
X110897851Y-214607262D01*
X110468769Y-215035596D01*
X110236265Y-215595528D01*
X110235736Y-216201812D01*
X97396300Y-216201812D01*
X97177738Y-215672851D01*
X96770263Y-215264664D01*
X97176231Y-214859404D01*
X97408735Y-214299472D01*
X97409264Y-213693188D01*
X97177738Y-213132851D01*
X96770263Y-212724664D01*
X97176231Y-212319404D01*
X97408735Y-211759472D01*
X97409264Y-211153188D01*
X97396300Y-211121812D01*
X110235736Y-211121812D01*
X110467262Y-211682149D01*
X110895596Y-212111231D01*
X111455528Y-212343735D01*
X112061812Y-212344264D01*
X112622149Y-212112738D01*
X113051231Y-211684404D01*
X113283735Y-211124472D01*
X113284264Y-210518188D01*
X113052738Y-209957851D01*
X112624404Y-209528769D01*
X112064472Y-209296265D01*
X111458188Y-209295736D01*
X110897851Y-209527262D01*
X110468769Y-209955596D01*
X110236265Y-210515528D01*
X110235736Y-211121812D01*
X97396300Y-211121812D01*
X97177738Y-210592851D01*
X96770263Y-210184664D01*
X97176231Y-209779404D01*
X97408735Y-209219472D01*
X97409264Y-208613188D01*
X97177738Y-208052851D01*
X96770263Y-207644664D01*
X97176231Y-207239404D01*
X97408735Y-206679472D01*
X97409264Y-206073188D01*
X97177738Y-205512851D01*
X96749404Y-205083769D01*
X96189472Y-204851265D01*
X95885757Y-204851000D01*
X110223560Y-204851000D01*
X110223560Y-206629000D01*
X110267838Y-206864317D01*
X110406910Y-207080441D01*
X110619110Y-207225431D01*
X110871000Y-207276440D01*
X112649000Y-207276440D01*
X112884317Y-207232162D01*
X113100441Y-207093090D01*
X113245431Y-206880890D01*
X113296440Y-206629000D01*
X113296440Y-204851000D01*
X113252162Y-204615683D01*
X113113090Y-204399559D01*
X112900890Y-204254569D01*
X112649000Y-204203560D01*
X110871000Y-204203560D01*
X110635683Y-204247838D01*
X110419559Y-204386910D01*
X110274569Y-204599110D01*
X110223560Y-204851000D01*
X95885757Y-204851000D01*
X95583188Y-204850736D01*
X95553762Y-204862894D01*
X94200434Y-203509566D01*
X94112764Y-203450987D01*
X93929541Y-203328561D01*
X93610000Y-203265000D01*
X77064868Y-203265000D01*
X65788203Y-191988335D01*
X65933943Y-191928117D01*
X66197192Y-191665327D01*
X66339838Y-191321799D01*
X66340162Y-190949833D01*
X66198117Y-190606057D01*
X65935327Y-190342808D01*
X65693090Y-190242222D01*
X64244300Y-188793432D01*
X64362149Y-188744738D01*
X64770336Y-188337263D01*
X65175596Y-188743231D01*
X65735528Y-188975735D01*
X66341812Y-188976264D01*
X66902149Y-188744738D01*
X67310336Y-188337263D01*
X67715596Y-188743231D01*
X68275528Y-188975735D01*
X68881812Y-188976264D01*
X69442149Y-188744738D01*
X69871231Y-188316404D01*
X70103735Y-187756472D01*
X70104264Y-187150188D01*
X69872738Y-186589851D01*
X69444404Y-186160769D01*
X68884472Y-185928265D01*
X68278188Y-185927736D01*
X67717851Y-186159262D01*
X67309664Y-186566737D01*
X66904404Y-186160769D01*
X66875000Y-186148559D01*
X66875000Y-176595832D01*
X74760815Y-168710017D01*
X75001425Y-168610599D01*
X75264674Y-168347809D01*
X75407320Y-168004281D01*
X75407644Y-167632315D01*
X75265599Y-167288539D01*
X75002809Y-167025290D01*
X74659281Y-166882644D01*
X74287315Y-166882320D01*
X73943539Y-167024365D01*
X73680290Y-167287155D01*
X73579704Y-167529392D01*
X65449566Y-175659530D01*
X65268561Y-175930423D01*
X65205000Y-176249964D01*
X65205000Y-186148044D01*
X65177851Y-186159262D01*
X64769664Y-186566737D01*
X64364404Y-186160769D01*
X64335000Y-186148559D01*
X64335000Y-175544144D01*
X77004133Y-162875011D01*
X84991668Y-162875011D01*
X84609566Y-163257113D01*
X84428561Y-163528006D01*
X84365000Y-163847547D01*
X84365000Y-180572764D01*
X84265162Y-180813199D01*
X84264838Y-181185165D01*
X84406883Y-181528941D01*
X84669673Y-181792190D01*
X85013201Y-181934836D01*
X85385167Y-181935160D01*
X85649197Y-181826065D01*
X85863530Y-182040398D01*
X85852265Y-182067528D01*
X85851736Y-182673812D01*
X86083262Y-183234149D01*
X86490737Y-183642336D01*
X86084769Y-184047596D01*
X85852265Y-184607528D01*
X85851736Y-185213812D01*
X86083262Y-185774149D01*
X86490737Y-186182336D01*
X86084769Y-186587596D01*
X85852265Y-187147528D01*
X85851736Y-187753812D01*
X86083262Y-188314149D01*
X86490737Y-188722336D01*
X86084769Y-189127596D01*
X85852265Y-189687528D01*
X85851736Y-190293812D01*
X86083262Y-190854149D01*
X86490737Y-191262336D01*
X86084769Y-191667596D01*
X85852265Y-192227528D01*
X85851736Y-192833812D01*
X86083262Y-193394149D01*
X86490737Y-193802336D01*
X86084769Y-194207596D01*
X85852265Y-194767528D01*
X85851736Y-195373812D01*
X86083262Y-195934149D01*
X86490737Y-196342336D01*
X86084769Y-196747596D01*
X85852265Y-197307528D01*
X85851736Y-197913812D01*
X86083262Y-198474149D01*
X86511596Y-198903231D01*
X87071528Y-199135735D01*
X87677812Y-199136264D01*
X88238149Y-198904738D01*
X88667231Y-198476404D01*
X88899735Y-197916472D01*
X88900264Y-197310188D01*
X88888106Y-197280762D01*
X94811988Y-191356880D01*
X94811988Y-197011988D01*
X94875549Y-197331529D01*
X94963413Y-197463026D01*
X95056554Y-197602422D01*
X95656566Y-198202434D01*
X95927459Y-198383439D01*
X95999560Y-198397781D01*
X95999560Y-198501000D01*
X96043838Y-198736317D01*
X96182910Y-198952441D01*
X96395110Y-199097431D01*
X96647000Y-199148440D01*
X98425000Y-199148440D01*
X98660317Y-199104162D01*
X98876441Y-198965090D01*
X99021431Y-198752890D01*
X99072440Y-198501000D01*
X99072440Y-197463026D01*
X103955042Y-197463026D01*
X104127312Y-197878947D01*
X104521510Y-198310821D01*
X105050973Y-198558968D01*
X105283000Y-198438469D01*
X105283000Y-197231000D01*
X104076183Y-197231000D01*
X103955042Y-197463026D01*
X99072440Y-197463026D01*
X99072440Y-196723000D01*
X99028162Y-196487683D01*
X98889090Y-196271559D01*
X98676890Y-196126569D01*
X98643506Y-196119809D01*
X98827231Y-195936404D01*
X99059735Y-195376472D01*
X99060264Y-194770188D01*
X98828738Y-194209851D01*
X98421263Y-193801664D01*
X98827231Y-193396404D01*
X99059735Y-192836472D01*
X99060264Y-192230188D01*
X99048106Y-192200762D01*
X103469868Y-187779000D01*
X103898960Y-187779000D01*
X103898960Y-187807600D01*
X103943238Y-188042917D01*
X104082310Y-188259041D01*
X104294510Y-188404031D01*
X104338131Y-188412864D01*
X104320971Y-188424330D01*
X103996115Y-188910511D01*
X103882041Y-189484000D01*
X103996115Y-190057489D01*
X104320971Y-190543670D01*
X104635752Y-190754000D01*
X104320971Y-190964330D01*
X103996115Y-191450511D01*
X103882041Y-192024000D01*
X103996115Y-192597489D01*
X104320971Y-193083670D01*
X104635752Y-193294000D01*
X104320971Y-193504330D01*
X103996115Y-193990511D01*
X103882041Y-194564000D01*
X103996115Y-195137489D01*
X104320971Y-195623670D01*
X104644228Y-195839664D01*
X104521510Y-195897179D01*
X104127312Y-196329053D01*
X103955042Y-196744974D01*
X104076183Y-196977000D01*
X105283000Y-196977000D01*
X105283000Y-196957000D01*
X105537000Y-196957000D01*
X105537000Y-196977000D01*
X105557000Y-196977000D01*
X105557000Y-197231000D01*
X105537000Y-197231000D01*
X105537000Y-198438469D01*
X105769027Y-198558968D01*
X106298490Y-198310821D01*
X106680008Y-197892839D01*
X106860971Y-198163670D01*
X107347152Y-198488526D01*
X107920641Y-198602600D01*
X107979359Y-198602600D01*
X108552848Y-198488526D01*
X109039029Y-198163670D01*
X109363885Y-197677489D01*
X109477959Y-197104000D01*
X109363885Y-196530511D01*
X109039029Y-196044330D01*
X108715772Y-195828336D01*
X108838490Y-195770821D01*
X109232688Y-195338947D01*
X109404958Y-194923026D01*
X109283817Y-194691000D01*
X108077000Y-194691000D01*
X108077000Y-194711000D01*
X107823000Y-194711000D01*
X107823000Y-194691000D01*
X107803000Y-194691000D01*
X107803000Y-194437000D01*
X107823000Y-194437000D01*
X107823000Y-194417000D01*
X108077000Y-194417000D01*
X108077000Y-194437000D01*
X109283817Y-194437000D01*
X109404958Y-194204974D01*
X109232688Y-193789053D01*
X108838490Y-193357179D01*
X108715772Y-193299664D01*
X109039029Y-193083670D01*
X109363885Y-192597489D01*
X109477959Y-192024000D01*
X109363885Y-191450511D01*
X109039029Y-190964330D01*
X108724248Y-190754000D01*
X109039029Y-190543670D01*
X109363885Y-190057489D01*
X109477959Y-189484000D01*
X109363885Y-188910511D01*
X109039029Y-188424330D01*
X108724248Y-188214000D01*
X109039029Y-188003670D01*
X109363885Y-187517489D01*
X109477959Y-186944000D01*
X109363885Y-186370511D01*
X109039029Y-185884330D01*
X108552848Y-185559474D01*
X107979359Y-185445400D01*
X107920641Y-185445400D01*
X107680112Y-185493244D01*
X107276833Y-185089965D01*
X107005940Y-184908960D01*
X106686399Y-184845399D01*
X102736601Y-184845399D01*
X102417060Y-184908960D01*
X102146167Y-185089965D01*
X98968131Y-188268001D01*
X98847330Y-188268001D01*
X99059735Y-187756472D01*
X99060264Y-187150188D01*
X98828738Y-186589851D01*
X98421263Y-186181664D01*
X98827231Y-185776404D01*
X99059735Y-185216472D01*
X99060264Y-184610188D01*
X98828738Y-184049851D01*
X98421263Y-183641664D01*
X98827231Y-183236404D01*
X99059735Y-182676472D01*
X99060264Y-182070188D01*
X98828738Y-181509851D01*
X98421263Y-181101664D01*
X98827231Y-180696404D01*
X99059735Y-180136472D01*
X99060264Y-179530188D01*
X98828738Y-178969851D01*
X98421263Y-178561664D01*
X98827231Y-178156404D01*
X99059735Y-177596472D01*
X99060264Y-176990188D01*
X98828738Y-176429851D01*
X98400404Y-176000769D01*
X98373494Y-175989595D01*
X98428591Y-175824196D01*
X97536000Y-174931605D01*
X97521858Y-174945748D01*
X97342253Y-174766143D01*
X97356395Y-174752000D01*
X97715605Y-174752000D01*
X98608196Y-175644591D01*
X98863539Y-175559533D01*
X99027330Y-175111026D01*
X103701042Y-175111026D01*
X103873312Y-175526947D01*
X104267510Y-175958821D01*
X104796973Y-176206968D01*
X105029000Y-176086469D01*
X105029000Y-174879000D01*
X103822183Y-174879000D01*
X103701042Y-175111026D01*
X99027330Y-175111026D01*
X99071516Y-174990035D01*
X99045723Y-174384300D01*
X98863539Y-173944467D01*
X98608196Y-173859409D01*
X97715605Y-174752000D01*
X97356395Y-174752000D01*
X97342253Y-174737858D01*
X97521858Y-174558253D01*
X97536000Y-174572395D01*
X98428591Y-173679804D01*
X98373647Y-173514862D01*
X98398149Y-173504738D01*
X98827231Y-173076404D01*
X99059735Y-172516472D01*
X99060264Y-171910188D01*
X98828738Y-171349851D01*
X98421263Y-170941664D01*
X98827231Y-170536404D01*
X99059735Y-169976472D01*
X99060264Y-169370188D01*
X98828738Y-168809851D01*
X98421263Y-168401664D01*
X98827231Y-167996404D01*
X99059735Y-167436472D01*
X99060264Y-166830188D01*
X98828738Y-166269851D01*
X98421263Y-165861664D01*
X98827231Y-165456404D01*
X98914462Y-165246330D01*
X100206199Y-166538067D01*
X100206199Y-167427329D01*
X100269760Y-167746870D01*
X100436493Y-167996404D01*
X100450765Y-168017763D01*
X103874053Y-171441051D01*
X103742115Y-171638511D01*
X103628041Y-172212000D01*
X103742115Y-172785489D01*
X104066971Y-173271670D01*
X104390228Y-173487664D01*
X104267510Y-173545179D01*
X103873312Y-173977053D01*
X103701042Y-174392974D01*
X103822183Y-174625000D01*
X105029000Y-174625000D01*
X105029000Y-174605000D01*
X105283000Y-174605000D01*
X105283000Y-174625000D01*
X105303000Y-174625000D01*
X105303000Y-174879000D01*
X105283000Y-174879000D01*
X105283000Y-176086469D01*
X105515027Y-176206968D01*
X106044490Y-175958821D01*
X106426008Y-175540839D01*
X106606971Y-175811670D01*
X107093152Y-176136526D01*
X107666641Y-176250600D01*
X107725359Y-176250600D01*
X108298848Y-176136526D01*
X108785029Y-175811670D01*
X109109885Y-175325489D01*
X109223959Y-174752000D01*
X109109885Y-174178511D01*
X108785029Y-173692330D01*
X108461772Y-173476336D01*
X108584490Y-173418821D01*
X108978688Y-172986947D01*
X109150958Y-172571026D01*
X109029817Y-172339000D01*
X107823000Y-172339000D01*
X107823000Y-172359000D01*
X107569000Y-172359000D01*
X107569000Y-172339000D01*
X107549000Y-172339000D01*
X107549000Y-172085000D01*
X107569000Y-172085000D01*
X107569000Y-172065000D01*
X107823000Y-172065000D01*
X107823000Y-172085000D01*
X109029817Y-172085000D01*
X109150958Y-171852974D01*
X108978688Y-171437053D01*
X108584490Y-171005179D01*
X108461772Y-170947664D01*
X108785029Y-170731670D01*
X109109885Y-170245489D01*
X109223959Y-169672000D01*
X109109885Y-169098511D01*
X108785029Y-168612330D01*
X108470248Y-168402000D01*
X108785029Y-168191670D01*
X109109885Y-167705489D01*
X109223959Y-167132000D01*
X109109885Y-166558511D01*
X108785029Y-166072330D01*
X108470248Y-165862000D01*
X108785029Y-165651670D01*
X109109885Y-165165489D01*
X109223959Y-164592000D01*
X109109885Y-164018511D01*
X108785029Y-163532330D01*
X108298848Y-163207474D01*
X107725359Y-163093400D01*
X107666641Y-163093400D01*
X107093152Y-163207474D01*
X106627558Y-163518574D01*
X106622762Y-163493083D01*
X106483690Y-163276959D01*
X106271490Y-163131969D01*
X106019600Y-163080960D01*
X105941781Y-163080960D01*
X105927439Y-163008859D01*
X105836936Y-162873412D01*
X105746434Y-162737965D01*
X101825581Y-158817113D01*
X101731070Y-158753963D01*
X101554688Y-158636108D01*
X101235147Y-158572547D01*
X95251938Y-158572547D01*
X94932398Y-158636107D01*
X94661504Y-158817113D01*
X92656510Y-160822107D01*
X92475505Y-161093000D01*
X92411944Y-161412541D01*
X92411944Y-183775188D01*
X88900145Y-187286987D01*
X88900264Y-187150188D01*
X88888106Y-187120762D01*
X90125434Y-185883434D01*
X90306440Y-185612540D01*
X90370000Y-185293000D01*
X90370000Y-162426872D01*
X90395046Y-162300958D01*
X90395046Y-159276870D01*
X90331485Y-158957329D01*
X90150480Y-158686436D01*
X88328564Y-156864520D01*
X88057671Y-156683515D01*
X87738130Y-156619954D01*
X85009818Y-156619954D01*
X82245033Y-153855169D01*
X82884838Y-153855169D01*
X83026883Y-154198945D01*
X83289673Y-154462194D01*
X83633201Y-154604840D01*
X84005167Y-154605164D01*
X84348943Y-154463119D01*
X84612192Y-154200329D01*
X84712778Y-153958092D01*
X93339330Y-145331540D01*
X101354518Y-145331540D01*
X101777616Y-146355515D01*
X102560365Y-147139631D01*
X103583599Y-147564515D01*
X104691540Y-147565482D01*
X105715515Y-147142384D01*
X106499631Y-146359635D01*
X106924515Y-145336401D01*
X106925482Y-144228460D01*
X106502384Y-143204485D01*
X105719635Y-142420369D01*
X104696401Y-141995485D01*
X103588460Y-141994518D01*
X102564485Y-142417616D01*
X101780369Y-143200365D01*
X101355485Y-144223599D01*
X101354518Y-145331540D01*
X93339330Y-145331540D01*
X97110434Y-141560436D01*
X97291440Y-141289542D01*
X97355000Y-140970002D01*
X97355000Y-129298440D01*
X97409000Y-129298440D01*
X97644317Y-129254162D01*
X97860441Y-129115090D01*
X98005431Y-128902890D01*
X98019341Y-128834196D01*
X100707409Y-128834196D01*
X100792467Y-129089539D01*
X101361965Y-129297516D01*
X101967700Y-129271723D01*
X102407533Y-129089539D01*
X102492591Y-128834196D01*
X101600000Y-127941605D01*
X100707409Y-128834196D01*
X98019341Y-128834196D01*
X98056440Y-128651000D01*
X98056440Y-127523965D01*
X100064484Y-127523965D01*
X100090277Y-128129700D01*
X100272461Y-128569533D01*
X100527804Y-128654591D01*
X101420395Y-127762000D01*
X101779605Y-127762000D01*
X102672196Y-128654591D01*
X102927539Y-128569533D01*
X103135516Y-128000035D01*
X103109723Y-127394300D01*
X102927539Y-126954467D01*
X102672196Y-126869409D01*
X101779605Y-127762000D01*
X101420395Y-127762000D01*
X100527804Y-126869409D01*
X100272461Y-126954467D01*
X100064484Y-127523965D01*
X98056440Y-127523965D01*
X98056440Y-126873000D01*
X98021970Y-126689804D01*
X100707409Y-126689804D01*
X101600000Y-127582395D01*
X102492591Y-126689804D01*
X102407533Y-126434461D01*
X101838035Y-126226484D01*
X101232300Y-126252277D01*
X100792467Y-126434461D01*
X100707409Y-126689804D01*
X98021970Y-126689804D01*
X98012162Y-126637683D01*
X97873090Y-126421559D01*
X97660890Y-126276569D01*
X97409000Y-126225560D01*
X95631000Y-126225560D01*
X95395683Y-126269838D01*
X95179559Y-126408910D01*
X95034569Y-126621110D01*
X94983560Y-126873000D01*
X94983560Y-128651000D01*
X95027838Y-128886317D01*
X95166910Y-129102441D01*
X95379110Y-129247431D01*
X95631000Y-129298440D01*
X95685000Y-129298440D01*
X95685000Y-140624134D01*
X83531667Y-152777467D01*
X83291057Y-152876885D01*
X83027808Y-153139675D01*
X82885162Y-153483203D01*
X82884838Y-153855169D01*
X82245033Y-153855169D01*
X78940000Y-150550136D01*
X78940000Y-129298440D01*
X78994000Y-129298440D01*
X79229317Y-129254162D01*
X79445441Y-129115090D01*
X79590431Y-128902890D01*
X79641440Y-128651000D01*
X79641440Y-126873000D01*
X83299560Y-126873000D01*
X83299560Y-128651000D01*
X83343838Y-128886317D01*
X83482910Y-129102441D01*
X83695110Y-129247431D01*
X83947000Y-129298440D01*
X85725000Y-129298440D01*
X85960317Y-129254162D01*
X86176441Y-129115090D01*
X86321431Y-128902890D01*
X86335341Y-128834196D01*
X89023409Y-128834196D01*
X89108467Y-129089539D01*
X89677965Y-129297516D01*
X90283700Y-129271723D01*
X90723533Y-129089539D01*
X90808591Y-128834196D01*
X89916000Y-127941605D01*
X89023409Y-128834196D01*
X86335341Y-128834196D01*
X86372440Y-128651000D01*
X86372440Y-127523965D01*
X88380484Y-127523965D01*
X88406277Y-128129700D01*
X88588461Y-128569533D01*
X88843804Y-128654591D01*
X89736395Y-127762000D01*
X90095605Y-127762000D01*
X90988196Y-128654591D01*
X91243539Y-128569533D01*
X91451516Y-128000035D01*
X91425723Y-127394300D01*
X91243539Y-126954467D01*
X90988196Y-126869409D01*
X90095605Y-127762000D01*
X89736395Y-127762000D01*
X88843804Y-126869409D01*
X88588461Y-126954467D01*
X88380484Y-127523965D01*
X86372440Y-127523965D01*
X86372440Y-126873000D01*
X86337970Y-126689804D01*
X89023409Y-126689804D01*
X89916000Y-127582395D01*
X90808591Y-126689804D01*
X90723533Y-126434461D01*
X90154035Y-126226484D01*
X89548300Y-126252277D01*
X89108467Y-126434461D01*
X89023409Y-126689804D01*
X86337970Y-126689804D01*
X86328162Y-126637683D01*
X86189090Y-126421559D01*
X85976890Y-126276569D01*
X85725000Y-126225560D01*
X83947000Y-126225560D01*
X83711683Y-126269838D01*
X83495559Y-126408910D01*
X83350569Y-126621110D01*
X83299560Y-126873000D01*
X79641440Y-126873000D01*
X79597162Y-126637683D01*
X79458090Y-126421559D01*
X79245890Y-126276569D01*
X78994000Y-126225560D01*
X77216000Y-126225560D01*
X76980683Y-126269838D01*
X76764559Y-126408910D01*
X76619569Y-126621110D01*
X76568560Y-126873000D01*
X76568560Y-128651000D01*
X76612838Y-128886317D01*
X76751910Y-129102441D01*
X76964110Y-129247431D01*
X77216000Y-129298440D01*
X77270000Y-129298440D01*
X77270000Y-149728679D01*
X73860000Y-146318679D01*
X73860000Y-129065956D01*
X73887149Y-129054738D01*
X74316231Y-128626404D01*
X74548735Y-128066472D01*
X74549264Y-127460188D01*
X74317738Y-126899851D01*
X73889404Y-126470769D01*
X73329472Y-126238265D01*
X72723188Y-126237736D01*
X72162851Y-126469262D01*
X71733769Y-126897596D01*
X71501265Y-127457528D01*
X71500736Y-128063812D01*
X71732262Y-128624149D01*
X72160596Y-129053231D01*
X72190000Y-129065441D01*
X72190000Y-145497222D01*
X55863690Y-129170912D01*
X55950441Y-129115090D01*
X56095431Y-128902890D01*
X56146440Y-128651000D01*
X56146440Y-126873000D01*
X56102162Y-126637683D01*
X55963090Y-126421559D01*
X55750890Y-126276569D01*
X55499000Y-126225560D01*
X53721000Y-126225560D01*
X53485683Y-126269838D01*
X53269559Y-126408910D01*
X53124569Y-126621110D01*
X53073560Y-126873000D01*
X53073560Y-128651000D01*
X53117838Y-128886317D01*
X53256910Y-129102441D01*
X53469110Y-129247431D01*
X53721000Y-129298440D01*
X53814852Y-129298440D01*
X53838561Y-129417631D01*
X54019566Y-129688524D01*
X82751029Y-158419987D01*
X81368855Y-158419987D01*
X51042470Y-128093602D01*
X51053735Y-128066472D01*
X51054264Y-127460188D01*
X50822738Y-126899851D01*
X50394404Y-126470769D01*
X49834472Y-126238265D01*
X49228188Y-126237736D01*
X48667851Y-126469262D01*
X48238769Y-126897596D01*
X48006265Y-127457528D01*
X48005736Y-128063812D01*
X48237262Y-128624149D01*
X48665596Y-129053231D01*
X49225528Y-129285735D01*
X49831812Y-129286264D01*
X49861238Y-129274106D01*
X79607130Y-159019998D01*
X71827866Y-159019998D01*
X41642064Y-128834196D01*
X42287409Y-128834196D01*
X42372467Y-129089539D01*
X42941965Y-129297516D01*
X43547700Y-129271723D01*
X43987533Y-129089539D01*
X44072591Y-128834196D01*
X43180000Y-127941605D01*
X42287409Y-128834196D01*
X41642064Y-128834196D01*
X40331833Y-127523965D01*
X41644484Y-127523965D01*
X41670277Y-128129700D01*
X41852461Y-128569533D01*
X42107804Y-128654591D01*
X43000395Y-127762000D01*
X43359605Y-127762000D01*
X44252196Y-128654591D01*
X44507539Y-128569533D01*
X44715516Y-128000035D01*
X44689723Y-127394300D01*
X44507539Y-126954467D01*
X44252196Y-126869409D01*
X43359605Y-127762000D01*
X43000395Y-127762000D01*
X42107804Y-126869409D01*
X41852461Y-126954467D01*
X41644484Y-127523965D01*
X40331833Y-127523965D01*
X39979434Y-127171566D01*
X39708541Y-126990561D01*
X39636440Y-126976219D01*
X39636440Y-126873000D01*
X39601970Y-126689804D01*
X42287409Y-126689804D01*
X43180000Y-127582395D01*
X44072591Y-126689804D01*
X43987533Y-126434461D01*
X43418035Y-126226484D01*
X42812300Y-126252277D01*
X42372467Y-126434461D01*
X42287409Y-126689804D01*
X39601970Y-126689804D01*
X39592162Y-126637683D01*
X39453090Y-126421559D01*
X39240890Y-126276569D01*
X38989000Y-126225560D01*
X37211000Y-126225560D01*
X36975683Y-126269838D01*
X36759559Y-126408910D01*
X36614569Y-126621110D01*
X36563560Y-126873000D01*
X36563560Y-128651000D01*
X36607838Y-128886317D01*
X36746910Y-129102441D01*
X36959110Y-129247431D01*
X37211000Y-129298440D01*
X38989000Y-129298440D01*
X39224317Y-129254162D01*
X39440441Y-129115090D01*
X39489468Y-129043336D01*
X70851132Y-160405000D01*
X36322005Y-160405000D01*
X36322000Y-160404999D01*
X35996064Y-160469833D01*
X35983325Y-160472367D01*
X35696210Y-160664210D01*
X35696208Y-160664213D01*
X33292183Y-163068237D01*
X32718188Y-163067736D01*
X32157851Y-163299262D01*
X31728769Y-163727596D01*
X31496265Y-164287528D01*
X31495761Y-164864659D01*
X30355198Y-166005222D01*
X30163355Y-166292337D01*
X30162427Y-166297001D01*
X30095987Y-166631012D01*
X30095988Y-166631017D01*
X30095988Y-204335983D01*
X30095987Y-204335988D01*
X30148326Y-204599110D01*
X30163355Y-204674663D01*
X30173893Y-204690434D01*
X30355198Y-204961778D01*
X33346420Y-207953000D01*
X28826535Y-207953000D01*
X28676415Y-207728330D01*
X28190234Y-207403474D01*
X27616745Y-207289400D01*
X27247255Y-207289400D01*
X26673766Y-207403474D01*
X26187585Y-207728330D01*
X26110000Y-207844444D01*
X26110000Y-145331540D01*
X32774518Y-145331540D01*
X33197616Y-146355515D01*
X33980365Y-147139631D01*
X35003599Y-147564515D01*
X36111540Y-147565482D01*
X37135515Y-147142384D01*
X37919631Y-146359635D01*
X38344515Y-145336401D01*
X38345482Y-144228460D01*
X37922384Y-143204485D01*
X37139635Y-142420369D01*
X36116401Y-141995485D01*
X35008460Y-141994518D01*
X33984485Y-142417616D01*
X33200369Y-143200365D01*
X32775485Y-144223599D01*
X32774518Y-145331540D01*
X26110000Y-145331540D01*
X26110000Y-135324931D01*
X26842190Y-131643963D01*
X28887676Y-128582676D01*
X31948963Y-126537190D01*
X35629926Y-125805000D01*
X104070069Y-125805000D01*
X107751037Y-126537190D01*
X107751037Y-126537190D01*
G37*
X107751037Y-126537190D02*
X110812324Y-128582676D01*
X112857810Y-131643963D01*
X113590000Y-135324926D01*
X113590000Y-304730074D01*
X112857810Y-308411037D01*
X110812324Y-311472324D01*
X107751037Y-313517810D01*
X104070069Y-314250000D01*
X35629926Y-314250000D01*
X31948963Y-313517810D01*
X28887676Y-311472324D01*
X26842190Y-308411037D01*
X26233619Y-305351540D01*
X32774518Y-305351540D01*
X33197616Y-306375515D01*
X33980365Y-307159631D01*
X35003599Y-307584515D01*
X36111540Y-307585482D01*
X37135515Y-307162384D01*
X37919631Y-306379635D01*
X38344515Y-305356401D01*
X38344519Y-305351540D01*
X101354518Y-305351540D01*
X101777616Y-306375515D01*
X102560365Y-307159631D01*
X103583599Y-307584515D01*
X104691540Y-307585482D01*
X105715515Y-307162384D01*
X106499631Y-306379635D01*
X106924515Y-305356401D01*
X106925482Y-304248460D01*
X106502384Y-303224485D01*
X105719635Y-302440369D01*
X104696401Y-302015485D01*
X103588460Y-302014518D01*
X102564485Y-302437616D01*
X101780369Y-303220365D01*
X101355485Y-304243599D01*
X101354518Y-305351540D01*
X38344519Y-305351540D01*
X38345482Y-304248460D01*
X37922384Y-303224485D01*
X37139635Y-302440369D01*
X36116401Y-302015485D01*
X35008460Y-302014518D01*
X33984485Y-302437616D01*
X33200369Y-303220365D01*
X32775485Y-304243599D01*
X32774518Y-305351540D01*
X26233619Y-305351540D01*
X26110000Y-304730069D01*
X26110000Y-286131000D01*
X26403560Y-286131000D01*
X26403560Y-287909000D01*
X26447838Y-288144317D01*
X26586910Y-288360441D01*
X26799110Y-288505431D01*
X26805000Y-288506624D01*
X26805000Y-288909000D01*
X26891397Y-289343346D01*
X26980642Y-289476910D01*
X27137434Y-289711566D01*
X28694001Y-291268133D01*
X28694001Y-293302926D01*
X28244472Y-293116265D01*
X27638188Y-293115736D01*
X27077851Y-293347262D01*
X26648769Y-293775596D01*
X26416265Y-294335528D01*
X26415736Y-294941812D01*
X26647262Y-295502149D01*
X27075596Y-295931231D01*
X27635528Y-296163735D01*
X28001813Y-296164055D01*
X27137434Y-297028434D01*
X26891397Y-297396654D01*
X26805000Y-297831000D01*
X26805000Y-298234712D01*
X26599559Y-298366910D01*
X26454569Y-298579110D01*
X26403560Y-298831000D01*
X26403560Y-300609000D01*
X26447838Y-300844317D01*
X26586910Y-301060441D01*
X26799110Y-301205431D01*
X27051000Y-301256440D01*
X28829000Y-301256440D01*
X29064317Y-301212162D01*
X29280441Y-301073090D01*
X29425431Y-300860890D01*
X29426624Y-300855000D01*
X44699637Y-300855000D01*
X44855596Y-301011231D01*
X45415528Y-301243735D01*
X46021812Y-301244264D01*
X46582149Y-301012738D01*
X46803076Y-300792196D01*
X90547409Y-300792196D01*
X90632467Y-301047539D01*
X91201965Y-301255516D01*
X91807700Y-301229723D01*
X92247533Y-301047539D01*
X92332591Y-300792196D01*
X91440000Y-299899605D01*
X90547409Y-300792196D01*
X46803076Y-300792196D01*
X47011231Y-300584404D01*
X47243735Y-300024472D01*
X47244208Y-299481965D01*
X89904484Y-299481965D01*
X89930277Y-300087700D01*
X90112461Y-300527533D01*
X90367804Y-300612591D01*
X91260395Y-299720000D01*
X91619605Y-299720000D01*
X92512196Y-300612591D01*
X92767539Y-300527533D01*
X92975516Y-299958035D01*
X92949723Y-299352300D01*
X92767539Y-298912467D01*
X92512196Y-298827409D01*
X91619605Y-299720000D01*
X91260395Y-299720000D01*
X90367804Y-298827409D01*
X90112461Y-298912467D01*
X89904484Y-299481965D01*
X47244208Y-299481965D01*
X47244264Y-299418188D01*
X47012738Y-298857851D01*
X46803058Y-298647804D01*
X90547409Y-298647804D01*
X91440000Y-299540395D01*
X92332591Y-298647804D01*
X92247533Y-298392461D01*
X91678035Y-298184484D01*
X91072300Y-298210277D01*
X90632467Y-298392461D01*
X90547409Y-298647804D01*
X46803058Y-298647804D01*
X46584404Y-298428769D01*
X46024472Y-298196265D01*
X45418188Y-298195736D01*
X44857851Y-298427262D01*
X44699838Y-298585000D01*
X29425288Y-298585000D01*
X29293090Y-298379559D01*
X29116935Y-298259197D01*
X30393936Y-296982196D01*
X110867409Y-296982196D01*
X110952467Y-297237539D01*
X111521965Y-297445516D01*
X112127700Y-297419723D01*
X112567533Y-297237539D01*
X112652591Y-296982196D01*
X111760000Y-296089605D01*
X110867409Y-296982196D01*
X30393936Y-296982196D01*
X30631567Y-296744565D01*
X30664017Y-296696000D01*
X30877604Y-296376345D01*
X30964001Y-295941999D01*
X30964001Y-295671965D01*
X110224484Y-295671965D01*
X110250277Y-296277700D01*
X110432461Y-296717533D01*
X110687804Y-296802591D01*
X111580395Y-295910000D01*
X111939605Y-295910000D01*
X112832196Y-296802591D01*
X113087539Y-296717533D01*
X113295516Y-296148035D01*
X113269723Y-295542300D01*
X113087539Y-295102467D01*
X112832196Y-295017409D01*
X111939605Y-295910000D01*
X111580395Y-295910000D01*
X110687804Y-295017409D01*
X110432461Y-295102467D01*
X110224484Y-295671965D01*
X30964001Y-295671965D01*
X30964001Y-294837804D01*
X110867409Y-294837804D01*
X111760000Y-295730395D01*
X112652591Y-294837804D01*
X112567533Y-294582461D01*
X111998035Y-294374484D01*
X111392300Y-294400277D01*
X110952467Y-294582461D01*
X110867409Y-294837804D01*
X30964001Y-294837804D01*
X30964001Y-290798001D01*
X30877604Y-290363655D01*
X30631567Y-289995435D01*
X29115414Y-288479282D01*
X29280441Y-288373090D01*
X29425431Y-288160890D01*
X29476440Y-287909000D01*
X29476440Y-286131000D01*
X29432162Y-285895683D01*
X29293090Y-285679559D01*
X29080890Y-285534569D01*
X28829000Y-285483560D01*
X27051000Y-285483560D01*
X26815683Y-285527838D01*
X26599559Y-285666910D01*
X26454569Y-285879110D01*
X26403560Y-286131000D01*
X26110000Y-286131000D01*
X26110000Y-282241812D01*
X26415736Y-282241812D01*
X26647262Y-282802149D01*
X27075596Y-283231231D01*
X27635528Y-283463735D01*
X28241812Y-283464264D01*
X28802149Y-283232738D01*
X28960162Y-283075000D01*
X43180000Y-283075000D01*
X43614346Y-282988603D01*
X43982566Y-282742566D01*
X45801061Y-280924071D01*
X46021812Y-280924264D01*
X46582149Y-280692738D01*
X47011231Y-280264404D01*
X47243735Y-279704472D01*
X47244264Y-279098188D01*
X47012738Y-278537851D01*
X46584404Y-278108769D01*
X46024472Y-277876265D01*
X45418188Y-277875736D01*
X44857851Y-278107262D01*
X44428769Y-278535596D01*
X44196265Y-279095528D01*
X44196070Y-279318797D01*
X42709868Y-280805000D01*
X28960363Y-280805000D01*
X28804404Y-280648769D01*
X28244472Y-280416265D01*
X27638188Y-280415736D01*
X27077851Y-280647262D01*
X26648769Y-281075596D01*
X26416265Y-281635528D01*
X26415736Y-282241812D01*
X26110000Y-282241812D01*
X26110000Y-274605750D01*
X26416000Y-274605750D01*
X26416000Y-275335309D01*
X26512673Y-275568698D01*
X26691301Y-275747327D01*
X26924690Y-275844000D01*
X27654250Y-275844000D01*
X27813000Y-275685250D01*
X27813000Y-274447000D01*
X28067000Y-274447000D01*
X28067000Y-275685250D01*
X28225750Y-275844000D01*
X28955310Y-275844000D01*
X29188699Y-275747327D01*
X29367327Y-275568698D01*
X29464000Y-275335309D01*
X29464000Y-274605750D01*
X29305250Y-274447000D01*
X28067000Y-274447000D01*
X27813000Y-274447000D01*
X26574750Y-274447000D01*
X26416000Y-274605750D01*
X26110000Y-274605750D01*
X26110000Y-273304691D01*
X26416000Y-273304691D01*
X26416000Y-274034250D01*
X26574750Y-274193000D01*
X27813000Y-274193000D01*
X27813000Y-272954750D01*
X28067000Y-272954750D01*
X28067000Y-274193000D01*
X29305250Y-274193000D01*
X29464000Y-274034250D01*
X29464000Y-273304691D01*
X29367327Y-273071302D01*
X29188699Y-272892673D01*
X28955310Y-272796000D01*
X28225750Y-272796000D01*
X28067000Y-272954750D01*
X27813000Y-272954750D01*
X27654250Y-272796000D01*
X26924690Y-272796000D01*
X26691301Y-272892673D01*
X26512673Y-273071302D01*
X26416000Y-273304691D01*
X26110000Y-273304691D01*
X26110000Y-272081812D01*
X44195736Y-272081812D01*
X44427262Y-272642149D01*
X44855596Y-273071231D01*
X45415528Y-273303735D01*
X46021812Y-273304264D01*
X46582149Y-273072738D01*
X47011231Y-272644404D01*
X47243735Y-272084472D01*
X47244264Y-271478188D01*
X47012738Y-270917851D01*
X46584404Y-270488769D01*
X46024472Y-270256265D01*
X45418188Y-270255736D01*
X44857851Y-270487262D01*
X44428769Y-270915596D01*
X44196265Y-271475528D01*
X44195736Y-272081812D01*
X26110000Y-272081812D01*
X26110000Y-228377750D01*
X26416000Y-228377750D01*
X26416000Y-229107309D01*
X26512673Y-229340698D01*
X26691301Y-229519327D01*
X26924690Y-229616000D01*
X27654250Y-229616000D01*
X27813000Y-229457250D01*
X27813000Y-228219000D01*
X28067000Y-228219000D01*
X28067000Y-229457250D01*
X28225750Y-229616000D01*
X28955310Y-229616000D01*
X29188699Y-229519327D01*
X29367327Y-229340698D01*
X29464000Y-229107309D01*
X29464000Y-228377750D01*
X29305250Y-228219000D01*
X28067000Y-228219000D01*
X27813000Y-228219000D01*
X26574750Y-228219000D01*
X26416000Y-228377750D01*
X26110000Y-228377750D01*
X26110000Y-227076691D01*
X26416000Y-227076691D01*
X26416000Y-227806250D01*
X26574750Y-227965000D01*
X27813000Y-227965000D01*
X27813000Y-226726750D01*
X28067000Y-226726750D01*
X28067000Y-227965000D01*
X29305250Y-227965000D01*
X29464000Y-227806250D01*
X29464000Y-227076691D01*
X29367327Y-226843302D01*
X29188699Y-226664673D01*
X28955310Y-226568000D01*
X28225750Y-226568000D01*
X28067000Y-226726750D01*
X27813000Y-226726750D01*
X27654250Y-226568000D01*
X26924690Y-226568000D01*
X26691301Y-226664673D01*
X26512673Y-226843302D01*
X26416000Y-227076691D01*
X26110000Y-227076691D01*
X26110000Y-220147196D01*
X39112409Y-220147196D01*
X39197467Y-220402539D01*
X39766965Y-220610516D01*
X40372700Y-220584723D01*
X40812533Y-220402539D01*
X40897591Y-220147196D01*
X40005000Y-219254605D01*
X39112409Y-220147196D01*
X26110000Y-220147196D01*
X26110000Y-218836965D01*
X38469484Y-218836965D01*
X38495277Y-219442700D01*
X38677461Y-219882533D01*
X38932804Y-219967591D01*
X39825395Y-219075000D01*
X40184605Y-219075000D01*
X41077196Y-219967591D01*
X41332539Y-219882533D01*
X41540516Y-219313035D01*
X41514723Y-218707300D01*
X41332539Y-218267467D01*
X41077196Y-218182409D01*
X40184605Y-219075000D01*
X39825395Y-219075000D01*
X38932804Y-218182409D01*
X38677461Y-218267467D01*
X38469484Y-218836965D01*
X26110000Y-218836965D01*
X26110000Y-217831059D01*
X26164110Y-217868031D01*
X26416000Y-217919040D01*
X28448000Y-217919040D01*
X28683317Y-217874762D01*
X28899441Y-217735690D01*
X29044431Y-217523490D01*
X29095440Y-217271600D01*
X29095440Y-217243000D01*
X31877000Y-217243000D01*
X32196541Y-217179439D01*
X32467434Y-216998434D01*
X35213333Y-214252535D01*
X35453943Y-214153117D01*
X35717192Y-213890327D01*
X35859838Y-213546799D01*
X35860162Y-213174833D01*
X35718117Y-212831057D01*
X35455327Y-212567808D01*
X35111799Y-212425162D01*
X34739833Y-212424838D01*
X34396057Y-212566883D01*
X34132808Y-212829673D01*
X34032222Y-213071910D01*
X31531132Y-215573000D01*
X29095440Y-215573000D01*
X29095440Y-215544400D01*
X29051162Y-215309083D01*
X28912090Y-215092959D01*
X28699890Y-214947969D01*
X28605073Y-214928768D01*
X28782732Y-214770036D01*
X29036709Y-214242791D01*
X29039358Y-214227026D01*
X28918217Y-213995000D01*
X27559000Y-213995000D01*
X27559000Y-214015000D01*
X27305000Y-214015000D01*
X27305000Y-213995000D01*
X27285000Y-213995000D01*
X27285000Y-213741000D01*
X27305000Y-213741000D01*
X27305000Y-213721000D01*
X27559000Y-213721000D01*
X27559000Y-213741000D01*
X28918217Y-213741000D01*
X29039358Y-213508974D01*
X29036709Y-213493209D01*
X28782732Y-212965964D01*
X28366931Y-212594461D01*
X28676415Y-212387670D01*
X28826535Y-212163000D01*
X35410583Y-212163000D01*
X37833017Y-214585434D01*
X38103911Y-214766440D01*
X38423451Y-214830000D01*
X38701044Y-214830000D01*
X38712262Y-214857149D01*
X39119737Y-215265336D01*
X38713769Y-215670596D01*
X38481265Y-216230528D01*
X38480736Y-216836812D01*
X38712262Y-217397149D01*
X39140596Y-217826231D01*
X39167506Y-217837405D01*
X39112409Y-218002804D01*
X40005000Y-218895395D01*
X40897591Y-218002804D01*
X40842647Y-217837862D01*
X40867149Y-217827738D01*
X41296231Y-217399404D01*
X41528735Y-216839472D01*
X41529264Y-216233188D01*
X41297738Y-215672851D01*
X40890263Y-215264664D01*
X41296231Y-214859404D01*
X41528735Y-214299472D01*
X41529264Y-213693188D01*
X41517106Y-213663762D01*
X42856034Y-212324834D01*
X42879309Y-212290000D01*
X43037039Y-212053941D01*
X43100600Y-211734400D01*
X43100600Y-207632546D01*
X43705640Y-207027506D01*
X43792262Y-207237149D01*
X44220596Y-207666231D01*
X44250000Y-207678441D01*
X44250000Y-219364130D01*
X36839198Y-226774932D01*
X35865241Y-226774932D01*
X35545700Y-226838493D01*
X35360410Y-226962300D01*
X35274807Y-227019498D01*
X29452526Y-232841779D01*
X29232738Y-232309851D01*
X28804404Y-231880769D01*
X28244472Y-231648265D01*
X27638188Y-231647736D01*
X27077851Y-231879262D01*
X26648769Y-232307596D01*
X26416265Y-232867528D01*
X26415736Y-233473812D01*
X26647262Y-234034149D01*
X27075596Y-234463231D01*
X27635528Y-234695735D01*
X28241812Y-234696264D01*
X28521355Y-234580759D01*
X28521355Y-236843237D01*
X28244472Y-236728265D01*
X27638188Y-236727736D01*
X27077851Y-236959262D01*
X26648769Y-237387596D01*
X26416265Y-237947528D01*
X26415736Y-238553812D01*
X26647262Y-239114149D01*
X27075596Y-239543231D01*
X27635528Y-239775735D01*
X28241812Y-239776264D01*
X28521355Y-239660759D01*
X28521355Y-241923237D01*
X28244472Y-241808265D01*
X27638188Y-241807736D01*
X27077851Y-242039262D01*
X26648769Y-242467596D01*
X26416265Y-243027528D01*
X26415736Y-243633812D01*
X26647262Y-244194149D01*
X27075596Y-244623231D01*
X27635528Y-244855735D01*
X28241812Y-244856264D01*
X28521355Y-244740759D01*
X28521355Y-259318485D01*
X28584916Y-259638026D01*
X28765921Y-259908919D01*
X31823037Y-262966035D01*
X32093930Y-263147040D01*
X32413471Y-263210601D01*
X34296399Y-263210601D01*
X34311541Y-263207589D01*
X30153129Y-267366001D01*
X28828999Y-267366001D01*
X28452056Y-267440980D01*
X28132499Y-267654501D01*
X28070886Y-267716114D01*
X27638188Y-267715736D01*
X27077851Y-267947262D01*
X26648769Y-268375596D01*
X26416265Y-268935528D01*
X26415736Y-269541812D01*
X26647262Y-270102149D01*
X27075596Y-270531231D01*
X27635528Y-270763735D01*
X28241812Y-270764264D01*
X28802149Y-270532738D01*
X29231231Y-270104404D01*
X29463735Y-269544472D01*
X29463917Y-269336001D01*
X30561129Y-269336001D01*
X30938072Y-269261022D01*
X31257629Y-269047501D01*
X42529999Y-257775131D01*
X64851368Y-280096501D01*
X65170925Y-280310021D01*
X65547868Y-280385000D01*
X90269899Y-280385000D01*
X90575596Y-280691231D01*
X91135528Y-280923735D01*
X91741812Y-280924264D01*
X92302149Y-280692738D01*
X92731231Y-280264404D01*
X92963735Y-279704472D01*
X92964264Y-279098188D01*
X92732738Y-278537851D01*
X92304404Y-278108769D01*
X91744472Y-277876265D01*
X91138188Y-277875736D01*
X90577851Y-278107262D01*
X90269576Y-278415000D01*
X65955869Y-278415000D01*
X60393065Y-272852196D01*
X90547409Y-272852196D01*
X90632467Y-273107539D01*
X91201965Y-273315516D01*
X91807700Y-273289723D01*
X92247533Y-273107539D01*
X92332591Y-272852196D01*
X91440000Y-271959605D01*
X90547409Y-272852196D01*
X60393065Y-272852196D01*
X59082834Y-271541965D01*
X89904484Y-271541965D01*
X89930277Y-272147700D01*
X90112461Y-272587533D01*
X90367804Y-272672591D01*
X91260395Y-271780000D01*
X91619605Y-271780000D01*
X92512196Y-272672591D01*
X92767539Y-272587533D01*
X92975516Y-272018035D01*
X92949723Y-271412300D01*
X92767539Y-270972467D01*
X92512196Y-270887409D01*
X91619605Y-271780000D01*
X91260395Y-271780000D01*
X90367804Y-270887409D01*
X90112461Y-270972467D01*
X89904484Y-271541965D01*
X59082834Y-271541965D01*
X58248673Y-270707804D01*
X90547409Y-270707804D01*
X91440000Y-271600395D01*
X92332591Y-270707804D01*
X92247533Y-270452461D01*
X91678035Y-270244484D01*
X91072300Y-270270277D01*
X90632467Y-270452461D01*
X90547409Y-270707804D01*
X58248673Y-270707804D01*
X43514999Y-255974131D01*
X43514999Y-251761812D01*
X44195736Y-251761812D01*
X44427262Y-252322149D01*
X44855596Y-252751231D01*
X45415528Y-252983735D01*
X46021812Y-252984264D01*
X46582149Y-252752738D01*
X47011231Y-252324404D01*
X47243735Y-251764472D01*
X47244264Y-251158188D01*
X47012738Y-250597851D01*
X46584404Y-250168769D01*
X46024472Y-249936265D01*
X45418188Y-249935736D01*
X44857851Y-250167262D01*
X44428769Y-250595596D01*
X44196265Y-251155528D01*
X44195736Y-251761812D01*
X43514999Y-251761812D01*
X43514999Y-248435122D01*
X43764528Y-248538735D01*
X44370812Y-248539264D01*
X44931149Y-248307738D01*
X45339336Y-247900263D01*
X45744596Y-248306231D01*
X46304528Y-248538735D01*
X46910812Y-248539264D01*
X47471149Y-248307738D01*
X47879336Y-247900263D01*
X48284596Y-248306231D01*
X48844528Y-248538735D01*
X49450812Y-248539264D01*
X50011149Y-248307738D01*
X50232076Y-248087196D01*
X50796409Y-248087196D01*
X50881467Y-248342539D01*
X51450965Y-248550516D01*
X52056700Y-248524723D01*
X52496533Y-248342539D01*
X52581591Y-248087196D01*
X53336409Y-248087196D01*
X53421467Y-248342539D01*
X53990965Y-248550516D01*
X54596700Y-248524723D01*
X55036533Y-248342539D01*
X55121591Y-248087196D01*
X55876409Y-248087196D01*
X55961467Y-248342539D01*
X56530965Y-248550516D01*
X57136700Y-248524723D01*
X57576533Y-248342539D01*
X57661591Y-248087196D01*
X58416409Y-248087196D01*
X58501467Y-248342539D01*
X59070965Y-248550516D01*
X59676700Y-248524723D01*
X60116533Y-248342539D01*
X60201591Y-248087196D01*
X59309000Y-247194605D01*
X58416409Y-248087196D01*
X57661591Y-248087196D01*
X56769000Y-247194605D01*
X55876409Y-248087196D01*
X55121591Y-248087196D01*
X54229000Y-247194605D01*
X53336409Y-248087196D01*
X52581591Y-248087196D01*
X51689000Y-247194605D01*
X50796409Y-248087196D01*
X50232076Y-248087196D01*
X50440231Y-247879404D01*
X50451405Y-247852494D01*
X50616804Y-247907591D01*
X51509395Y-247015000D01*
X51868605Y-247015000D01*
X52761196Y-247907591D01*
X52959000Y-247841700D01*
X53156804Y-247907591D01*
X54049395Y-247015000D01*
X54408605Y-247015000D01*
X55301196Y-247907591D01*
X55499000Y-247841700D01*
X55696804Y-247907591D01*
X56589395Y-247015000D01*
X56948605Y-247015000D01*
X57841196Y-247907591D01*
X58039000Y-247841700D01*
X58236804Y-247907591D01*
X59129395Y-247015000D01*
X58236804Y-246122409D01*
X58039000Y-246188300D01*
X57841196Y-246122409D01*
X56948605Y-247015000D01*
X56589395Y-247015000D01*
X55696804Y-246122409D01*
X55499000Y-246188300D01*
X55301196Y-246122409D01*
X54408605Y-247015000D01*
X54049395Y-247015000D01*
X53156804Y-246122409D01*
X52959000Y-246188300D01*
X52761196Y-246122409D01*
X51868605Y-247015000D01*
X51509395Y-247015000D01*
X50616804Y-246122409D01*
X50451862Y-246177353D01*
X50441738Y-246152851D01*
X50232058Y-245942804D01*
X50796409Y-245942804D01*
X51689000Y-246835395D01*
X52581591Y-245942804D01*
X53336409Y-245942804D01*
X54229000Y-246835395D01*
X55121591Y-245942804D01*
X55876409Y-245942804D01*
X56769000Y-246835395D01*
X57661591Y-245942804D01*
X58416409Y-245942804D01*
X59309000Y-246835395D01*
X60201591Y-245942804D01*
X60116533Y-245687461D01*
X59547035Y-245479484D01*
X58941300Y-245505277D01*
X58501467Y-245687461D01*
X58416409Y-245942804D01*
X57661591Y-245942804D01*
X57576533Y-245687461D01*
X57007035Y-245479484D01*
X56401300Y-245505277D01*
X55961467Y-245687461D01*
X55876409Y-245942804D01*
X55121591Y-245942804D01*
X55036533Y-245687461D01*
X54467035Y-245479484D01*
X53861300Y-245505277D01*
X53421467Y-245687461D01*
X53336409Y-245942804D01*
X52581591Y-245942804D01*
X52496533Y-245687461D01*
X51927035Y-245479484D01*
X51321300Y-245505277D01*
X50881467Y-245687461D01*
X50796409Y-245942804D01*
X50232058Y-245942804D01*
X50013404Y-245723769D01*
X49453472Y-245491265D01*
X49384375Y-245491205D01*
X49896579Y-244979000D01*
X62633420Y-244979000D01*
X62121183Y-245491237D01*
X61547188Y-245490736D01*
X60986851Y-245722262D01*
X60557769Y-246150596D01*
X60546595Y-246177506D01*
X60381196Y-246122409D01*
X59488605Y-247015000D01*
X60381196Y-247907591D01*
X60546138Y-247852647D01*
X60556262Y-247877149D01*
X60984596Y-248306231D01*
X61544528Y-248538735D01*
X62150812Y-248539264D01*
X62711149Y-248307738D01*
X63140231Y-247879404D01*
X63372735Y-247319472D01*
X63373239Y-246742341D01*
X65136579Y-244979000D01*
X72297866Y-244979000D01*
X72035851Y-245087262D01*
X71606769Y-245515596D01*
X71374265Y-246075528D01*
X71373736Y-246681812D01*
X71605262Y-247242149D01*
X72033596Y-247671231D01*
X72593528Y-247903735D01*
X73199812Y-247904264D01*
X73760149Y-247672738D01*
X74168336Y-247265263D01*
X74573596Y-247671231D01*
X75133528Y-247903735D01*
X75739812Y-247904264D01*
X76300149Y-247672738D01*
X76708336Y-247265263D01*
X77113596Y-247671231D01*
X77673528Y-247903735D01*
X78279812Y-247904264D01*
X78840149Y-247672738D01*
X79061076Y-247452196D01*
X79625409Y-247452196D01*
X79710467Y-247707539D01*
X80279965Y-247915516D01*
X80885700Y-247889723D01*
X81325533Y-247707539D01*
X81410591Y-247452196D01*
X82165409Y-247452196D01*
X82250467Y-247707539D01*
X82819965Y-247915516D01*
X83425700Y-247889723D01*
X83865533Y-247707539D01*
X83950591Y-247452196D01*
X84705409Y-247452196D01*
X84790467Y-247707539D01*
X85359965Y-247915516D01*
X85965700Y-247889723D01*
X86405533Y-247707539D01*
X86490591Y-247452196D01*
X87245409Y-247452196D01*
X87330467Y-247707539D01*
X87899965Y-247915516D01*
X88505700Y-247889723D01*
X88945533Y-247707539D01*
X89030591Y-247452196D01*
X88138000Y-246559605D01*
X87245409Y-247452196D01*
X86490591Y-247452196D01*
X85598000Y-246559605D01*
X84705409Y-247452196D01*
X83950591Y-247452196D01*
X83058000Y-246559605D01*
X82165409Y-247452196D01*
X81410591Y-247452196D01*
X80518000Y-246559605D01*
X79625409Y-247452196D01*
X79061076Y-247452196D01*
X79269231Y-247244404D01*
X79280405Y-247217494D01*
X79445804Y-247272591D01*
X80338395Y-246380000D01*
X80697605Y-246380000D01*
X81590196Y-247272591D01*
X81788000Y-247206700D01*
X81985804Y-247272591D01*
X82878395Y-246380000D01*
X83237605Y-246380000D01*
X84130196Y-247272591D01*
X84328000Y-247206700D01*
X84525804Y-247272591D01*
X85418395Y-246380000D01*
X85777605Y-246380000D01*
X86670196Y-247272591D01*
X86868000Y-247206700D01*
X87065804Y-247272591D01*
X87958395Y-246380000D01*
X87065804Y-245487409D01*
X86868000Y-245553300D01*
X86670196Y-245487409D01*
X85777605Y-246380000D01*
X85418395Y-246380000D01*
X84525804Y-245487409D01*
X84328000Y-245553300D01*
X84130196Y-245487409D01*
X83237605Y-246380000D01*
X82878395Y-246380000D01*
X81985804Y-245487409D01*
X81788000Y-245553300D01*
X81590196Y-245487409D01*
X80697605Y-246380000D01*
X80338395Y-246380000D01*
X79445804Y-245487409D01*
X79280862Y-245542353D01*
X79270738Y-245517851D01*
X79061058Y-245307804D01*
X79625409Y-245307804D01*
X80518000Y-246200395D01*
X81410591Y-245307804D01*
X82165409Y-245307804D01*
X83058000Y-246200395D01*
X83950591Y-245307804D01*
X84705409Y-245307804D01*
X85598000Y-246200395D01*
X86490591Y-245307804D01*
X86405533Y-245052461D01*
X85836035Y-244844484D01*
X85230300Y-244870277D01*
X84790467Y-245052461D01*
X84705409Y-245307804D01*
X83950591Y-245307804D01*
X83865533Y-245052461D01*
X83296035Y-244844484D01*
X82690300Y-244870277D01*
X82250467Y-245052461D01*
X82165409Y-245307804D01*
X81410591Y-245307804D01*
X81325533Y-245052461D01*
X80756035Y-244844484D01*
X80150300Y-244870277D01*
X79710467Y-245052461D01*
X79625409Y-245307804D01*
X79061058Y-245307804D01*
X78842404Y-245088769D01*
X78282472Y-244856265D01*
X78213374Y-244856205D01*
X78344579Y-244725000D01*
X87771420Y-244725000D01*
X87910718Y-244864298D01*
X87770300Y-244870277D01*
X87330467Y-245052461D01*
X87245409Y-245307804D01*
X88138000Y-246200395D01*
X88152143Y-246186253D01*
X88331748Y-246365858D01*
X88317605Y-246380000D01*
X89210196Y-247272591D01*
X89375138Y-247217647D01*
X89385262Y-247242149D01*
X89813596Y-247671231D01*
X90373528Y-247903735D01*
X90555000Y-247903893D01*
X90555000Y-250190073D01*
X90148769Y-250595596D01*
X89916265Y-251155528D01*
X89915736Y-251761812D01*
X90147262Y-252322149D01*
X90575596Y-252751231D01*
X91135528Y-252983735D01*
X91741812Y-252984264D01*
X92302149Y-252752738D01*
X92731231Y-252324404D01*
X92963735Y-251764472D01*
X92964264Y-251158188D01*
X92732738Y-250597851D01*
X92325000Y-250189401D01*
X92325000Y-247142005D01*
X92325001Y-247142000D01*
X92257633Y-246803326D01*
X92257633Y-246803325D01*
X92192722Y-246706178D01*
X92201735Y-246684472D01*
X92202264Y-246078188D01*
X91970738Y-245517851D01*
X91542404Y-245088769D01*
X90982472Y-244856265D01*
X90405341Y-244855761D01*
X89023000Y-243473420D01*
X89023000Y-240029927D01*
X89183154Y-239870052D01*
X89185838Y-239884317D01*
X89324910Y-240100441D01*
X89537110Y-240245431D01*
X89789000Y-240296440D01*
X91567000Y-240296440D01*
X91802317Y-240252162D01*
X92018441Y-240113090D01*
X92163431Y-239900890D01*
X92214440Y-239649000D01*
X92214440Y-237871000D01*
X92170162Y-237635683D01*
X92031090Y-237419559D01*
X91818890Y-237274569D01*
X91567000Y-237223560D01*
X89789000Y-237223560D01*
X89625198Y-237254381D01*
X90405816Y-236473763D01*
X90979812Y-236474264D01*
X91540149Y-236242738D01*
X91969231Y-235814404D01*
X92093724Y-235514592D01*
X110925000Y-254345868D01*
X110925000Y-289293560D01*
X110871000Y-289293560D01*
X110635683Y-289337838D01*
X110419559Y-289476910D01*
X110274569Y-289689110D01*
X110223560Y-289941000D01*
X110223560Y-291719000D01*
X110267838Y-291954317D01*
X110406910Y-292170441D01*
X110619110Y-292315431D01*
X110871000Y-292366440D01*
X112649000Y-292366440D01*
X112884317Y-292322162D01*
X113100441Y-292183090D01*
X113245431Y-291970890D01*
X113296440Y-291719000D01*
X113296440Y-289941000D01*
X113252162Y-289705683D01*
X113113090Y-289489559D01*
X112900890Y-289344569D01*
X112649000Y-289293560D01*
X112595000Y-289293560D01*
X112595000Y-254000000D01*
X112557513Y-253811541D01*
X112531440Y-253680460D01*
X112350434Y-253409566D01*
X111919458Y-252978590D01*
X112127700Y-252969723D01*
X112567533Y-252787539D01*
X112652591Y-252532196D01*
X111760000Y-251639605D01*
X111745858Y-251653748D01*
X111566253Y-251474143D01*
X111580395Y-251460000D01*
X111939605Y-251460000D01*
X112832196Y-252352591D01*
X113087539Y-252267533D01*
X113295516Y-251698035D01*
X113269723Y-251092300D01*
X113087539Y-250652467D01*
X112832196Y-250567409D01*
X111939605Y-251460000D01*
X111580395Y-251460000D01*
X110687804Y-250567409D01*
X110432461Y-250652467D01*
X110224484Y-251221965D01*
X110227226Y-251286358D01*
X109328672Y-250387804D01*
X110867409Y-250387804D01*
X111760000Y-251280395D01*
X112652591Y-250387804D01*
X112567533Y-250132461D01*
X111998035Y-249924484D01*
X111392300Y-249950277D01*
X110952467Y-250132461D01*
X110867409Y-250387804D01*
X109328672Y-250387804D01*
X106393064Y-247452196D01*
X110867409Y-247452196D01*
X110952467Y-247707539D01*
X111521965Y-247915516D01*
X112127700Y-247889723D01*
X112567533Y-247707539D01*
X112652591Y-247452196D01*
X111760000Y-246559605D01*
X110867409Y-247452196D01*
X106393064Y-247452196D01*
X105082833Y-246141965D01*
X110224484Y-246141965D01*
X110250277Y-246747700D01*
X110432461Y-247187533D01*
X110687804Y-247272591D01*
X111580395Y-246380000D01*
X111939605Y-246380000D01*
X112832196Y-247272591D01*
X113087539Y-247187533D01*
X113295516Y-246618035D01*
X113269723Y-246012300D01*
X113087539Y-245572467D01*
X112832196Y-245487409D01*
X111939605Y-246380000D01*
X111580395Y-246380000D01*
X110687804Y-245487409D01*
X110432461Y-245572467D01*
X110224484Y-246141965D01*
X105082833Y-246141965D01*
X104248672Y-245307804D01*
X110867409Y-245307804D01*
X111760000Y-246200395D01*
X112652591Y-245307804D01*
X112567533Y-245052461D01*
X111998035Y-244844484D01*
X111392300Y-244870277D01*
X110952467Y-245052461D01*
X110867409Y-245307804D01*
X104248672Y-245307804D01*
X100542680Y-241601812D01*
X110235736Y-241601812D01*
X110467262Y-242162149D01*
X110895596Y-242591231D01*
X111455528Y-242823735D01*
X112061812Y-242824264D01*
X112622149Y-242592738D01*
X113051231Y-242164404D01*
X113283735Y-241604472D01*
X113284264Y-240998188D01*
X113052738Y-240437851D01*
X112624404Y-240008769D01*
X112064472Y-239776265D01*
X111458188Y-239775736D01*
X110897851Y-240007262D01*
X110468769Y-240435596D01*
X110236265Y-240995528D01*
X110235736Y-241601812D01*
X100542680Y-241601812D01*
X95462680Y-236521812D01*
X110235736Y-236521812D01*
X110467262Y-237082149D01*
X110895596Y-237511231D01*
X111455528Y-237743735D01*
X112061812Y-237744264D01*
X112622149Y-237512738D01*
X113051231Y-237084404D01*
X113283735Y-236524472D01*
X113284264Y-235918188D01*
X113052738Y-235357851D01*
X112624404Y-234928769D01*
X112064472Y-234696265D01*
X111458188Y-234695736D01*
X110897851Y-234927262D01*
X110468769Y-235355596D01*
X110236265Y-235915528D01*
X110235736Y-236521812D01*
X95462680Y-236521812D01*
X92802001Y-233861133D01*
X92802001Y-231441812D01*
X110235736Y-231441812D01*
X110467262Y-232002149D01*
X110895596Y-232431231D01*
X111455528Y-232663735D01*
X112061812Y-232664264D01*
X112622149Y-232432738D01*
X113051231Y-232004404D01*
X113283735Y-231444472D01*
X113284264Y-230838188D01*
X113052738Y-230277851D01*
X112624404Y-229848769D01*
X112064472Y-229616265D01*
X111458188Y-229615736D01*
X110897851Y-229847262D01*
X110468769Y-230275596D01*
X110236265Y-230835528D01*
X110235736Y-231441812D01*
X92802001Y-231441812D01*
X92802001Y-226361812D01*
X110235736Y-226361812D01*
X110467262Y-226922149D01*
X110895596Y-227351231D01*
X111455528Y-227583735D01*
X112061812Y-227584264D01*
X112622149Y-227352738D01*
X113051231Y-226924404D01*
X113283735Y-226364472D01*
X113284264Y-225758188D01*
X113052738Y-225197851D01*
X112624404Y-224768769D01*
X112064472Y-224536265D01*
X111458188Y-224535736D01*
X110897851Y-224767262D01*
X110468769Y-225195596D01*
X110236265Y-225755528D01*
X110235736Y-226361812D01*
X92802001Y-226361812D01*
X92802001Y-226120999D01*
X92738440Y-225801458D01*
X92557435Y-225530565D01*
X92377435Y-225350565D01*
X92148882Y-225197851D01*
X92106542Y-225169560D01*
X91787001Y-225105999D01*
X87224589Y-225105999D01*
X83400402Y-221281812D01*
X110235736Y-221281812D01*
X110467262Y-221842149D01*
X110895596Y-222271231D01*
X111455528Y-222503735D01*
X112061812Y-222504264D01*
X112622149Y-222272738D01*
X113051231Y-221844404D01*
X113283735Y-221284472D01*
X113284264Y-220678188D01*
X113052738Y-220117851D01*
X112624404Y-219688769D01*
X112064472Y-219456265D01*
X111458188Y-219455736D01*
X110897851Y-219687262D01*
X110468769Y-220115596D01*
X110236265Y-220675528D01*
X110235736Y-221281812D01*
X83400402Y-221281812D01*
X82265786Y-220147196D01*
X94992409Y-220147196D01*
X95077467Y-220402539D01*
X95646965Y-220610516D01*
X96252700Y-220584723D01*
X96692533Y-220402539D01*
X96777591Y-220147196D01*
X95885000Y-219254605D01*
X94992409Y-220147196D01*
X82265786Y-220147196D01*
X80955555Y-218836965D01*
X94349484Y-218836965D01*
X94375277Y-219442700D01*
X94557461Y-219882533D01*
X94812804Y-219967591D01*
X95705395Y-219075000D01*
X96064605Y-219075000D01*
X96957196Y-219967591D01*
X97212539Y-219882533D01*
X97420516Y-219313035D01*
X97394723Y-218707300D01*
X97212539Y-218267467D01*
X96957196Y-218182409D01*
X96064605Y-219075000D01*
X95705395Y-219075000D01*
X94812804Y-218182409D01*
X94557461Y-218267467D01*
X94349484Y-218836965D01*
X80955555Y-218836965D01*
X74408590Y-212290000D01*
X94581044Y-212290000D01*
X94592262Y-212317149D01*
X94999737Y-212725336D01*
X94593769Y-213130596D01*
X94361265Y-213690528D01*
X94360736Y-214296812D01*
X94592262Y-214857149D01*
X94999737Y-215265336D01*
X94593769Y-215670596D01*
X94361265Y-216230528D01*
X94360736Y-216836812D01*
X94592262Y-217397149D01*
X95020596Y-217826231D01*
X95047506Y-217837405D01*
X94992409Y-218002804D01*
X95885000Y-218895395D01*
X96777591Y-218002804D01*
X96722647Y-217837862D01*
X96747149Y-217827738D01*
X97176231Y-217399404D01*
X97408735Y-216839472D01*
X97409264Y-216233188D01*
X97396300Y-216201812D01*
X110235736Y-216201812D01*
X110467262Y-216762149D01*
X110895596Y-217191231D01*
X111455528Y-217423735D01*
X112061812Y-217424264D01*
X112622149Y-217192738D01*
X113051231Y-216764404D01*
X113283735Y-216204472D01*
X113284264Y-215598188D01*
X113052738Y-215037851D01*
X112624404Y-214608769D01*
X112064472Y-214376265D01*
X111458188Y-214375736D01*
X110897851Y-214607262D01*
X110468769Y-215035596D01*
X110236265Y-215595528D01*
X110235736Y-216201812D01*
X97396300Y-216201812D01*
X97177738Y-215672851D01*
X96770263Y-215264664D01*
X97176231Y-214859404D01*
X97408735Y-214299472D01*
X97409264Y-213693188D01*
X97177738Y-213132851D01*
X96770263Y-212724664D01*
X97176231Y-212319404D01*
X97408735Y-211759472D01*
X97409264Y-211153188D01*
X97396300Y-211121812D01*
X110235736Y-211121812D01*
X110467262Y-211682149D01*
X110895596Y-212111231D01*
X111455528Y-212343735D01*
X112061812Y-212344264D01*
X112622149Y-212112738D01*
X113051231Y-211684404D01*
X113283735Y-211124472D01*
X113284264Y-210518188D01*
X113052738Y-209957851D01*
X112624404Y-209528769D01*
X112064472Y-209296265D01*
X111458188Y-209295736D01*
X110897851Y-209527262D01*
X110468769Y-209955596D01*
X110236265Y-210515528D01*
X110235736Y-211121812D01*
X97396300Y-211121812D01*
X97177738Y-210592851D01*
X96770263Y-210184664D01*
X97176231Y-209779404D01*
X97408735Y-209219472D01*
X97409264Y-208613188D01*
X97177738Y-208052851D01*
X96770263Y-207644664D01*
X97176231Y-207239404D01*
X97408735Y-206679472D01*
X97409264Y-206073188D01*
X97177738Y-205512851D01*
X96749404Y-205083769D01*
X96189472Y-204851265D01*
X95885757Y-204851000D01*
X110223560Y-204851000D01*
X110223560Y-206629000D01*
X110267838Y-206864317D01*
X110406910Y-207080441D01*
X110619110Y-207225431D01*
X110871000Y-207276440D01*
X112649000Y-207276440D01*
X112884317Y-207232162D01*
X113100441Y-207093090D01*
X113245431Y-206880890D01*
X113296440Y-206629000D01*
X113296440Y-204851000D01*
X113252162Y-204615683D01*
X113113090Y-204399559D01*
X112900890Y-204254569D01*
X112649000Y-204203560D01*
X110871000Y-204203560D01*
X110635683Y-204247838D01*
X110419559Y-204386910D01*
X110274569Y-204599110D01*
X110223560Y-204851000D01*
X95885757Y-204851000D01*
X95583188Y-204850736D01*
X95553762Y-204862894D01*
X94200434Y-203509566D01*
X94112764Y-203450987D01*
X93929541Y-203328561D01*
X93610000Y-203265000D01*
X77064868Y-203265000D01*
X65788203Y-191988335D01*
X65933943Y-191928117D01*
X66197192Y-191665327D01*
X66339838Y-191321799D01*
X66340162Y-190949833D01*
X66198117Y-190606057D01*
X65935327Y-190342808D01*
X65693090Y-190242222D01*
X64244300Y-188793432D01*
X64362149Y-188744738D01*
X64770336Y-188337263D01*
X65175596Y-188743231D01*
X65735528Y-188975735D01*
X66341812Y-188976264D01*
X66902149Y-188744738D01*
X67310336Y-188337263D01*
X67715596Y-188743231D01*
X68275528Y-188975735D01*
X68881812Y-188976264D01*
X69442149Y-188744738D01*
X69871231Y-188316404D01*
X70103735Y-187756472D01*
X70104264Y-187150188D01*
X69872738Y-186589851D01*
X69444404Y-186160769D01*
X68884472Y-185928265D01*
X68278188Y-185927736D01*
X67717851Y-186159262D01*
X67309664Y-186566737D01*
X66904404Y-186160769D01*
X66875000Y-186148559D01*
X66875000Y-176595832D01*
X74760815Y-168710017D01*
X75001425Y-168610599D01*
X75264674Y-168347809D01*
X75407320Y-168004281D01*
X75407644Y-167632315D01*
X75265599Y-167288539D01*
X75002809Y-167025290D01*
X74659281Y-166882644D01*
X74287315Y-166882320D01*
X73943539Y-167024365D01*
X73680290Y-167287155D01*
X73579704Y-167529392D01*
X65449566Y-175659530D01*
X65268561Y-175930423D01*
X65205000Y-176249964D01*
X65205000Y-186148044D01*
X65177851Y-186159262D01*
X64769664Y-186566737D01*
X64364404Y-186160769D01*
X64335000Y-186148559D01*
X64335000Y-175544144D01*
X77004133Y-162875011D01*
X84991668Y-162875011D01*
X84609566Y-163257113D01*
X84428561Y-163528006D01*
X84365000Y-163847547D01*
X84365000Y-180572764D01*
X84265162Y-180813199D01*
X84264838Y-181185165D01*
X84406883Y-181528941D01*
X84669673Y-181792190D01*
X85013201Y-181934836D01*
X85385167Y-181935160D01*
X85649197Y-181826065D01*
X85863530Y-182040398D01*
X85852265Y-182067528D01*
X85851736Y-182673812D01*
X86083262Y-183234149D01*
X86490737Y-183642336D01*
X86084769Y-184047596D01*
X85852265Y-184607528D01*
X85851736Y-185213812D01*
X86083262Y-185774149D01*
X86490737Y-186182336D01*
X86084769Y-186587596D01*
X85852265Y-187147528D01*
X85851736Y-187753812D01*
X86083262Y-188314149D01*
X86490737Y-188722336D01*
X86084769Y-189127596D01*
X85852265Y-189687528D01*
X85851736Y-190293812D01*
X86083262Y-190854149D01*
X86490737Y-191262336D01*
X86084769Y-191667596D01*
X85852265Y-192227528D01*
X85851736Y-192833812D01*
X86083262Y-193394149D01*
X86490737Y-193802336D01*
X86084769Y-194207596D01*
X85852265Y-194767528D01*
X85851736Y-195373812D01*
X86083262Y-195934149D01*
X86490737Y-196342336D01*
X86084769Y-196747596D01*
X85852265Y-197307528D01*
X85851736Y-197913812D01*
X86083262Y-198474149D01*
X86511596Y-198903231D01*
X87071528Y-199135735D01*
X87677812Y-199136264D01*
X88238149Y-198904738D01*
X88667231Y-198476404D01*
X88899735Y-197916472D01*
X88900264Y-197310188D01*
X88888106Y-197280762D01*
X94811988Y-191356880D01*
X94811988Y-197011988D01*
X94875549Y-197331529D01*
X94963413Y-197463026D01*
X95056554Y-197602422D01*
X95656566Y-198202434D01*
X95927459Y-198383439D01*
X95999560Y-198397781D01*
X95999560Y-198501000D01*
X96043838Y-198736317D01*
X96182910Y-198952441D01*
X96395110Y-199097431D01*
X96647000Y-199148440D01*
X98425000Y-199148440D01*
X98660317Y-199104162D01*
X98876441Y-198965090D01*
X99021431Y-198752890D01*
X99072440Y-198501000D01*
X99072440Y-197463026D01*
X103955042Y-197463026D01*
X104127312Y-197878947D01*
X104521510Y-198310821D01*
X105050973Y-198558968D01*
X105283000Y-198438469D01*
X105283000Y-197231000D01*
X104076183Y-197231000D01*
X103955042Y-197463026D01*
X99072440Y-197463026D01*
X99072440Y-196723000D01*
X99028162Y-196487683D01*
X98889090Y-196271559D01*
X98676890Y-196126569D01*
X98643506Y-196119809D01*
X98827231Y-195936404D01*
X99059735Y-195376472D01*
X99060264Y-194770188D01*
X98828738Y-194209851D01*
X98421263Y-193801664D01*
X98827231Y-193396404D01*
X99059735Y-192836472D01*
X99060264Y-192230188D01*
X99048106Y-192200762D01*
X103469868Y-187779000D01*
X103898960Y-187779000D01*
X103898960Y-187807600D01*
X103943238Y-188042917D01*
X104082310Y-188259041D01*
X104294510Y-188404031D01*
X104338131Y-188412864D01*
X104320971Y-188424330D01*
X103996115Y-188910511D01*
X103882041Y-189484000D01*
X103996115Y-190057489D01*
X104320971Y-190543670D01*
X104635752Y-190754000D01*
X104320971Y-190964330D01*
X103996115Y-191450511D01*
X103882041Y-192024000D01*
X103996115Y-192597489D01*
X104320971Y-193083670D01*
X104635752Y-193294000D01*
X104320971Y-193504330D01*
X103996115Y-193990511D01*
X103882041Y-194564000D01*
X103996115Y-195137489D01*
X104320971Y-195623670D01*
X104644228Y-195839664D01*
X104521510Y-195897179D01*
X104127312Y-196329053D01*
X103955042Y-196744974D01*
X104076183Y-196977000D01*
X105283000Y-196977000D01*
X105283000Y-196957000D01*
X105537000Y-196957000D01*
X105537000Y-196977000D01*
X105557000Y-196977000D01*
X105557000Y-197231000D01*
X105537000Y-197231000D01*
X105537000Y-198438469D01*
X105769027Y-198558968D01*
X106298490Y-198310821D01*
X106680008Y-197892839D01*
X106860971Y-198163670D01*
X107347152Y-198488526D01*
X107920641Y-198602600D01*
X107979359Y-198602600D01*
X108552848Y-198488526D01*
X109039029Y-198163670D01*
X109363885Y-197677489D01*
X109477959Y-197104000D01*
X109363885Y-196530511D01*
X109039029Y-196044330D01*
X108715772Y-195828336D01*
X108838490Y-195770821D01*
X109232688Y-195338947D01*
X109404958Y-194923026D01*
X109283817Y-194691000D01*
X108077000Y-194691000D01*
X108077000Y-194711000D01*
X107823000Y-194711000D01*
X107823000Y-194691000D01*
X107803000Y-194691000D01*
X107803000Y-194437000D01*
X107823000Y-194437000D01*
X107823000Y-194417000D01*
X108077000Y-194417000D01*
X108077000Y-194437000D01*
X109283817Y-194437000D01*
X109404958Y-194204974D01*
X109232688Y-193789053D01*
X108838490Y-193357179D01*
X108715772Y-193299664D01*
X109039029Y-193083670D01*
X109363885Y-192597489D01*
X109477959Y-192024000D01*
X109363885Y-191450511D01*
X109039029Y-190964330D01*
X108724248Y-190754000D01*
X109039029Y-190543670D01*
X109363885Y-190057489D01*
X109477959Y-189484000D01*
X109363885Y-188910511D01*
X109039029Y-188424330D01*
X108724248Y-188214000D01*
X109039029Y-188003670D01*
X109363885Y-187517489D01*
X109477959Y-186944000D01*
X109363885Y-186370511D01*
X109039029Y-185884330D01*
X108552848Y-185559474D01*
X107979359Y-185445400D01*
X107920641Y-185445400D01*
X107680112Y-185493244D01*
X107276833Y-185089965D01*
X107005940Y-184908960D01*
X106686399Y-184845399D01*
X102736601Y-184845399D01*
X102417060Y-184908960D01*
X102146167Y-185089965D01*
X98968131Y-188268001D01*
X98847330Y-188268001D01*
X99059735Y-187756472D01*
X99060264Y-187150188D01*
X98828738Y-186589851D01*
X98421263Y-186181664D01*
X98827231Y-185776404D01*
X99059735Y-185216472D01*
X99060264Y-184610188D01*
X98828738Y-184049851D01*
X98421263Y-183641664D01*
X98827231Y-183236404D01*
X99059735Y-182676472D01*
X99060264Y-182070188D01*
X98828738Y-181509851D01*
X98421263Y-181101664D01*
X98827231Y-180696404D01*
X99059735Y-180136472D01*
X99060264Y-179530188D01*
X98828738Y-178969851D01*
X98421263Y-178561664D01*
X98827231Y-178156404D01*
X99059735Y-177596472D01*
X99060264Y-176990188D01*
X98828738Y-176429851D01*
X98400404Y-176000769D01*
X98373494Y-175989595D01*
X98428591Y-175824196D01*
X97536000Y-174931605D01*
X97521858Y-174945748D01*
X97342253Y-174766143D01*
X97356395Y-174752000D01*
X97715605Y-174752000D01*
X98608196Y-175644591D01*
X98863539Y-175559533D01*
X99027330Y-175111026D01*
X103701042Y-175111026D01*
X103873312Y-175526947D01*
X104267510Y-175958821D01*
X104796973Y-176206968D01*
X105029000Y-176086469D01*
X105029000Y-174879000D01*
X103822183Y-174879000D01*
X103701042Y-175111026D01*
X99027330Y-175111026D01*
X99071516Y-174990035D01*
X99045723Y-174384300D01*
X98863539Y-173944467D01*
X98608196Y-173859409D01*
X97715605Y-174752000D01*
X97356395Y-174752000D01*
X97342253Y-174737858D01*
X97521858Y-174558253D01*
X97536000Y-174572395D01*
X98428591Y-173679804D01*
X98373647Y-173514862D01*
X98398149Y-173504738D01*
X98827231Y-173076404D01*
X99059735Y-172516472D01*
X99060264Y-171910188D01*
X98828738Y-171349851D01*
X98421263Y-170941664D01*
X98827231Y-170536404D01*
X99059735Y-169976472D01*
X99060264Y-169370188D01*
X98828738Y-168809851D01*
X98421263Y-168401664D01*
X98827231Y-167996404D01*
X99059735Y-167436472D01*
X99060264Y-166830188D01*
X98828738Y-166269851D01*
X98421263Y-165861664D01*
X98827231Y-165456404D01*
X98914462Y-165246330D01*
X100206199Y-166538067D01*
X100206199Y-167427329D01*
X100269760Y-167746870D01*
X100436493Y-167996404D01*
X100450765Y-168017763D01*
X103874053Y-171441051D01*
X103742115Y-171638511D01*
X103628041Y-172212000D01*
X103742115Y-172785489D01*
X104066971Y-173271670D01*
X104390228Y-173487664D01*
X104267510Y-173545179D01*
X103873312Y-173977053D01*
X103701042Y-174392974D01*
X103822183Y-174625000D01*
X105029000Y-174625000D01*
X105029000Y-174605000D01*
X105283000Y-174605000D01*
X105283000Y-174625000D01*
X105303000Y-174625000D01*
X105303000Y-174879000D01*
X105283000Y-174879000D01*
X105283000Y-176086469D01*
X105515027Y-176206968D01*
X106044490Y-175958821D01*
X106426008Y-175540839D01*
X106606971Y-175811670D01*
X107093152Y-176136526D01*
X107666641Y-176250600D01*
X107725359Y-176250600D01*
X108298848Y-176136526D01*
X108785029Y-175811670D01*
X109109885Y-175325489D01*
X109223959Y-174752000D01*
X109109885Y-174178511D01*
X108785029Y-173692330D01*
X108461772Y-173476336D01*
X108584490Y-173418821D01*
X108978688Y-172986947D01*
X109150958Y-172571026D01*
X109029817Y-172339000D01*
X107823000Y-172339000D01*
X107823000Y-172359000D01*
X107569000Y-172359000D01*
X107569000Y-172339000D01*
X107549000Y-172339000D01*
X107549000Y-172085000D01*
X107569000Y-172085000D01*
X107569000Y-172065000D01*
X107823000Y-172065000D01*
X107823000Y-172085000D01*
X109029817Y-172085000D01*
X109150958Y-171852974D01*
X108978688Y-171437053D01*
X108584490Y-171005179D01*
X108461772Y-170947664D01*
X108785029Y-170731670D01*
X109109885Y-170245489D01*
X109223959Y-169672000D01*
X109109885Y-169098511D01*
X108785029Y-168612330D01*
X108470248Y-168402000D01*
X108785029Y-168191670D01*
X109109885Y-167705489D01*
X109223959Y-167132000D01*
X109109885Y-166558511D01*
X108785029Y-166072330D01*
X108470248Y-165862000D01*
X108785029Y-165651670D01*
X109109885Y-165165489D01*
X109223959Y-164592000D01*
X109109885Y-164018511D01*
X108785029Y-163532330D01*
X108298848Y-163207474D01*
X107725359Y-163093400D01*
X107666641Y-163093400D01*
X107093152Y-163207474D01*
X106627558Y-163518574D01*
X106622762Y-163493083D01*
X106483690Y-163276959D01*
X106271490Y-163131969D01*
X106019600Y-163080960D01*
X105941781Y-163080960D01*
X105927439Y-163008859D01*
X105836936Y-162873412D01*
X105746434Y-162737965D01*
X101825581Y-158817113D01*
X101731070Y-158753963D01*
X101554688Y-158636108D01*
X101235147Y-158572547D01*
X95251938Y-158572547D01*
X94932398Y-158636107D01*
X94661504Y-158817113D01*
X92656510Y-160822107D01*
X92475505Y-161093000D01*
X92411944Y-161412541D01*
X92411944Y-183775188D01*
X88900145Y-187286987D01*
X88900264Y-187150188D01*
X88888106Y-187120762D01*
X90125434Y-185883434D01*
X90306440Y-185612540D01*
X90370000Y-185293000D01*
X90370000Y-162426872D01*
X90395046Y-162300958D01*
X90395046Y-159276870D01*
X90331485Y-158957329D01*
X90150480Y-158686436D01*
X88328564Y-156864520D01*
X88057671Y-156683515D01*
X87738130Y-156619954D01*
X85009818Y-156619954D01*
X82245033Y-153855169D01*
X82884838Y-153855169D01*
X83026883Y-154198945D01*
X83289673Y-154462194D01*
X83633201Y-154604840D01*
X84005167Y-154605164D01*
X84348943Y-154463119D01*
X84612192Y-154200329D01*
X84712778Y-153958092D01*
X93339330Y-145331540D01*
X101354518Y-145331540D01*
X101777616Y-146355515D01*
X102560365Y-147139631D01*
X103583599Y-147564515D01*
X104691540Y-147565482D01*
X105715515Y-147142384D01*
X106499631Y-146359635D01*
X106924515Y-145336401D01*
X106925482Y-144228460D01*
X106502384Y-143204485D01*
X105719635Y-142420369D01*
X104696401Y-141995485D01*
X103588460Y-141994518D01*
X102564485Y-142417616D01*
X101780369Y-143200365D01*
X101355485Y-144223599D01*
X101354518Y-145331540D01*
X93339330Y-145331540D01*
X97110434Y-141560436D01*
X97291440Y-141289542D01*
X97355000Y-140970002D01*
X97355000Y-129298440D01*
X97409000Y-129298440D01*
X97644317Y-129254162D01*
X97860441Y-129115090D01*
X98005431Y-128902890D01*
X98019341Y-128834196D01*
X100707409Y-128834196D01*
X100792467Y-129089539D01*
X101361965Y-129297516D01*
X101967700Y-129271723D01*
X102407533Y-129089539D01*
X102492591Y-128834196D01*
X101600000Y-127941605D01*
X100707409Y-128834196D01*
X98019341Y-128834196D01*
X98056440Y-128651000D01*
X98056440Y-127523965D01*
X100064484Y-127523965D01*
X100090277Y-128129700D01*
X100272461Y-128569533D01*
X100527804Y-128654591D01*
X101420395Y-127762000D01*
X101779605Y-127762000D01*
X102672196Y-128654591D01*
X102927539Y-128569533D01*
X103135516Y-128000035D01*
X103109723Y-127394300D01*
X102927539Y-126954467D01*
X102672196Y-126869409D01*
X101779605Y-127762000D01*
X101420395Y-127762000D01*
X100527804Y-126869409D01*
X100272461Y-126954467D01*
X100064484Y-127523965D01*
X98056440Y-127523965D01*
X98056440Y-126873000D01*
X98021970Y-126689804D01*
X100707409Y-126689804D01*
X101600000Y-127582395D01*
X102492591Y-126689804D01*
X102407533Y-126434461D01*
X101838035Y-126226484D01*
X101232300Y-126252277D01*
X100792467Y-126434461D01*
X100707409Y-126689804D01*
X98021970Y-126689804D01*
X98012162Y-126637683D01*
X97873090Y-126421559D01*
X97660890Y-126276569D01*
X97409000Y-126225560D01*
X95631000Y-126225560D01*
X95395683Y-126269838D01*
X95179559Y-126408910D01*
X95034569Y-126621110D01*
X94983560Y-126873000D01*
X94983560Y-128651000D01*
X95027838Y-128886317D01*
X95166910Y-129102441D01*
X95379110Y-129247431D01*
X95631000Y-129298440D01*
X95685000Y-129298440D01*
X95685000Y-140624134D01*
X83531667Y-152777467D01*
X83291057Y-152876885D01*
X83027808Y-153139675D01*
X82885162Y-153483203D01*
X82884838Y-153855169D01*
X82245033Y-153855169D01*
X78940000Y-150550136D01*
X78940000Y-129298440D01*
X78994000Y-129298440D01*
X79229317Y-129254162D01*
X79445441Y-129115090D01*
X79590431Y-128902890D01*
X79641440Y-128651000D01*
X79641440Y-126873000D01*
X83299560Y-126873000D01*
X83299560Y-128651000D01*
X83343838Y-128886317D01*
X83482910Y-129102441D01*
X83695110Y-129247431D01*
X83947000Y-129298440D01*
X85725000Y-129298440D01*
X85960317Y-129254162D01*
X86176441Y-129115090D01*
X86321431Y-128902890D01*
X86335341Y-128834196D01*
X89023409Y-128834196D01*
X89108467Y-129089539D01*
X89677965Y-129297516D01*
X90283700Y-129271723D01*
X90723533Y-129089539D01*
X90808591Y-128834196D01*
X89916000Y-127941605D01*
X89023409Y-128834196D01*
X86335341Y-128834196D01*
X86372440Y-128651000D01*
X86372440Y-127523965D01*
X88380484Y-127523965D01*
X88406277Y-128129700D01*
X88588461Y-128569533D01*
X88843804Y-128654591D01*
X89736395Y-127762000D01*
X90095605Y-127762000D01*
X90988196Y-128654591D01*
X91243539Y-128569533D01*
X91451516Y-128000035D01*
X91425723Y-127394300D01*
X91243539Y-126954467D01*
X90988196Y-126869409D01*
X90095605Y-127762000D01*
X89736395Y-127762000D01*
X88843804Y-126869409D01*
X88588461Y-126954467D01*
X88380484Y-127523965D01*
X86372440Y-127523965D01*
X86372440Y-126873000D01*
X86337970Y-126689804D01*
X89023409Y-126689804D01*
X89916000Y-127582395D01*
X90808591Y-126689804D01*
X90723533Y-126434461D01*
X90154035Y-126226484D01*
X89548300Y-126252277D01*
X89108467Y-126434461D01*
X89023409Y-126689804D01*
X86337970Y-126689804D01*
X86328162Y-126637683D01*
X86189090Y-126421559D01*
X85976890Y-126276569D01*
X85725000Y-126225560D01*
X83947000Y-126225560D01*
X83711683Y-126269838D01*
X83495559Y-126408910D01*
X83350569Y-126621110D01*
X83299560Y-126873000D01*
X79641440Y-126873000D01*
X79597162Y-126637683D01*
X79458090Y-126421559D01*
X79245890Y-126276569D01*
X78994000Y-126225560D01*
X77216000Y-126225560D01*
X76980683Y-126269838D01*
X76764559Y-126408910D01*
X76619569Y-126621110D01*
X76568560Y-126873000D01*
X76568560Y-128651000D01*
X76612838Y-128886317D01*
X76751910Y-129102441D01*
X76964110Y-129247431D01*
X77216000Y-129298440D01*
X77270000Y-129298440D01*
X77270000Y-149728679D01*
X73860000Y-146318679D01*
X73860000Y-129065956D01*
X73887149Y-129054738D01*
X74316231Y-128626404D01*
X74548735Y-128066472D01*
X74549264Y-127460188D01*
X74317738Y-126899851D01*
X73889404Y-126470769D01*
X73329472Y-126238265D01*
X72723188Y-126237736D01*
X72162851Y-126469262D01*
X71733769Y-126897596D01*
X71501265Y-127457528D01*
X71500736Y-128063812D01*
X71732262Y-128624149D01*
X72160596Y-129053231D01*
X72190000Y-129065441D01*
X72190000Y-145497222D01*
X55863690Y-129170912D01*
X55950441Y-129115090D01*
X56095431Y-128902890D01*
X56146440Y-128651000D01*
X56146440Y-126873000D01*
X56102162Y-126637683D01*
X55963090Y-126421559D01*
X55750890Y-126276569D01*
X55499000Y-126225560D01*
X53721000Y-126225560D01*
X53485683Y-126269838D01*
X53269559Y-126408910D01*
X53124569Y-126621110D01*
X53073560Y-126873000D01*
X53073560Y-128651000D01*
X53117838Y-128886317D01*
X53256910Y-129102441D01*
X53469110Y-129247431D01*
X53721000Y-129298440D01*
X53814852Y-129298440D01*
X53838561Y-129417631D01*
X54019566Y-129688524D01*
X82751029Y-158419987D01*
X81368855Y-158419987D01*
X51042470Y-128093602D01*
X51053735Y-128066472D01*
X51054264Y-127460188D01*
X50822738Y-126899851D01*
X50394404Y-126470769D01*
X49834472Y-126238265D01*
X49228188Y-126237736D01*
X48667851Y-126469262D01*
X48238769Y-126897596D01*
X48006265Y-127457528D01*
X48005736Y-128063812D01*
X48237262Y-128624149D01*
X48665596Y-129053231D01*
X49225528Y-129285735D01*
X49831812Y-129286264D01*
X49861238Y-129274106D01*
X79607130Y-159019998D01*
X71827866Y-159019998D01*
X41642064Y-128834196D01*
X42287409Y-128834196D01*
X42372467Y-129089539D01*
X42941965Y-129297516D01*
X43547700Y-129271723D01*
X43987533Y-129089539D01*
X44072591Y-128834196D01*
X43180000Y-127941605D01*
X42287409Y-128834196D01*
X41642064Y-128834196D01*
X40331833Y-127523965D01*
X41644484Y-127523965D01*
X41670277Y-128129700D01*
X41852461Y-128569533D01*
X42107804Y-128654591D01*
X43000395Y-127762000D01*
X43359605Y-127762000D01*
X44252196Y-128654591D01*
X44507539Y-128569533D01*
X44715516Y-128000035D01*
X44689723Y-127394300D01*
X44507539Y-126954467D01*
X44252196Y-126869409D01*
X43359605Y-127762000D01*
X43000395Y-127762000D01*
X42107804Y-126869409D01*
X41852461Y-126954467D01*
X41644484Y-127523965D01*
X40331833Y-127523965D01*
X39979434Y-127171566D01*
X39708541Y-126990561D01*
X39636440Y-126976219D01*
X39636440Y-126873000D01*
X39601970Y-126689804D01*
X42287409Y-126689804D01*
X43180000Y-127582395D01*
X44072591Y-126689804D01*
X43987533Y-126434461D01*
X43418035Y-126226484D01*
X42812300Y-126252277D01*
X42372467Y-126434461D01*
X42287409Y-126689804D01*
X39601970Y-126689804D01*
X39592162Y-126637683D01*
X39453090Y-126421559D01*
X39240890Y-126276569D01*
X38989000Y-126225560D01*
X37211000Y-126225560D01*
X36975683Y-126269838D01*
X36759559Y-126408910D01*
X36614569Y-126621110D01*
X36563560Y-126873000D01*
X36563560Y-128651000D01*
X36607838Y-128886317D01*
X36746910Y-129102441D01*
X36959110Y-129247431D01*
X37211000Y-129298440D01*
X38989000Y-129298440D01*
X39224317Y-129254162D01*
X39440441Y-129115090D01*
X39489468Y-129043336D01*
X70851132Y-160405000D01*
X36322005Y-160405000D01*
X36322000Y-160404999D01*
X35996064Y-160469833D01*
X35983325Y-160472367D01*
X35696210Y-160664210D01*
X35696208Y-160664213D01*
X33292183Y-163068237D01*
X32718188Y-163067736D01*
X32157851Y-163299262D01*
X31728769Y-163727596D01*
X31496265Y-164287528D01*
X31495761Y-164864659D01*
X30355198Y-166005222D01*
X30163355Y-166292337D01*
X30162427Y-166297001D01*
X30095987Y-166631012D01*
X30095988Y-166631017D01*
X30095988Y-204335983D01*
X30095987Y-204335988D01*
X30148326Y-204599110D01*
X30163355Y-204674663D01*
X30173893Y-204690434D01*
X30355198Y-204961778D01*
X33346420Y-207953000D01*
X28826535Y-207953000D01*
X28676415Y-207728330D01*
X28190234Y-207403474D01*
X27616745Y-207289400D01*
X27247255Y-207289400D01*
X26673766Y-207403474D01*
X26187585Y-207728330D01*
X26110000Y-207844444D01*
X26110000Y-145331540D01*
X32774518Y-145331540D01*
X33197616Y-146355515D01*
X33980365Y-147139631D01*
X35003599Y-147564515D01*
X36111540Y-147565482D01*
X37135515Y-147142384D01*
X37919631Y-146359635D01*
X38344515Y-145336401D01*
X38345482Y-144228460D01*
X37922384Y-143204485D01*
X37139635Y-142420369D01*
X36116401Y-141995485D01*
X35008460Y-141994518D01*
X33984485Y-142417616D01*
X33200369Y-143200365D01*
X32775485Y-144223599D01*
X32774518Y-145331540D01*
X26110000Y-145331540D01*
X26110000Y-135324931D01*
X26842190Y-131643963D01*
X28887676Y-128582676D01*
X31948963Y-126537190D01*
X35629926Y-125805000D01*
X104070069Y-125805000D01*
X107751037Y-126537190D01*
G36*
X54422748Y-239380858D02*
X54408605Y-239395000D01*
X55301196Y-240287591D01*
X55466138Y-240232647D01*
X55476262Y-240257149D01*
X55904596Y-240686231D01*
X56464528Y-240918735D01*
X57070812Y-240919264D01*
X57631149Y-240687738D01*
X58039336Y-240280263D01*
X58427319Y-240668923D01*
X58469391Y-240880431D01*
X58491367Y-240990910D01*
X58627080Y-241194020D01*
X58683210Y-241278025D01*
X60614186Y-243209000D01*
X49530005Y-243209000D01*
X49530000Y-243208999D01*
X49247516Y-243265190D01*
X49191325Y-243276367D01*
X48904210Y-243468210D01*
X48904208Y-243468213D01*
X47494000Y-244878421D01*
X47494000Y-244094005D01*
X47494001Y-244094000D01*
X47426633Y-243755326D01*
X47426633Y-243755325D01*
X47234790Y-243468210D01*
X47234787Y-243468208D01*
X46345790Y-242579210D01*
X46058675Y-242387367D01*
X46002484Y-242376190D01*
X45720000Y-242319999D01*
X45719995Y-242320000D01*
X44121822Y-242320000D01*
X44001799Y-242270162D01*
X43629833Y-242269838D01*
X43514999Y-242317286D01*
X43514999Y-241342001D01*
X43938114Y-240918886D01*
X44370812Y-240919264D01*
X44931149Y-240687738D01*
X45152076Y-240467196D01*
X45716409Y-240467196D01*
X45801467Y-240722539D01*
X46370965Y-240930516D01*
X46976700Y-240904723D01*
X47416533Y-240722539D01*
X47501591Y-240467196D01*
X48256409Y-240467196D01*
X48341467Y-240722539D01*
X48910965Y-240930516D01*
X49516700Y-240904723D01*
X49956533Y-240722539D01*
X50041591Y-240467196D01*
X50796409Y-240467196D01*
X50881467Y-240722539D01*
X51450965Y-240930516D01*
X52056700Y-240904723D01*
X52496533Y-240722539D01*
X52581591Y-240467196D01*
X53336409Y-240467196D01*
X53421467Y-240722539D01*
X53990965Y-240930516D01*
X54596700Y-240904723D01*
X55036533Y-240722539D01*
X55121591Y-240467196D01*
X54229000Y-239574605D01*
X53336409Y-240467196D01*
X52581591Y-240467196D01*
X51689000Y-239574605D01*
X50796409Y-240467196D01*
X50041591Y-240467196D01*
X49149000Y-239574605D01*
X48256409Y-240467196D01*
X47501591Y-240467196D01*
X46609000Y-239574605D01*
X45716409Y-240467196D01*
X45152076Y-240467196D01*
X45360231Y-240259404D01*
X45371405Y-240232494D01*
X45536804Y-240287591D01*
X46429395Y-239395000D01*
X46415253Y-239380858D01*
X46594858Y-239201253D01*
X46609000Y-239215395D01*
X46623143Y-239201253D01*
X46802748Y-239380858D01*
X46788605Y-239395000D01*
X47681196Y-240287591D01*
X47879000Y-240221700D01*
X48076804Y-240287591D01*
X48969395Y-239395000D01*
X48955253Y-239380858D01*
X49134858Y-239201253D01*
X49149000Y-239215395D01*
X49163143Y-239201253D01*
X49342748Y-239380858D01*
X49328605Y-239395000D01*
X50221196Y-240287591D01*
X50419000Y-240221700D01*
X50616804Y-240287591D01*
X51509395Y-239395000D01*
X51495253Y-239380858D01*
X51674858Y-239201253D01*
X51689000Y-239215395D01*
X51703143Y-239201253D01*
X51882748Y-239380858D01*
X51868605Y-239395000D01*
X52761196Y-240287591D01*
X52959000Y-240221700D01*
X53156804Y-240287591D01*
X54049395Y-239395000D01*
X54035253Y-239380858D01*
X54214858Y-239201253D01*
X54229000Y-239215395D01*
X54243143Y-239201253D01*
X54422748Y-239380858D01*
X54422748Y-239380858D01*
G37*
X54422748Y-239380858D02*
X54408605Y-239395000D01*
X55301196Y-240287591D01*
X55466138Y-240232647D01*
X55476262Y-240257149D01*
X55904596Y-240686231D01*
X56464528Y-240918735D01*
X57070812Y-240919264D01*
X57631149Y-240687738D01*
X58039336Y-240280263D01*
X58427319Y-240668923D01*
X58469391Y-240880431D01*
X58491367Y-240990910D01*
X58627080Y-241194020D01*
X58683210Y-241278025D01*
X60614186Y-243209000D01*
X49530005Y-243209000D01*
X49530000Y-243208999D01*
X49247516Y-243265190D01*
X49191325Y-243276367D01*
X48904210Y-243468210D01*
X48904208Y-243468213D01*
X47494000Y-244878421D01*
X47494000Y-244094005D01*
X47494001Y-244094000D01*
X47426633Y-243755326D01*
X47426633Y-243755325D01*
X47234790Y-243468210D01*
X47234787Y-243468208D01*
X46345790Y-242579210D01*
X46058675Y-242387367D01*
X46002484Y-242376190D01*
X45720000Y-242319999D01*
X45719995Y-242320000D01*
X44121822Y-242320000D01*
X44001799Y-242270162D01*
X43629833Y-242269838D01*
X43514999Y-242317286D01*
X43514999Y-241342001D01*
X43938114Y-240918886D01*
X44370812Y-240919264D01*
X44931149Y-240687738D01*
X45152076Y-240467196D01*
X45716409Y-240467196D01*
X45801467Y-240722539D01*
X46370965Y-240930516D01*
X46976700Y-240904723D01*
X47416533Y-240722539D01*
X47501591Y-240467196D01*
X48256409Y-240467196D01*
X48341467Y-240722539D01*
X48910965Y-240930516D01*
X49516700Y-240904723D01*
X49956533Y-240722539D01*
X50041591Y-240467196D01*
X50796409Y-240467196D01*
X50881467Y-240722539D01*
X51450965Y-240930516D01*
X52056700Y-240904723D01*
X52496533Y-240722539D01*
X52581591Y-240467196D01*
X53336409Y-240467196D01*
X53421467Y-240722539D01*
X53990965Y-240930516D01*
X54596700Y-240904723D01*
X55036533Y-240722539D01*
X55121591Y-240467196D01*
X54229000Y-239574605D01*
X53336409Y-240467196D01*
X52581591Y-240467196D01*
X51689000Y-239574605D01*
X50796409Y-240467196D01*
X50041591Y-240467196D01*
X49149000Y-239574605D01*
X48256409Y-240467196D01*
X47501591Y-240467196D01*
X46609000Y-239574605D01*
X45716409Y-240467196D01*
X45152076Y-240467196D01*
X45360231Y-240259404D01*
X45371405Y-240232494D01*
X45536804Y-240287591D01*
X46429395Y-239395000D01*
X46415253Y-239380858D01*
X46594858Y-239201253D01*
X46609000Y-239215395D01*
X46623143Y-239201253D01*
X46802748Y-239380858D01*
X46788605Y-239395000D01*
X47681196Y-240287591D01*
X47879000Y-240221700D01*
X48076804Y-240287591D01*
X48969395Y-239395000D01*
X48955253Y-239380858D01*
X49134858Y-239201253D01*
X49149000Y-239215395D01*
X49163143Y-239201253D01*
X49342748Y-239380858D01*
X49328605Y-239395000D01*
X50221196Y-240287591D01*
X50419000Y-240221700D01*
X50616804Y-240287591D01*
X51509395Y-239395000D01*
X51495253Y-239380858D01*
X51674858Y-239201253D01*
X51689000Y-239215395D01*
X51703143Y-239201253D01*
X51882748Y-239380858D01*
X51868605Y-239395000D01*
X52761196Y-240287591D01*
X52959000Y-240221700D01*
X53156804Y-240287591D01*
X54049395Y-239395000D01*
X54035253Y-239380858D01*
X54214858Y-239201253D01*
X54229000Y-239215395D01*
X54243143Y-239201253D01*
X54422748Y-239380858D01*
G36*
X43833214Y-233425794D02*
X43767188Y-233425736D01*
X43206851Y-233657262D01*
X42777769Y-234085596D01*
X42545265Y-234645528D01*
X42544736Y-235251812D01*
X42776262Y-235812149D01*
X43204596Y-236241231D01*
X43764528Y-236473735D01*
X44370812Y-236474264D01*
X44931149Y-236242738D01*
X45339336Y-235835263D01*
X45744596Y-236241231D01*
X46304528Y-236473735D01*
X46910812Y-236474264D01*
X47471149Y-236242738D01*
X47879336Y-235835263D01*
X48284596Y-236241231D01*
X48844528Y-236473735D01*
X49450812Y-236474264D01*
X50011149Y-236242738D01*
X50232076Y-236022196D01*
X50796409Y-236022196D01*
X50881467Y-236277539D01*
X51450965Y-236485516D01*
X52056700Y-236459723D01*
X52496533Y-236277539D01*
X52581591Y-236022196D01*
X53336409Y-236022196D01*
X53421467Y-236277539D01*
X53990965Y-236485516D01*
X54596700Y-236459723D01*
X55036533Y-236277539D01*
X55121591Y-236022196D01*
X55876409Y-236022196D01*
X55961467Y-236277539D01*
X56530965Y-236485516D01*
X57136700Y-236459723D01*
X57576533Y-236277539D01*
X57661591Y-236022196D01*
X58416409Y-236022196D01*
X58501467Y-236277539D01*
X59070965Y-236485516D01*
X59676700Y-236459723D01*
X60116533Y-236277539D01*
X60201591Y-236022196D01*
X59309000Y-235129605D01*
X58416409Y-236022196D01*
X57661591Y-236022196D01*
X56769000Y-235129605D01*
X55876409Y-236022196D01*
X55121591Y-236022196D01*
X54229000Y-235129605D01*
X53336409Y-236022196D01*
X52581591Y-236022196D01*
X51689000Y-235129605D01*
X50796409Y-236022196D01*
X50232076Y-236022196D01*
X50440231Y-235814404D01*
X50451405Y-235787494D01*
X50616804Y-235842591D01*
X51509395Y-234950000D01*
X51868605Y-234950000D01*
X52761196Y-235842591D01*
X52959000Y-235776700D01*
X53156804Y-235842591D01*
X54049395Y-234950000D01*
X54408605Y-234950000D01*
X55301196Y-235842591D01*
X55499000Y-235776700D01*
X55696804Y-235842591D01*
X56589395Y-234950000D01*
X56948605Y-234950000D01*
X57841196Y-235842591D01*
X58039000Y-235776700D01*
X58236804Y-235842591D01*
X59129395Y-234950000D01*
X58236804Y-234057409D01*
X58039000Y-234123300D01*
X57841196Y-234057409D01*
X56948605Y-234950000D01*
X56589395Y-234950000D01*
X55696804Y-234057409D01*
X55499000Y-234123300D01*
X55301196Y-234057409D01*
X54408605Y-234950000D01*
X54049395Y-234950000D01*
X53156804Y-234057409D01*
X52959000Y-234123300D01*
X52761196Y-234057409D01*
X51868605Y-234950000D01*
X51509395Y-234950000D01*
X50616804Y-234057409D01*
X50451862Y-234112353D01*
X50441738Y-234087851D01*
X50013404Y-233658769D01*
X49749051Y-233549000D01*
X51058818Y-233549000D01*
X50881467Y-233622461D01*
X50796409Y-233877804D01*
X51689000Y-234770395D01*
X52581591Y-233877804D01*
X52496533Y-233622461D01*
X52295377Y-233549000D01*
X53598818Y-233549000D01*
X53421467Y-233622461D01*
X53336409Y-233877804D01*
X54229000Y-234770395D01*
X55121591Y-233877804D01*
X55036533Y-233622461D01*
X54835377Y-233549000D01*
X56138818Y-233549000D01*
X55961467Y-233622461D01*
X55876409Y-233877804D01*
X56769000Y-234770395D01*
X57661591Y-233877804D01*
X57576533Y-233622461D01*
X57375377Y-233549000D01*
X58678818Y-233549000D01*
X58501467Y-233622461D01*
X58416409Y-233877804D01*
X59309000Y-234770395D01*
X60201591Y-233877804D01*
X60116533Y-233622461D01*
X59915377Y-233549000D01*
X61248866Y-233549000D01*
X60986851Y-233657262D01*
X60557769Y-234085596D01*
X60546595Y-234112506D01*
X60381196Y-234057409D01*
X59488605Y-234950000D01*
X60381196Y-235842591D01*
X60546138Y-235787647D01*
X60556262Y-235812149D01*
X60984596Y-236241231D01*
X61544528Y-236473735D01*
X62150812Y-236474264D01*
X62711149Y-236242738D01*
X63119599Y-235835000D01*
X63880995Y-235835000D01*
X63881000Y-235835001D01*
X64163484Y-235778810D01*
X64219675Y-235767633D01*
X64506790Y-235575790D01*
X64506791Y-235575789D01*
X66533579Y-233549000D01*
X72297866Y-233549000D01*
X72035851Y-233657262D01*
X71606769Y-234085596D01*
X71374265Y-234645528D01*
X71373736Y-235251812D01*
X71605262Y-235812149D01*
X72033596Y-236241231D01*
X72593528Y-236473735D01*
X73199812Y-236474264D01*
X73760149Y-236242738D01*
X74168336Y-235835263D01*
X74573596Y-236241231D01*
X75133528Y-236473735D01*
X75739812Y-236474264D01*
X76300149Y-236242738D01*
X76708336Y-235835263D01*
X77113596Y-236241231D01*
X77673528Y-236473735D01*
X78279812Y-236474264D01*
X78840149Y-236242738D01*
X79061076Y-236022196D01*
X79625409Y-236022196D01*
X79710467Y-236277539D01*
X80279965Y-236485516D01*
X80885700Y-236459723D01*
X81325533Y-236277539D01*
X81410591Y-236022196D01*
X82165409Y-236022196D01*
X82250467Y-236277539D01*
X82819965Y-236485516D01*
X83425700Y-236459723D01*
X83865533Y-236277539D01*
X83950591Y-236022196D01*
X84705409Y-236022196D01*
X84790467Y-236277539D01*
X85359965Y-236485516D01*
X85965700Y-236459723D01*
X86405533Y-236277539D01*
X86490591Y-236022196D01*
X85598000Y-235129605D01*
X84705409Y-236022196D01*
X83950591Y-236022196D01*
X83058000Y-235129605D01*
X82165409Y-236022196D01*
X81410591Y-236022196D01*
X80518000Y-235129605D01*
X79625409Y-236022196D01*
X79061076Y-236022196D01*
X79269231Y-235814404D01*
X79280405Y-235787494D01*
X79445804Y-235842591D01*
X80338395Y-234950000D01*
X80697605Y-234950000D01*
X81590196Y-235842591D01*
X81788000Y-235776700D01*
X81985804Y-235842591D01*
X82878395Y-234950000D01*
X83237605Y-234950000D01*
X84130196Y-235842591D01*
X84328000Y-235776700D01*
X84525804Y-235842591D01*
X85418395Y-234950000D01*
X85777605Y-234950000D01*
X86670196Y-235842591D01*
X86868000Y-235776700D01*
X87065804Y-235842591D01*
X87958395Y-234950000D01*
X87065804Y-234057409D01*
X86868000Y-234123300D01*
X86670196Y-234057409D01*
X85777605Y-234950000D01*
X85418395Y-234950000D01*
X84525804Y-234057409D01*
X84328000Y-234123300D01*
X84130196Y-234057409D01*
X83237605Y-234950000D01*
X82878395Y-234950000D01*
X81985804Y-234057409D01*
X81788000Y-234123300D01*
X81590196Y-234057409D01*
X80697605Y-234950000D01*
X80338395Y-234950000D01*
X79445804Y-234057409D01*
X79280862Y-234112353D01*
X79270738Y-234087851D01*
X79061058Y-233877804D01*
X79625409Y-233877804D01*
X80518000Y-234770395D01*
X81410591Y-233877804D01*
X82165409Y-233877804D01*
X83058000Y-234770395D01*
X83950591Y-233877804D01*
X84705409Y-233877804D01*
X85598000Y-234770395D01*
X86490591Y-233877804D01*
X86405533Y-233622461D01*
X85836035Y-233414484D01*
X85230300Y-233440277D01*
X84790467Y-233622461D01*
X84705409Y-233877804D01*
X83950591Y-233877804D01*
X83865533Y-233622461D01*
X83296035Y-233414484D01*
X82690300Y-233440277D01*
X82250467Y-233622461D01*
X82165409Y-233877804D01*
X81410591Y-233877804D01*
X81325533Y-233622461D01*
X80756035Y-233414484D01*
X80150300Y-233440277D01*
X79710467Y-233622461D01*
X79625409Y-233877804D01*
X79061058Y-233877804D01*
X78842404Y-233658769D01*
X78282472Y-233426265D01*
X78213374Y-233426205D01*
X78344579Y-233295000D01*
X87771420Y-233295000D01*
X87910718Y-233434298D01*
X87770300Y-233440277D01*
X87330467Y-233622461D01*
X87245409Y-233877804D01*
X88138000Y-234770395D01*
X88152143Y-234756253D01*
X88331748Y-234935858D01*
X88317605Y-234950000D01*
X88331748Y-234964143D01*
X88152143Y-235143748D01*
X88138000Y-235129605D01*
X87245409Y-236022196D01*
X87330467Y-236277539D01*
X87893328Y-236483092D01*
X87512210Y-236864210D01*
X87320367Y-237151325D01*
X87320367Y-237151326D01*
X87252999Y-237490000D01*
X87253000Y-237490005D01*
X87253000Y-237490073D01*
X86867664Y-237874737D01*
X86462404Y-237468769D01*
X85902472Y-237236265D01*
X85296188Y-237235736D01*
X84735851Y-237467262D01*
X84306769Y-237895596D01*
X84295595Y-237922506D01*
X84130196Y-237867409D01*
X83237605Y-238760000D01*
X84130196Y-239652591D01*
X84295138Y-239597647D01*
X84305262Y-239622149D01*
X84733596Y-240051231D01*
X85293528Y-240283735D01*
X85899812Y-240284264D01*
X86460149Y-240052738D01*
X86868336Y-239645263D01*
X87253000Y-240030599D01*
X87253000Y-242955000D01*
X77978005Y-242955000D01*
X77978000Y-242954999D01*
X77652064Y-243019833D01*
X77639325Y-243022367D01*
X77360007Y-243209000D01*
X63117344Y-243209000D01*
X60809259Y-240900914D01*
X60960000Y-240931440D01*
X62738000Y-240931440D01*
X62973317Y-240887162D01*
X63189441Y-240748090D01*
X63334431Y-240535890D01*
X63385440Y-240284000D01*
X63385440Y-238506000D01*
X63379607Y-238475000D01*
X71220000Y-238475000D01*
X71374114Y-238629114D01*
X71373736Y-239061812D01*
X71605262Y-239622149D01*
X72033596Y-240051231D01*
X72593528Y-240283735D01*
X73199812Y-240284264D01*
X73760149Y-240052738D01*
X73981076Y-239832196D01*
X74545409Y-239832196D01*
X74630467Y-240087539D01*
X75199965Y-240295516D01*
X75805700Y-240269723D01*
X76245533Y-240087539D01*
X76330591Y-239832196D01*
X77085409Y-239832196D01*
X77170467Y-240087539D01*
X77739965Y-240295516D01*
X78345700Y-240269723D01*
X78785533Y-240087539D01*
X78870591Y-239832196D01*
X79625409Y-239832196D01*
X79710467Y-240087539D01*
X80279965Y-240295516D01*
X80885700Y-240269723D01*
X81325533Y-240087539D01*
X81410591Y-239832196D01*
X82165409Y-239832196D01*
X82250467Y-240087539D01*
X82819965Y-240295516D01*
X83425700Y-240269723D01*
X83865533Y-240087539D01*
X83950591Y-239832196D01*
X83058000Y-238939605D01*
X82165409Y-239832196D01*
X81410591Y-239832196D01*
X80518000Y-238939605D01*
X79625409Y-239832196D01*
X78870591Y-239832196D01*
X77978000Y-238939605D01*
X77085409Y-239832196D01*
X76330591Y-239832196D01*
X75438000Y-238939605D01*
X74545409Y-239832196D01*
X73981076Y-239832196D01*
X74189231Y-239624404D01*
X74200405Y-239597494D01*
X74365804Y-239652591D01*
X75258395Y-238760000D01*
X75617605Y-238760000D01*
X76510196Y-239652591D01*
X76708000Y-239586700D01*
X76905804Y-239652591D01*
X77798395Y-238760000D01*
X78157605Y-238760000D01*
X79050196Y-239652591D01*
X79248000Y-239586700D01*
X79445804Y-239652591D01*
X80338395Y-238760000D01*
X80697605Y-238760000D01*
X81590196Y-239652591D01*
X81788000Y-239586700D01*
X81985804Y-239652591D01*
X82878395Y-238760000D01*
X81985804Y-237867409D01*
X81788000Y-237933300D01*
X81590196Y-237867409D01*
X80697605Y-238760000D01*
X80338395Y-238760000D01*
X79445804Y-237867409D01*
X79248000Y-237933300D01*
X79050196Y-237867409D01*
X78157605Y-238760000D01*
X77798395Y-238760000D01*
X76905804Y-237867409D01*
X76708000Y-237933300D01*
X76510196Y-237867409D01*
X75617605Y-238760000D01*
X75258395Y-238760000D01*
X74365804Y-237867409D01*
X74200862Y-237922353D01*
X74190738Y-237897851D01*
X73981058Y-237687804D01*
X74545409Y-237687804D01*
X75438000Y-238580395D01*
X76330591Y-237687804D01*
X77085409Y-237687804D01*
X77978000Y-238580395D01*
X78870591Y-237687804D01*
X79625409Y-237687804D01*
X80518000Y-238580395D01*
X81410591Y-237687804D01*
X82165409Y-237687804D01*
X83058000Y-238580395D01*
X83950591Y-237687804D01*
X83865533Y-237432461D01*
X83296035Y-237224484D01*
X82690300Y-237250277D01*
X82250467Y-237432461D01*
X82165409Y-237687804D01*
X81410591Y-237687804D01*
X81325533Y-237432461D01*
X80756035Y-237224484D01*
X80150300Y-237250277D01*
X79710467Y-237432461D01*
X79625409Y-237687804D01*
X78870591Y-237687804D01*
X78785533Y-237432461D01*
X78216035Y-237224484D01*
X77610300Y-237250277D01*
X77170467Y-237432461D01*
X77085409Y-237687804D01*
X76330591Y-237687804D01*
X76245533Y-237432461D01*
X75676035Y-237224484D01*
X75070300Y-237250277D01*
X74630467Y-237432461D01*
X74545409Y-237687804D01*
X73981058Y-237687804D01*
X73762404Y-237468769D01*
X73202472Y-237236265D01*
X72766885Y-237235885D01*
X72324500Y-236793500D01*
X72004943Y-236579979D01*
X71628000Y-236505000D01*
X45974000Y-236505000D01*
X45597057Y-236579979D01*
X45277500Y-236793500D01*
X44199886Y-237871114D01*
X43767188Y-237870736D01*
X43206851Y-238102262D01*
X43059311Y-238249545D01*
X38139205Y-233329440D01*
X38222558Y-233295000D01*
X43702420Y-233295000D01*
X43833214Y-233425794D01*
X43833214Y-233425794D01*
G37*
X43833214Y-233425794D02*
X43767188Y-233425736D01*
X43206851Y-233657262D01*
X42777769Y-234085596D01*
X42545265Y-234645528D01*
X42544736Y-235251812D01*
X42776262Y-235812149D01*
X43204596Y-236241231D01*
X43764528Y-236473735D01*
X44370812Y-236474264D01*
X44931149Y-236242738D01*
X45339336Y-235835263D01*
X45744596Y-236241231D01*
X46304528Y-236473735D01*
X46910812Y-236474264D01*
X47471149Y-236242738D01*
X47879336Y-235835263D01*
X48284596Y-236241231D01*
X48844528Y-236473735D01*
X49450812Y-236474264D01*
X50011149Y-236242738D01*
X50232076Y-236022196D01*
X50796409Y-236022196D01*
X50881467Y-236277539D01*
X51450965Y-236485516D01*
X52056700Y-236459723D01*
X52496533Y-236277539D01*
X52581591Y-236022196D01*
X53336409Y-236022196D01*
X53421467Y-236277539D01*
X53990965Y-236485516D01*
X54596700Y-236459723D01*
X55036533Y-236277539D01*
X55121591Y-236022196D01*
X55876409Y-236022196D01*
X55961467Y-236277539D01*
X56530965Y-236485516D01*
X57136700Y-236459723D01*
X57576533Y-236277539D01*
X57661591Y-236022196D01*
X58416409Y-236022196D01*
X58501467Y-236277539D01*
X59070965Y-236485516D01*
X59676700Y-236459723D01*
X60116533Y-236277539D01*
X60201591Y-236022196D01*
X59309000Y-235129605D01*
X58416409Y-236022196D01*
X57661591Y-236022196D01*
X56769000Y-235129605D01*
X55876409Y-236022196D01*
X55121591Y-236022196D01*
X54229000Y-235129605D01*
X53336409Y-236022196D01*
X52581591Y-236022196D01*
X51689000Y-235129605D01*
X50796409Y-236022196D01*
X50232076Y-236022196D01*
X50440231Y-235814404D01*
X50451405Y-235787494D01*
X50616804Y-235842591D01*
X51509395Y-234950000D01*
X51868605Y-234950000D01*
X52761196Y-235842591D01*
X52959000Y-235776700D01*
X53156804Y-235842591D01*
X54049395Y-234950000D01*
X54408605Y-234950000D01*
X55301196Y-235842591D01*
X55499000Y-235776700D01*
X55696804Y-235842591D01*
X56589395Y-234950000D01*
X56948605Y-234950000D01*
X57841196Y-235842591D01*
X58039000Y-235776700D01*
X58236804Y-235842591D01*
X59129395Y-234950000D01*
X58236804Y-234057409D01*
X58039000Y-234123300D01*
X57841196Y-234057409D01*
X56948605Y-234950000D01*
X56589395Y-234950000D01*
X55696804Y-234057409D01*
X55499000Y-234123300D01*
X55301196Y-234057409D01*
X54408605Y-234950000D01*
X54049395Y-234950000D01*
X53156804Y-234057409D01*
X52959000Y-234123300D01*
X52761196Y-234057409D01*
X51868605Y-234950000D01*
X51509395Y-234950000D01*
X50616804Y-234057409D01*
X50451862Y-234112353D01*
X50441738Y-234087851D01*
X50013404Y-233658769D01*
X49749051Y-233549000D01*
X51058818Y-233549000D01*
X50881467Y-233622461D01*
X50796409Y-233877804D01*
X51689000Y-234770395D01*
X52581591Y-233877804D01*
X52496533Y-233622461D01*
X52295377Y-233549000D01*
X53598818Y-233549000D01*
X53421467Y-233622461D01*
X53336409Y-233877804D01*
X54229000Y-234770395D01*
X55121591Y-233877804D01*
X55036533Y-233622461D01*
X54835377Y-233549000D01*
X56138818Y-233549000D01*
X55961467Y-233622461D01*
X55876409Y-233877804D01*
X56769000Y-234770395D01*
X57661591Y-233877804D01*
X57576533Y-233622461D01*
X57375377Y-233549000D01*
X58678818Y-233549000D01*
X58501467Y-233622461D01*
X58416409Y-233877804D01*
X59309000Y-234770395D01*
X60201591Y-233877804D01*
X60116533Y-233622461D01*
X59915377Y-233549000D01*
X61248866Y-233549000D01*
X60986851Y-233657262D01*
X60557769Y-234085596D01*
X60546595Y-234112506D01*
X60381196Y-234057409D01*
X59488605Y-234950000D01*
X60381196Y-235842591D01*
X60546138Y-235787647D01*
X60556262Y-235812149D01*
X60984596Y-236241231D01*
X61544528Y-236473735D01*
X62150812Y-236474264D01*
X62711149Y-236242738D01*
X63119599Y-235835000D01*
X63880995Y-235835000D01*
X63881000Y-235835001D01*
X64163484Y-235778810D01*
X64219675Y-235767633D01*
X64506790Y-235575790D01*
X64506791Y-235575789D01*
X66533579Y-233549000D01*
X72297866Y-233549000D01*
X72035851Y-233657262D01*
X71606769Y-234085596D01*
X71374265Y-234645528D01*
X71373736Y-235251812D01*
X71605262Y-235812149D01*
X72033596Y-236241231D01*
X72593528Y-236473735D01*
X73199812Y-236474264D01*
X73760149Y-236242738D01*
X74168336Y-235835263D01*
X74573596Y-236241231D01*
X75133528Y-236473735D01*
X75739812Y-236474264D01*
X76300149Y-236242738D01*
X76708336Y-235835263D01*
X77113596Y-236241231D01*
X77673528Y-236473735D01*
X78279812Y-236474264D01*
X78840149Y-236242738D01*
X79061076Y-236022196D01*
X79625409Y-236022196D01*
X79710467Y-236277539D01*
X80279965Y-236485516D01*
X80885700Y-236459723D01*
X81325533Y-236277539D01*
X81410591Y-236022196D01*
X82165409Y-236022196D01*
X82250467Y-236277539D01*
X82819965Y-236485516D01*
X83425700Y-236459723D01*
X83865533Y-236277539D01*
X83950591Y-236022196D01*
X84705409Y-236022196D01*
X84790467Y-236277539D01*
X85359965Y-236485516D01*
X85965700Y-236459723D01*
X86405533Y-236277539D01*
X86490591Y-236022196D01*
X85598000Y-235129605D01*
X84705409Y-236022196D01*
X83950591Y-236022196D01*
X83058000Y-235129605D01*
X82165409Y-236022196D01*
X81410591Y-236022196D01*
X80518000Y-235129605D01*
X79625409Y-236022196D01*
X79061076Y-236022196D01*
X79269231Y-235814404D01*
X79280405Y-235787494D01*
X79445804Y-235842591D01*
X80338395Y-234950000D01*
X80697605Y-234950000D01*
X81590196Y-235842591D01*
X81788000Y-235776700D01*
X81985804Y-235842591D01*
X82878395Y-234950000D01*
X83237605Y-234950000D01*
X84130196Y-235842591D01*
X84328000Y-235776700D01*
X84525804Y-235842591D01*
X85418395Y-234950000D01*
X85777605Y-234950000D01*
X86670196Y-235842591D01*
X86868000Y-235776700D01*
X87065804Y-235842591D01*
X87958395Y-234950000D01*
X87065804Y-234057409D01*
X86868000Y-234123300D01*
X86670196Y-234057409D01*
X85777605Y-234950000D01*
X85418395Y-234950000D01*
X84525804Y-234057409D01*
X84328000Y-234123300D01*
X84130196Y-234057409D01*
X83237605Y-234950000D01*
X82878395Y-234950000D01*
X81985804Y-234057409D01*
X81788000Y-234123300D01*
X81590196Y-234057409D01*
X80697605Y-234950000D01*
X80338395Y-234950000D01*
X79445804Y-234057409D01*
X79280862Y-234112353D01*
X79270738Y-234087851D01*
X79061058Y-233877804D01*
X79625409Y-233877804D01*
X80518000Y-234770395D01*
X81410591Y-233877804D01*
X82165409Y-233877804D01*
X83058000Y-234770395D01*
X83950591Y-233877804D01*
X84705409Y-233877804D01*
X85598000Y-234770395D01*
X86490591Y-233877804D01*
X86405533Y-233622461D01*
X85836035Y-233414484D01*
X85230300Y-233440277D01*
X84790467Y-233622461D01*
X84705409Y-233877804D01*
X83950591Y-233877804D01*
X83865533Y-233622461D01*
X83296035Y-233414484D01*
X82690300Y-233440277D01*
X82250467Y-233622461D01*
X82165409Y-233877804D01*
X81410591Y-233877804D01*
X81325533Y-233622461D01*
X80756035Y-233414484D01*
X80150300Y-233440277D01*
X79710467Y-233622461D01*
X79625409Y-233877804D01*
X79061058Y-233877804D01*
X78842404Y-233658769D01*
X78282472Y-233426265D01*
X78213374Y-233426205D01*
X78344579Y-233295000D01*
X87771420Y-233295000D01*
X87910718Y-233434298D01*
X87770300Y-233440277D01*
X87330467Y-233622461D01*
X87245409Y-233877804D01*
X88138000Y-234770395D01*
X88152143Y-234756253D01*
X88331748Y-234935858D01*
X88317605Y-234950000D01*
X88331748Y-234964143D01*
X88152143Y-235143748D01*
X88138000Y-235129605D01*
X87245409Y-236022196D01*
X87330467Y-236277539D01*
X87893328Y-236483092D01*
X87512210Y-236864210D01*
X87320367Y-237151325D01*
X87320367Y-237151326D01*
X87252999Y-237490000D01*
X87253000Y-237490005D01*
X87253000Y-237490073D01*
X86867664Y-237874737D01*
X86462404Y-237468769D01*
X85902472Y-237236265D01*
X85296188Y-237235736D01*
X84735851Y-237467262D01*
X84306769Y-237895596D01*
X84295595Y-237922506D01*
X84130196Y-237867409D01*
X83237605Y-238760000D01*
X84130196Y-239652591D01*
X84295138Y-239597647D01*
X84305262Y-239622149D01*
X84733596Y-240051231D01*
X85293528Y-240283735D01*
X85899812Y-240284264D01*
X86460149Y-240052738D01*
X86868336Y-239645263D01*
X87253000Y-240030599D01*
X87253000Y-242955000D01*
X77978005Y-242955000D01*
X77978000Y-242954999D01*
X77652064Y-243019833D01*
X77639325Y-243022367D01*
X77360007Y-243209000D01*
X63117344Y-243209000D01*
X60809259Y-240900914D01*
X60960000Y-240931440D01*
X62738000Y-240931440D01*
X62973317Y-240887162D01*
X63189441Y-240748090D01*
X63334431Y-240535890D01*
X63385440Y-240284000D01*
X63385440Y-238506000D01*
X63379607Y-238475000D01*
X71220000Y-238475000D01*
X71374114Y-238629114D01*
X71373736Y-239061812D01*
X71605262Y-239622149D01*
X72033596Y-240051231D01*
X72593528Y-240283735D01*
X73199812Y-240284264D01*
X73760149Y-240052738D01*
X73981076Y-239832196D01*
X74545409Y-239832196D01*
X74630467Y-240087539D01*
X75199965Y-240295516D01*
X75805700Y-240269723D01*
X76245533Y-240087539D01*
X76330591Y-239832196D01*
X77085409Y-239832196D01*
X77170467Y-240087539D01*
X77739965Y-240295516D01*
X78345700Y-240269723D01*
X78785533Y-240087539D01*
X78870591Y-239832196D01*
X79625409Y-239832196D01*
X79710467Y-240087539D01*
X80279965Y-240295516D01*
X80885700Y-240269723D01*
X81325533Y-240087539D01*
X81410591Y-239832196D01*
X82165409Y-239832196D01*
X82250467Y-240087539D01*
X82819965Y-240295516D01*
X83425700Y-240269723D01*
X83865533Y-240087539D01*
X83950591Y-239832196D01*
X83058000Y-238939605D01*
X82165409Y-239832196D01*
X81410591Y-239832196D01*
X80518000Y-238939605D01*
X79625409Y-239832196D01*
X78870591Y-239832196D01*
X77978000Y-238939605D01*
X77085409Y-239832196D01*
X76330591Y-239832196D01*
X75438000Y-238939605D01*
X74545409Y-239832196D01*
X73981076Y-239832196D01*
X74189231Y-239624404D01*
X74200405Y-239597494D01*
X74365804Y-239652591D01*
X75258395Y-238760000D01*
X75617605Y-238760000D01*
X76510196Y-239652591D01*
X76708000Y-239586700D01*
X76905804Y-239652591D01*
X77798395Y-238760000D01*
X78157605Y-238760000D01*
X79050196Y-239652591D01*
X79248000Y-239586700D01*
X79445804Y-239652591D01*
X80338395Y-238760000D01*
X80697605Y-238760000D01*
X81590196Y-239652591D01*
X81788000Y-239586700D01*
X81985804Y-239652591D01*
X82878395Y-238760000D01*
X81985804Y-237867409D01*
X81788000Y-237933300D01*
X81590196Y-237867409D01*
X80697605Y-238760000D01*
X80338395Y-238760000D01*
X79445804Y-237867409D01*
X79248000Y-237933300D01*
X79050196Y-237867409D01*
X78157605Y-238760000D01*
X77798395Y-238760000D01*
X76905804Y-237867409D01*
X76708000Y-237933300D01*
X76510196Y-237867409D01*
X75617605Y-238760000D01*
X75258395Y-238760000D01*
X74365804Y-237867409D01*
X74200862Y-237922353D01*
X74190738Y-237897851D01*
X73981058Y-237687804D01*
X74545409Y-237687804D01*
X75438000Y-238580395D01*
X76330591Y-237687804D01*
X77085409Y-237687804D01*
X77978000Y-238580395D01*
X78870591Y-237687804D01*
X79625409Y-237687804D01*
X80518000Y-238580395D01*
X81410591Y-237687804D01*
X82165409Y-237687804D01*
X83058000Y-238580395D01*
X83950591Y-237687804D01*
X83865533Y-237432461D01*
X83296035Y-237224484D01*
X82690300Y-237250277D01*
X82250467Y-237432461D01*
X82165409Y-237687804D01*
X81410591Y-237687804D01*
X81325533Y-237432461D01*
X80756035Y-237224484D01*
X80150300Y-237250277D01*
X79710467Y-237432461D01*
X79625409Y-237687804D01*
X78870591Y-237687804D01*
X78785533Y-237432461D01*
X78216035Y-237224484D01*
X77610300Y-237250277D01*
X77170467Y-237432461D01*
X77085409Y-237687804D01*
X76330591Y-237687804D01*
X76245533Y-237432461D01*
X75676035Y-237224484D01*
X75070300Y-237250277D01*
X74630467Y-237432461D01*
X74545409Y-237687804D01*
X73981058Y-237687804D01*
X73762404Y-237468769D01*
X73202472Y-237236265D01*
X72766885Y-237235885D01*
X72324500Y-236793500D01*
X72004943Y-236579979D01*
X71628000Y-236505000D01*
X45974000Y-236505000D01*
X45597057Y-236579979D01*
X45277500Y-236793500D01*
X44199886Y-237871114D01*
X43767188Y-237870736D01*
X43206851Y-238102262D01*
X43059311Y-238249545D01*
X38139205Y-233329440D01*
X38222558Y-233295000D01*
X43702420Y-233295000D01*
X43833214Y-233425794D01*
G36*
X85562823Y-225805969D02*
X85296188Y-225805736D01*
X84735851Y-226037262D01*
X84306769Y-226465596D01*
X84295595Y-226492506D01*
X84130196Y-226437409D01*
X83237605Y-227330000D01*
X84130196Y-228222591D01*
X84295138Y-228167647D01*
X84305262Y-228192149D01*
X84733596Y-228621231D01*
X85293528Y-228853735D01*
X85899812Y-228854264D01*
X86460149Y-228622738D01*
X86868336Y-228215263D01*
X87253000Y-228600599D01*
X87253000Y-231525000D01*
X77978005Y-231525000D01*
X77978000Y-231524999D01*
X77639325Y-231592367D01*
X77360007Y-231779000D01*
X66167005Y-231779000D01*
X66167000Y-231778999D01*
X66166995Y-231779000D01*
X63752344Y-231779000D01*
X60809259Y-228835914D01*
X60960000Y-228866440D01*
X62738000Y-228866440D01*
X62973317Y-228822162D01*
X63189441Y-228683090D01*
X63334431Y-228470890D01*
X63385440Y-228219000D01*
X63385440Y-226441000D01*
X63341162Y-226205683D01*
X63202090Y-225989559D01*
X62989890Y-225844569D01*
X62738000Y-225793560D01*
X60960000Y-225793560D01*
X60724683Y-225837838D01*
X60508559Y-225976910D01*
X60363569Y-226189110D01*
X60356809Y-226222494D01*
X60173404Y-226038769D01*
X59613472Y-225806265D01*
X59007188Y-225805736D01*
X58446851Y-226037262D01*
X58038664Y-226444737D01*
X57633404Y-226038769D01*
X57073472Y-225806265D01*
X56467188Y-225805736D01*
X55906851Y-226037262D01*
X55477769Y-226465596D01*
X55466595Y-226492506D01*
X55301196Y-226437409D01*
X54408605Y-227330000D01*
X55301196Y-228222591D01*
X55466138Y-228167647D01*
X55476262Y-228192149D01*
X55904596Y-228621231D01*
X56464528Y-228853735D01*
X57070812Y-228854264D01*
X57631149Y-228622738D01*
X58039336Y-228215263D01*
X58427319Y-228603923D01*
X58466397Y-228800377D01*
X58491367Y-228925910D01*
X58657787Y-229174976D01*
X58683210Y-229213025D01*
X61249186Y-231779000D01*
X48895005Y-231779000D01*
X48895000Y-231778999D01*
X48603712Y-231836941D01*
X48556325Y-231846367D01*
X48269210Y-232038210D01*
X48269208Y-232038213D01*
X46881184Y-233426237D01*
X46336341Y-233425761D01*
X44694790Y-231784210D01*
X44686991Y-231778999D01*
X44407675Y-231592367D01*
X44330697Y-231577055D01*
X44069000Y-231524999D01*
X44068995Y-231525000D01*
X41267000Y-231525000D01*
X43938114Y-228853886D01*
X44370812Y-228854264D01*
X44931149Y-228622738D01*
X45152076Y-228402196D01*
X45716409Y-228402196D01*
X45801467Y-228657539D01*
X46370965Y-228865516D01*
X46976700Y-228839723D01*
X47416533Y-228657539D01*
X47501591Y-228402196D01*
X48256409Y-228402196D01*
X48341467Y-228657539D01*
X48910965Y-228865516D01*
X49516700Y-228839723D01*
X49956533Y-228657539D01*
X50041591Y-228402196D01*
X50796409Y-228402196D01*
X50881467Y-228657539D01*
X51450965Y-228865516D01*
X52056700Y-228839723D01*
X52496533Y-228657539D01*
X52581591Y-228402196D01*
X53336409Y-228402196D01*
X53421467Y-228657539D01*
X53990965Y-228865516D01*
X54596700Y-228839723D01*
X55036533Y-228657539D01*
X55121591Y-228402196D01*
X54229000Y-227509605D01*
X53336409Y-228402196D01*
X52581591Y-228402196D01*
X51689000Y-227509605D01*
X50796409Y-228402196D01*
X50041591Y-228402196D01*
X49149000Y-227509605D01*
X48256409Y-228402196D01*
X47501591Y-228402196D01*
X46609000Y-227509605D01*
X45716409Y-228402196D01*
X45152076Y-228402196D01*
X45360231Y-228194404D01*
X45371405Y-228167494D01*
X45536804Y-228222591D01*
X46429395Y-227330000D01*
X46788605Y-227330000D01*
X47681196Y-228222591D01*
X47879000Y-228156700D01*
X48076804Y-228222591D01*
X48969395Y-227330000D01*
X49328605Y-227330000D01*
X50221196Y-228222591D01*
X50419000Y-228156700D01*
X50616804Y-228222591D01*
X51509395Y-227330000D01*
X51868605Y-227330000D01*
X52761196Y-228222591D01*
X52959000Y-228156700D01*
X53156804Y-228222591D01*
X54049395Y-227330000D01*
X53156804Y-226437409D01*
X52959000Y-226503300D01*
X52761196Y-226437409D01*
X51868605Y-227330000D01*
X51509395Y-227330000D01*
X50616804Y-226437409D01*
X50419000Y-226503300D01*
X50221196Y-226437409D01*
X49328605Y-227330000D01*
X48969395Y-227330000D01*
X48076804Y-226437409D01*
X47879000Y-226503300D01*
X47681196Y-226437409D01*
X46788605Y-227330000D01*
X46429395Y-227330000D01*
X46415253Y-227315858D01*
X46594858Y-227136253D01*
X46609000Y-227150395D01*
X47501591Y-226257804D01*
X48256409Y-226257804D01*
X49149000Y-227150395D01*
X50041591Y-226257804D01*
X50796409Y-226257804D01*
X51689000Y-227150395D01*
X52581591Y-226257804D01*
X53336409Y-226257804D01*
X54229000Y-227150395D01*
X55121591Y-226257804D01*
X55036533Y-226002461D01*
X54467035Y-225794484D01*
X53861300Y-225820277D01*
X53421467Y-226002461D01*
X53336409Y-226257804D01*
X52581591Y-226257804D01*
X52496533Y-226002461D01*
X51927035Y-225794484D01*
X51321300Y-225820277D01*
X50881467Y-226002461D01*
X50796409Y-226257804D01*
X50041591Y-226257804D01*
X49956533Y-226002461D01*
X49387035Y-225794484D01*
X48781300Y-225820277D01*
X48341467Y-226002461D01*
X48256409Y-226257804D01*
X47501591Y-226257804D01*
X47416533Y-226002461D01*
X46957262Y-225834738D01*
X47017000Y-225775000D01*
X69950000Y-225775000D01*
X71374114Y-227199114D01*
X71373736Y-227631812D01*
X71605262Y-228192149D01*
X72033596Y-228621231D01*
X72593528Y-228853735D01*
X73199812Y-228854264D01*
X73760149Y-228622738D01*
X73981076Y-228402196D01*
X74545409Y-228402196D01*
X74630467Y-228657539D01*
X75199965Y-228865516D01*
X75805700Y-228839723D01*
X76245533Y-228657539D01*
X76330591Y-228402196D01*
X77085409Y-228402196D01*
X77170467Y-228657539D01*
X77739965Y-228865516D01*
X78345700Y-228839723D01*
X78785533Y-228657539D01*
X78870591Y-228402196D01*
X79625409Y-228402196D01*
X79710467Y-228657539D01*
X80279965Y-228865516D01*
X80885700Y-228839723D01*
X81325533Y-228657539D01*
X81410591Y-228402196D01*
X82165409Y-228402196D01*
X82250467Y-228657539D01*
X82819965Y-228865516D01*
X83425700Y-228839723D01*
X83865533Y-228657539D01*
X83950591Y-228402196D01*
X83058000Y-227509605D01*
X82165409Y-228402196D01*
X81410591Y-228402196D01*
X80518000Y-227509605D01*
X79625409Y-228402196D01*
X78870591Y-228402196D01*
X77978000Y-227509605D01*
X77085409Y-228402196D01*
X76330591Y-228402196D01*
X75438000Y-227509605D01*
X74545409Y-228402196D01*
X73981076Y-228402196D01*
X74189231Y-228194404D01*
X74200405Y-228167494D01*
X74365804Y-228222591D01*
X75258395Y-227330000D01*
X75617605Y-227330000D01*
X76510196Y-228222591D01*
X76708000Y-228156700D01*
X76905804Y-228222591D01*
X77798395Y-227330000D01*
X78157605Y-227330000D01*
X79050196Y-228222591D01*
X79248000Y-228156700D01*
X79445804Y-228222591D01*
X80338395Y-227330000D01*
X80697605Y-227330000D01*
X81590196Y-228222591D01*
X81788000Y-228156700D01*
X81985804Y-228222591D01*
X82878395Y-227330000D01*
X81985804Y-226437409D01*
X81788000Y-226503300D01*
X81590196Y-226437409D01*
X80697605Y-227330000D01*
X80338395Y-227330000D01*
X79445804Y-226437409D01*
X79248000Y-226503300D01*
X79050196Y-226437409D01*
X78157605Y-227330000D01*
X77798395Y-227330000D01*
X76905804Y-226437409D01*
X76708000Y-226503300D01*
X76510196Y-226437409D01*
X75617605Y-227330000D01*
X75258395Y-227330000D01*
X74365804Y-226437409D01*
X74200862Y-226492353D01*
X74190738Y-226467851D01*
X73981058Y-226257804D01*
X74545409Y-226257804D01*
X75438000Y-227150395D01*
X76330591Y-226257804D01*
X77085409Y-226257804D01*
X77978000Y-227150395D01*
X78870591Y-226257804D01*
X79625409Y-226257804D01*
X80518000Y-227150395D01*
X81410591Y-226257804D01*
X82165409Y-226257804D01*
X83058000Y-227150395D01*
X83950591Y-226257804D01*
X83865533Y-226002461D01*
X83296035Y-225794484D01*
X82690300Y-225820277D01*
X82250467Y-226002461D01*
X82165409Y-226257804D01*
X81410591Y-226257804D01*
X81325533Y-226002461D01*
X80756035Y-225794484D01*
X80150300Y-225820277D01*
X79710467Y-226002461D01*
X79625409Y-226257804D01*
X78870591Y-226257804D01*
X78785533Y-226002461D01*
X78216035Y-225794484D01*
X77610300Y-225820277D01*
X77170467Y-226002461D01*
X77085409Y-226257804D01*
X76330591Y-226257804D01*
X76245533Y-226002461D01*
X75676035Y-225794484D01*
X75070300Y-225820277D01*
X74630467Y-226002461D01*
X74545409Y-226257804D01*
X73981058Y-226257804D01*
X73762404Y-226038769D01*
X73202472Y-225806265D01*
X72766885Y-225805885D01*
X71054500Y-224093500D01*
X70734943Y-223879979D01*
X70358000Y-223805000D01*
X46719146Y-223805000D01*
X62025145Y-208499001D01*
X64115999Y-208499001D01*
X64435540Y-208435440D01*
X64706433Y-208254435D01*
X65073398Y-207887470D01*
X65100528Y-207898735D01*
X65706812Y-207899264D01*
X66267149Y-207667738D01*
X66696231Y-207239404D01*
X66784260Y-207027406D01*
X85562823Y-225805969D01*
X85562823Y-225805969D01*
G37*
X85562823Y-225805969D02*
X85296188Y-225805736D01*
X84735851Y-226037262D01*
X84306769Y-226465596D01*
X84295595Y-226492506D01*
X84130196Y-226437409D01*
X83237605Y-227330000D01*
X84130196Y-228222591D01*
X84295138Y-228167647D01*
X84305262Y-228192149D01*
X84733596Y-228621231D01*
X85293528Y-228853735D01*
X85899812Y-228854264D01*
X86460149Y-228622738D01*
X86868336Y-228215263D01*
X87253000Y-228600599D01*
X87253000Y-231525000D01*
X77978005Y-231525000D01*
X77978000Y-231524999D01*
X77639325Y-231592367D01*
X77360007Y-231779000D01*
X66167005Y-231779000D01*
X66167000Y-231778999D01*
X66166995Y-231779000D01*
X63752344Y-231779000D01*
X60809259Y-228835914D01*
X60960000Y-228866440D01*
X62738000Y-228866440D01*
X62973317Y-228822162D01*
X63189441Y-228683090D01*
X63334431Y-228470890D01*
X63385440Y-228219000D01*
X63385440Y-226441000D01*
X63341162Y-226205683D01*
X63202090Y-225989559D01*
X62989890Y-225844569D01*
X62738000Y-225793560D01*
X60960000Y-225793560D01*
X60724683Y-225837838D01*
X60508559Y-225976910D01*
X60363569Y-226189110D01*
X60356809Y-226222494D01*
X60173404Y-226038769D01*
X59613472Y-225806265D01*
X59007188Y-225805736D01*
X58446851Y-226037262D01*
X58038664Y-226444737D01*
X57633404Y-226038769D01*
X57073472Y-225806265D01*
X56467188Y-225805736D01*
X55906851Y-226037262D01*
X55477769Y-226465596D01*
X55466595Y-226492506D01*
X55301196Y-226437409D01*
X54408605Y-227330000D01*
X55301196Y-228222591D01*
X55466138Y-228167647D01*
X55476262Y-228192149D01*
X55904596Y-228621231D01*
X56464528Y-228853735D01*
X57070812Y-228854264D01*
X57631149Y-228622738D01*
X58039336Y-228215263D01*
X58427319Y-228603923D01*
X58466397Y-228800377D01*
X58491367Y-228925910D01*
X58657787Y-229174976D01*
X58683210Y-229213025D01*
X61249186Y-231779000D01*
X48895005Y-231779000D01*
X48895000Y-231778999D01*
X48603712Y-231836941D01*
X48556325Y-231846367D01*
X48269210Y-232038210D01*
X48269208Y-232038213D01*
X46881184Y-233426237D01*
X46336341Y-233425761D01*
X44694790Y-231784210D01*
X44686991Y-231778999D01*
X44407675Y-231592367D01*
X44330697Y-231577055D01*
X44069000Y-231524999D01*
X44068995Y-231525000D01*
X41267000Y-231525000D01*
X43938114Y-228853886D01*
X44370812Y-228854264D01*
X44931149Y-228622738D01*
X45152076Y-228402196D01*
X45716409Y-228402196D01*
X45801467Y-228657539D01*
X46370965Y-228865516D01*
X46976700Y-228839723D01*
X47416533Y-228657539D01*
X47501591Y-228402196D01*
X48256409Y-228402196D01*
X48341467Y-228657539D01*
X48910965Y-228865516D01*
X49516700Y-228839723D01*
X49956533Y-228657539D01*
X50041591Y-228402196D01*
X50796409Y-228402196D01*
X50881467Y-228657539D01*
X51450965Y-228865516D01*
X52056700Y-228839723D01*
X52496533Y-228657539D01*
X52581591Y-228402196D01*
X53336409Y-228402196D01*
X53421467Y-228657539D01*
X53990965Y-228865516D01*
X54596700Y-228839723D01*
X55036533Y-228657539D01*
X55121591Y-228402196D01*
X54229000Y-227509605D01*
X53336409Y-228402196D01*
X52581591Y-228402196D01*
X51689000Y-227509605D01*
X50796409Y-228402196D01*
X50041591Y-228402196D01*
X49149000Y-227509605D01*
X48256409Y-228402196D01*
X47501591Y-228402196D01*
X46609000Y-227509605D01*
X45716409Y-228402196D01*
X45152076Y-228402196D01*
X45360231Y-228194404D01*
X45371405Y-228167494D01*
X45536804Y-228222591D01*
X46429395Y-227330000D01*
X46788605Y-227330000D01*
X47681196Y-228222591D01*
X47879000Y-228156700D01*
X48076804Y-228222591D01*
X48969395Y-227330000D01*
X49328605Y-227330000D01*
X50221196Y-228222591D01*
X50419000Y-228156700D01*
X50616804Y-228222591D01*
X51509395Y-227330000D01*
X51868605Y-227330000D01*
X52761196Y-228222591D01*
X52959000Y-228156700D01*
X53156804Y-228222591D01*
X54049395Y-227330000D01*
X53156804Y-226437409D01*
X52959000Y-226503300D01*
X52761196Y-226437409D01*
X51868605Y-227330000D01*
X51509395Y-227330000D01*
X50616804Y-226437409D01*
X50419000Y-226503300D01*
X50221196Y-226437409D01*
X49328605Y-227330000D01*
X48969395Y-227330000D01*
X48076804Y-226437409D01*
X47879000Y-226503300D01*
X47681196Y-226437409D01*
X46788605Y-227330000D01*
X46429395Y-227330000D01*
X46415253Y-227315858D01*
X46594858Y-227136253D01*
X46609000Y-227150395D01*
X47501591Y-226257804D01*
X48256409Y-226257804D01*
X49149000Y-227150395D01*
X50041591Y-226257804D01*
X50796409Y-226257804D01*
X51689000Y-227150395D01*
X52581591Y-226257804D01*
X53336409Y-226257804D01*
X54229000Y-227150395D01*
X55121591Y-226257804D01*
X55036533Y-226002461D01*
X54467035Y-225794484D01*
X53861300Y-225820277D01*
X53421467Y-226002461D01*
X53336409Y-226257804D01*
X52581591Y-226257804D01*
X52496533Y-226002461D01*
X51927035Y-225794484D01*
X51321300Y-225820277D01*
X50881467Y-226002461D01*
X50796409Y-226257804D01*
X50041591Y-226257804D01*
X49956533Y-226002461D01*
X49387035Y-225794484D01*
X48781300Y-225820277D01*
X48341467Y-226002461D01*
X48256409Y-226257804D01*
X47501591Y-226257804D01*
X47416533Y-226002461D01*
X46957262Y-225834738D01*
X47017000Y-225775000D01*
X69950000Y-225775000D01*
X71374114Y-227199114D01*
X71373736Y-227631812D01*
X71605262Y-228192149D01*
X72033596Y-228621231D01*
X72593528Y-228853735D01*
X73199812Y-228854264D01*
X73760149Y-228622738D01*
X73981076Y-228402196D01*
X74545409Y-228402196D01*
X74630467Y-228657539D01*
X75199965Y-228865516D01*
X75805700Y-228839723D01*
X76245533Y-228657539D01*
X76330591Y-228402196D01*
X77085409Y-228402196D01*
X77170467Y-228657539D01*
X77739965Y-228865516D01*
X78345700Y-228839723D01*
X78785533Y-228657539D01*
X78870591Y-228402196D01*
X79625409Y-228402196D01*
X79710467Y-228657539D01*
X80279965Y-228865516D01*
X80885700Y-228839723D01*
X81325533Y-228657539D01*
X81410591Y-228402196D01*
X82165409Y-228402196D01*
X82250467Y-228657539D01*
X82819965Y-228865516D01*
X83425700Y-228839723D01*
X83865533Y-228657539D01*
X83950591Y-228402196D01*
X83058000Y-227509605D01*
X82165409Y-228402196D01*
X81410591Y-228402196D01*
X80518000Y-227509605D01*
X79625409Y-228402196D01*
X78870591Y-228402196D01*
X77978000Y-227509605D01*
X77085409Y-228402196D01*
X76330591Y-228402196D01*
X75438000Y-227509605D01*
X74545409Y-228402196D01*
X73981076Y-228402196D01*
X74189231Y-228194404D01*
X74200405Y-228167494D01*
X74365804Y-228222591D01*
X75258395Y-227330000D01*
X75617605Y-227330000D01*
X76510196Y-228222591D01*
X76708000Y-228156700D01*
X76905804Y-228222591D01*
X77798395Y-227330000D01*
X78157605Y-227330000D01*
X79050196Y-228222591D01*
X79248000Y-228156700D01*
X79445804Y-228222591D01*
X80338395Y-227330000D01*
X80697605Y-227330000D01*
X81590196Y-228222591D01*
X81788000Y-228156700D01*
X81985804Y-228222591D01*
X82878395Y-227330000D01*
X81985804Y-226437409D01*
X81788000Y-226503300D01*
X81590196Y-226437409D01*
X80697605Y-227330000D01*
X80338395Y-227330000D01*
X79445804Y-226437409D01*
X79248000Y-226503300D01*
X79050196Y-226437409D01*
X78157605Y-227330000D01*
X77798395Y-227330000D01*
X76905804Y-226437409D01*
X76708000Y-226503300D01*
X76510196Y-226437409D01*
X75617605Y-227330000D01*
X75258395Y-227330000D01*
X74365804Y-226437409D01*
X74200862Y-226492353D01*
X74190738Y-226467851D01*
X73981058Y-226257804D01*
X74545409Y-226257804D01*
X75438000Y-227150395D01*
X76330591Y-226257804D01*
X77085409Y-226257804D01*
X77978000Y-227150395D01*
X78870591Y-226257804D01*
X79625409Y-226257804D01*
X80518000Y-227150395D01*
X81410591Y-226257804D01*
X82165409Y-226257804D01*
X83058000Y-227150395D01*
X83950591Y-226257804D01*
X83865533Y-226002461D01*
X83296035Y-225794484D01*
X82690300Y-225820277D01*
X82250467Y-226002461D01*
X82165409Y-226257804D01*
X81410591Y-226257804D01*
X81325533Y-226002461D01*
X80756035Y-225794484D01*
X80150300Y-225820277D01*
X79710467Y-226002461D01*
X79625409Y-226257804D01*
X78870591Y-226257804D01*
X78785533Y-226002461D01*
X78216035Y-225794484D01*
X77610300Y-225820277D01*
X77170467Y-226002461D01*
X77085409Y-226257804D01*
X76330591Y-226257804D01*
X76245533Y-226002461D01*
X75676035Y-225794484D01*
X75070300Y-225820277D01*
X74630467Y-226002461D01*
X74545409Y-226257804D01*
X73981058Y-226257804D01*
X73762404Y-226038769D01*
X73202472Y-225806265D01*
X72766885Y-225805885D01*
X71054500Y-224093500D01*
X70734943Y-223879979D01*
X70358000Y-223805000D01*
X46719146Y-223805000D01*
X62025145Y-208499001D01*
X64115999Y-208499001D01*
X64435540Y-208435440D01*
X64706433Y-208254435D01*
X65073398Y-207887470D01*
X65100528Y-207898735D01*
X65706812Y-207899264D01*
X66267149Y-207667738D01*
X66696231Y-207239404D01*
X66784260Y-207027406D01*
X85562823Y-225805969D01*
G36*
X62909566Y-174607842D02*
X62728561Y-174878735D01*
X62665000Y-175198276D01*
X62665000Y-186148044D01*
X62637851Y-186159262D01*
X62229664Y-186566737D01*
X61824404Y-186160769D01*
X61264472Y-185928265D01*
X60658188Y-185927736D01*
X60097851Y-186159262D01*
X59689664Y-186566737D01*
X59284404Y-186160769D01*
X58724472Y-185928265D01*
X58118188Y-185927736D01*
X57557851Y-186159262D01*
X57149664Y-186566737D01*
X56744404Y-186160769D01*
X56184472Y-185928265D01*
X55578188Y-185927736D01*
X55017851Y-186159262D01*
X54588769Y-186587596D01*
X54577595Y-186614506D01*
X54412196Y-186559409D01*
X53519605Y-187452000D01*
X53533748Y-187466143D01*
X53354143Y-187645748D01*
X53340000Y-187631605D01*
X53325858Y-187645748D01*
X53146253Y-187466143D01*
X53160395Y-187452000D01*
X52267804Y-186559409D01*
X52102862Y-186614353D01*
X52092738Y-186589851D01*
X51883058Y-186379804D01*
X52447409Y-186379804D01*
X53340000Y-187272395D01*
X54232591Y-186379804D01*
X54147533Y-186124461D01*
X53578035Y-185916484D01*
X52972300Y-185942277D01*
X52532467Y-186124461D01*
X52447409Y-186379804D01*
X51883058Y-186379804D01*
X51664404Y-186160769D01*
X51104472Y-185928265D01*
X50498188Y-185927736D01*
X49937851Y-186159262D01*
X49529664Y-186566737D01*
X49124404Y-186160769D01*
X48564472Y-185928265D01*
X47958188Y-185927736D01*
X47397851Y-186159262D01*
X46989664Y-186566737D01*
X46584404Y-186160769D01*
X46024472Y-185928265D01*
X45418188Y-185927736D01*
X44857851Y-186159262D01*
X44449664Y-186566737D01*
X44044404Y-186160769D01*
X43484472Y-185928265D01*
X42878188Y-185927736D01*
X42317851Y-186159262D01*
X41909664Y-186566737D01*
X41504404Y-186160769D01*
X40944472Y-185928265D01*
X40338188Y-185927736D01*
X39777851Y-186159262D01*
X39369664Y-186566737D01*
X38964404Y-186160769D01*
X38404472Y-185928265D01*
X37798188Y-185927736D01*
X37237851Y-186159262D01*
X36808769Y-186587596D01*
X36797595Y-186614506D01*
X36632196Y-186559409D01*
X35739605Y-187452000D01*
X35753748Y-187466143D01*
X35574143Y-187645748D01*
X35560000Y-187631605D01*
X35545858Y-187645748D01*
X35366253Y-187466143D01*
X35380395Y-187452000D01*
X34487804Y-186559409D01*
X34322862Y-186614353D01*
X34312738Y-186589851D01*
X34103058Y-186379804D01*
X34667409Y-186379804D01*
X35560000Y-187272395D01*
X36452591Y-186379804D01*
X36367533Y-186124461D01*
X35798035Y-185916484D01*
X35192300Y-185942277D01*
X34752467Y-186124461D01*
X34667409Y-186379804D01*
X34103058Y-186379804D01*
X33884404Y-186160769D01*
X33672406Y-186072740D01*
X53029145Y-166716001D01*
X59670999Y-166716001D01*
X59990540Y-166652440D01*
X60261433Y-166471435D01*
X60628398Y-166104470D01*
X60655528Y-166115735D01*
X61261812Y-166116264D01*
X61822149Y-165884738D01*
X62230336Y-165477263D01*
X62635596Y-165883231D01*
X63195528Y-166115735D01*
X63801812Y-166116264D01*
X64362149Y-165884738D01*
X64770336Y-165477263D01*
X65175596Y-165883231D01*
X65735528Y-166115735D01*
X66341812Y-166116264D01*
X66902149Y-165884738D01*
X67085154Y-165702052D01*
X67087838Y-165716317D01*
X67226910Y-165932441D01*
X67439110Y-166077431D01*
X67691000Y-166128440D01*
X69469000Y-166128440D01*
X69704317Y-166084162D01*
X69920441Y-165945090D01*
X70065431Y-165732890D01*
X70116440Y-165481000D01*
X70116440Y-163703000D01*
X70072162Y-163467683D01*
X69933090Y-163251559D01*
X69720890Y-163106569D01*
X69469000Y-163055560D01*
X67691000Y-163055560D01*
X67455683Y-163099838D01*
X67239559Y-163238910D01*
X67094569Y-163451110D01*
X67087809Y-163484494D01*
X66904404Y-163300769D01*
X66344472Y-163068265D01*
X65738188Y-163067736D01*
X65177851Y-163299262D01*
X64769664Y-163706737D01*
X64364404Y-163300769D01*
X63804472Y-163068265D01*
X63198188Y-163067736D01*
X62637851Y-163299262D01*
X62229664Y-163706737D01*
X61824404Y-163300769D01*
X61264472Y-163068265D01*
X60658188Y-163067736D01*
X60097851Y-163299262D01*
X59689664Y-163706737D01*
X59284404Y-163300769D01*
X58724472Y-163068265D01*
X58118188Y-163067736D01*
X57557851Y-163299262D01*
X57149664Y-163706737D01*
X56744404Y-163300769D01*
X56184472Y-163068265D01*
X55578188Y-163067736D01*
X55017851Y-163299262D01*
X54609664Y-163706737D01*
X54204404Y-163300769D01*
X53644472Y-163068265D01*
X53038188Y-163067736D01*
X52477851Y-163299262D01*
X52069664Y-163706737D01*
X51664404Y-163300769D01*
X51104472Y-163068265D01*
X50498188Y-163067736D01*
X49937851Y-163299262D01*
X49529664Y-163706737D01*
X49124404Y-163300769D01*
X48564472Y-163068265D01*
X47958188Y-163067736D01*
X47397851Y-163299262D01*
X46968769Y-163727596D01*
X46957595Y-163754506D01*
X46792196Y-163699409D01*
X45899605Y-164592000D01*
X46792196Y-165484591D01*
X46957138Y-165429647D01*
X46967262Y-165454149D01*
X47395596Y-165883231D01*
X47955528Y-166115735D01*
X48561812Y-166116264D01*
X49122149Y-165884738D01*
X49530336Y-165477263D01*
X49935596Y-165883231D01*
X50495528Y-166115735D01*
X51101812Y-166116264D01*
X51383563Y-165999847D01*
X31865988Y-185517422D01*
X31865988Y-166997592D01*
X32747816Y-166115763D01*
X33321812Y-166116264D01*
X33882149Y-165884738D01*
X34103076Y-165664196D01*
X34667409Y-165664196D01*
X34752467Y-165919539D01*
X35321965Y-166127516D01*
X35927700Y-166101723D01*
X36367533Y-165919539D01*
X36452591Y-165664196D01*
X35560000Y-164771605D01*
X34667409Y-165664196D01*
X34103076Y-165664196D01*
X34311231Y-165456404D01*
X34322405Y-165429494D01*
X34487804Y-165484591D01*
X35380395Y-164592000D01*
X35739605Y-164592000D01*
X36632196Y-165484591D01*
X36797138Y-165429647D01*
X36807262Y-165454149D01*
X37235596Y-165883231D01*
X37795528Y-166115735D01*
X38401812Y-166116264D01*
X38962149Y-165884738D01*
X39370336Y-165477263D01*
X39775596Y-165883231D01*
X40335528Y-166115735D01*
X40941812Y-166116264D01*
X41502149Y-165884738D01*
X41910336Y-165477263D01*
X42315596Y-165883231D01*
X42345000Y-165895441D01*
X42345000Y-167294132D01*
X41621667Y-168017465D01*
X41381057Y-168116883D01*
X41117808Y-168379673D01*
X40975162Y-168723201D01*
X40974838Y-169095167D01*
X41116883Y-169438943D01*
X41379673Y-169702192D01*
X41723201Y-169844838D01*
X42095167Y-169845162D01*
X42438943Y-169703117D01*
X42702192Y-169440327D01*
X42802778Y-169198090D01*
X43770434Y-168230434D01*
X43951439Y-167959541D01*
X44015000Y-167640000D01*
X44015000Y-165895956D01*
X44042149Y-165884738D01*
X44263076Y-165664196D01*
X44827409Y-165664196D01*
X44912467Y-165919539D01*
X45481965Y-166127516D01*
X46087700Y-166101723D01*
X46527533Y-165919539D01*
X46612591Y-165664196D01*
X45720000Y-164771605D01*
X44827409Y-165664196D01*
X44263076Y-165664196D01*
X44471231Y-165456404D01*
X44482405Y-165429494D01*
X44647804Y-165484591D01*
X45540395Y-164592000D01*
X44647804Y-163699409D01*
X44482862Y-163754353D01*
X44472738Y-163729851D01*
X44263058Y-163519804D01*
X44827409Y-163519804D01*
X45720000Y-164412395D01*
X46612591Y-163519804D01*
X46527533Y-163264461D01*
X45958035Y-163056484D01*
X45352300Y-163082277D01*
X44912467Y-163264461D01*
X44827409Y-163519804D01*
X44263058Y-163519804D01*
X44044404Y-163300769D01*
X43484472Y-163068265D01*
X42878188Y-163067736D01*
X42317851Y-163299262D01*
X41909664Y-163706737D01*
X41504404Y-163300769D01*
X40944472Y-163068265D01*
X40338188Y-163067736D01*
X39777851Y-163299262D01*
X39369664Y-163706737D01*
X38964404Y-163300769D01*
X38404472Y-163068265D01*
X37798188Y-163067736D01*
X37237851Y-163299262D01*
X36808769Y-163727596D01*
X36797595Y-163754506D01*
X36632196Y-163699409D01*
X35739605Y-164592000D01*
X35380395Y-164592000D01*
X35366253Y-164577858D01*
X35545858Y-164398253D01*
X35560000Y-164412395D01*
X36452591Y-163519804D01*
X36367533Y-163264461D01*
X35804672Y-163058908D01*
X36688579Y-162175000D01*
X75342408Y-162175000D01*
X62909566Y-174607842D01*
X62909566Y-174607842D01*
G37*
X62909566Y-174607842D02*
X62728561Y-174878735D01*
X62665000Y-175198276D01*
X62665000Y-186148044D01*
X62637851Y-186159262D01*
X62229664Y-186566737D01*
X61824404Y-186160769D01*
X61264472Y-185928265D01*
X60658188Y-185927736D01*
X60097851Y-186159262D01*
X59689664Y-186566737D01*
X59284404Y-186160769D01*
X58724472Y-185928265D01*
X58118188Y-185927736D01*
X57557851Y-186159262D01*
X57149664Y-186566737D01*
X56744404Y-186160769D01*
X56184472Y-185928265D01*
X55578188Y-185927736D01*
X55017851Y-186159262D01*
X54588769Y-186587596D01*
X54577595Y-186614506D01*
X54412196Y-186559409D01*
X53519605Y-187452000D01*
X53533748Y-187466143D01*
X53354143Y-187645748D01*
X53340000Y-187631605D01*
X53325858Y-187645748D01*
X53146253Y-187466143D01*
X53160395Y-187452000D01*
X52267804Y-186559409D01*
X52102862Y-186614353D01*
X52092738Y-186589851D01*
X51883058Y-186379804D01*
X52447409Y-186379804D01*
X53340000Y-187272395D01*
X54232591Y-186379804D01*
X54147533Y-186124461D01*
X53578035Y-185916484D01*
X52972300Y-185942277D01*
X52532467Y-186124461D01*
X52447409Y-186379804D01*
X51883058Y-186379804D01*
X51664404Y-186160769D01*
X51104472Y-185928265D01*
X50498188Y-185927736D01*
X49937851Y-186159262D01*
X49529664Y-186566737D01*
X49124404Y-186160769D01*
X48564472Y-185928265D01*
X47958188Y-185927736D01*
X47397851Y-186159262D01*
X46989664Y-186566737D01*
X46584404Y-186160769D01*
X46024472Y-185928265D01*
X45418188Y-185927736D01*
X44857851Y-186159262D01*
X44449664Y-186566737D01*
X44044404Y-186160769D01*
X43484472Y-185928265D01*
X42878188Y-185927736D01*
X42317851Y-186159262D01*
X41909664Y-186566737D01*
X41504404Y-186160769D01*
X40944472Y-185928265D01*
X40338188Y-185927736D01*
X39777851Y-186159262D01*
X39369664Y-186566737D01*
X38964404Y-186160769D01*
X38404472Y-185928265D01*
X37798188Y-185927736D01*
X37237851Y-186159262D01*
X36808769Y-186587596D01*
X36797595Y-186614506D01*
X36632196Y-186559409D01*
X35739605Y-187452000D01*
X35753748Y-187466143D01*
X35574143Y-187645748D01*
X35560000Y-187631605D01*
X35545858Y-187645748D01*
X35366253Y-187466143D01*
X35380395Y-187452000D01*
X34487804Y-186559409D01*
X34322862Y-186614353D01*
X34312738Y-186589851D01*
X34103058Y-186379804D01*
X34667409Y-186379804D01*
X35560000Y-187272395D01*
X36452591Y-186379804D01*
X36367533Y-186124461D01*
X35798035Y-185916484D01*
X35192300Y-185942277D01*
X34752467Y-186124461D01*
X34667409Y-186379804D01*
X34103058Y-186379804D01*
X33884404Y-186160769D01*
X33672406Y-186072740D01*
X53029145Y-166716001D01*
X59670999Y-166716001D01*
X59990540Y-166652440D01*
X60261433Y-166471435D01*
X60628398Y-166104470D01*
X60655528Y-166115735D01*
X61261812Y-166116264D01*
X61822149Y-165884738D01*
X62230336Y-165477263D01*
X62635596Y-165883231D01*
X63195528Y-166115735D01*
X63801812Y-166116264D01*
X64362149Y-165884738D01*
X64770336Y-165477263D01*
X65175596Y-165883231D01*
X65735528Y-166115735D01*
X66341812Y-166116264D01*
X66902149Y-165884738D01*
X67085154Y-165702052D01*
X67087838Y-165716317D01*
X67226910Y-165932441D01*
X67439110Y-166077431D01*
X67691000Y-166128440D01*
X69469000Y-166128440D01*
X69704317Y-166084162D01*
X69920441Y-165945090D01*
X70065431Y-165732890D01*
X70116440Y-165481000D01*
X70116440Y-163703000D01*
X70072162Y-163467683D01*
X69933090Y-163251559D01*
X69720890Y-163106569D01*
X69469000Y-163055560D01*
X67691000Y-163055560D01*
X67455683Y-163099838D01*
X67239559Y-163238910D01*
X67094569Y-163451110D01*
X67087809Y-163484494D01*
X66904404Y-163300769D01*
X66344472Y-163068265D01*
X65738188Y-163067736D01*
X65177851Y-163299262D01*
X64769664Y-163706737D01*
X64364404Y-163300769D01*
X63804472Y-163068265D01*
X63198188Y-163067736D01*
X62637851Y-163299262D01*
X62229664Y-163706737D01*
X61824404Y-163300769D01*
X61264472Y-163068265D01*
X60658188Y-163067736D01*
X60097851Y-163299262D01*
X59689664Y-163706737D01*
X59284404Y-163300769D01*
X58724472Y-163068265D01*
X58118188Y-163067736D01*
X57557851Y-163299262D01*
X57149664Y-163706737D01*
X56744404Y-163300769D01*
X56184472Y-163068265D01*
X55578188Y-163067736D01*
X55017851Y-163299262D01*
X54609664Y-163706737D01*
X54204404Y-163300769D01*
X53644472Y-163068265D01*
X53038188Y-163067736D01*
X52477851Y-163299262D01*
X52069664Y-163706737D01*
X51664404Y-163300769D01*
X51104472Y-163068265D01*
X50498188Y-163067736D01*
X49937851Y-163299262D01*
X49529664Y-163706737D01*
X49124404Y-163300769D01*
X48564472Y-163068265D01*
X47958188Y-163067736D01*
X47397851Y-163299262D01*
X46968769Y-163727596D01*
X46957595Y-163754506D01*
X46792196Y-163699409D01*
X45899605Y-164592000D01*
X46792196Y-165484591D01*
X46957138Y-165429647D01*
X46967262Y-165454149D01*
X47395596Y-165883231D01*
X47955528Y-166115735D01*
X48561812Y-166116264D01*
X49122149Y-165884738D01*
X49530336Y-165477263D01*
X49935596Y-165883231D01*
X50495528Y-166115735D01*
X51101812Y-166116264D01*
X51383563Y-165999847D01*
X31865988Y-185517422D01*
X31865988Y-166997592D01*
X32747816Y-166115763D01*
X33321812Y-166116264D01*
X33882149Y-165884738D01*
X34103076Y-165664196D01*
X34667409Y-165664196D01*
X34752467Y-165919539D01*
X35321965Y-166127516D01*
X35927700Y-166101723D01*
X36367533Y-165919539D01*
X36452591Y-165664196D01*
X35560000Y-164771605D01*
X34667409Y-165664196D01*
X34103076Y-165664196D01*
X34311231Y-165456404D01*
X34322405Y-165429494D01*
X34487804Y-165484591D01*
X35380395Y-164592000D01*
X35739605Y-164592000D01*
X36632196Y-165484591D01*
X36797138Y-165429647D01*
X36807262Y-165454149D01*
X37235596Y-165883231D01*
X37795528Y-166115735D01*
X38401812Y-166116264D01*
X38962149Y-165884738D01*
X39370336Y-165477263D01*
X39775596Y-165883231D01*
X40335528Y-166115735D01*
X40941812Y-166116264D01*
X41502149Y-165884738D01*
X41910336Y-165477263D01*
X42315596Y-165883231D01*
X42345000Y-165895441D01*
X42345000Y-167294132D01*
X41621667Y-168017465D01*
X41381057Y-168116883D01*
X41117808Y-168379673D01*
X40975162Y-168723201D01*
X40974838Y-169095167D01*
X41116883Y-169438943D01*
X41379673Y-169702192D01*
X41723201Y-169844838D01*
X42095167Y-169845162D01*
X42438943Y-169703117D01*
X42702192Y-169440327D01*
X42802778Y-169198090D01*
X43770434Y-168230434D01*
X43951439Y-167959541D01*
X44015000Y-167640000D01*
X44015000Y-165895956D01*
X44042149Y-165884738D01*
X44263076Y-165664196D01*
X44827409Y-165664196D01*
X44912467Y-165919539D01*
X45481965Y-166127516D01*
X46087700Y-166101723D01*
X46527533Y-165919539D01*
X46612591Y-165664196D01*
X45720000Y-164771605D01*
X44827409Y-165664196D01*
X44263076Y-165664196D01*
X44471231Y-165456404D01*
X44482405Y-165429494D01*
X44647804Y-165484591D01*
X45540395Y-164592000D01*
X44647804Y-163699409D01*
X44482862Y-163754353D01*
X44472738Y-163729851D01*
X44263058Y-163519804D01*
X44827409Y-163519804D01*
X45720000Y-164412395D01*
X46612591Y-163519804D01*
X46527533Y-163264461D01*
X45958035Y-163056484D01*
X45352300Y-163082277D01*
X44912467Y-163264461D01*
X44827409Y-163519804D01*
X44263058Y-163519804D01*
X44044404Y-163300769D01*
X43484472Y-163068265D01*
X42878188Y-163067736D01*
X42317851Y-163299262D01*
X41909664Y-163706737D01*
X41504404Y-163300769D01*
X40944472Y-163068265D01*
X40338188Y-163067736D01*
X39777851Y-163299262D01*
X39369664Y-163706737D01*
X38964404Y-163300769D01*
X38404472Y-163068265D01*
X37798188Y-163067736D01*
X37237851Y-163299262D01*
X36808769Y-163727596D01*
X36797595Y-163754506D01*
X36632196Y-163699409D01*
X35739605Y-164592000D01*
X35380395Y-164592000D01*
X35366253Y-164577858D01*
X35545858Y-164398253D01*
X35560000Y-164412395D01*
X36452591Y-163519804D01*
X36367533Y-163264461D01*
X35804672Y-163058908D01*
X36688579Y-162175000D01*
X75342408Y-162175000D01*
X62909566Y-174607842D01*
M02*
