<?xml version="1.0" standalone="no"?>
 <!DOCTYPE svg PUBLIC "-//W3C//DTD SVG 1.1//EN" 
 "http://www.w3.org/Graphics/SVG/1.1/DTD/svg11.dtd"> 
<svg xmlns="http://www.w3.org/2000/svg" version="1.1" 
    width="29.7002cm" height="21.0007cm" viewBox="0 0 116930 82680 ">
<title>SVG Picture created as ControlBoard-Edge.Cuts.svg date 2016/08/17 08:37:07 </title>
  <desc>Picture generated by PCBNEW </desc>
<g style="fill:#000000; fill-opacity:1;stroke:#000000; stroke-opacity:1;
stroke-linecap:round; stroke-linejoin:round; "
 transform="translate(0 0) scale(1 1)">
</g>
<g style="fill:#000000; fill-opacity:0.0; 
stroke:#000000; stroke-width:-0.000393701; stroke-opacity:1; 
stroke-linecap:round; stroke-linejoin:round;">
</g>
<g style="fill:#000000; fill-opacity:0.0; 
stroke:#000000; stroke-width:59.0551; stroke-opacity:1; 
stroke-linecap:round; stroke-linejoin:round;">
<path d="M45000 119000
L45000 120000
" />
<path d="M14000 49250
L41000 49250
" />
<path d="M45000 53250 A4000 4000 0.0 0 0 41000 49250 " />
<path d="M14000 49250 A4000 4000 0.0 0 0 10000 53250 " />
<path d="M14000 124000
L41000 124000
" />
<path d="M41000 124000 A4000 4000 0.0 0 0 45000 120000 " />
<path d="M10000 119000
L10000 120000
" />
<path d="M10000 120000 A4000 4000 0.0 0 0 14000 124000 " />
<path d="M45000 119000
L45000 53200
" />
<path d="M10000 53200
L10000 119000
" />
</g> 
</svg>
