M48
INCH,TZ
T1C0.016
T2C0.040
T3C0.169
%
G90
G05
T1
X13250Y-79500
X13250Y-79500
X13750Y-84000
X14928Y-83250
X14928Y-91500
X15472Y-93543
X16500Y-66500
X17250Y-95750
X20750Y-76750
X21250Y-77750
X21339Y-91063
X22550Y-74950
X24000Y-76000
X24800Y-74950
X25750Y-75250
X28543Y-64449
X29320Y-66070
X29567Y-64961
X32677Y-95472
X32795Y-68307
X32953Y-90906
X33000Y-60500
X33031Y-65315
X33031Y-67402
X33543Y-71260
X34000Y-63250
T2
X10800Y-82200
X10800Y-83200
X10800Y-84200
X10800Y-85200
X11000Y-89800
X11000Y-91800
X11000Y-93800
X11000Y-95800
X11000Y-106000
X11000Y-108000
X11000Y-111000
X11000Y-113000
X11000Y-116000
X11000Y-118000
X13000Y-64800
X13000Y-73800
X13000Y-99800
X13000Y-100800
X13000Y-101800
X13000Y-102800
X14000Y-64800
X14000Y-73800
X14000Y-99800
X14000Y-100800
X14000Y-101800
X14000Y-102800
X15000Y-50300
X15000Y-64800
X15000Y-73800
X15750Y-81250
X15750Y-82250
X15750Y-83250
X15750Y-84250
X15750Y-85250
X15750Y-86250
X16000Y-64800
X16000Y-73800
X17000Y-50300
X17000Y-64800
X17000Y-73800
X17350Y-89500
X17350Y-92500
X17350Y-94250
X17350Y-97250
X17750Y-81250
X18000Y-64800
X18000Y-73800
X18000Y-99000
X18000Y-107000
X18000Y-110000
X18000Y-118000
X18350Y-89500
X18350Y-92500
X18350Y-94250
X18350Y-97250
X18750Y-81250
X19000Y-64800
X19000Y-73800
X19350Y-89500
X19350Y-92500
X19350Y-94250
X19350Y-97250
X19500Y-50300
X19750Y-81250
X20000Y-64800
X20000Y-73800
X20350Y-89500
X20350Y-92500
X20350Y-94250
X20350Y-97250
X20750Y-81250
X21000Y-64800
X21000Y-73800
X21350Y-89500
X21350Y-92500
X21350Y-94250
X21350Y-97250
X21500Y-50300
X22000Y-64800
X22000Y-73800
X22350Y-89500
X22350Y-92500
X22350Y-94250
X22350Y-97250
X22750Y-81250
X23000Y-64800
X23000Y-73800
X23350Y-89500
X23350Y-92500
X23350Y-94250
X23350Y-97250
X23750Y-81250
X24000Y-64800
X24000Y-73800
X24350Y-89500
X24350Y-92500
X24350Y-94250
X24350Y-97250
X24750Y-81250
X25000Y-64800
X25000Y-73800
X25750Y-81250
X26000Y-64800
X26000Y-73800
X27000Y-64800
X27000Y-73800
X27750Y-81250
X28700Y-89500
X28700Y-92500
X28700Y-94000
X28700Y-97000
X28750Y-50300
X28750Y-81250
X29700Y-89500
X29700Y-92500
X29700Y-94000
X29700Y-97000
X29750Y-81250
X30700Y-89500
X30700Y-92500
X30700Y-94000
X30700Y-97000
X30750Y-50300
X30750Y-81250
X31700Y-89500
X31700Y-92500
X31700Y-94000
X31700Y-97000
X32700Y-89500
X32700Y-92500
X32700Y-94000
X32700Y-97000
X32750Y-81250
X33400Y-50300
X33700Y-89500
X33700Y-92500
X33700Y-94000
X33700Y-97000
X33750Y-81250
X34400Y-64800
X34400Y-65800
X34400Y-66800
X34400Y-67800
X34400Y-68800
X34400Y-69800
X34400Y-70800
X34400Y-71800
X34400Y-72800
X34400Y-73800
X34400Y-74800
X34400Y-75800
X34400Y-76800
X34400Y-77800
X34700Y-89500
X34700Y-92500
X34700Y-94000
X34700Y-97000
X34750Y-81250
X35400Y-50300
X35700Y-89500
X35700Y-92500
X35700Y-94000
X35700Y-97000
X35750Y-81250
X36000Y-99000
X36000Y-107000
X36000Y-110000
X36000Y-118000
X37750Y-81250
X37750Y-82250
X37750Y-83250
X37750Y-84250
X37750Y-85250
X37750Y-86250
X38000Y-50300
X38400Y-64800
X38400Y-65800
X38400Y-66800
X38400Y-67800
X38400Y-68800
X38400Y-69800
X38400Y-70800
X38400Y-71800
X38400Y-72800
X38400Y-73800
X38400Y-74800
X38400Y-75800
X38400Y-76800
X38400Y-77800
X40000Y-50300
X41400Y-64800
X41400Y-65800
X41400Y-66800
X41400Y-67800
X41400Y-68800
X41500Y-73600
X41500Y-74600
X41500Y-75600
X41500Y-76600
X41500Y-77600
X42400Y-64800
X42400Y-65800
X42400Y-66800
X42400Y-67800
X42400Y-68800
X42500Y-73600
X42500Y-74600
X42500Y-75600
X42500Y-76600
X42500Y-77600
X44000Y-81000
X44000Y-83000
X44000Y-85000
X44000Y-87000
X44000Y-89000
X44000Y-91000
X44000Y-93000
X44000Y-95000
X44000Y-97000
X44000Y-99000
X44000Y-114500
X44000Y-116500
T3
X14000Y-57000
X14000Y-120000
X41000Y-57000
X41000Y-120000
T0
M30
