<?xml version="1.0" standalone="no"?>
 <!DOCTYPE svg PUBLIC "-//W3C//DTD SVG 1.1//EN" 
 "http://www.w3.org/Graphics/SVG/1.1/DTD/svg11.dtd"> 
<svg xmlns="http://www.w3.org/2000/svg" version="1.1" 
    width="41.9989cm" height="29.7002cm" viewBox="0 0 165350 116930 ">
<title>SVG Picture created as ControlBoard-F.SilkS.svg date 2016/09/01 14:33:39 </title>
  <desc>Picture generated by PCBNEW </desc>
<g style="fill:#000000; fill-opacity:1;stroke:#000000; stroke-opacity:1;
stroke-linecap:round; stroke-linejoin:round; "
 transform="translate(0 0) scale(1 1)">
</g>
<g style="fill:#000000; fill-opacity:0.0; 
stroke:#000000; stroke-width:-0.000393701; stroke-opacity:1; 
stroke-linecap:round; stroke-linejoin:round;">
</g>
<g style="fill:#000000; fill-opacity:0.0; 
stroke:#000000; stroke-width:59.0551; stroke-opacity:1; 
stroke-linecap:round; stroke-linejoin:round;">
<path d="M48100 95550
L48100 75550
" />
<path d="M50100 95550
L48100 95550
" />
<path d="M50100 75550
L48100 75550
" />
<path d="M15100 84000
L17100 84000
" />
<path d="M15100 80000
L15100 84000
" />
<path d="M17100 80000
L15100 80000
" />
<path d="M16050 52850
L34050 52850
" />
<path d="M15050 62850
L15050 53850
" />
<path d="M34050 63850
L16050 63850
" />
<path d="M35050 53850
L35050 62850
" />
<path d="M35050 53850 A1000 1000 0.0 0 0 34050 52850 " />
<path d="M16050 52850 A1000 1000 0.0 0 0 15050 53850 " />
<path d="M15050 62850 A1000 1000 0.0 0 0 16050 63850 " />
<path d="M34050 63850 A1000 1000 0.0 0 0 35050 62850 " />
<path d="M24380 99700
L24380 97700
" />
<path d="M20380 99700
L24380 99700
" />
<path d="M20380 97700
L20380 99700
" />
<path d="M41500 42050
L41500 40050
" />
<path d="M37500 42050
L41500 42050
" />
<path d="M37500 40050
L37500 42050
" />
<path d="M23650 40050
L23650 42050
" />
<path d="M27650 40050
L23650 40050
" />
<path d="M27650 42050
L27650 40050
" />
<path d="M32900 40050
L32900 42050
" />
<path d="M36900 40050
L32900 40050
" />
<path d="M36900 42050
L36900 40050
" />
<path d="M23100 42050
L23100 40050
" />
<path d="M19100 42050
L23100 42050
" />
<path d="M19100 40050
L19100 42050
" />
<path d="M46100 42050
L46100 40050
" />
<path d="M42100 42050
L46100 42050
" />
<path d="M42100 40050
L42100 42050
" />
<path d="M42373 89693
L42373 89418
" />
<path d="M42846 89418
L42846 89693
" />
<path d="M31503 89803
L31503 89528
" />
<path d="M31976 89528
L31976 89803
" />
<path d="M42563 84913
L42563 84638
" />
<path d="M43036 84638
L43036 84913
" />
<path d="M31473 84933
L31473 84658
" />
<path d="M31946 84658
L31946 84933
" />
<path d="M41500 97700
L41500 99700
" />
<path d="M45500 97700
L41500 97700
" />
<path d="M45500 99700
L45500 97700
" />
<path d="M45000 84600
L45000 74600
" />
<path d="M20000 84600
L45000 84600
" />
<path d="M20000 84100
L20000 84600
" />
<path d="M20000 74600
L20000 84100
" />
<path d="M45000 74600
L20000 74600
" />
<path d="M17525 92775
L17525 87775
" />
<path d="M17525 87775
L19525 87775
" />
<path d="M19525 87775
L19525 91775
" />
<path d="M17525 92775
L18525 92775
" />
<path d="M19025 92885
L19635 92885
" />
<path d="M18525 92775
L18525 91775
" />
<path d="M18525 91775
L19525 91775
" />
<path d="M19635 92885
L19635 92275
" />
<path d="M26430 67389
L26235 67194
" />
<path d="M26569 66860
L26764 67055
" />
<path d="M39750 54350
L42750 54350
" />
<path d="M39750 53350
L42750 53350
" />
<path d="M38639 53239
L39250 53239
" />
<path d="M42750 54350
L42750 53350
" />
<path d="M39750 53350
L39750 54350
" />
<path d="M39250 54460
L38639 54460
" />
<path d="M38639 54460
L38639 53239
" />
</g>
<g style="fill:#000000; fill-opacity:0.0; 
stroke:#000000; stroke-width:60; stroke-opacity:1; 
stroke-linecap:round; stroke-linejoin:round;">
<path d="M24016 70805
L22064 68854
" />
<path d="M22064 68854
L24016 66902
" />
<path d="M24016 66902
L25869 68755
" />
<path d="M25869 68952
L24016 70805
" />
<path d="M25869 68952
L25869 68755
" />
<circle cx="25543.7" cy="68854.1" r="141.417" /> 
</g>
<g style="fill:#000000; fill-opacity:0.0; 
stroke:#000000; stroke-width:59.0551; stroke-opacity:1; 
stroke-linecap:round; stroke-linejoin:round;">
<path d="M33100 64875
L15100 64875
" />
<path d="M15100 64875
L15100 72875
" />
<path d="M15100 72875
L33100 72875
" />
<path d="M33100 72875
L33100 64875
" />
<path d="M23470 72534
L23863 72534
" />
<path d="M23863 73065
L23470 73065
" />
<path d="M25729 73065
L25336 73065
" />
<path d="M25336 72534
L25729 72534
" />
<path d="M47650 67200
L47650 57200
" />
<path d="M45650 58200
L45650 67200
" />
<path d="M47650 67200
L45650 67200
" />
<path d="M47650 57200
L46650 57200
" />
<path d="M46150 57089
L45539 57089
" />
<path d="M46650 57200
L46650 58200
" />
<path d="M46650 58200
L45650 58200
" />
<path d="M45539 57089
L45539 57700
" />
<path d="M41750 67200
L41750 59200
" />
<path d="M39750 60200
L39750 67200
" />
<path d="M41750 67200
L39750 67200
" />
<path d="M41750 59200
L40750 59200
" />
<path d="M40250 59089
L39639 59089
" />
<path d="M40750 59200
L40750 60200
" />
<path d="M40750 60200
L39750 60200
" />
<path d="M39639 59089
L39639 59700
" />
<path d="M15100 79500
L17100 79500
" />
<path d="M15100 75500
L15100 79500
" />
<path d="M17100 75500
L15100 75500
" />
<path d="M27295 60159
L27688 60159
" />
<path d="M27688 60690
L27295 60690
" />
<path d="M27295 60984
L27688 60984
" />
<path d="M27688 61515
L27295 61515
" />
</g> 
</svg>
