<?xml version="1.0" standalone="no"?>
 <!DOCTYPE svg PUBLIC "-//W3C//DTD SVG 1.1//EN" 
 "http://www.w3.org/Graphics/SVG/1.1/DTD/svg11.dtd"> 
<svg xmlns="http://www.w3.org/2000/svg" version="1.1" 
    width="41.9989cm" height="29.7002cm" viewBox="0 0 165350 116930 ">
<title>SVG Picture created as ControlBoard-F.Paste.svg date 2016/09/01 14:33:39 </title>
  <desc>Picture generated by PCBNEW </desc>
<g style="fill:#000000; fill-opacity:1;stroke:#000000; stroke-opacity:1;
stroke-linecap:round; stroke-linejoin:round; "
 transform="translate(0 0) scale(1 1)">
</g>
<g style="fill:#000000; fill-opacity:0.0; 
stroke:#000000; stroke-width:-0.000393701; stroke-opacity:1; 
stroke-linecap:round; stroke-linejoin:round;">
</g>
<g style="fill:#000000; fill-opacity:0.0; 
stroke:#000000; stroke-width:0; stroke-opacity:1; 
stroke-linecap:round; stroke-linejoin:round;">
</g>
<g style="fill:#000000; fill-opacity:1.0; 
stroke:#000000; stroke-width:0; stroke-opacity:1; 
stroke-linecap:round; stroke-linejoin:round;">
<polyline style="fill-rule:evenodd;"
points="42757,90166
42462,90166
42462,89693
42757,89693
42757,90166
" /> 
<polyline style="fill-rule:evenodd;"
points="42757,89418
42462,89418
42462,88945
42757,88945
42757,89418
" /> 
<polyline style="fill-rule:evenodd;"
points="31887,90276
31592,90276
31592,89803
31887,89803
31887,90276
" /> 
<polyline style="fill-rule:evenodd;"
points="31887,89528
31592,89528
31592,89055
31887,89055
31887,89528
" /> 
<polyline style="fill-rule:evenodd;"
points="42947,85386
42652,85386
42652,84913
42947,84913
42947,85386
" /> 
<polyline style="fill-rule:evenodd;"
points="42947,84638
42652,84638
42652,84165
42947,84165
42947,84638
" /> 
<polyline style="fill-rule:evenodd;"
points="31857,85406
31562,85406
31562,84933
31857,84933
31857,85406
" /> 
<polyline style="fill-rule:evenodd;"
points="31857,84658
31562,84658
31562,84185
31857,84185
31857,84658
" /> 
<polyline style="fill-rule:evenodd;"
points="27035,67452
26827,67660
26493,67326
26701,67118
27035,67452
" /> 
<polyline style="fill-rule:evenodd;"
points="26506,66923
26298,67131
25964,66797
26172,66589
26506,66923
" /> 
<polyline style="fill-rule:evenodd;"
points="26096,68191
26238,68332
25884,68686
25743,68544
26096,68191
" /> 
<polyline style="fill-rule:evenodd;"
points="25874,67968
26015,68109
25662,68463
25520,68321
25874,67968
" /> 
<polyline style="fill-rule:evenodd;"
points="25651,67745
25792,67887
25439,68240
25297,68099
25651,67745
" /> 
<polyline style="fill-rule:evenodd;"
points="25428,67522
25570,67664
25216,68017
25075,67876
25428,67522
" /> 
<polyline style="fill-rule:evenodd;"
points="25206,67300
25347,67441
24993,67795
24852,67653
25206,67300
" /> 
<polyline style="fill-rule:evenodd;"
points="24983,67077
25124,67218
24771,67572
24629,67431
24983,67077
" /> 
<polyline style="fill-rule:evenodd;"
points="24760,66854
24902,66996
24548,67349
24407,67208
24760,66854
" /> 
<polyline style="fill-rule:evenodd;"
points="24537,66632
24679,66773
24325,67127
24184,66985
24537,66632
" /> 
<polyline style="fill-rule:evenodd;"
points="23494,66632
23848,66985
23706,67127
23353,66773
23494,66632
" /> 
<polyline style="fill-rule:evenodd;"
points="23272,66854
23625,67208
23484,67349
23130,66996
23272,66854
" /> 
<polyline style="fill-rule:evenodd;"
points="23049,67077
23402,67431
23261,67572
22907,67218
23049,67077
" /> 
<polyline style="fill-rule:evenodd;"
points="22826,67300
23180,67653
23038,67795
22685,67441
22826,67300
" /> 
<polyline style="fill-rule:evenodd;"
points="22603,67522
22957,67876
22816,68017
22462,67664
22603,67522
" /> 
<polyline style="fill-rule:evenodd;"
points="22381,67745
22734,68099
22593,68240
22239,67887
22381,67745
" /> 
<polyline style="fill-rule:evenodd;"
points="22158,67968
22512,68321
22370,68463
22017,68109
22158,67968
" /> 
<polyline style="fill-rule:evenodd;"
points="21935,68191
22289,68544
22147,68686
21794,68332
21935,68191
" /> 
<polyline style="fill-rule:evenodd;"
points="22147,69022
22289,69163
21935,69517
21794,69375
22147,69022
" /> 
<polyline style="fill-rule:evenodd;"
points="22370,69244
22512,69386
22158,69739
22017,69598
22370,69244
" /> 
<polyline style="fill-rule:evenodd;"
points="22593,69467
22734,69608
22381,69962
22239,69821
22593,69467
" /> 
<polyline style="fill-rule:evenodd;"
points="22816,69690
22957,69831
22603,70185
22462,70043
22816,69690
" /> 
<polyline style="fill-rule:evenodd;"
points="23038,69912
23180,70054
22826,70407
22685,70266
23038,69912
" /> 
<polyline style="fill-rule:evenodd;"
points="23261,70135
23402,70277
23049,70630
22907,70489
23261,70135
" /> 
<polyline style="fill-rule:evenodd;"
points="23484,70358
23625,70499
23272,70853
23130,70711
23484,70358
" /> 
<polyline style="fill-rule:evenodd;"
points="23706,70581
23848,70722
23494,71076
23353,70934
23706,70581
" /> 
<polyline style="fill-rule:evenodd;"
points="24325,70581
24679,70934
24537,71076
24184,70722
24325,70581
" /> 
<polyline style="fill-rule:evenodd;"
points="24548,70358
24902,70711
24760,70853
24407,70499
24548,70358
" /> 
<polyline style="fill-rule:evenodd;"
points="24771,70135
25124,70489
24983,70630
24629,70277
24771,70135
" /> 
<polyline style="fill-rule:evenodd;"
points="24993,69912
25347,70266
25206,70407
24852,70054
24993,69912
" /> 
<polyline style="fill-rule:evenodd;"
points="25216,69690
25570,70043
25428,70185
25075,69831
25216,69690
" /> 
<polyline style="fill-rule:evenodd;"
points="25439,69467
25792,69821
25651,69962
25297,69608
25439,69467
" /> 
<polyline style="fill-rule:evenodd;"
points="25662,69244
26015,69598
25874,69739
25520,69386
25662,69244
" /> 
<polyline style="fill-rule:evenodd;"
points="25884,69022
26238,69375
26096,69517
25743,69163
25884,69022
" /> 
<polyline style="fill-rule:evenodd;"
points="24336,72622
24336,72977
23863,72977
23863,72622
24336,72622
" /> 
<polyline style="fill-rule:evenodd;"
points="23470,72622
23470,72977
22997,72977
22997,72622
23470,72622
" /> 
<polyline style="fill-rule:evenodd;"
points="24863,72977
24863,72622
25336,72622
25336,72977
24863,72977
" /> 
<polyline style="fill-rule:evenodd;"
points="25729,72977
25729,72622
26202,72622
26202,72977
25729,72977
" /> 
<polyline style="fill-rule:evenodd;"
points="28161,60247
28161,60602
27688,60602
27688,60247
28161,60247
" /> 
<polyline style="fill-rule:evenodd;"
points="27295,60247
27295,60602
26822,60602
26822,60247
27295,60247
" /> 
<polyline style="fill-rule:evenodd;"
points="28161,61072
28161,61427
27688,61427
27688,61072
28161,61072
" /> 
<polyline style="fill-rule:evenodd;"
points="27295,61072
27295,61427
26822,61427
26822,61072
27295,61072
" /> 
</g> 
</svg>
