G04 #@! TF.FileFunction,Profile,NP*
%FSLAX46Y46*%
G04 Gerber Fmt 4.6, Leading zero omitted, Abs format (unit mm)*
G04 Created by KiCad (PCBNEW 4.0.3-stable) date Thursday, August 18, 2016 'PMt' 02:05:46 PM*
%MOMM*%
%LPD*%
G01*
G04 APERTURE LIST*
%ADD10C,0.100000*%
%ADD11C,0.150000*%
G04 APERTURE END LIST*
D10*
D11*
X127254000Y-243713000D02*
X127254000Y-243078000D01*
X127127000Y-244475000D02*
X127254000Y-243713000D01*
X127000000Y-245364000D02*
X127127000Y-244475000D01*
X126619000Y-246634000D02*
X127000000Y-245364000D01*
X126111000Y-247777000D02*
X126619000Y-246634000D01*
X125476000Y-248793000D02*
X126111000Y-247777000D01*
X124841000Y-249682000D02*
X125476000Y-248793000D01*
X124079000Y-250444000D02*
X124841000Y-249682000D01*
X123317000Y-251079000D02*
X124079000Y-250444000D01*
X122428000Y-251714000D02*
X123317000Y-251079000D01*
X121285000Y-252349000D02*
X122428000Y-251714000D01*
X119888000Y-252857000D02*
X121285000Y-252349000D01*
X118745000Y-253111000D02*
X119888000Y-252857000D01*
X117094000Y-253238000D02*
X118745000Y-253111000D01*
X38608000Y-245237000D02*
X38354000Y-243332000D01*
X38354000Y-243332000D02*
X38354000Y-243078000D01*
X38862000Y-246253000D02*
X38608000Y-245237000D01*
X39243000Y-247269000D02*
X38862000Y-246253000D01*
X39751000Y-248158000D02*
X39243000Y-247269000D01*
X40386000Y-249174000D02*
X39751000Y-248158000D01*
X40894000Y-249809000D02*
X40386000Y-249174000D01*
X41529000Y-250444000D02*
X40894000Y-249809000D01*
X42418000Y-251206000D02*
X41529000Y-250444000D01*
X43561000Y-251968000D02*
X42418000Y-251206000D01*
X45339000Y-252730000D02*
X43561000Y-251968000D01*
X46990000Y-253111000D02*
X45339000Y-252730000D01*
X48514000Y-253238000D02*
X46990000Y-253111000D01*
X117729000Y-63373000D02*
X117094000Y-63373000D01*
X118745000Y-63500000D02*
X117729000Y-63373000D01*
X119888000Y-63754000D02*
X118745000Y-63500000D01*
X120650000Y-64008000D02*
X119888000Y-63754000D01*
X121539000Y-64389000D02*
X120650000Y-64008000D01*
X122682000Y-65024000D02*
X121539000Y-64389000D01*
X123698000Y-65786000D02*
X122682000Y-65024000D01*
X124841000Y-66929000D02*
X123698000Y-65786000D01*
X125857000Y-68326000D02*
X124841000Y-66929000D01*
X126365000Y-69342000D02*
X125857000Y-68326000D01*
X126746000Y-70231000D02*
X126365000Y-69342000D01*
X127127000Y-71628000D02*
X126746000Y-70231000D01*
X127254000Y-73533000D02*
X127127000Y-71628000D01*
X48006000Y-63373000D02*
X48514000Y-63373000D01*
X46863000Y-63500000D02*
X48006000Y-63373000D01*
X45720000Y-63754000D02*
X46863000Y-63500000D01*
X44323000Y-64262000D02*
X45720000Y-63754000D01*
X42926000Y-65024000D02*
X44323000Y-64262000D01*
X41656000Y-66040000D02*
X42926000Y-65024000D01*
X40640000Y-67056000D02*
X41656000Y-66040000D01*
X40005000Y-67945000D02*
X40640000Y-67056000D01*
X39497000Y-68834000D02*
X40005000Y-67945000D01*
X38989000Y-69850000D02*
X39497000Y-68834000D01*
X38735000Y-70612000D02*
X38989000Y-69850000D01*
X38481000Y-71628000D02*
X38735000Y-70612000D01*
X38354000Y-72517000D02*
X38481000Y-71628000D01*
X38354000Y-73533000D02*
X38354000Y-72517000D01*
X38354000Y-73533000D02*
X38354000Y-243078000D01*
X117094000Y-63373000D02*
X48514000Y-63373000D01*
X127254000Y-243078000D02*
X127254000Y-73533000D01*
X48514000Y-253238000D02*
X117094000Y-253238000D01*
M02*
