G04 #@! TF.FileFunction,Copper,L1,Top,Signal*
%FSLAX46Y46*%
G04 Gerber Fmt 4.6, Leading zero omitted, Abs format (unit mm)*
G04 Created by KiCad (PCBNEW 4.0.3-stable) date Thursday, August 18, 2016 'PMt' 02:05:46 PM*
%MOMM*%
%LPD*%
G01*
G04 APERTURE LIST*
%ADD10C,0.100000*%
%ADD11C,0.010000*%
%ADD12R,1.778000X1.778000*%
%ADD13C,1.778000*%
%ADD14R,0.635000X1.270000*%
%ADD15R,1.200000X0.900000*%
%ADD16R,2.032000X1.727200*%
%ADD17O,2.032000X1.727200*%
%ADD18R,0.750000X1.200000*%
%ADD19R,1.200000X0.750000*%
%ADD20R,1.727200X1.727200*%
%ADD21O,1.727200X1.727200*%
%ADD22C,0.600000*%
%ADD23C,0.400000*%
%ADD24C,1.000000*%
%ADD25C,0.500000*%
G04 APERTURE END LIST*
D10*
D11*
G36*
X120141837Y-201253211D02*
X120191474Y-201513630D01*
X120237296Y-201737297D01*
X120275235Y-201905568D01*
X120301227Y-201999794D01*
X120307437Y-202012648D01*
X120375966Y-202052947D01*
X120514439Y-202117105D01*
X120696927Y-202194752D01*
X120897500Y-202275515D01*
X121090225Y-202349023D01*
X121249173Y-202404905D01*
X121348413Y-202432789D01*
X121361328Y-202434173D01*
X121434228Y-202406618D01*
X121572897Y-202330868D01*
X121759830Y-202217295D01*
X121977526Y-202076270D01*
X122067460Y-202015746D01*
X122682604Y-201597319D01*
X123203144Y-202117912D01*
X123394465Y-202305310D01*
X123533359Y-202444688D01*
X123620082Y-202554750D01*
X123654889Y-202654197D01*
X123638035Y-202761731D01*
X123569776Y-202896054D01*
X123450368Y-203075868D01*
X123280066Y-203319875D01*
X123220742Y-203405975D01*
X122870504Y-203917490D01*
X123008202Y-204257495D01*
X123096841Y-204469733D01*
X123189676Y-204681709D01*
X123256636Y-204826483D01*
X123367373Y-205055466D01*
X124069140Y-205187208D01*
X124326750Y-205238370D01*
X124549341Y-205287843D01*
X124717205Y-205330853D01*
X124810634Y-205362623D01*
X124821435Y-205369477D01*
X124840765Y-205440063D01*
X124853784Y-205597385D01*
X124859779Y-205826529D01*
X124858036Y-206112580D01*
X124857743Y-206127591D01*
X124843525Y-206835179D01*
X124146137Y-206963466D01*
X123889368Y-207013568D01*
X123667781Y-207062199D01*
X123501144Y-207104617D01*
X123409222Y-207136081D01*
X123399221Y-207142622D01*
X123361238Y-207208925D01*
X123297878Y-207346351D01*
X123218989Y-207530510D01*
X123134416Y-207737008D01*
X123054004Y-207941454D01*
X122987600Y-208119454D01*
X122945049Y-208246617D01*
X122934707Y-208293421D01*
X122962312Y-208353510D01*
X123037835Y-208479322D01*
X123150336Y-208653514D01*
X123288877Y-208858743D01*
X123316471Y-208898702D01*
X123458434Y-209106702D01*
X123576466Y-209285634D01*
X123659677Y-209418538D01*
X123697176Y-209488454D01*
X123698234Y-209493235D01*
X123663838Y-209544389D01*
X123571436Y-209649124D01*
X123437207Y-209791306D01*
X123277332Y-209954800D01*
X123107991Y-210123472D01*
X122945362Y-210281185D01*
X122805627Y-210411806D01*
X122704965Y-210499199D01*
X122661034Y-210527559D01*
X122605547Y-210500066D01*
X122483478Y-210424740D01*
X122311518Y-210312308D01*
X122106357Y-210173499D01*
X122052814Y-210136610D01*
X121487389Y-209745661D01*
X121191260Y-209907150D01*
X121031592Y-209991090D01*
X120937973Y-210028074D01*
X120888781Y-210022888D01*
X120862391Y-209980317D01*
X120862259Y-209979963D01*
X120834151Y-209909576D01*
X120772774Y-209759279D01*
X120683931Y-209543171D01*
X120573428Y-209275349D01*
X120447068Y-208969912D01*
X120354248Y-208745996D01*
X119879109Y-207600706D01*
X119994383Y-207524353D01*
X120266559Y-207305927D01*
X120506156Y-207042346D01*
X120680487Y-206769600D01*
X120681261Y-206768029D01*
X120757338Y-206595239D01*
X120800130Y-206437703D01*
X120818178Y-206252867D01*
X120820627Y-206073652D01*
X120814827Y-205851878D01*
X120792781Y-205688990D01*
X120744285Y-205542249D01*
X120659132Y-205368918D01*
X120646869Y-205345983D01*
X120416140Y-205013015D01*
X120128572Y-204760936D01*
X119792113Y-204594681D01*
X119414708Y-204519186D01*
X119309092Y-204515019D01*
X118937082Y-204537701D01*
X118628161Y-204618535D01*
X118355724Y-204767516D01*
X118130122Y-204957959D01*
X117897918Y-205251283D01*
X117742423Y-205592819D01*
X117667430Y-205961210D01*
X117676730Y-206335101D01*
X117774115Y-206693136D01*
X117808536Y-206769292D01*
X117986847Y-207053302D01*
X118238657Y-207316441D01*
X118469916Y-207499692D01*
X118611738Y-207602139D01*
X118147065Y-208721262D01*
X118013887Y-209042256D01*
X117891890Y-209336768D01*
X117787129Y-209590141D01*
X117705662Y-209787718D01*
X117653544Y-209914841D01*
X117638793Y-209951420D01*
X117595194Y-210062455D01*
X117308176Y-209907000D01*
X117021158Y-209751544D01*
X116445884Y-210139552D01*
X116232263Y-210281529D01*
X116047767Y-210400197D01*
X115909187Y-210485049D01*
X115833314Y-210525578D01*
X115825852Y-210527559D01*
X115775481Y-210493336D01*
X115668330Y-210399465D01*
X115518738Y-210259144D01*
X115341041Y-210085572D01*
X115285756Y-210030356D01*
X115105785Y-209847236D01*
X114955021Y-209689124D01*
X114846574Y-209570133D01*
X114793556Y-209504374D01*
X114790419Y-209497178D01*
X114817725Y-209444089D01*
X114892473Y-209324147D01*
X115003908Y-209154028D01*
X115141274Y-208950408D01*
X115172182Y-208905282D01*
X115314270Y-208693085D01*
X115432372Y-208506635D01*
X115515565Y-208363930D01*
X115552929Y-208282970D01*
X115553946Y-208276136D01*
X115534916Y-208197746D01*
X115484535Y-208051295D01*
X115412864Y-207861720D01*
X115329967Y-207653961D01*
X115245906Y-207452954D01*
X115170742Y-207283639D01*
X115114538Y-207170952D01*
X115097271Y-207144327D01*
X115030598Y-207113596D01*
X114883373Y-207072162D01*
X114675647Y-207024903D01*
X114427471Y-206976698D01*
X114358470Y-206964557D01*
X113670579Y-206846129D01*
X113670579Y-206091822D01*
X113671117Y-205800508D01*
X113674278Y-205595158D01*
X113682380Y-205459935D01*
X113697744Y-205378999D01*
X113722689Y-205336514D01*
X113759534Y-205316639D01*
X113785108Y-205309753D01*
X113878699Y-205289855D01*
X114048139Y-205256370D01*
X114269133Y-205214018D01*
X114510459Y-205168804D01*
X115121280Y-205055616D01*
X115232016Y-204826557D01*
X115310131Y-204656758D01*
X115403612Y-204441969D01*
X115482263Y-204252993D01*
X115621773Y-203908486D01*
X115206096Y-203302685D01*
X115058066Y-203084099D01*
X114933289Y-202894419D01*
X114842080Y-202749751D01*
X114794754Y-202666200D01*
X114790419Y-202653651D01*
X114824671Y-202603557D01*
X114916679Y-202499587D01*
X115050321Y-202357892D01*
X115209475Y-202194624D01*
X115378018Y-202025934D01*
X115539830Y-201867975D01*
X115678787Y-201736897D01*
X115778768Y-201648853D01*
X115822434Y-201619744D01*
X115875709Y-201647261D01*
X115996143Y-201722809D01*
X116167602Y-201835882D01*
X116373952Y-201975977D01*
X116447837Y-202026958D01*
X116667579Y-202174732D01*
X116863999Y-202298572D01*
X117019122Y-202387741D01*
X117114975Y-202431503D01*
X117129580Y-202434173D01*
X117213832Y-202415151D01*
X117364205Y-202365165D01*
X117553893Y-202294836D01*
X117756093Y-202214782D01*
X117944000Y-202135623D01*
X118090812Y-202067979D01*
X118169722Y-202022470D01*
X118170560Y-202021737D01*
X118195835Y-201959329D01*
X118234101Y-201815604D01*
X118280879Y-201609540D01*
X118331689Y-201360114D01*
X118352038Y-201252989D01*
X118487442Y-200525355D01*
X120007816Y-200525355D01*
X120141837Y-201253211D01*
X120141837Y-201253211D01*
G37*
X120141837Y-201253211D02*
X120191474Y-201513630D01*
X120237296Y-201737297D01*
X120275235Y-201905568D01*
X120301227Y-201999794D01*
X120307437Y-202012648D01*
X120375966Y-202052947D01*
X120514439Y-202117105D01*
X120696927Y-202194752D01*
X120897500Y-202275515D01*
X121090225Y-202349023D01*
X121249173Y-202404905D01*
X121348413Y-202432789D01*
X121361328Y-202434173D01*
X121434228Y-202406618D01*
X121572897Y-202330868D01*
X121759830Y-202217295D01*
X121977526Y-202076270D01*
X122067460Y-202015746D01*
X122682604Y-201597319D01*
X123203144Y-202117912D01*
X123394465Y-202305310D01*
X123533359Y-202444688D01*
X123620082Y-202554750D01*
X123654889Y-202654197D01*
X123638035Y-202761731D01*
X123569776Y-202896054D01*
X123450368Y-203075868D01*
X123280066Y-203319875D01*
X123220742Y-203405975D01*
X122870504Y-203917490D01*
X123008202Y-204257495D01*
X123096841Y-204469733D01*
X123189676Y-204681709D01*
X123256636Y-204826483D01*
X123367373Y-205055466D01*
X124069140Y-205187208D01*
X124326750Y-205238370D01*
X124549341Y-205287843D01*
X124717205Y-205330853D01*
X124810634Y-205362623D01*
X124821435Y-205369477D01*
X124840765Y-205440063D01*
X124853784Y-205597385D01*
X124859779Y-205826529D01*
X124858036Y-206112580D01*
X124857743Y-206127591D01*
X124843525Y-206835179D01*
X124146137Y-206963466D01*
X123889368Y-207013568D01*
X123667781Y-207062199D01*
X123501144Y-207104617D01*
X123409222Y-207136081D01*
X123399221Y-207142622D01*
X123361238Y-207208925D01*
X123297878Y-207346351D01*
X123218989Y-207530510D01*
X123134416Y-207737008D01*
X123054004Y-207941454D01*
X122987600Y-208119454D01*
X122945049Y-208246617D01*
X122934707Y-208293421D01*
X122962312Y-208353510D01*
X123037835Y-208479322D01*
X123150336Y-208653514D01*
X123288877Y-208858743D01*
X123316471Y-208898702D01*
X123458434Y-209106702D01*
X123576466Y-209285634D01*
X123659677Y-209418538D01*
X123697176Y-209488454D01*
X123698234Y-209493235D01*
X123663838Y-209544389D01*
X123571436Y-209649124D01*
X123437207Y-209791306D01*
X123277332Y-209954800D01*
X123107991Y-210123472D01*
X122945362Y-210281185D01*
X122805627Y-210411806D01*
X122704965Y-210499199D01*
X122661034Y-210527559D01*
X122605547Y-210500066D01*
X122483478Y-210424740D01*
X122311518Y-210312308D01*
X122106357Y-210173499D01*
X122052814Y-210136610D01*
X121487389Y-209745661D01*
X121191260Y-209907150D01*
X121031592Y-209991090D01*
X120937973Y-210028074D01*
X120888781Y-210022888D01*
X120862391Y-209980317D01*
X120862259Y-209979963D01*
X120834151Y-209909576D01*
X120772774Y-209759279D01*
X120683931Y-209543171D01*
X120573428Y-209275349D01*
X120447068Y-208969912D01*
X120354248Y-208745996D01*
X119879109Y-207600706D01*
X119994383Y-207524353D01*
X120266559Y-207305927D01*
X120506156Y-207042346D01*
X120680487Y-206769600D01*
X120681261Y-206768029D01*
X120757338Y-206595239D01*
X120800130Y-206437703D01*
X120818178Y-206252867D01*
X120820627Y-206073652D01*
X120814827Y-205851878D01*
X120792781Y-205688990D01*
X120744285Y-205542249D01*
X120659132Y-205368918D01*
X120646869Y-205345983D01*
X120416140Y-205013015D01*
X120128572Y-204760936D01*
X119792113Y-204594681D01*
X119414708Y-204519186D01*
X119309092Y-204515019D01*
X118937082Y-204537701D01*
X118628161Y-204618535D01*
X118355724Y-204767516D01*
X118130122Y-204957959D01*
X117897918Y-205251283D01*
X117742423Y-205592819D01*
X117667430Y-205961210D01*
X117676730Y-206335101D01*
X117774115Y-206693136D01*
X117808536Y-206769292D01*
X117986847Y-207053302D01*
X118238657Y-207316441D01*
X118469916Y-207499692D01*
X118611738Y-207602139D01*
X118147065Y-208721262D01*
X118013887Y-209042256D01*
X117891890Y-209336768D01*
X117787129Y-209590141D01*
X117705662Y-209787718D01*
X117653544Y-209914841D01*
X117638793Y-209951420D01*
X117595194Y-210062455D01*
X117308176Y-209907000D01*
X117021158Y-209751544D01*
X116445884Y-210139552D01*
X116232263Y-210281529D01*
X116047767Y-210400197D01*
X115909187Y-210485049D01*
X115833314Y-210525578D01*
X115825852Y-210527559D01*
X115775481Y-210493336D01*
X115668330Y-210399465D01*
X115518738Y-210259144D01*
X115341041Y-210085572D01*
X115285756Y-210030356D01*
X115105785Y-209847236D01*
X114955021Y-209689124D01*
X114846574Y-209570133D01*
X114793556Y-209504374D01*
X114790419Y-209497178D01*
X114817725Y-209444089D01*
X114892473Y-209324147D01*
X115003908Y-209154028D01*
X115141274Y-208950408D01*
X115172182Y-208905282D01*
X115314270Y-208693085D01*
X115432372Y-208506635D01*
X115515565Y-208363930D01*
X115552929Y-208282970D01*
X115553946Y-208276136D01*
X115534916Y-208197746D01*
X115484535Y-208051295D01*
X115412864Y-207861720D01*
X115329967Y-207653961D01*
X115245906Y-207452954D01*
X115170742Y-207283639D01*
X115114538Y-207170952D01*
X115097271Y-207144327D01*
X115030598Y-207113596D01*
X114883373Y-207072162D01*
X114675647Y-207024903D01*
X114427471Y-206976698D01*
X114358470Y-206964557D01*
X113670579Y-206846129D01*
X113670579Y-206091822D01*
X113671117Y-205800508D01*
X113674278Y-205595158D01*
X113682380Y-205459935D01*
X113697744Y-205378999D01*
X113722689Y-205336514D01*
X113759534Y-205316639D01*
X113785108Y-205309753D01*
X113878699Y-205289855D01*
X114048139Y-205256370D01*
X114269133Y-205214018D01*
X114510459Y-205168804D01*
X115121280Y-205055616D01*
X115232016Y-204826557D01*
X115310131Y-204656758D01*
X115403612Y-204441969D01*
X115482263Y-204252993D01*
X115621773Y-203908486D01*
X115206096Y-203302685D01*
X115058066Y-203084099D01*
X114933289Y-202894419D01*
X114842080Y-202749751D01*
X114794754Y-202666200D01*
X114790419Y-202653651D01*
X114824671Y-202603557D01*
X114916679Y-202499587D01*
X115050321Y-202357892D01*
X115209475Y-202194624D01*
X115378018Y-202025934D01*
X115539830Y-201867975D01*
X115678787Y-201736897D01*
X115778768Y-201648853D01*
X115822434Y-201619744D01*
X115875709Y-201647261D01*
X115996143Y-201722809D01*
X116167602Y-201835882D01*
X116373952Y-201975977D01*
X116447837Y-202026958D01*
X116667579Y-202174732D01*
X116863999Y-202298572D01*
X117019122Y-202387741D01*
X117114975Y-202431503D01*
X117129580Y-202434173D01*
X117213832Y-202415151D01*
X117364205Y-202365165D01*
X117553893Y-202294836D01*
X117756093Y-202214782D01*
X117944000Y-202135623D01*
X118090812Y-202067979D01*
X118169722Y-202022470D01*
X118170560Y-202021737D01*
X118195835Y-201959329D01*
X118234101Y-201815604D01*
X118280879Y-201609540D01*
X118331689Y-201360114D01*
X118352038Y-201252989D01*
X118487442Y-200525355D01*
X120007816Y-200525355D01*
X120141837Y-201253211D01*
G36*
X58211266Y-80990447D02*
X58395595Y-81214741D01*
X58555989Y-81470585D01*
X58699933Y-81774361D01*
X58834914Y-82142456D01*
X58968416Y-82591253D01*
X59004987Y-82727660D01*
X59148443Y-83229952D01*
X59290158Y-83636639D01*
X59432934Y-83953819D01*
X59579572Y-84187590D01*
X59732870Y-84344049D01*
X59754605Y-84359841D01*
X59878198Y-84440200D01*
X59967152Y-84488457D01*
X59987703Y-84494694D01*
X60024615Y-84469243D01*
X63175990Y-84469243D01*
X63201441Y-84494694D01*
X63226892Y-84469243D01*
X63201441Y-84443792D01*
X63175990Y-84469243D01*
X60024615Y-84469243D01*
X60037284Y-84460508D01*
X60140540Y-84368247D01*
X60280727Y-84233359D01*
X60392182Y-84121523D01*
X60741164Y-83791503D01*
X61065264Y-83544933D01*
X61382594Y-83372982D01*
X61711265Y-83266822D01*
X62069388Y-83217622D01*
X62258545Y-83211640D01*
X62594230Y-83220590D01*
X62844364Y-83253165D01*
X63023401Y-83313925D01*
X63145792Y-83407429D01*
X63214765Y-83513285D01*
X63284377Y-83635365D01*
X63347907Y-83709724D01*
X63361098Y-83717086D01*
X63426999Y-83695849D01*
X63541189Y-83621897D01*
X63662270Y-83525211D01*
X63808484Y-83411070D01*
X63935266Y-83351340D01*
X64059910Y-83350219D01*
X64199708Y-83411909D01*
X64371956Y-83540608D01*
X64593947Y-83740518D01*
X64609672Y-83755288D01*
X64889077Y-83995665D01*
X65129202Y-84155315D01*
X65326019Y-84232184D01*
X65475503Y-84224222D01*
X65502671Y-84210235D01*
X65555338Y-84137500D01*
X65624405Y-83986578D01*
X65703218Y-83778440D01*
X65785126Y-83534057D01*
X65863476Y-83274402D01*
X65931616Y-83020447D01*
X65982894Y-82793162D01*
X66010656Y-82613520D01*
X66011238Y-82606985D01*
X66039850Y-82271782D01*
X66229552Y-82479731D01*
X66336685Y-82601297D01*
X66417577Y-82709863D01*
X66480963Y-82826273D01*
X66535581Y-82971369D01*
X66590166Y-83165992D01*
X66653456Y-83430985D01*
X66683438Y-83562554D01*
X66756208Y-83859355D01*
X66841306Y-84168751D01*
X66927506Y-84451684D01*
X66995224Y-84647399D01*
X67163098Y-85095909D01*
X67296770Y-85468479D01*
X67401425Y-85783043D01*
X67482247Y-86057538D01*
X67544420Y-86309898D01*
X67593130Y-86558059D01*
X67633560Y-86819957D01*
X67642638Y-86887078D01*
X67654500Y-87035213D01*
X67663329Y-87261892D01*
X67669118Y-87543901D01*
X67671862Y-87858026D01*
X67671558Y-88181052D01*
X67668199Y-88489766D01*
X67661781Y-88760953D01*
X67652298Y-88971399D01*
X67643114Y-89075856D01*
X67581770Y-89453289D01*
X67486485Y-89912862D01*
X67360625Y-90441993D01*
X67207554Y-91028100D01*
X67030639Y-91658601D01*
X66833245Y-92320916D01*
X66618737Y-93002460D01*
X66479023Y-93427960D01*
X66324618Y-93852725D01*
X66147142Y-94277374D01*
X65957234Y-94680026D01*
X65765531Y-95038801D01*
X65582672Y-95331818D01*
X65496840Y-95448141D01*
X65258318Y-95700676D01*
X65004370Y-95885837D01*
X64750215Y-95995950D01*
X64511072Y-96023343D01*
X64397633Y-96002328D01*
X64212886Y-95934924D01*
X64028441Y-95844345D01*
X63838068Y-95724489D01*
X63635533Y-95569252D01*
X63414606Y-95372528D01*
X63169055Y-95128215D01*
X62892648Y-94830207D01*
X62579153Y-94472402D01*
X62222339Y-94048695D01*
X61815973Y-93552981D01*
X61509608Y-93173451D01*
X61218086Y-92819196D01*
X60880252Y-92422714D01*
X60521874Y-92013364D01*
X60168718Y-91620501D01*
X59846549Y-91273485D01*
X59789601Y-91213732D01*
X59238477Y-90635486D01*
X58755539Y-90122025D01*
X58335754Y-89667400D01*
X57974089Y-89265665D01*
X57665511Y-88910870D01*
X57404989Y-88597069D01*
X57187488Y-88318313D01*
X57007977Y-88068655D01*
X56861423Y-87842147D01*
X56742792Y-87632841D01*
X56716665Y-87582023D01*
X56571336Y-87235068D01*
X56446534Y-86826121D01*
X56351468Y-86394360D01*
X56295349Y-85978965D01*
X56284129Y-85741788D01*
X56290213Y-85604318D01*
X56301831Y-85461828D01*
X61827092Y-85461828D01*
X61838631Y-85505405D01*
X61874990Y-85512730D01*
X61944634Y-85486154D01*
X61954347Y-85461828D01*
X61917813Y-85412383D01*
X61906449Y-85410926D01*
X61837511Y-85447927D01*
X61827092Y-85461828D01*
X56301831Y-85461828D01*
X56306680Y-85402373D01*
X56310304Y-85366487D01*
X62065663Y-85366487D01*
X62091993Y-85394029D01*
X62107052Y-85404962D01*
X62211445Y-85441583D01*
X62259757Y-85438346D01*
X62339809Y-85419056D01*
X62494189Y-85384071D01*
X62697687Y-85339051D01*
X62845128Y-85306922D01*
X63118145Y-85258221D01*
X64346731Y-85258221D01*
X64365355Y-85300119D01*
X64380666Y-85292155D01*
X64382616Y-85272812D01*
X64456740Y-85272812D01*
X64469125Y-85301258D01*
X64520378Y-85355903D01*
X64549843Y-85344693D01*
X64550338Y-85337578D01*
X64514184Y-85294524D01*
X64491572Y-85278811D01*
X64456740Y-85272812D01*
X64382616Y-85272812D01*
X64386758Y-85231747D01*
X64380666Y-85224286D01*
X64350405Y-85231273D01*
X64346731Y-85258221D01*
X63118145Y-85258221D01*
X63150470Y-85252455D01*
X63458840Y-85217785D01*
X63743124Y-85204426D01*
X63976205Y-85213894D01*
X64100664Y-85236754D01*
X64192028Y-85228904D01*
X64223058Y-85201525D01*
X64231149Y-85164548D01*
X64201891Y-85177007D01*
X64149265Y-85185234D01*
X64143124Y-85169647D01*
X64099947Y-85126600D01*
X63992345Y-85072965D01*
X63952242Y-85057632D01*
X63772445Y-84977075D01*
X63589813Y-84869333D01*
X63432427Y-84753769D01*
X63328367Y-84649747D01*
X63306631Y-84612418D01*
X63271938Y-84553067D01*
X63231524Y-84587717D01*
X63224933Y-84597924D01*
X63184959Y-84710427D01*
X63176769Y-84782854D01*
X63128599Y-84908189D01*
X62997462Y-85036429D01*
X62800881Y-85154172D01*
X62576592Y-85241918D01*
X62416171Y-85296424D01*
X62298499Y-85345738D01*
X62255688Y-85373087D01*
X62189695Y-85393217D01*
X62128433Y-85382398D01*
X62065663Y-85366487D01*
X56310304Y-85366487D01*
X56329914Y-85172312D01*
X56356299Y-84950498D01*
X56377776Y-84800105D01*
X56453660Y-84441636D01*
X56576082Y-84009652D01*
X56739864Y-83518329D01*
X56939827Y-82981840D01*
X57170791Y-82414359D01*
X57427577Y-81830061D01*
X57591829Y-81477434D01*
X57954959Y-80714558D01*
X58211266Y-80990447D01*
X58211266Y-80990447D01*
G37*
X58211266Y-80990447D02*
X58395595Y-81214741D01*
X58555989Y-81470585D01*
X58699933Y-81774361D01*
X58834914Y-82142456D01*
X58968416Y-82591253D01*
X59004987Y-82727660D01*
X59148443Y-83229952D01*
X59290158Y-83636639D01*
X59432934Y-83953819D01*
X59579572Y-84187590D01*
X59732870Y-84344049D01*
X59754605Y-84359841D01*
X59878198Y-84440200D01*
X59967152Y-84488457D01*
X59987703Y-84494694D01*
X60024615Y-84469243D01*
X63175990Y-84469243D01*
X63201441Y-84494694D01*
X63226892Y-84469243D01*
X63201441Y-84443792D01*
X63175990Y-84469243D01*
X60024615Y-84469243D01*
X60037284Y-84460508D01*
X60140540Y-84368247D01*
X60280727Y-84233359D01*
X60392182Y-84121523D01*
X60741164Y-83791503D01*
X61065264Y-83544933D01*
X61382594Y-83372982D01*
X61711265Y-83266822D01*
X62069388Y-83217622D01*
X62258545Y-83211640D01*
X62594230Y-83220590D01*
X62844364Y-83253165D01*
X63023401Y-83313925D01*
X63145792Y-83407429D01*
X63214765Y-83513285D01*
X63284377Y-83635365D01*
X63347907Y-83709724D01*
X63361098Y-83717086D01*
X63426999Y-83695849D01*
X63541189Y-83621897D01*
X63662270Y-83525211D01*
X63808484Y-83411070D01*
X63935266Y-83351340D01*
X64059910Y-83350219D01*
X64199708Y-83411909D01*
X64371956Y-83540608D01*
X64593947Y-83740518D01*
X64609672Y-83755288D01*
X64889077Y-83995665D01*
X65129202Y-84155315D01*
X65326019Y-84232184D01*
X65475503Y-84224222D01*
X65502671Y-84210235D01*
X65555338Y-84137500D01*
X65624405Y-83986578D01*
X65703218Y-83778440D01*
X65785126Y-83534057D01*
X65863476Y-83274402D01*
X65931616Y-83020447D01*
X65982894Y-82793162D01*
X66010656Y-82613520D01*
X66011238Y-82606985D01*
X66039850Y-82271782D01*
X66229552Y-82479731D01*
X66336685Y-82601297D01*
X66417577Y-82709863D01*
X66480963Y-82826273D01*
X66535581Y-82971369D01*
X66590166Y-83165992D01*
X66653456Y-83430985D01*
X66683438Y-83562554D01*
X66756208Y-83859355D01*
X66841306Y-84168751D01*
X66927506Y-84451684D01*
X66995224Y-84647399D01*
X67163098Y-85095909D01*
X67296770Y-85468479D01*
X67401425Y-85783043D01*
X67482247Y-86057538D01*
X67544420Y-86309898D01*
X67593130Y-86558059D01*
X67633560Y-86819957D01*
X67642638Y-86887078D01*
X67654500Y-87035213D01*
X67663329Y-87261892D01*
X67669118Y-87543901D01*
X67671862Y-87858026D01*
X67671558Y-88181052D01*
X67668199Y-88489766D01*
X67661781Y-88760953D01*
X67652298Y-88971399D01*
X67643114Y-89075856D01*
X67581770Y-89453289D01*
X67486485Y-89912862D01*
X67360625Y-90441993D01*
X67207554Y-91028100D01*
X67030639Y-91658601D01*
X66833245Y-92320916D01*
X66618737Y-93002460D01*
X66479023Y-93427960D01*
X66324618Y-93852725D01*
X66147142Y-94277374D01*
X65957234Y-94680026D01*
X65765531Y-95038801D01*
X65582672Y-95331818D01*
X65496840Y-95448141D01*
X65258318Y-95700676D01*
X65004370Y-95885837D01*
X64750215Y-95995950D01*
X64511072Y-96023343D01*
X64397633Y-96002328D01*
X64212886Y-95934924D01*
X64028441Y-95844345D01*
X63838068Y-95724489D01*
X63635533Y-95569252D01*
X63414606Y-95372528D01*
X63169055Y-95128215D01*
X62892648Y-94830207D01*
X62579153Y-94472402D01*
X62222339Y-94048695D01*
X61815973Y-93552981D01*
X61509608Y-93173451D01*
X61218086Y-92819196D01*
X60880252Y-92422714D01*
X60521874Y-92013364D01*
X60168718Y-91620501D01*
X59846549Y-91273485D01*
X59789601Y-91213732D01*
X59238477Y-90635486D01*
X58755539Y-90122025D01*
X58335754Y-89667400D01*
X57974089Y-89265665D01*
X57665511Y-88910870D01*
X57404989Y-88597069D01*
X57187488Y-88318313D01*
X57007977Y-88068655D01*
X56861423Y-87842147D01*
X56742792Y-87632841D01*
X56716665Y-87582023D01*
X56571336Y-87235068D01*
X56446534Y-86826121D01*
X56351468Y-86394360D01*
X56295349Y-85978965D01*
X56284129Y-85741788D01*
X56290213Y-85604318D01*
X56301831Y-85461828D01*
X61827092Y-85461828D01*
X61838631Y-85505405D01*
X61874990Y-85512730D01*
X61944634Y-85486154D01*
X61954347Y-85461828D01*
X61917813Y-85412383D01*
X61906449Y-85410926D01*
X61837511Y-85447927D01*
X61827092Y-85461828D01*
X56301831Y-85461828D01*
X56306680Y-85402373D01*
X56310304Y-85366487D01*
X62065663Y-85366487D01*
X62091993Y-85394029D01*
X62107052Y-85404962D01*
X62211445Y-85441583D01*
X62259757Y-85438346D01*
X62339809Y-85419056D01*
X62494189Y-85384071D01*
X62697687Y-85339051D01*
X62845128Y-85306922D01*
X63118145Y-85258221D01*
X64346731Y-85258221D01*
X64365355Y-85300119D01*
X64380666Y-85292155D01*
X64382616Y-85272812D01*
X64456740Y-85272812D01*
X64469125Y-85301258D01*
X64520378Y-85355903D01*
X64549843Y-85344693D01*
X64550338Y-85337578D01*
X64514184Y-85294524D01*
X64491572Y-85278811D01*
X64456740Y-85272812D01*
X64382616Y-85272812D01*
X64386758Y-85231747D01*
X64380666Y-85224286D01*
X64350405Y-85231273D01*
X64346731Y-85258221D01*
X63118145Y-85258221D01*
X63150470Y-85252455D01*
X63458840Y-85217785D01*
X63743124Y-85204426D01*
X63976205Y-85213894D01*
X64100664Y-85236754D01*
X64192028Y-85228904D01*
X64223058Y-85201525D01*
X64231149Y-85164548D01*
X64201891Y-85177007D01*
X64149265Y-85185234D01*
X64143124Y-85169647D01*
X64099947Y-85126600D01*
X63992345Y-85072965D01*
X63952242Y-85057632D01*
X63772445Y-84977075D01*
X63589813Y-84869333D01*
X63432427Y-84753769D01*
X63328367Y-84649747D01*
X63306631Y-84612418D01*
X63271938Y-84553067D01*
X63231524Y-84587717D01*
X63224933Y-84597924D01*
X63184959Y-84710427D01*
X63176769Y-84782854D01*
X63128599Y-84908189D01*
X62997462Y-85036429D01*
X62800881Y-85154172D01*
X62576592Y-85241918D01*
X62416171Y-85296424D01*
X62298499Y-85345738D01*
X62255688Y-85373087D01*
X62189695Y-85393217D01*
X62128433Y-85382398D01*
X62065663Y-85366487D01*
X56310304Y-85366487D01*
X56329914Y-85172312D01*
X56356299Y-84950498D01*
X56377776Y-84800105D01*
X56453660Y-84441636D01*
X56576082Y-84009652D01*
X56739864Y-83518329D01*
X56939827Y-82981840D01*
X57170791Y-82414359D01*
X57427577Y-81830061D01*
X57591829Y-81477434D01*
X57954959Y-80714558D01*
X58211266Y-80990447D01*
G36*
X81602443Y-89686678D02*
X78650138Y-89686678D01*
X78650138Y-87970560D01*
X78649621Y-87501856D01*
X78647819Y-87126033D01*
X78644354Y-86834172D01*
X78638850Y-86617355D01*
X78630928Y-86466664D01*
X78620213Y-86373179D01*
X78606327Y-86327982D01*
X78588893Y-86322155D01*
X78580724Y-86328977D01*
X78535653Y-86388568D01*
X78441283Y-86521598D01*
X78305204Y-86717080D01*
X78135008Y-86964027D01*
X77938286Y-87251453D01*
X77722628Y-87568371D01*
X77632376Y-87701507D01*
X77412912Y-88025166D01*
X77211012Y-88322081D01*
X77033945Y-88581624D01*
X76888982Y-88793170D01*
X76783395Y-88946093D01*
X76724454Y-89029767D01*
X76715338Y-89041727D01*
X76678731Y-89011417D01*
X76592197Y-88906044D01*
X76462630Y-88735022D01*
X76296919Y-88507761D01*
X76101956Y-88233673D01*
X75884632Y-87922171D01*
X75716692Y-87677825D01*
X74756150Y-86271700D01*
X74742748Y-87979189D01*
X74729345Y-89686678D01*
X71778395Y-89686678D01*
X71778395Y-81389684D01*
X73101841Y-81389684D01*
X73101841Y-88623593D01*
X73534507Y-88592289D01*
X73559958Y-85411535D01*
X73585409Y-82230780D01*
X75105009Y-84444400D01*
X75396092Y-84868179D01*
X75670185Y-85266749D01*
X75921822Y-85632193D01*
X76145533Y-85956592D01*
X76335853Y-86232030D01*
X76487313Y-86450586D01*
X76594444Y-86604345D01*
X76651781Y-86685387D01*
X76659704Y-86695842D01*
X76694151Y-86662266D01*
X76780365Y-86551937D01*
X76912999Y-86372375D01*
X77086707Y-86131098D01*
X77296142Y-85835627D01*
X77535958Y-85493482D01*
X77800807Y-85112183D01*
X78085344Y-84699249D01*
X78245114Y-84466026D01*
X79795429Y-82198389D01*
X79808534Y-85408064D01*
X79821639Y-88617740D01*
X80228094Y-88617740D01*
X80228094Y-81389684D01*
X80026974Y-81389684D01*
X79985786Y-81387459D01*
X79950974Y-81384729D01*
X79918078Y-81387409D01*
X79882637Y-81401411D01*
X79840190Y-81432651D01*
X79786277Y-81487044D01*
X79716436Y-81570504D01*
X79626207Y-81688946D01*
X79511128Y-81848283D01*
X79366739Y-82054431D01*
X79188580Y-82313305D01*
X78972189Y-82630817D01*
X78713105Y-83012884D01*
X78406867Y-83465420D01*
X78049016Y-83994338D01*
X77931043Y-84168623D01*
X76687203Y-86005880D01*
X75114609Y-83697782D01*
X73542014Y-81389684D01*
X73101841Y-81389684D01*
X71778395Y-81389684D01*
X71778395Y-80269844D01*
X72987312Y-80270510D01*
X74196230Y-80271176D01*
X75417874Y-82075716D01*
X75677215Y-82457093D01*
X75920115Y-82811011D01*
X76140462Y-83128806D01*
X76332151Y-83401820D01*
X76489070Y-83621389D01*
X76605114Y-83778855D01*
X76674171Y-83865555D01*
X76690419Y-83880008D01*
X76728665Y-83839016D01*
X76817196Y-83721947D01*
X76949928Y-83537498D01*
X77120779Y-83294368D01*
X77323668Y-83001256D01*
X77552513Y-82666858D01*
X77801231Y-82299873D01*
X77952678Y-82074802D01*
X79164035Y-80269844D01*
X81602443Y-80269844D01*
X81602443Y-89686678D01*
X81602443Y-89686678D01*
G37*
X81602443Y-89686678D02*
X78650138Y-89686678D01*
X78650138Y-87970560D01*
X78649621Y-87501856D01*
X78647819Y-87126033D01*
X78644354Y-86834172D01*
X78638850Y-86617355D01*
X78630928Y-86466664D01*
X78620213Y-86373179D01*
X78606327Y-86327982D01*
X78588893Y-86322155D01*
X78580724Y-86328977D01*
X78535653Y-86388568D01*
X78441283Y-86521598D01*
X78305204Y-86717080D01*
X78135008Y-86964027D01*
X77938286Y-87251453D01*
X77722628Y-87568371D01*
X77632376Y-87701507D01*
X77412912Y-88025166D01*
X77211012Y-88322081D01*
X77033945Y-88581624D01*
X76888982Y-88793170D01*
X76783395Y-88946093D01*
X76724454Y-89029767D01*
X76715338Y-89041727D01*
X76678731Y-89011417D01*
X76592197Y-88906044D01*
X76462630Y-88735022D01*
X76296919Y-88507761D01*
X76101956Y-88233673D01*
X75884632Y-87922171D01*
X75716692Y-87677825D01*
X74756150Y-86271700D01*
X74742748Y-87979189D01*
X74729345Y-89686678D01*
X71778395Y-89686678D01*
X71778395Y-81389684D01*
X73101841Y-81389684D01*
X73101841Y-88623593D01*
X73534507Y-88592289D01*
X73559958Y-85411535D01*
X73585409Y-82230780D01*
X75105009Y-84444400D01*
X75396092Y-84868179D01*
X75670185Y-85266749D01*
X75921822Y-85632193D01*
X76145533Y-85956592D01*
X76335853Y-86232030D01*
X76487313Y-86450586D01*
X76594444Y-86604345D01*
X76651781Y-86685387D01*
X76659704Y-86695842D01*
X76694151Y-86662266D01*
X76780365Y-86551937D01*
X76912999Y-86372375D01*
X77086707Y-86131098D01*
X77296142Y-85835627D01*
X77535958Y-85493482D01*
X77800807Y-85112183D01*
X78085344Y-84699249D01*
X78245114Y-84466026D01*
X79795429Y-82198389D01*
X79808534Y-85408064D01*
X79821639Y-88617740D01*
X80228094Y-88617740D01*
X80228094Y-81389684D01*
X80026974Y-81389684D01*
X79985786Y-81387459D01*
X79950974Y-81384729D01*
X79918078Y-81387409D01*
X79882637Y-81401411D01*
X79840190Y-81432651D01*
X79786277Y-81487044D01*
X79716436Y-81570504D01*
X79626207Y-81688946D01*
X79511128Y-81848283D01*
X79366739Y-82054431D01*
X79188580Y-82313305D01*
X78972189Y-82630817D01*
X78713105Y-83012884D01*
X78406867Y-83465420D01*
X78049016Y-83994338D01*
X77931043Y-84168623D01*
X76687203Y-86005880D01*
X75114609Y-83697782D01*
X73542014Y-81389684D01*
X73101841Y-81389684D01*
X71778395Y-81389684D01*
X71778395Y-80269844D01*
X72987312Y-80270510D01*
X74196230Y-80271176D01*
X75417874Y-82075716D01*
X75677215Y-82457093D01*
X75920115Y-82811011D01*
X76140462Y-83128806D01*
X76332151Y-83401820D01*
X76489070Y-83621389D01*
X76605114Y-83778855D01*
X76674171Y-83865555D01*
X76690419Y-83880008D01*
X76728665Y-83839016D01*
X76817196Y-83721947D01*
X76949928Y-83537498D01*
X77120779Y-83294368D01*
X77323668Y-83001256D01*
X77552513Y-82666858D01*
X77801231Y-82299873D01*
X77952678Y-82074802D01*
X79164035Y-80269844D01*
X81602443Y-80269844D01*
X81602443Y-89686678D01*
G36*
X85977583Y-82998829D02*
X86186350Y-83010708D01*
X86359312Y-83035788D01*
X86529439Y-83079002D01*
X86729705Y-83145285D01*
X86749519Y-83152263D01*
X87291588Y-83393987D01*
X87771049Y-83710203D01*
X88182169Y-84092942D01*
X88519214Y-84534238D01*
X88776452Y-85026124D01*
X88948149Y-85560631D01*
X89028572Y-86129792D01*
X89034106Y-86327159D01*
X88985617Y-86900235D01*
X88844973Y-87443724D01*
X88619409Y-87948717D01*
X88316158Y-88406309D01*
X87942456Y-88807594D01*
X87505538Y-89143665D01*
X87012637Y-89405615D01*
X86470988Y-89584538D01*
X86369922Y-89607023D01*
X85808328Y-89676033D01*
X85247744Y-89655038D01*
X84961962Y-89607524D01*
X84759058Y-89550300D01*
X84511654Y-89460893D01*
X84264592Y-89355924D01*
X84198435Y-89324468D01*
X83972234Y-89204645D01*
X83778625Y-89077494D01*
X83586973Y-88920030D01*
X83366646Y-88709270D01*
X83331790Y-88674224D01*
X82950388Y-88232972D01*
X82666000Y-87773367D01*
X82474125Y-87284673D01*
X82370258Y-86756151D01*
X82347405Y-86327159D01*
X82358399Y-86175183D01*
X83197020Y-86175183D01*
X83215501Y-86652685D01*
X83335703Y-87131389D01*
X83465223Y-87437583D01*
X83719045Y-87845712D01*
X84043562Y-88191138D01*
X84425165Y-88467584D01*
X84850244Y-88668774D01*
X85305189Y-88788431D01*
X85776390Y-88820278D01*
X86250237Y-88758039D01*
X86301020Y-88745418D01*
X86742556Y-88582086D01*
X87155002Y-88336509D01*
X87516081Y-88024741D01*
X87803516Y-87662834D01*
X87803597Y-87662707D01*
X87988380Y-87319884D01*
X88103933Y-86968398D01*
X88157404Y-86579454D01*
X88160403Y-86225355D01*
X88148926Y-85973089D01*
X88129827Y-85787827D01*
X88095362Y-85634767D01*
X88037788Y-85479110D01*
X87953197Y-85294110D01*
X87690683Y-84853335D01*
X87358948Y-84482199D01*
X86966054Y-84187481D01*
X86520063Y-83975962D01*
X86308744Y-83910911D01*
X85831836Y-83837129D01*
X85357144Y-83858360D01*
X84898088Y-83968440D01*
X84468092Y-84161205D01*
X84080576Y-84430491D01*
X83748963Y-84770136D01*
X83486674Y-85173974D01*
X83465223Y-85216735D01*
X83280261Y-85697120D01*
X83197020Y-86175183D01*
X82358399Y-86175183D01*
X82388536Y-85758602D01*
X82514803Y-85239122D01*
X82730510Y-84758467D01*
X83039964Y-84306383D01*
X83331291Y-83984762D01*
X83652692Y-83688388D01*
X83962200Y-83461221D01*
X84294253Y-83281814D01*
X84683290Y-83128723D01*
X84732904Y-83111947D01*
X84915268Y-83057308D01*
X85089472Y-83022204D01*
X85286721Y-83002869D01*
X85538218Y-82995538D01*
X85700038Y-82995216D01*
X85977583Y-82998829D01*
X85977583Y-82998829D01*
G37*
X85977583Y-82998829D02*
X86186350Y-83010708D01*
X86359312Y-83035788D01*
X86529439Y-83079002D01*
X86729705Y-83145285D01*
X86749519Y-83152263D01*
X87291588Y-83393987D01*
X87771049Y-83710203D01*
X88182169Y-84092942D01*
X88519214Y-84534238D01*
X88776452Y-85026124D01*
X88948149Y-85560631D01*
X89028572Y-86129792D01*
X89034106Y-86327159D01*
X88985617Y-86900235D01*
X88844973Y-87443724D01*
X88619409Y-87948717D01*
X88316158Y-88406309D01*
X87942456Y-88807594D01*
X87505538Y-89143665D01*
X87012637Y-89405615D01*
X86470988Y-89584538D01*
X86369922Y-89607023D01*
X85808328Y-89676033D01*
X85247744Y-89655038D01*
X84961962Y-89607524D01*
X84759058Y-89550300D01*
X84511654Y-89460893D01*
X84264592Y-89355924D01*
X84198435Y-89324468D01*
X83972234Y-89204645D01*
X83778625Y-89077494D01*
X83586973Y-88920030D01*
X83366646Y-88709270D01*
X83331790Y-88674224D01*
X82950388Y-88232972D01*
X82666000Y-87773367D01*
X82474125Y-87284673D01*
X82370258Y-86756151D01*
X82347405Y-86327159D01*
X82358399Y-86175183D01*
X83197020Y-86175183D01*
X83215501Y-86652685D01*
X83335703Y-87131389D01*
X83465223Y-87437583D01*
X83719045Y-87845712D01*
X84043562Y-88191138D01*
X84425165Y-88467584D01*
X84850244Y-88668774D01*
X85305189Y-88788431D01*
X85776390Y-88820278D01*
X86250237Y-88758039D01*
X86301020Y-88745418D01*
X86742556Y-88582086D01*
X87155002Y-88336509D01*
X87516081Y-88024741D01*
X87803516Y-87662834D01*
X87803597Y-87662707D01*
X87988380Y-87319884D01*
X88103933Y-86968398D01*
X88157404Y-86579454D01*
X88160403Y-86225355D01*
X88148926Y-85973089D01*
X88129827Y-85787827D01*
X88095362Y-85634767D01*
X88037788Y-85479110D01*
X87953197Y-85294110D01*
X87690683Y-84853335D01*
X87358948Y-84482199D01*
X86966054Y-84187481D01*
X86520063Y-83975962D01*
X86308744Y-83910911D01*
X85831836Y-83837129D01*
X85357144Y-83858360D01*
X84898088Y-83968440D01*
X84468092Y-84161205D01*
X84080576Y-84430491D01*
X83748963Y-84770136D01*
X83486674Y-85173974D01*
X83465223Y-85216735D01*
X83280261Y-85697120D01*
X83197020Y-86175183D01*
X82358399Y-86175183D01*
X82388536Y-85758602D01*
X82514803Y-85239122D01*
X82730510Y-84758467D01*
X83039964Y-84306383D01*
X83331291Y-83984762D01*
X83652692Y-83688388D01*
X83962200Y-83461221D01*
X84294253Y-83281814D01*
X84683290Y-83128723D01*
X84732904Y-83111947D01*
X84915268Y-83057308D01*
X85089472Y-83022204D01*
X85286721Y-83002869D01*
X85538218Y-82995538D01*
X85700038Y-82995216D01*
X85977583Y-82998829D01*
G36*
X97738314Y-89686678D02*
X96503946Y-89684344D01*
X95269577Y-89682011D01*
X94022483Y-87925072D01*
X93755293Y-87549468D01*
X93504728Y-87198810D01*
X93277242Y-86882015D01*
X93079288Y-86607997D01*
X92917318Y-86385671D01*
X92797785Y-86223953D01*
X92727141Y-86131758D01*
X92711761Y-86114159D01*
X92694485Y-86118081D01*
X92680453Y-86167436D01*
X92669377Y-86270265D01*
X92660964Y-86434607D01*
X92654924Y-86668503D01*
X92650966Y-86979992D01*
X92648800Y-87377116D01*
X92648134Y-87867914D01*
X92648134Y-89686678D01*
X89746731Y-89686678D01*
X89746731Y-88617740D01*
X91019276Y-88617740D01*
X91425737Y-88617740D01*
X91438839Y-85384872D01*
X91451942Y-82152004D01*
X96068754Y-88617740D01*
X96465769Y-88617740D01*
X96465769Y-81389684D01*
X96058555Y-81389684D01*
X96058555Y-87869502D01*
X93753683Y-84642318D01*
X91448812Y-81415135D01*
X91234044Y-81399482D01*
X91019276Y-81383830D01*
X91019276Y-88617740D01*
X89746731Y-88617740D01*
X89746731Y-80269844D01*
X90955649Y-80269954D01*
X92164567Y-80270063D01*
X93459089Y-82079681D01*
X93731080Y-82459178D01*
X93985532Y-82812815D01*
X94216212Y-83132030D01*
X94416887Y-83408265D01*
X94581327Y-83632957D01*
X94703297Y-83797547D01*
X94776568Y-83893474D01*
X94795261Y-83915041D01*
X94804797Y-83872074D01*
X94813565Y-83738442D01*
X94821308Y-83525282D01*
X94827771Y-83243731D01*
X94832697Y-82904927D01*
X94835829Y-82520006D01*
X94836912Y-82105313D01*
X94836912Y-80269844D01*
X97738314Y-80269844D01*
X97738314Y-89686678D01*
X97738314Y-89686678D01*
G37*
X97738314Y-89686678D02*
X96503946Y-89684344D01*
X95269577Y-89682011D01*
X94022483Y-87925072D01*
X93755293Y-87549468D01*
X93504728Y-87198810D01*
X93277242Y-86882015D01*
X93079288Y-86607997D01*
X92917318Y-86385671D01*
X92797785Y-86223953D01*
X92727141Y-86131758D01*
X92711761Y-86114159D01*
X92694485Y-86118081D01*
X92680453Y-86167436D01*
X92669377Y-86270265D01*
X92660964Y-86434607D01*
X92654924Y-86668503D01*
X92650966Y-86979992D01*
X92648800Y-87377116D01*
X92648134Y-87867914D01*
X92648134Y-89686678D01*
X89746731Y-89686678D01*
X89746731Y-88617740D01*
X91019276Y-88617740D01*
X91425737Y-88617740D01*
X91438839Y-85384872D01*
X91451942Y-82152004D01*
X96068754Y-88617740D01*
X96465769Y-88617740D01*
X96465769Y-81389684D01*
X96058555Y-81389684D01*
X96058555Y-87869502D01*
X93753683Y-84642318D01*
X91448812Y-81415135D01*
X91234044Y-81399482D01*
X91019276Y-81383830D01*
X91019276Y-88617740D01*
X89746731Y-88617740D01*
X89746731Y-80269844D01*
X90955649Y-80269954D01*
X92164567Y-80270063D01*
X93459089Y-82079681D01*
X93731080Y-82459178D01*
X93985532Y-82812815D01*
X94216212Y-83132030D01*
X94416887Y-83408265D01*
X94581327Y-83632957D01*
X94703297Y-83797547D01*
X94776568Y-83893474D01*
X94795261Y-83915041D01*
X94804797Y-83872074D01*
X94813565Y-83738442D01*
X94821308Y-83525282D01*
X94827771Y-83243731D01*
X94832697Y-82904927D01*
X94835829Y-82520006D01*
X94836912Y-82105313D01*
X94836912Y-80269844D01*
X97738314Y-80269844D01*
X97738314Y-89686678D01*
G36*
X104304647Y-82713131D02*
X101759557Y-82713131D01*
X101759557Y-83832970D01*
X104253745Y-83832970D01*
X104253745Y-86123551D01*
X101759557Y-86123551D01*
X101759557Y-87243391D01*
X104406451Y-87243391D01*
X104406451Y-89686678D01*
X98807252Y-89686678D01*
X98807252Y-81389684D01*
X100130699Y-81389684D01*
X100130699Y-84969777D01*
X100131170Y-85564413D01*
X100132530Y-86129117D01*
X100134703Y-86655659D01*
X100137611Y-87135811D01*
X100141177Y-87561344D01*
X100145324Y-87924028D01*
X100149974Y-88215636D01*
X100155050Y-88427937D01*
X100160475Y-88552704D01*
X100164634Y-88583805D01*
X100222077Y-88592149D01*
X100368802Y-88599749D01*
X100592284Y-88606343D01*
X100880004Y-88611671D01*
X101219438Y-88615472D01*
X101598064Y-88617485D01*
X101793491Y-88617740D01*
X103388415Y-88617740D01*
X103388415Y-88210525D01*
X100588815Y-88210525D01*
X100588815Y-85158107D01*
X101924988Y-85144537D01*
X103261160Y-85130966D01*
X103261160Y-84774654D01*
X101924988Y-84761083D01*
X100588815Y-84747512D01*
X100588815Y-81745996D01*
X103388415Y-81745996D01*
X103388415Y-81389684D01*
X100130699Y-81389684D01*
X98807252Y-81389684D01*
X98807252Y-80269844D01*
X104304647Y-80269844D01*
X104304647Y-82713131D01*
X104304647Y-82713131D01*
G37*
X104304647Y-82713131D02*
X101759557Y-82713131D01*
X101759557Y-83832970D01*
X104253745Y-83832970D01*
X104253745Y-86123551D01*
X101759557Y-86123551D01*
X101759557Y-87243391D01*
X104406451Y-87243391D01*
X104406451Y-89686678D01*
X98807252Y-89686678D01*
X98807252Y-81389684D01*
X100130699Y-81389684D01*
X100130699Y-84969777D01*
X100131170Y-85564413D01*
X100132530Y-86129117D01*
X100134703Y-86655659D01*
X100137611Y-87135811D01*
X100141177Y-87561344D01*
X100145324Y-87924028D01*
X100149974Y-88215636D01*
X100155050Y-88427937D01*
X100160475Y-88552704D01*
X100164634Y-88583805D01*
X100222077Y-88592149D01*
X100368802Y-88599749D01*
X100592284Y-88606343D01*
X100880004Y-88611671D01*
X101219438Y-88615472D01*
X101598064Y-88617485D01*
X101793491Y-88617740D01*
X103388415Y-88617740D01*
X103388415Y-88210525D01*
X100588815Y-88210525D01*
X100588815Y-85158107D01*
X101924988Y-85144537D01*
X103261160Y-85130966D01*
X103261160Y-84774654D01*
X101924988Y-84761083D01*
X100588815Y-84747512D01*
X100588815Y-81745996D01*
X103388415Y-81745996D01*
X103388415Y-81389684D01*
X100130699Y-81389684D01*
X98807252Y-81389684D01*
X98807252Y-80269844D01*
X104304647Y-80269844D01*
X104304647Y-82713131D01*
G36*
X111379998Y-82713131D02*
X109649336Y-82713131D01*
X109649336Y-89686678D01*
X106544326Y-89686678D01*
X106544326Y-82713131D01*
X104813665Y-82713131D01*
X104813665Y-81389684D01*
X105882603Y-81389684D01*
X105882603Y-81745996D01*
X107867773Y-81745996D01*
X107867773Y-88623593D01*
X108300439Y-88592289D01*
X108313522Y-85169143D01*
X108326606Y-81745996D01*
X110311060Y-81745996D01*
X110311060Y-81389684D01*
X105882603Y-81389684D01*
X104813665Y-81389684D01*
X104813665Y-80269844D01*
X111379998Y-80269844D01*
X111379998Y-82713131D01*
X111379998Y-82713131D01*
G37*
X111379998Y-82713131D02*
X109649336Y-82713131D01*
X109649336Y-89686678D01*
X106544326Y-89686678D01*
X106544326Y-82713131D01*
X104813665Y-82713131D01*
X104813665Y-81389684D01*
X105882603Y-81389684D01*
X105882603Y-81745996D01*
X107867773Y-81745996D01*
X107867773Y-88623593D01*
X108300439Y-88592289D01*
X108313522Y-85169143D01*
X108326606Y-81745996D01*
X110311060Y-81745996D01*
X110311060Y-81389684D01*
X105882603Y-81389684D01*
X104813665Y-81389684D01*
X104813665Y-80269844D01*
X111379998Y-80269844D01*
X111379998Y-82713131D01*
G36*
X88881401Y-82407720D02*
X82467773Y-82407720D01*
X82467773Y-81186076D01*
X83231300Y-81186076D01*
X83231300Y-81491487D01*
X88168775Y-81491487D01*
X88168775Y-81186076D01*
X83231300Y-81186076D01*
X82467773Y-81186076D01*
X82467773Y-80269844D01*
X88881401Y-80269844D01*
X88881401Y-82407720D01*
X88881401Y-82407720D01*
G37*
X88881401Y-82407720D02*
X82467773Y-82407720D01*
X82467773Y-81186076D01*
X83231300Y-81186076D01*
X83231300Y-81491487D01*
X88168775Y-81491487D01*
X88168775Y-81186076D01*
X83231300Y-81186076D01*
X82467773Y-81186076D01*
X82467773Y-80269844D01*
X88881401Y-80269844D01*
X88881401Y-82407720D01*
G36*
X65318855Y-79528589D02*
X65586052Y-79623465D01*
X65796620Y-79738436D01*
X65970279Y-79868150D01*
X66087365Y-79995361D01*
X66128294Y-80099120D01*
X66104107Y-80151673D01*
X66024994Y-80160540D01*
X65881130Y-80123863D01*
X65662689Y-80039781D01*
X65542924Y-79988388D01*
X65243734Y-79866959D01*
X65007972Y-79796238D01*
X64813414Y-79771909D01*
X64637834Y-79789656D01*
X64585698Y-79802496D01*
X64466990Y-79831751D01*
X64425682Y-79824397D01*
X64441838Y-79773650D01*
X64450801Y-79756592D01*
X64586803Y-79604350D01*
X64788049Y-79514285D01*
X65037684Y-79488373D01*
X65318855Y-79528589D01*
X65318855Y-79528589D01*
G37*
X65318855Y-79528589D02*
X65586052Y-79623465D01*
X65796620Y-79738436D01*
X65970279Y-79868150D01*
X66087365Y-79995361D01*
X66128294Y-80099120D01*
X66104107Y-80151673D01*
X66024994Y-80160540D01*
X65881130Y-80123863D01*
X65662689Y-80039781D01*
X65542924Y-79988388D01*
X65243734Y-79866959D01*
X65007972Y-79796238D01*
X64813414Y-79771909D01*
X64637834Y-79789656D01*
X64585698Y-79802496D01*
X64466990Y-79831751D01*
X64425682Y-79824397D01*
X64441838Y-79773650D01*
X64450801Y-79756592D01*
X64586803Y-79604350D01*
X64788049Y-79514285D01*
X65037684Y-79488373D01*
X65318855Y-79528589D01*
G36*
X61769717Y-78950524D02*
X62005248Y-78995600D01*
X62284154Y-79097497D01*
X62587116Y-79250911D01*
X62869839Y-79431914D01*
X62996674Y-79531143D01*
X63199121Y-79703880D01*
X62900821Y-79605470D01*
X62576385Y-79512397D01*
X62236085Y-79438678D01*
X61909280Y-79389001D01*
X61625326Y-79368054D01*
X61454243Y-79374466D01*
X61020563Y-79468599D01*
X60593147Y-79640949D01*
X60334789Y-79790314D01*
X60060144Y-79972667D01*
X60205542Y-79705359D01*
X60417664Y-79417385D01*
X60697977Y-79190881D01*
X61028647Y-79032880D01*
X61391839Y-78950417D01*
X61769717Y-78950524D01*
X61769717Y-78950524D01*
G37*
X61769717Y-78950524D02*
X62005248Y-78995600D01*
X62284154Y-79097497D01*
X62587116Y-79250911D01*
X62869839Y-79431914D01*
X62996674Y-79531143D01*
X63199121Y-79703880D01*
X62900821Y-79605470D01*
X62576385Y-79512397D01*
X62236085Y-79438678D01*
X61909280Y-79389001D01*
X61625326Y-79368054D01*
X61454243Y-79374466D01*
X61020563Y-79468599D01*
X60593147Y-79640949D01*
X60334789Y-79790314D01*
X60060144Y-79972667D01*
X60205542Y-79705359D01*
X60417664Y-79417385D01*
X60697977Y-79190881D01*
X61028647Y-79032880D01*
X61391839Y-78950417D01*
X61769717Y-78950524D01*
G36*
X79186379Y-76318190D02*
X79492366Y-76407286D01*
X79770530Y-76572589D01*
X80003553Y-76778554D01*
X80256249Y-77078798D01*
X80416507Y-77389397D01*
X80493192Y-77730762D01*
X80502984Y-77928361D01*
X80466474Y-78294051D01*
X80351028Y-78618097D01*
X80147773Y-78920917D01*
X80003553Y-79077653D01*
X79745660Y-79303433D01*
X79491209Y-79450064D01*
X79208854Y-79530328D01*
X78867249Y-79557006D01*
X78827357Y-79557219D01*
X78599392Y-79548508D01*
X78419842Y-79514346D01*
X78236208Y-79442694D01*
X78153505Y-79402666D01*
X77799820Y-79170295D01*
X77511878Y-78861197D01*
X77367213Y-78630554D01*
X77309551Y-78505608D01*
X77274251Y-78375043D01*
X77256276Y-78208552D01*
X77250587Y-77975829D01*
X77250479Y-77928361D01*
X77252177Y-77786875D01*
X77638369Y-77786875D01*
X77640886Y-78032619D01*
X77661683Y-78248696D01*
X77703516Y-78406579D01*
X77779557Y-78549574D01*
X77813220Y-78599195D01*
X78053499Y-78862489D01*
X78340539Y-79048126D01*
X78657329Y-79151355D01*
X78986857Y-79167427D01*
X79312111Y-79091592D01*
X79414332Y-79046228D01*
X79685204Y-78859434D01*
X79898485Y-78609922D01*
X80044219Y-78318562D01*
X80112450Y-78006218D01*
X80093222Y-77693760D01*
X80081889Y-77647092D01*
X79949161Y-77323791D01*
X79751024Y-77061784D01*
X79502680Y-76864979D01*
X79219328Y-76737286D01*
X78916171Y-76682611D01*
X78608408Y-76704864D01*
X78311241Y-76807953D01*
X78039869Y-76995787D01*
X77940979Y-77096625D01*
X77775039Y-77316393D01*
X77677823Y-77535080D01*
X77638369Y-77786875D01*
X77252177Y-77786875D01*
X77253316Y-77692101D01*
X77266234Y-77525486D01*
X77295596Y-77396422D01*
X77347766Y-77272820D01*
X77399892Y-77174833D01*
X77638628Y-76839048D01*
X77936541Y-76576505D01*
X78280660Y-76395238D01*
X78658013Y-76303283D01*
X78823209Y-76293228D01*
X79186379Y-76318190D01*
X79186379Y-76318190D01*
G37*
X79186379Y-76318190D02*
X79492366Y-76407286D01*
X79770530Y-76572589D01*
X80003553Y-76778554D01*
X80256249Y-77078798D01*
X80416507Y-77389397D01*
X80493192Y-77730762D01*
X80502984Y-77928361D01*
X80466474Y-78294051D01*
X80351028Y-78618097D01*
X80147773Y-78920917D01*
X80003553Y-79077653D01*
X79745660Y-79303433D01*
X79491209Y-79450064D01*
X79208854Y-79530328D01*
X78867249Y-79557006D01*
X78827357Y-79557219D01*
X78599392Y-79548508D01*
X78419842Y-79514346D01*
X78236208Y-79442694D01*
X78153505Y-79402666D01*
X77799820Y-79170295D01*
X77511878Y-78861197D01*
X77367213Y-78630554D01*
X77309551Y-78505608D01*
X77274251Y-78375043D01*
X77256276Y-78208552D01*
X77250587Y-77975829D01*
X77250479Y-77928361D01*
X77252177Y-77786875D01*
X77638369Y-77786875D01*
X77640886Y-78032619D01*
X77661683Y-78248696D01*
X77703516Y-78406579D01*
X77779557Y-78549574D01*
X77813220Y-78599195D01*
X78053499Y-78862489D01*
X78340539Y-79048126D01*
X78657329Y-79151355D01*
X78986857Y-79167427D01*
X79312111Y-79091592D01*
X79414332Y-79046228D01*
X79685204Y-78859434D01*
X79898485Y-78609922D01*
X80044219Y-78318562D01*
X80112450Y-78006218D01*
X80093222Y-77693760D01*
X80081889Y-77647092D01*
X79949161Y-77323791D01*
X79751024Y-77061784D01*
X79502680Y-76864979D01*
X79219328Y-76737286D01*
X78916171Y-76682611D01*
X78608408Y-76704864D01*
X78311241Y-76807953D01*
X78039869Y-76995787D01*
X77940979Y-77096625D01*
X77775039Y-77316393D01*
X77677823Y-77535080D01*
X77638369Y-77786875D01*
X77252177Y-77786875D01*
X77253316Y-77692101D01*
X77266234Y-77525486D01*
X77295596Y-77396422D01*
X77347766Y-77272820D01*
X77399892Y-77174833D01*
X77638628Y-76839048D01*
X77936541Y-76576505D01*
X78280660Y-76395238D01*
X78658013Y-76303283D01*
X78823209Y-76293228D01*
X79186379Y-76318190D01*
G36*
X86964773Y-76346334D02*
X87304693Y-76457599D01*
X87427404Y-76511517D01*
X87500644Y-76559204D01*
X87524401Y-76619840D01*
X87498662Y-76712605D01*
X87423416Y-76856679D01*
X87304301Y-77061564D01*
X87100837Y-77409942D01*
X86837300Y-77309806D01*
X86551376Y-77238857D01*
X86299593Y-77260588D01*
X86069969Y-77376921D01*
X85985821Y-77446523D01*
X85882607Y-77549044D01*
X85827533Y-77640059D01*
X85805613Y-77758423D01*
X85801841Y-77923471D01*
X85807608Y-78104888D01*
X85833657Y-78223618D01*
X85893112Y-78318527D01*
X85959027Y-78388999D01*
X86172530Y-78534776D01*
X86428422Y-78604399D01*
X86699244Y-78595779D01*
X86957538Y-78506826D01*
X87020072Y-78469747D01*
X87078406Y-78435670D01*
X87125456Y-78432509D01*
X87175532Y-78473739D01*
X87242943Y-78572834D01*
X87341996Y-78743270D01*
X87378058Y-78806861D01*
X87494098Y-79015825D01*
X87554155Y-79157234D01*
X87551058Y-79252872D01*
X87477638Y-79324523D01*
X87326725Y-79393969D01*
X87164600Y-79455380D01*
X86870759Y-79528666D01*
X86529649Y-79556910D01*
X86183449Y-79540199D01*
X85874336Y-79478623D01*
X85797989Y-79452516D01*
X85454366Y-79268011D01*
X85172863Y-79002897D01*
X84957402Y-78664890D01*
X84825698Y-78286766D01*
X84788534Y-77904442D01*
X85216471Y-77904442D01*
X85260693Y-78265471D01*
X85386420Y-78575749D01*
X85583239Y-78828294D01*
X85840741Y-79016122D01*
X86148514Y-79132251D01*
X86496147Y-79169697D01*
X86873229Y-79121477D01*
X86985308Y-79090869D01*
X87112993Y-79037649D01*
X87144670Y-78979336D01*
X87085974Y-78905126D01*
X87083356Y-78902939D01*
X87002075Y-78875153D01*
X86961989Y-78900999D01*
X86867472Y-78944015D01*
X86705075Y-78972838D01*
X86507959Y-78985694D01*
X86309286Y-78980812D01*
X86142219Y-78956418D01*
X86108020Y-78946651D01*
X85952761Y-78872579D01*
X85783622Y-78759092D01*
X85718429Y-78704905D01*
X85527958Y-78470105D01*
X85419468Y-78198544D01*
X85389832Y-77909325D01*
X85435922Y-77621549D01*
X85554611Y-77354320D01*
X85742772Y-77126738D01*
X85997278Y-76957906D01*
X86005012Y-76954354D01*
X86221367Y-76890052D01*
X86476994Y-76862975D01*
X86724209Y-76875425D01*
X86875968Y-76912298D01*
X86990756Y-76939631D01*
X87051804Y-76905542D01*
X87054079Y-76902003D01*
X87077241Y-76835846D01*
X87040695Y-76786567D01*
X86929860Y-76744197D01*
X86768088Y-76706533D01*
X86420056Y-76680247D01*
X86091504Y-76741016D01*
X85796088Y-76878297D01*
X85547464Y-77081547D01*
X85359289Y-77340224D01*
X85245218Y-77643784D01*
X85216471Y-77904442D01*
X84788534Y-77904442D01*
X84787401Y-77892795D01*
X84840057Y-77501401D01*
X84981210Y-77131008D01*
X85205387Y-76803470D01*
X85472267Y-76573521D01*
X85800340Y-76409753D01*
X86170912Y-76315245D01*
X86565288Y-76293079D01*
X86964773Y-76346334D01*
X86964773Y-76346334D01*
G37*
X86964773Y-76346334D02*
X87304693Y-76457599D01*
X87427404Y-76511517D01*
X87500644Y-76559204D01*
X87524401Y-76619840D01*
X87498662Y-76712605D01*
X87423416Y-76856679D01*
X87304301Y-77061564D01*
X87100837Y-77409942D01*
X86837300Y-77309806D01*
X86551376Y-77238857D01*
X86299593Y-77260588D01*
X86069969Y-77376921D01*
X85985821Y-77446523D01*
X85882607Y-77549044D01*
X85827533Y-77640059D01*
X85805613Y-77758423D01*
X85801841Y-77923471D01*
X85807608Y-78104888D01*
X85833657Y-78223618D01*
X85893112Y-78318527D01*
X85959027Y-78388999D01*
X86172530Y-78534776D01*
X86428422Y-78604399D01*
X86699244Y-78595779D01*
X86957538Y-78506826D01*
X87020072Y-78469747D01*
X87078406Y-78435670D01*
X87125456Y-78432509D01*
X87175532Y-78473739D01*
X87242943Y-78572834D01*
X87341996Y-78743270D01*
X87378058Y-78806861D01*
X87494098Y-79015825D01*
X87554155Y-79157234D01*
X87551058Y-79252872D01*
X87477638Y-79324523D01*
X87326725Y-79393969D01*
X87164600Y-79455380D01*
X86870759Y-79528666D01*
X86529649Y-79556910D01*
X86183449Y-79540199D01*
X85874336Y-79478623D01*
X85797989Y-79452516D01*
X85454366Y-79268011D01*
X85172863Y-79002897D01*
X84957402Y-78664890D01*
X84825698Y-78286766D01*
X84788534Y-77904442D01*
X85216471Y-77904442D01*
X85260693Y-78265471D01*
X85386420Y-78575749D01*
X85583239Y-78828294D01*
X85840741Y-79016122D01*
X86148514Y-79132251D01*
X86496147Y-79169697D01*
X86873229Y-79121477D01*
X86985308Y-79090869D01*
X87112993Y-79037649D01*
X87144670Y-78979336D01*
X87085974Y-78905126D01*
X87083356Y-78902939D01*
X87002075Y-78875153D01*
X86961989Y-78900999D01*
X86867472Y-78944015D01*
X86705075Y-78972838D01*
X86507959Y-78985694D01*
X86309286Y-78980812D01*
X86142219Y-78956418D01*
X86108020Y-78946651D01*
X85952761Y-78872579D01*
X85783622Y-78759092D01*
X85718429Y-78704905D01*
X85527958Y-78470105D01*
X85419468Y-78198544D01*
X85389832Y-77909325D01*
X85435922Y-77621549D01*
X85554611Y-77354320D01*
X85742772Y-77126738D01*
X85997278Y-76957906D01*
X86005012Y-76954354D01*
X86221367Y-76890052D01*
X86476994Y-76862975D01*
X86724209Y-76875425D01*
X86875968Y-76912298D01*
X86990756Y-76939631D01*
X87051804Y-76905542D01*
X87054079Y-76902003D01*
X87077241Y-76835846D01*
X87040695Y-76786567D01*
X86929860Y-76744197D01*
X86768088Y-76706533D01*
X86420056Y-76680247D01*
X86091504Y-76741016D01*
X85796088Y-76878297D01*
X85547464Y-77081547D01*
X85359289Y-77340224D01*
X85245218Y-77643784D01*
X85216471Y-77904442D01*
X84788534Y-77904442D01*
X84787401Y-77892795D01*
X84840057Y-77501401D01*
X84981210Y-77131008D01*
X85205387Y-76803470D01*
X85472267Y-76573521D01*
X85800340Y-76409753D01*
X86170912Y-76315245D01*
X86565288Y-76293079D01*
X86964773Y-76346334D01*
G36*
X72827620Y-76362078D02*
X73167709Y-76399064D01*
X73439203Y-76464319D01*
X73657462Y-76560796D01*
X73727877Y-76605048D01*
X73951486Y-76803749D01*
X74091344Y-77043619D01*
X74157411Y-77342879D01*
X74161889Y-77398874D01*
X74168490Y-77686552D01*
X74140500Y-77906088D01*
X74069615Y-78087691D01*
X73947531Y-78261567D01*
X73914023Y-78300597D01*
X73716099Y-78480532D01*
X73476252Y-78608070D01*
X73171983Y-78693486D01*
X72987312Y-78723791D01*
X72745529Y-78756627D01*
X72745529Y-79506317D01*
X71778395Y-79506317D01*
X71778395Y-76706718D01*
X72185609Y-76706718D01*
X72185609Y-77928361D01*
X72186340Y-78316994D01*
X72189006Y-78615231D01*
X72194321Y-78834476D01*
X72202998Y-78986128D01*
X72215749Y-79081590D01*
X72233286Y-79132263D01*
X72256322Y-79149549D01*
X72261962Y-79150004D01*
X72302521Y-79129786D01*
X72326189Y-79056806D01*
X72336726Y-78912574D01*
X72338314Y-78774467D01*
X72338314Y-78398930D01*
X72786570Y-78377498D01*
X73141002Y-78335078D01*
X73409928Y-78242657D01*
X73599152Y-78095247D01*
X73714480Y-77887862D01*
X73761715Y-77615514D01*
X73763565Y-77538111D01*
X73721740Y-77247319D01*
X73596350Y-77014585D01*
X73387526Y-76840136D01*
X73355708Y-76822516D01*
X73228319Y-76764551D01*
X73094360Y-76729365D01*
X72922953Y-76711810D01*
X72683220Y-76706738D01*
X72661170Y-76706718D01*
X72185609Y-76706718D01*
X71778395Y-76706718D01*
X71778395Y-76350405D01*
X72403574Y-76350405D01*
X72827620Y-76362078D01*
X72827620Y-76362078D01*
G37*
X72827620Y-76362078D02*
X73167709Y-76399064D01*
X73439203Y-76464319D01*
X73657462Y-76560796D01*
X73727877Y-76605048D01*
X73951486Y-76803749D01*
X74091344Y-77043619D01*
X74157411Y-77342879D01*
X74161889Y-77398874D01*
X74168490Y-77686552D01*
X74140500Y-77906088D01*
X74069615Y-78087691D01*
X73947531Y-78261567D01*
X73914023Y-78300597D01*
X73716099Y-78480532D01*
X73476252Y-78608070D01*
X73171983Y-78693486D01*
X72987312Y-78723791D01*
X72745529Y-78756627D01*
X72745529Y-79506317D01*
X71778395Y-79506317D01*
X71778395Y-76706718D01*
X72185609Y-76706718D01*
X72185609Y-77928361D01*
X72186340Y-78316994D01*
X72189006Y-78615231D01*
X72194321Y-78834476D01*
X72202998Y-78986128D01*
X72215749Y-79081590D01*
X72233286Y-79132263D01*
X72256322Y-79149549D01*
X72261962Y-79150004D01*
X72302521Y-79129786D01*
X72326189Y-79056806D01*
X72336726Y-78912574D01*
X72338314Y-78774467D01*
X72338314Y-78398930D01*
X72786570Y-78377498D01*
X73141002Y-78335078D01*
X73409928Y-78242657D01*
X73599152Y-78095247D01*
X73714480Y-77887862D01*
X73761715Y-77615514D01*
X73763565Y-77538111D01*
X73721740Y-77247319D01*
X73596350Y-77014585D01*
X73387526Y-76840136D01*
X73355708Y-76822516D01*
X73228319Y-76764551D01*
X73094360Y-76729365D01*
X72922953Y-76711810D01*
X72683220Y-76706738D01*
X72661170Y-76706718D01*
X72185609Y-76706718D01*
X71778395Y-76706718D01*
X71778395Y-76350405D01*
X72403574Y-76350405D01*
X72827620Y-76362078D01*
G36*
X75252443Y-76359298D02*
X75567491Y-76368556D01*
X75800901Y-76381151D01*
X75972834Y-76399576D01*
X76103452Y-76426324D01*
X76212917Y-76463891D01*
X76257753Y-76483642D01*
X76560139Y-76669862D01*
X76776500Y-76909726D01*
X76909744Y-77207326D01*
X76956588Y-77467642D01*
X76947132Y-77727392D01*
X76882355Y-77991544D01*
X76774382Y-78223374D01*
X76660261Y-78365286D01*
X76586714Y-78445901D01*
X76563164Y-78493443D01*
X76588490Y-78557165D01*
X76659246Y-78693495D01*
X76767597Y-78888279D01*
X76905710Y-79127368D01*
X77032280Y-79340886D01*
X77131387Y-79506317D01*
X75977793Y-79506115D01*
X75748735Y-79100209D01*
X75644318Y-78921957D01*
X75555802Y-78783276D01*
X75496283Y-78704119D01*
X75481501Y-78693095D01*
X75463777Y-78739382D01*
X75450428Y-78863459D01*
X75443710Y-79041335D01*
X75443324Y-79099103D01*
X75443324Y-79506317D01*
X74476190Y-79506317D01*
X74476190Y-77928361D01*
X74934306Y-77928361D01*
X74935037Y-78316994D01*
X74937704Y-78615231D01*
X74943019Y-78834476D01*
X74951695Y-78986128D01*
X74964446Y-79081590D01*
X74981983Y-79132263D01*
X75005019Y-79149549D01*
X75010659Y-79150004D01*
X75052143Y-79129050D01*
X75075885Y-79053704D01*
X75085899Y-78905242D01*
X75087012Y-78793692D01*
X75087012Y-78437379D01*
X75417874Y-78437379D01*
X75593826Y-78436246D01*
X75727618Y-78433287D01*
X75786912Y-78429503D01*
X75828651Y-78466486D01*
X75905696Y-78571716D01*
X76003420Y-78724719D01*
X76032354Y-78773090D01*
X76163366Y-78976822D01*
X76268401Y-79096054D01*
X76357057Y-79141674D01*
X76357388Y-79141723D01*
X76475157Y-79158893D01*
X76373155Y-78989018D01*
X76285549Y-78841036D01*
X76180631Y-78661032D01*
X76134075Y-78580282D01*
X75996996Y-78341421D01*
X76152346Y-78261086D01*
X76340990Y-78109585D01*
X76470302Y-77894159D01*
X76530700Y-77639703D01*
X76512602Y-77371112D01*
X76505728Y-77342990D01*
X76400753Y-77095817D01*
X76229089Y-76912087D01*
X75985062Y-76788599D01*
X75662999Y-76722153D01*
X75379697Y-76707836D01*
X74934306Y-76706718D01*
X74934306Y-77928361D01*
X74476190Y-77928361D01*
X74476190Y-76341268D01*
X75252443Y-76359298D01*
X75252443Y-76359298D01*
G37*
X75252443Y-76359298D02*
X75567491Y-76368556D01*
X75800901Y-76381151D01*
X75972834Y-76399576D01*
X76103452Y-76426324D01*
X76212917Y-76463891D01*
X76257753Y-76483642D01*
X76560139Y-76669862D01*
X76776500Y-76909726D01*
X76909744Y-77207326D01*
X76956588Y-77467642D01*
X76947132Y-77727392D01*
X76882355Y-77991544D01*
X76774382Y-78223374D01*
X76660261Y-78365286D01*
X76586714Y-78445901D01*
X76563164Y-78493443D01*
X76588490Y-78557165D01*
X76659246Y-78693495D01*
X76767597Y-78888279D01*
X76905710Y-79127368D01*
X77032280Y-79340886D01*
X77131387Y-79506317D01*
X75977793Y-79506115D01*
X75748735Y-79100209D01*
X75644318Y-78921957D01*
X75555802Y-78783276D01*
X75496283Y-78704119D01*
X75481501Y-78693095D01*
X75463777Y-78739382D01*
X75450428Y-78863459D01*
X75443710Y-79041335D01*
X75443324Y-79099103D01*
X75443324Y-79506317D01*
X74476190Y-79506317D01*
X74476190Y-77928361D01*
X74934306Y-77928361D01*
X74935037Y-78316994D01*
X74937704Y-78615231D01*
X74943019Y-78834476D01*
X74951695Y-78986128D01*
X74964446Y-79081590D01*
X74981983Y-79132263D01*
X75005019Y-79149549D01*
X75010659Y-79150004D01*
X75052143Y-79129050D01*
X75075885Y-79053704D01*
X75085899Y-78905242D01*
X75087012Y-78793692D01*
X75087012Y-78437379D01*
X75417874Y-78437379D01*
X75593826Y-78436246D01*
X75727618Y-78433287D01*
X75786912Y-78429503D01*
X75828651Y-78466486D01*
X75905696Y-78571716D01*
X76003420Y-78724719D01*
X76032354Y-78773090D01*
X76163366Y-78976822D01*
X76268401Y-79096054D01*
X76357057Y-79141674D01*
X76357388Y-79141723D01*
X76475157Y-79158893D01*
X76373155Y-78989018D01*
X76285549Y-78841036D01*
X76180631Y-78661032D01*
X76134075Y-78580282D01*
X75996996Y-78341421D01*
X76152346Y-78261086D01*
X76340990Y-78109585D01*
X76470302Y-77894159D01*
X76530700Y-77639703D01*
X76512602Y-77371112D01*
X76505728Y-77342990D01*
X76400753Y-77095817D01*
X76229089Y-76912087D01*
X75985062Y-76788599D01*
X75662999Y-76722153D01*
X75379697Y-76707836D01*
X74934306Y-76706718D01*
X74934306Y-77928361D01*
X74476190Y-77928361D01*
X74476190Y-76341268D01*
X75252443Y-76359298D01*
G36*
X82264166Y-77650036D02*
X82262934Y-78094285D01*
X82257819Y-78448500D01*
X82246695Y-78724435D01*
X82227436Y-78933843D01*
X82197915Y-79088480D01*
X82156004Y-79200099D01*
X82099579Y-79280454D01*
X82026512Y-79341300D01*
X81950040Y-79386295D01*
X81827482Y-79433181D01*
X81652869Y-79466072D01*
X81407364Y-79487780D01*
X81207954Y-79496973D01*
X80635308Y-79517304D01*
X80635308Y-79073652D01*
X80991621Y-79073652D01*
X81014195Y-79117126D01*
X81094690Y-79140731D01*
X81252269Y-79149020D01*
X81309757Y-79149225D01*
X81485969Y-79143155D01*
X81623271Y-79128164D01*
X81683901Y-79111049D01*
X81739491Y-79062024D01*
X81782007Y-78990093D01*
X81813119Y-78882396D01*
X81834496Y-78726076D01*
X81847809Y-78508277D01*
X81854729Y-78216141D01*
X81856926Y-77836812D01*
X81856952Y-77779002D01*
X81856586Y-77422905D01*
X81854680Y-77155827D01*
X81850020Y-76964983D01*
X81841392Y-76837588D01*
X81827583Y-76760859D01*
X81807378Y-76722010D01*
X81779564Y-76708258D01*
X81755148Y-76706718D01*
X81721903Y-76710459D01*
X81696813Y-76730043D01*
X81678731Y-76778013D01*
X81666512Y-76866910D01*
X81659010Y-77009278D01*
X81655079Y-77217658D01*
X81653573Y-77504593D01*
X81653345Y-77821111D01*
X81653680Y-78196832D01*
X81651853Y-78482929D01*
X81643611Y-78691558D01*
X81624700Y-78834879D01*
X81590871Y-78925047D01*
X81537869Y-78974222D01*
X81461443Y-78994561D01*
X81357341Y-78998221D01*
X81241967Y-78997299D01*
X81083380Y-79005730D01*
X81006694Y-79034846D01*
X80991621Y-79073652D01*
X80635308Y-79073652D01*
X80635308Y-78793692D01*
X80842262Y-78793692D01*
X80966631Y-78793390D01*
X81062454Y-78784668D01*
X81133449Y-78755799D01*
X81183330Y-78695054D01*
X81215816Y-78590708D01*
X81234622Y-78431032D01*
X81243466Y-78204301D01*
X81246063Y-77898787D01*
X81246130Y-77519356D01*
X81246130Y-76350405D01*
X82264166Y-76350405D01*
X82264166Y-77650036D01*
X82264166Y-77650036D01*
G37*
X82264166Y-77650036D02*
X82262934Y-78094285D01*
X82257819Y-78448500D01*
X82246695Y-78724435D01*
X82227436Y-78933843D01*
X82197915Y-79088480D01*
X82156004Y-79200099D01*
X82099579Y-79280454D01*
X82026512Y-79341300D01*
X81950040Y-79386295D01*
X81827482Y-79433181D01*
X81652869Y-79466072D01*
X81407364Y-79487780D01*
X81207954Y-79496973D01*
X80635308Y-79517304D01*
X80635308Y-79073652D01*
X80991621Y-79073652D01*
X81014195Y-79117126D01*
X81094690Y-79140731D01*
X81252269Y-79149020D01*
X81309757Y-79149225D01*
X81485969Y-79143155D01*
X81623271Y-79128164D01*
X81683901Y-79111049D01*
X81739491Y-79062024D01*
X81782007Y-78990093D01*
X81813119Y-78882396D01*
X81834496Y-78726076D01*
X81847809Y-78508277D01*
X81854729Y-78216141D01*
X81856926Y-77836812D01*
X81856952Y-77779002D01*
X81856586Y-77422905D01*
X81854680Y-77155827D01*
X81850020Y-76964983D01*
X81841392Y-76837588D01*
X81827583Y-76760859D01*
X81807378Y-76722010D01*
X81779564Y-76708258D01*
X81755148Y-76706718D01*
X81721903Y-76710459D01*
X81696813Y-76730043D01*
X81678731Y-76778013D01*
X81666512Y-76866910D01*
X81659010Y-77009278D01*
X81655079Y-77217658D01*
X81653573Y-77504593D01*
X81653345Y-77821111D01*
X81653680Y-78196832D01*
X81651853Y-78482929D01*
X81643611Y-78691558D01*
X81624700Y-78834879D01*
X81590871Y-78925047D01*
X81537869Y-78974222D01*
X81461443Y-78994561D01*
X81357341Y-78998221D01*
X81241967Y-78997299D01*
X81083380Y-79005730D01*
X81006694Y-79034846D01*
X80991621Y-79073652D01*
X80635308Y-79073652D01*
X80635308Y-78793692D01*
X80842262Y-78793692D01*
X80966631Y-78793390D01*
X81062454Y-78784668D01*
X81133449Y-78755799D01*
X81183330Y-78695054D01*
X81215816Y-78590708D01*
X81234622Y-78431032D01*
X81243466Y-78204301D01*
X81246063Y-77898787D01*
X81246130Y-77519356D01*
X81246130Y-76350405D01*
X82264166Y-76350405D01*
X82264166Y-77650036D01*
G36*
X84452944Y-77164834D02*
X83638515Y-77164834D01*
X83638515Y-77521147D01*
X84452944Y-77521147D01*
X84452944Y-78284674D01*
X83638515Y-78284674D01*
X83638515Y-78691888D01*
X84503846Y-78691888D01*
X84503846Y-79506317D01*
X82620479Y-79506317D01*
X82620479Y-76706718D01*
X83078595Y-76706718D01*
X83078595Y-79150004D01*
X83638515Y-79150004D01*
X83889142Y-79147823D01*
X84054166Y-79139814D01*
X84149722Y-79123775D01*
X84191945Y-79097507D01*
X84198435Y-79073652D01*
X84181128Y-79037255D01*
X84117831Y-79014222D01*
X83991478Y-79001857D01*
X83785002Y-78997467D01*
X83714868Y-78997299D01*
X83231300Y-78997299D01*
X83231300Y-77979263D01*
X83689417Y-77979263D01*
X83912914Y-77976287D01*
X84052127Y-77965428D01*
X84124453Y-77943785D01*
X84147291Y-77908459D01*
X84147533Y-77902910D01*
X84129680Y-77865661D01*
X84064523Y-77842458D01*
X83934665Y-77830404D01*
X83722708Y-77826598D01*
X83689417Y-77826557D01*
X83231300Y-77826557D01*
X83231300Y-76859423D01*
X83714868Y-76859423D01*
X83945380Y-76856691D01*
X84091257Y-76846696D01*
X84169565Y-76826746D01*
X84197371Y-76794144D01*
X84198435Y-76783070D01*
X84182441Y-76748894D01*
X84123703Y-76726391D01*
X84006086Y-76713360D01*
X83813454Y-76707603D01*
X83638515Y-76706718D01*
X83078595Y-76706718D01*
X82620479Y-76706718D01*
X82620479Y-76350405D01*
X84452944Y-76350405D01*
X84452944Y-77164834D01*
X84452944Y-77164834D01*
G37*
X84452944Y-77164834D02*
X83638515Y-77164834D01*
X83638515Y-77521147D01*
X84452944Y-77521147D01*
X84452944Y-78284674D01*
X83638515Y-78284674D01*
X83638515Y-78691888D01*
X84503846Y-78691888D01*
X84503846Y-79506317D01*
X82620479Y-79506317D01*
X82620479Y-76706718D01*
X83078595Y-76706718D01*
X83078595Y-79150004D01*
X83638515Y-79150004D01*
X83889142Y-79147823D01*
X84054166Y-79139814D01*
X84149722Y-79123775D01*
X84191945Y-79097507D01*
X84198435Y-79073652D01*
X84181128Y-79037255D01*
X84117831Y-79014222D01*
X83991478Y-79001857D01*
X83785002Y-78997467D01*
X83714868Y-78997299D01*
X83231300Y-78997299D01*
X83231300Y-77979263D01*
X83689417Y-77979263D01*
X83912914Y-77976287D01*
X84052127Y-77965428D01*
X84124453Y-77943785D01*
X84147291Y-77908459D01*
X84147533Y-77902910D01*
X84129680Y-77865661D01*
X84064523Y-77842458D01*
X83934665Y-77830404D01*
X83722708Y-77826598D01*
X83689417Y-77826557D01*
X83231300Y-77826557D01*
X83231300Y-76859423D01*
X83714868Y-76859423D01*
X83945380Y-76856691D01*
X84091257Y-76846696D01*
X84169565Y-76826746D01*
X84197371Y-76794144D01*
X84198435Y-76783070D01*
X84182441Y-76748894D01*
X84123703Y-76726391D01*
X84006086Y-76713360D01*
X83813454Y-76707603D01*
X83638515Y-76706718D01*
X83078595Y-76706718D01*
X82620479Y-76706718D01*
X82620479Y-76350405D01*
X84452944Y-76350405D01*
X84452944Y-77164834D01*
G36*
X89797633Y-77164834D02*
X89237713Y-77164834D01*
X89237713Y-79506317D01*
X88219677Y-79506317D01*
X88219677Y-77164834D01*
X87659757Y-77164834D01*
X87659757Y-76783070D01*
X87965168Y-76783070D01*
X87987257Y-76825898D01*
X88066184Y-76849701D01*
X88220941Y-76858864D01*
X88296030Y-76859423D01*
X88626892Y-76859423D01*
X88626892Y-78004714D01*
X88627217Y-78374270D01*
X88628928Y-78654395D01*
X88633123Y-78857464D01*
X88640903Y-78995848D01*
X88653367Y-79081921D01*
X88671615Y-79128056D01*
X88696748Y-79146625D01*
X88728695Y-79150004D01*
X88761545Y-79146339D01*
X88786445Y-79127094D01*
X88804495Y-79079897D01*
X88816796Y-78992374D01*
X88824447Y-78852153D01*
X88828548Y-78646861D01*
X88830198Y-78364124D01*
X88830499Y-78004714D01*
X88830499Y-76859423D01*
X89161361Y-76859423D01*
X89346946Y-76854326D01*
X89450095Y-76836112D01*
X89489800Y-76800399D01*
X89492222Y-76783070D01*
X89478373Y-76753187D01*
X89427391Y-76732067D01*
X89325127Y-76718295D01*
X89157429Y-76710455D01*
X88910149Y-76707132D01*
X88728695Y-76706718D01*
X88429865Y-76708103D01*
X88218662Y-76713201D01*
X88080936Y-76723427D01*
X88002537Y-76740197D01*
X87969315Y-76764925D01*
X87965168Y-76783070D01*
X87659757Y-76783070D01*
X87659757Y-76350405D01*
X89797633Y-76350405D01*
X89797633Y-77164834D01*
X89797633Y-77164834D01*
G37*
X89797633Y-77164834D02*
X89237713Y-77164834D01*
X89237713Y-79506317D01*
X88219677Y-79506317D01*
X88219677Y-77164834D01*
X87659757Y-77164834D01*
X87659757Y-76783070D01*
X87965168Y-76783070D01*
X87987257Y-76825898D01*
X88066184Y-76849701D01*
X88220941Y-76858864D01*
X88296030Y-76859423D01*
X88626892Y-76859423D01*
X88626892Y-78004714D01*
X88627217Y-78374270D01*
X88628928Y-78654395D01*
X88633123Y-78857464D01*
X88640903Y-78995848D01*
X88653367Y-79081921D01*
X88671615Y-79128056D01*
X88696748Y-79146625D01*
X88728695Y-79150004D01*
X88761545Y-79146339D01*
X88786445Y-79127094D01*
X88804495Y-79079897D01*
X88816796Y-78992374D01*
X88824447Y-78852153D01*
X88828548Y-78646861D01*
X88830198Y-78364124D01*
X88830499Y-78004714D01*
X88830499Y-76859423D01*
X89161361Y-76859423D01*
X89346946Y-76854326D01*
X89450095Y-76836112D01*
X89489800Y-76800399D01*
X89492222Y-76783070D01*
X89478373Y-76753187D01*
X89427391Y-76732067D01*
X89325127Y-76718295D01*
X89157429Y-76710455D01*
X88910149Y-76707132D01*
X88728695Y-76706718D01*
X88429865Y-76708103D01*
X88218662Y-76713201D01*
X88080936Y-76723427D01*
X88002537Y-76740197D01*
X87969315Y-76764925D01*
X87965168Y-76783070D01*
X87659757Y-76783070D01*
X87659757Y-76350405D01*
X89797633Y-76350405D01*
X89797633Y-77164834D01*
G36*
X86161607Y-84190066D02*
X86567618Y-84321053D01*
X86944155Y-84533315D01*
X87278224Y-84825655D01*
X87498181Y-85104338D01*
X87693705Y-85449230D01*
X87810629Y-85794234D01*
X87860000Y-86176339D01*
X87863365Y-86327159D01*
X87835657Y-86728987D01*
X87744981Y-87081890D01*
X87580006Y-87424679D01*
X87509727Y-87538488D01*
X87230217Y-87880242D01*
X86884096Y-88155175D01*
X86486560Y-88357058D01*
X86052804Y-88479663D01*
X85598026Y-88516760D01*
X85216642Y-88478368D01*
X84951713Y-88395642D01*
X84660551Y-88250139D01*
X84376996Y-88061278D01*
X84155389Y-87869401D01*
X83854487Y-87501612D01*
X83644099Y-87100455D01*
X83524270Y-86677942D01*
X83505756Y-86404381D01*
X84315808Y-86404381D01*
X84379259Y-86744381D01*
X84528083Y-87056218D01*
X84754064Y-87325574D01*
X85048988Y-87538129D01*
X85252998Y-87631468D01*
X85455000Y-87675117D01*
X85706247Y-87685651D01*
X85964510Y-87665162D01*
X86187557Y-87615742D01*
X86272402Y-87580979D01*
X86591408Y-87363961D01*
X86830170Y-87088065D01*
X86983595Y-86761525D01*
X87046591Y-86392573D01*
X87047941Y-86327159D01*
X87001972Y-85958092D01*
X86870913Y-85630268D01*
X86665035Y-85355171D01*
X86394609Y-85144290D01*
X86069907Y-85009112D01*
X85831764Y-84967025D01*
X85457082Y-84980696D01*
X85114577Y-85085032D01*
X84816783Y-85270893D01*
X84576233Y-85529141D01*
X84405459Y-85850635D01*
X84345944Y-86050535D01*
X84315808Y-86404381D01*
X83505756Y-86404381D01*
X83495042Y-86246084D01*
X83556459Y-85816892D01*
X83708565Y-85402377D01*
X83951402Y-85014550D01*
X84144274Y-84796045D01*
X84502727Y-84502745D01*
X84896682Y-84296692D01*
X85313143Y-84176691D01*
X85739117Y-84141547D01*
X86161607Y-84190066D01*
X86161607Y-84190066D01*
G37*
X86161607Y-84190066D02*
X86567618Y-84321053D01*
X86944155Y-84533315D01*
X87278224Y-84825655D01*
X87498181Y-85104338D01*
X87693705Y-85449230D01*
X87810629Y-85794234D01*
X87860000Y-86176339D01*
X87863365Y-86327159D01*
X87835657Y-86728987D01*
X87744981Y-87081890D01*
X87580006Y-87424679D01*
X87509727Y-87538488D01*
X87230217Y-87880242D01*
X86884096Y-88155175D01*
X86486560Y-88357058D01*
X86052804Y-88479663D01*
X85598026Y-88516760D01*
X85216642Y-88478368D01*
X84951713Y-88395642D01*
X84660551Y-88250139D01*
X84376996Y-88061278D01*
X84155389Y-87869401D01*
X83854487Y-87501612D01*
X83644099Y-87100455D01*
X83524270Y-86677942D01*
X83505756Y-86404381D01*
X84315808Y-86404381D01*
X84379259Y-86744381D01*
X84528083Y-87056218D01*
X84754064Y-87325574D01*
X85048988Y-87538129D01*
X85252998Y-87631468D01*
X85455000Y-87675117D01*
X85706247Y-87685651D01*
X85964510Y-87665162D01*
X86187557Y-87615742D01*
X86272402Y-87580979D01*
X86591408Y-87363961D01*
X86830170Y-87088065D01*
X86983595Y-86761525D01*
X87046591Y-86392573D01*
X87047941Y-86327159D01*
X87001972Y-85958092D01*
X86870913Y-85630268D01*
X86665035Y-85355171D01*
X86394609Y-85144290D01*
X86069907Y-85009112D01*
X85831764Y-84967025D01*
X85457082Y-84980696D01*
X85114577Y-85085032D01*
X84816783Y-85270893D01*
X84576233Y-85529141D01*
X84405459Y-85850635D01*
X84345944Y-86050535D01*
X84315808Y-86404381D01*
X83505756Y-86404381D01*
X83495042Y-86246084D01*
X83556459Y-85816892D01*
X83708565Y-85402377D01*
X83951402Y-85014550D01*
X84144274Y-84796045D01*
X84502727Y-84502745D01*
X84896682Y-84296692D01*
X85313143Y-84176691D01*
X85739117Y-84141547D01*
X86161607Y-84190066D01*
G36*
X79136710Y-76902927D02*
X79414964Y-77029279D01*
X79662799Y-77242843D01*
X79663678Y-77243843D01*
X79812558Y-77439652D01*
X79892697Y-77627076D01*
X79921467Y-77852027D01*
X79922683Y-77928361D01*
X79905852Y-78168771D01*
X79843954Y-78359793D01*
X79719878Y-78546216D01*
X79659295Y-78617871D01*
X79412992Y-78828138D01*
X79127109Y-78954894D01*
X78821312Y-78993622D01*
X78515268Y-78939805D01*
X78420643Y-78902368D01*
X78159075Y-78732336D01*
X77961697Y-78500028D01*
X77836152Y-78225374D01*
X77796617Y-77970455D01*
X78189497Y-77970455D01*
X78237035Y-78214138D01*
X78268901Y-78285692D01*
X78411097Y-78458254D01*
X78611160Y-78568897D01*
X78842119Y-78611973D01*
X79077002Y-78581833D01*
X79260960Y-78493476D01*
X79433979Y-78317041D01*
X79528583Y-78099591D01*
X79545413Y-77864248D01*
X79485111Y-77634139D01*
X79348319Y-77432386D01*
X79228795Y-77333910D01*
X79050634Y-77266378D01*
X78830612Y-77249306D01*
X78615038Y-77282263D01*
X78482106Y-77340875D01*
X78318529Y-77505031D01*
X78218827Y-77724488D01*
X78189497Y-77970455D01*
X77796617Y-77970455D01*
X77790079Y-77928302D01*
X77831121Y-77628742D01*
X77881310Y-77495696D01*
X78057880Y-77221841D01*
X78288624Y-77023246D01*
X78556622Y-76902302D01*
X78844957Y-76861399D01*
X79136710Y-76902927D01*
X79136710Y-76902927D01*
G37*
X79136710Y-76902927D02*
X79414964Y-77029279D01*
X79662799Y-77242843D01*
X79663678Y-77243843D01*
X79812558Y-77439652D01*
X79892697Y-77627076D01*
X79921467Y-77852027D01*
X79922683Y-77928361D01*
X79905852Y-78168771D01*
X79843954Y-78359793D01*
X79719878Y-78546216D01*
X79659295Y-78617871D01*
X79412992Y-78828138D01*
X79127109Y-78954894D01*
X78821312Y-78993622D01*
X78515268Y-78939805D01*
X78420643Y-78902368D01*
X78159075Y-78732336D01*
X77961697Y-78500028D01*
X77836152Y-78225374D01*
X77796617Y-77970455D01*
X78189497Y-77970455D01*
X78237035Y-78214138D01*
X78268901Y-78285692D01*
X78411097Y-78458254D01*
X78611160Y-78568897D01*
X78842119Y-78611973D01*
X79077002Y-78581833D01*
X79260960Y-78493476D01*
X79433979Y-78317041D01*
X79528583Y-78099591D01*
X79545413Y-77864248D01*
X79485111Y-77634139D01*
X79348319Y-77432386D01*
X79228795Y-77333910D01*
X79050634Y-77266378D01*
X78830612Y-77249306D01*
X78615038Y-77282263D01*
X78482106Y-77340875D01*
X78318529Y-77505031D01*
X78218827Y-77724488D01*
X78189497Y-77970455D01*
X77796617Y-77970455D01*
X77790079Y-77928302D01*
X77831121Y-77628742D01*
X77881310Y-77495696D01*
X78057880Y-77221841D01*
X78288624Y-77023246D01*
X78556622Y-76902302D01*
X78844957Y-76861399D01*
X79136710Y-76902927D01*
G36*
X73012304Y-76888063D02*
X73273828Y-76974878D01*
X73454547Y-77121208D01*
X73556288Y-77328395D01*
X73581953Y-77529675D01*
X73543243Y-77787557D01*
X73421273Y-77989553D01*
X73219676Y-78132823D01*
X72942085Y-78214525D01*
X72681902Y-78233693D01*
X72338314Y-78233772D01*
X72338314Y-77546597D01*
X72745529Y-77546597D01*
X72747842Y-77741602D01*
X72758628Y-77856003D01*
X72783661Y-77910964D01*
X72828710Y-77927647D01*
X72849646Y-77928361D01*
X72955822Y-77893849D01*
X73071871Y-77810105D01*
X73078704Y-77803420D01*
X73165243Y-77682476D01*
X73203542Y-77560876D01*
X73203645Y-77555776D01*
X73165467Y-77406558D01*
X73069989Y-77270774D01*
X72945795Y-77181826D01*
X72869089Y-77164834D01*
X72806225Y-77170041D01*
X72769373Y-77199947D01*
X72751598Y-77275980D01*
X72745966Y-77419568D01*
X72745529Y-77546597D01*
X72338314Y-77546597D01*
X72338314Y-76859423D01*
X72668146Y-76859423D01*
X73012304Y-76888063D01*
X73012304Y-76888063D01*
G37*
X73012304Y-76888063D02*
X73273828Y-76974878D01*
X73454547Y-77121208D01*
X73556288Y-77328395D01*
X73581953Y-77529675D01*
X73543243Y-77787557D01*
X73421273Y-77989553D01*
X73219676Y-78132823D01*
X72942085Y-78214525D01*
X72681902Y-78233693D01*
X72338314Y-78233772D01*
X72338314Y-77546597D01*
X72745529Y-77546597D01*
X72747842Y-77741602D01*
X72758628Y-77856003D01*
X72783661Y-77910964D01*
X72828710Y-77927647D01*
X72849646Y-77928361D01*
X72955822Y-77893849D01*
X73071871Y-77810105D01*
X73078704Y-77803420D01*
X73165243Y-77682476D01*
X73203542Y-77560876D01*
X73203645Y-77555776D01*
X73165467Y-77406558D01*
X73069989Y-77270774D01*
X72945795Y-77181826D01*
X72869089Y-77164834D01*
X72806225Y-77170041D01*
X72769373Y-77199947D01*
X72751598Y-77275980D01*
X72745966Y-77419568D01*
X72745529Y-77546597D01*
X72338314Y-77546597D01*
X72338314Y-76859423D01*
X72668146Y-76859423D01*
X73012304Y-76888063D01*
G36*
X75765166Y-76891850D02*
X76030911Y-76986624D01*
X76220069Y-77139981D01*
X76328222Y-77348162D01*
X76350949Y-77607403D01*
X76347603Y-77642858D01*
X76288637Y-77874450D01*
X76165337Y-78047861D01*
X75969287Y-78169069D01*
X75692066Y-78244050D01*
X75462845Y-78270944D01*
X75087012Y-78299368D01*
X75087012Y-77164834D01*
X75443324Y-77164834D01*
X75443324Y-77941681D01*
X75634206Y-77911118D01*
X75785757Y-77862115D01*
X75904291Y-77782631D01*
X75914166Y-77771565D01*
X75982523Y-77643238D01*
X76003244Y-77538645D01*
X75957928Y-77390920D01*
X75843108Y-77261358D01*
X75690476Y-77179219D01*
X75598344Y-77164834D01*
X75443324Y-77164834D01*
X75087012Y-77164834D01*
X75087012Y-76859423D01*
X75427254Y-76859423D01*
X75765166Y-76891850D01*
X75765166Y-76891850D01*
G37*
X75765166Y-76891850D02*
X76030911Y-76986624D01*
X76220069Y-77139981D01*
X76328222Y-77348162D01*
X76350949Y-77607403D01*
X76347603Y-77642858D01*
X76288637Y-77874450D01*
X76165337Y-78047861D01*
X75969287Y-78169069D01*
X75692066Y-78244050D01*
X75462845Y-78270944D01*
X75087012Y-78299368D01*
X75087012Y-77164834D01*
X75443324Y-77164834D01*
X75443324Y-77941681D01*
X75634206Y-77911118D01*
X75785757Y-77862115D01*
X75904291Y-77782631D01*
X75914166Y-77771565D01*
X75982523Y-77643238D01*
X76003244Y-77538645D01*
X75957928Y-77390920D01*
X75843108Y-77261358D01*
X75690476Y-77179219D01*
X75598344Y-77164834D01*
X75443324Y-77164834D01*
X75087012Y-77164834D01*
X75087012Y-76859423D01*
X75427254Y-76859423D01*
X75765166Y-76891850D01*
D12*
X103632000Y-165608000D03*
D13*
X101092000Y-165608000D03*
X98552000Y-165608000D03*
X96012000Y-165608000D03*
X93472000Y-165608000D03*
X90932000Y-165608000D03*
X88392000Y-165608000D03*
X85852000Y-165608000D03*
X85852000Y-173228000D03*
X88392000Y-173228000D03*
X90932000Y-173228000D03*
X93472000Y-173228000D03*
X96012000Y-173228000D03*
X98552000Y-173228000D03*
X101092000Y-173228000D03*
X103632000Y-173228000D03*
D12*
X81534000Y-102870000D03*
D13*
X78994000Y-102870000D03*
X76454000Y-102870000D03*
X73914000Y-102870000D03*
X71374000Y-102870000D03*
X68834000Y-102870000D03*
X66294000Y-102870000D03*
X63754000Y-102870000D03*
X61214000Y-102870000D03*
X58674000Y-102870000D03*
X56134000Y-102870000D03*
X53594000Y-102870000D03*
X51054000Y-102870000D03*
X48514000Y-102870000D03*
X45974000Y-102870000D03*
X45974000Y-125730000D03*
X48514000Y-125730000D03*
X51054000Y-125730000D03*
X53594000Y-125730000D03*
X56134000Y-125730000D03*
X58674000Y-125730000D03*
X61214000Y-125730000D03*
X63754000Y-125730000D03*
X66294000Y-125730000D03*
X68834000Y-125730000D03*
X71374000Y-125730000D03*
X73914000Y-125730000D03*
X76454000Y-125730000D03*
X78994000Y-125730000D03*
X81534000Y-125730000D03*
D14*
X95250000Y-107950000D03*
X96062800Y-107950000D03*
X96875600Y-107950000D03*
X95250000Y-105410000D03*
X96062800Y-105410000D03*
X96875600Y-105410000D03*
X95250000Y-102870000D03*
X96062800Y-102870000D03*
X96875600Y-102870000D03*
D12*
X40894000Y-237998000D03*
D13*
X40894000Y-232918000D03*
D12*
X97790000Y-66040000D03*
D13*
X102870000Y-66040000D03*
D12*
X91059000Y-66040000D03*
D13*
X85979000Y-66040000D03*
D12*
X67564000Y-66040000D03*
D13*
X62484000Y-66040000D03*
D12*
X40894000Y-212598000D03*
D13*
X40894000Y-207518000D03*
D12*
X40894000Y-225298000D03*
D13*
X40894000Y-220218000D03*
D12*
X51054000Y-66040000D03*
D13*
X56134000Y-66040000D03*
D12*
X109474000Y-66040000D03*
D13*
X114554000Y-66040000D03*
D15*
X73914000Y-130302000D03*
X76114000Y-130302000D03*
X71374000Y-130302000D03*
X69174000Y-130302000D03*
X96901000Y-115697000D03*
X94701000Y-115697000D03*
D13*
X58674000Y-189738000D03*
X58674000Y-210058000D03*
X104394000Y-210058000D03*
X104394000Y-189738000D03*
X58674000Y-217678000D03*
X58674000Y-237998000D03*
X104394000Y-237998000D03*
X104394000Y-217678000D03*
D16*
X40386000Y-154686000D03*
D17*
X40386000Y-152146000D03*
X40386000Y-149606000D03*
X40386000Y-147066000D03*
D18*
X106299000Y-184658000D03*
X106299000Y-182758000D03*
X106299000Y-173228000D03*
X106299000Y-171328000D03*
X77724000Y-173228000D03*
X77724000Y-171328000D03*
X77724000Y-185293000D03*
X77724000Y-183393000D03*
D19*
X95001000Y-113157000D03*
X96901000Y-113157000D03*
D12*
X40894000Y-166370000D03*
D13*
X40894000Y-171450000D03*
X40894000Y-176530000D03*
X40894000Y-181610000D03*
D20*
X118364000Y-125222000D03*
D21*
X120904000Y-125222000D03*
X118364000Y-127762000D03*
X120904000Y-127762000D03*
X118364000Y-130302000D03*
X120904000Y-130302000D03*
X118364000Y-132842000D03*
X120904000Y-132842000D03*
X118364000Y-135382000D03*
X120904000Y-135382000D03*
D20*
X118110000Y-102870000D03*
D21*
X120650000Y-102870000D03*
X118110000Y-105410000D03*
X120650000Y-105410000D03*
X118110000Y-107950000D03*
X120650000Y-107950000D03*
X118110000Y-110490000D03*
X120650000Y-110490000D03*
X118110000Y-113030000D03*
X120650000Y-113030000D03*
D12*
X103632000Y-177038000D03*
D13*
X101092000Y-177038000D03*
X98552000Y-177038000D03*
X96012000Y-177038000D03*
X93472000Y-177038000D03*
X90932000Y-177038000D03*
X88392000Y-177038000D03*
X85852000Y-177038000D03*
X85852000Y-184658000D03*
X88392000Y-184658000D03*
X90932000Y-184658000D03*
X93472000Y-184658000D03*
X96012000Y-184658000D03*
X98552000Y-184658000D03*
X101092000Y-184658000D03*
X103632000Y-184658000D03*
D12*
X74803000Y-165608000D03*
D13*
X72263000Y-165608000D03*
X69723000Y-165608000D03*
X67183000Y-165608000D03*
X64643000Y-165608000D03*
X62103000Y-165608000D03*
X59563000Y-165608000D03*
X57023000Y-165608000D03*
X57023000Y-173228000D03*
X59563000Y-173228000D03*
X62103000Y-173228000D03*
X64643000Y-173228000D03*
X67183000Y-173228000D03*
X69723000Y-173228000D03*
X72263000Y-173228000D03*
X74803000Y-173228000D03*
D12*
X74803000Y-177673000D03*
D13*
X72263000Y-177673000D03*
X69723000Y-177673000D03*
X67183000Y-177673000D03*
X64643000Y-177673000D03*
X62103000Y-177673000D03*
X59563000Y-177673000D03*
X57023000Y-177673000D03*
X57023000Y-185293000D03*
X59563000Y-185293000D03*
X62103000Y-185293000D03*
X64643000Y-185293000D03*
X67183000Y-185293000D03*
X69723000Y-185293000D03*
X72263000Y-185293000D03*
X74803000Y-185293000D03*
D12*
X110490000Y-135890000D03*
D13*
X110490000Y-133350000D03*
X110490000Y-130810000D03*
X110490000Y-128270000D03*
X110490000Y-125730000D03*
X110490000Y-123190000D03*
X110490000Y-120650000D03*
X110490000Y-118110000D03*
X110490000Y-115570000D03*
X110490000Y-113030000D03*
X110490000Y-110490000D03*
X110490000Y-107950000D03*
X110490000Y-105410000D03*
X110490000Y-102870000D03*
X100330000Y-102870000D03*
X100330000Y-105410000D03*
X100330000Y-107950000D03*
X100330000Y-110490000D03*
X100330000Y-113030000D03*
X100330000Y-115570000D03*
X100330000Y-118110000D03*
X100330000Y-120650000D03*
X100330000Y-123190000D03*
X100330000Y-125730000D03*
X100330000Y-128270000D03*
X100330000Y-130810000D03*
X100330000Y-133350000D03*
X100330000Y-135890000D03*
D12*
X124714000Y-229108000D03*
D13*
X124714000Y-234188000D03*
D12*
X124714000Y-144018000D03*
D13*
X124714000Y-149098000D03*
X124714000Y-154178000D03*
X124714000Y-159258000D03*
X124714000Y-164338000D03*
X124714000Y-169418000D03*
X124714000Y-174498000D03*
X124714000Y-179578000D03*
X124714000Y-184658000D03*
X124714000Y-189738000D03*
X111379000Y-157353000D03*
X111379000Y-154813000D03*
X111379000Y-152273000D03*
X111379000Y-149733000D03*
X111379000Y-147193000D03*
X111379000Y-144653000D03*
X106299000Y-144653000D03*
X103759000Y-144653000D03*
X101219000Y-144653000D03*
X98679000Y-144653000D03*
X93599000Y-144653000D03*
X91059000Y-144653000D03*
X88519000Y-144653000D03*
X85979000Y-144653000D03*
X78359000Y-144653000D03*
X75819000Y-144653000D03*
X73279000Y-144653000D03*
X70739000Y-144653000D03*
X65659000Y-144653000D03*
X63119000Y-144653000D03*
X60579000Y-144653000D03*
X58039000Y-144653000D03*
X52959000Y-144653000D03*
X52959000Y-147193000D03*
X52959000Y-149733000D03*
X52959000Y-152273000D03*
X52959000Y-154813000D03*
X52959000Y-157353000D03*
D20*
X48514000Y-201930000D03*
D21*
X45974000Y-201930000D03*
X48514000Y-199390000D03*
X45974000Y-199390000D03*
X48514000Y-196850000D03*
X45974000Y-196850000D03*
X48514000Y-194310000D03*
X45974000Y-194310000D03*
X48514000Y-191770000D03*
X45974000Y-191770000D03*
D22*
X54864000Y-107188000D03*
X47879000Y-151638000D03*
X75946000Y-128651000D03*
X70231000Y-128651000D03*
X96254000Y-111778000D03*
X88054000Y-103278000D03*
X85454000Y-101978000D03*
X95954000Y-180778000D03*
X96654000Y-169178000D03*
X67154000Y-169578000D03*
X96854000Y-109478000D03*
X96854000Y-104178000D03*
X46609000Y-140208000D03*
X46609000Y-140208000D03*
X99314000Y-98933000D03*
X50869989Y-170688000D03*
X56769000Y-181483000D03*
X50869989Y-149732991D03*
X78359000Y-129413000D03*
X73914000Y-131318000D03*
X65659000Y-133223000D03*
X87426482Y-106095482D03*
X96774000Y-91948002D03*
X66929000Y-135763000D03*
X98154000Y-119277998D03*
X52254000Y-175878000D03*
D23*
X48514000Y-201930000D02*
X45974000Y-201930000D01*
X47879000Y-151638000D02*
X47879000Y-187994870D01*
X44710399Y-191163471D02*
X44710399Y-200666399D01*
X47879000Y-187994870D02*
X44710399Y-191163471D01*
X44710399Y-200666399D02*
X45110401Y-201066401D01*
X45110401Y-201066401D02*
X45974000Y-201930000D01*
X111379000Y-144653000D02*
X111379000Y-147193000D01*
X118364000Y-132842000D02*
X111379000Y-139827000D01*
X111379000Y-139827000D02*
X111379000Y-144653000D01*
X45974000Y-125730000D02*
X45974000Y-116078000D01*
X45974000Y-116078000D02*
X54864000Y-107188000D01*
X95989567Y-101234988D02*
X95250000Y-101974555D01*
X95250000Y-101974555D02*
X95250000Y-102870000D01*
X101110988Y-101234988D02*
X95989567Y-101234988D01*
X109200999Y-109324999D02*
X101110988Y-101234988D01*
X109200999Y-114280999D02*
X109200999Y-109324999D01*
X110490000Y-115570000D02*
X109200999Y-114280999D01*
X51899736Y-147193000D02*
X52959000Y-147193000D01*
X47879000Y-151213736D02*
X51899736Y-147193000D01*
X47879000Y-151638000D02*
X47879000Y-151213736D01*
X119033870Y-132842000D02*
X118364000Y-132842000D01*
X110490000Y-115570000D02*
X113122130Y-115570000D01*
X120297471Y-131578399D02*
X119033870Y-132842000D01*
X121497731Y-131578399D02*
X120297471Y-131578399D01*
X122167601Y-130908529D02*
X121497731Y-131578399D01*
X122167601Y-124615471D02*
X122167601Y-130908529D01*
X113122130Y-115570000D02*
X122167601Y-124615471D01*
X75946000Y-128651000D02*
X82597000Y-128651000D01*
X82597000Y-128651000D02*
X94701000Y-116547000D01*
X94701000Y-116547000D02*
X94701000Y-115697000D01*
X94742000Y-115738000D02*
X94701000Y-115697000D01*
X75946000Y-128651000D02*
X75946000Y-130134000D01*
X75946000Y-130134000D02*
X76114000Y-130302000D01*
X69174000Y-130302000D02*
X69174000Y-129708000D01*
X69174000Y-129708000D02*
X70231000Y-128651000D01*
X69174000Y-130302000D02*
X69174000Y-126070000D01*
X69174000Y-126070000D02*
X68834000Y-125730000D01*
X69174000Y-130302000D02*
X69603998Y-130302000D01*
X75964000Y-130302000D02*
X76114000Y-130302000D01*
X52959000Y-147193000D02*
X52959000Y-144653000D01*
X118110000Y-110490000D02*
X115570000Y-110490000D01*
X115570000Y-110490000D02*
X110490000Y-115570000D01*
X95001000Y-113157000D02*
X95001000Y-115397000D01*
X95001000Y-115397000D02*
X94701000Y-115697000D01*
X95250000Y-107950000D02*
X95250000Y-112908000D01*
X95250000Y-112908000D02*
X95001000Y-113157000D01*
X95250000Y-105410000D02*
X95250000Y-102870000D01*
X95250000Y-107950000D02*
X95250000Y-105410000D01*
X99441001Y-108838999D02*
X100330000Y-107950000D01*
X96517998Y-110178002D02*
X98101998Y-110178002D01*
X96062800Y-109722804D02*
X96517998Y-110178002D01*
X96062800Y-107950000D02*
X96062800Y-109722804D01*
X98101998Y-110178002D02*
X99441001Y-108838999D01*
X96901000Y-113157000D02*
X96901000Y-112425000D01*
X96901000Y-112425000D02*
X96254000Y-111778000D01*
X72263000Y-185293000D02*
X74163000Y-183393000D01*
X74163000Y-183393000D02*
X77724000Y-183393000D01*
X72263000Y-173228000D02*
X74163000Y-171328000D01*
X74163000Y-171328000D02*
X77724000Y-171328000D01*
X101092000Y-173228000D02*
X102992000Y-171328000D01*
X102992000Y-171328000D02*
X106299000Y-171328000D01*
X101092000Y-184658000D02*
X102992000Y-182758000D01*
X102992000Y-182758000D02*
X106299000Y-182758000D01*
X124714000Y-184658000D02*
X123825001Y-185546999D01*
X123825001Y-185546999D02*
X123825001Y-188849001D01*
X123825001Y-188849001D02*
X124714000Y-189738000D01*
X85454000Y-101978000D02*
X86754000Y-101978000D01*
X86754000Y-101978000D02*
X88054000Y-103278000D01*
X96012000Y-184658000D02*
X96012000Y-180836000D01*
X96012000Y-180836000D02*
X95954000Y-180778000D01*
X93472000Y-173228000D02*
X96654000Y-170046000D01*
X96654000Y-170046000D02*
X96654000Y-169178000D01*
X67183000Y-173228000D02*
X67183000Y-169607000D01*
X67183000Y-169607000D02*
X67154000Y-169578000D01*
X67183000Y-185293000D02*
X67183000Y-177673000D01*
X104394000Y-225838000D02*
X105783001Y-224448999D01*
X105783001Y-224448999D02*
X105783001Y-211447001D01*
X105783001Y-211447001D02*
X105282999Y-210946999D01*
X105282999Y-210946999D02*
X104394000Y-210058000D01*
X104394000Y-237998000D02*
X104394000Y-225838000D01*
X104394000Y-210058000D02*
X124714000Y-189738000D01*
X96875600Y-107950000D02*
X96875600Y-109456400D01*
X96875600Y-109456400D02*
X96854000Y-109478000D01*
X96854000Y-104178000D02*
X96854000Y-102891600D01*
X96854000Y-102891600D02*
X96875600Y-102870000D01*
X96875600Y-105410000D02*
X96875600Y-104199600D01*
X96875600Y-104199600D02*
X96854000Y-104178000D01*
X48514000Y-126987235D02*
X48514000Y-125730000D01*
X40894000Y-166370000D02*
X40894000Y-165081000D01*
X45246989Y-160728011D02*
X45246989Y-138308468D01*
X40894000Y-165081000D02*
X45246989Y-160728011D01*
X48514000Y-135041457D02*
X48514000Y-126987235D01*
X45246989Y-138308468D02*
X48514000Y-135041457D01*
X96062800Y-105410000D02*
X96062801Y-106445001D01*
X96062801Y-106445001D02*
X99294999Y-106445001D01*
X99294999Y-106445001D02*
X100330000Y-105410000D01*
X99294999Y-101834999D02*
X99441001Y-101981001D01*
X96062800Y-102870000D02*
X96062800Y-102010298D01*
X99441001Y-101981001D02*
X100330000Y-102870000D01*
X96062800Y-102010298D02*
X96238099Y-101834999D01*
X96238099Y-101834999D02*
X99294999Y-101834999D01*
X70084999Y-104159001D02*
X70485001Y-103758999D01*
X39684999Y-165080999D02*
X39684999Y-164531001D01*
X66655999Y-104159001D02*
X70084999Y-104159001D01*
X44684999Y-116330997D02*
X54527998Y-106487998D01*
X44646978Y-159569022D02*
X44646978Y-138059936D01*
X44646978Y-138059936D02*
X44684999Y-138021915D01*
X54527998Y-106487998D02*
X64327002Y-106487998D01*
X39604999Y-165160999D02*
X39684999Y-165080999D01*
X44684999Y-138021915D02*
X44684999Y-116330997D01*
X39604999Y-175240999D02*
X39604999Y-165160999D01*
X40894000Y-176530000D02*
X39604999Y-175240999D01*
X39684999Y-164531001D02*
X44646978Y-159569022D01*
X70485001Y-103758999D02*
X71374000Y-102870000D01*
X64327002Y-106487998D02*
X66655999Y-104159001D01*
X40894000Y-181610000D02*
X46609000Y-175895000D01*
X46609000Y-175895000D02*
X46609000Y-140208000D01*
D24*
X40894000Y-225298000D02*
X43434000Y-225298000D01*
X43434000Y-225298000D02*
X58674000Y-210058000D01*
X58674000Y-189738000D02*
X61214000Y-192278000D01*
X61214000Y-192278000D02*
X61214000Y-215138000D01*
X61214000Y-215138000D02*
X59562999Y-216789001D01*
X59562999Y-216789001D02*
X58674000Y-217678000D01*
X40894000Y-232918000D02*
X43434000Y-232918000D01*
X43434000Y-232918000D02*
X58674000Y-217678000D01*
D25*
X99314000Y-98933000D02*
X118805130Y-98933000D01*
X121513599Y-112166401D02*
X120650000Y-113030000D01*
X118805130Y-98933000D02*
X122063601Y-102191471D01*
X122063601Y-102191471D02*
X122063601Y-111616399D01*
X122063601Y-111616399D02*
X121513599Y-112166401D01*
X123444000Y-124831195D02*
X123444000Y-132842000D01*
X123444000Y-132842000D02*
X120904000Y-135382000D01*
X122917612Y-119996612D02*
X122809000Y-120105224D01*
X122809000Y-120105224D02*
X122809000Y-124196195D01*
X122809000Y-124196195D02*
X123444000Y-124831195D01*
X120650000Y-113030000D02*
X122917612Y-115297612D01*
X122917612Y-115297612D02*
X122917612Y-119996612D01*
X103632000Y-173228000D02*
X106299000Y-173228000D01*
X103632000Y-184658000D02*
X106299000Y-184658000D01*
X74803000Y-173228000D02*
X77724000Y-173228000D01*
X74803000Y-185293000D02*
X77724000Y-185293000D01*
X50869989Y-176008253D02*
X56344736Y-181483000D01*
X56344736Y-181483000D02*
X56769000Y-181483000D01*
X50869989Y-149732991D02*
X50869989Y-176008253D01*
D23*
X45847000Y-138557000D02*
X57785001Y-126618999D01*
X40894000Y-169037000D02*
X45847000Y-164084000D01*
X57785001Y-126618999D02*
X58674000Y-125730000D01*
X45847000Y-164084000D02*
X45847000Y-138557000D01*
X40894000Y-171450000D02*
X40894000Y-169037000D01*
X78359000Y-129413000D02*
X92309999Y-143363999D01*
X92309999Y-143363999D02*
X106917721Y-143363999D01*
X106917721Y-143363999D02*
X110089999Y-146536277D01*
X110089999Y-146536277D02*
X110089999Y-150983999D01*
X110089999Y-150983999D02*
X110490001Y-151384001D01*
X110490001Y-151384001D02*
X111379000Y-152273000D01*
X111779001Y-106660999D02*
X111378999Y-107061001D01*
X111779001Y-102251279D02*
X111779001Y-106660999D01*
X101954066Y-100380980D02*
X109908702Y-100380980D01*
X71374000Y-124153469D02*
X95492503Y-100034966D01*
X95492503Y-100034966D02*
X101608052Y-100034966D01*
X109908702Y-100380980D02*
X111779001Y-102251279D01*
X101608052Y-100034966D02*
X101954066Y-100380980D01*
X71374000Y-125730000D02*
X71374000Y-124153469D01*
X111378999Y-107061001D02*
X110490000Y-107950000D01*
X71374000Y-125730000D02*
X71374000Y-130302000D01*
X106134543Y-105410000D02*
X109232765Y-105410000D01*
X101359520Y-100634977D02*
X106134543Y-105410000D01*
X73914000Y-125730000D02*
X73914000Y-122462012D01*
X109232765Y-105410000D02*
X110490000Y-105410000D01*
X73914000Y-122462012D02*
X95741035Y-100634977D01*
X95741035Y-100634977D02*
X101359520Y-100634977D01*
X72009000Y-133223000D02*
X73914000Y-131318000D01*
X73914000Y-131318000D02*
X73914000Y-130302000D01*
X65659000Y-133223000D02*
X72009000Y-133223000D01*
X73914000Y-125730000D02*
X73914000Y-130302000D01*
X73914000Y-125730000D02*
X73914000Y-126331998D01*
X74064000Y-130302000D02*
X73914000Y-130302000D01*
X87726481Y-105795483D02*
X87426482Y-106095482D01*
X97409000Y-96112964D02*
X87726481Y-105795483D01*
X97790000Y-91927996D02*
X97409000Y-92308996D01*
X97790000Y-66040000D02*
X97790000Y-91927996D01*
X97409000Y-92308996D02*
X97409000Y-96112964D01*
X67501861Y-125030139D02*
X96774000Y-95758000D01*
X96774000Y-95758000D02*
X96774000Y-92372266D01*
X96774000Y-92372266D02*
X96774000Y-91948002D01*
X66912721Y-124440999D02*
X67501861Y-125030139D01*
X65675279Y-124440999D02*
X66912721Y-124440999D01*
X65004999Y-125111279D02*
X65675279Y-124440999D01*
X65004999Y-125730000D02*
X65004999Y-125111279D01*
X63754000Y-125730000D02*
X65004999Y-125730000D01*
X66929000Y-135763000D02*
X61214000Y-130048000D01*
X61214000Y-130048000D02*
X61214000Y-125730000D01*
X98628200Y-112191800D02*
X98628200Y-113119800D01*
X98628200Y-113119800D02*
X96901000Y-114847000D01*
X96901000Y-114847000D02*
X96901000Y-115697000D01*
X100330000Y-110490000D02*
X98628200Y-112191800D01*
X103632000Y-165608000D02*
X103632000Y-147320000D01*
X103632000Y-147320000D02*
X106299000Y-144653000D01*
X103759000Y-165481000D02*
X103632000Y-165608000D01*
X85852000Y-173228000D02*
X84462999Y-171838999D01*
X101837721Y-145942001D02*
X102508001Y-145271721D01*
X84462999Y-171838999D02*
X84462999Y-159885001D01*
X100146263Y-145942001D02*
X101837721Y-145942001D01*
X84462999Y-159885001D02*
X97605982Y-146742018D01*
X98287067Y-146742017D02*
X98487072Y-146542012D01*
X97605982Y-146742018D02*
X98287067Y-146742017D01*
X98487072Y-146542012D02*
X99546253Y-146542012D01*
X102508001Y-144653000D02*
X103759000Y-144653000D01*
X99546253Y-146542012D02*
X100146263Y-145942001D01*
X102508001Y-145271721D02*
X102508001Y-144653000D01*
X99297721Y-145942001D02*
X100586722Y-144653000D01*
X98238541Y-145942001D02*
X99297721Y-145942001D01*
X83862988Y-159636469D02*
X97357448Y-146142009D01*
X103632000Y-175749000D02*
X103531999Y-175648999D01*
X83862988Y-173146710D02*
X83862988Y-159636469D01*
X86365277Y-175648999D02*
X83862988Y-173146710D01*
X100586722Y-144653000D02*
X101219000Y-144653000D01*
X103531999Y-175648999D02*
X86365277Y-175648999D01*
X103632000Y-177038000D02*
X103632000Y-175749000D01*
X97357448Y-146142009D02*
X98038534Y-146142008D01*
X98038534Y-146142008D02*
X98238541Y-145942001D01*
X97790001Y-145541999D02*
X98679000Y-144653000D01*
X85852000Y-184658000D02*
X83369022Y-182175022D01*
X83262977Y-173474889D02*
X83262977Y-159387937D01*
X83369022Y-173580934D02*
X83262977Y-173474889D01*
X97108915Y-145541999D02*
X97790001Y-145541999D01*
X83369022Y-182175022D02*
X83369022Y-173580934D01*
X83262977Y-159387937D02*
X97108915Y-145541999D01*
X93599000Y-148101000D02*
X93599000Y-144653000D01*
X74803000Y-165608000D02*
X76092000Y-165608000D01*
X76092000Y-165608000D02*
X93599000Y-148101000D01*
X91059000Y-149606000D02*
X91059000Y-145910235D01*
X76446001Y-164218999D02*
X91059000Y-149606000D01*
X55633999Y-164941279D02*
X56356279Y-164218999D01*
X56356279Y-164218999D02*
X76446001Y-164218999D01*
X91059000Y-145910235D02*
X91059000Y-144653000D01*
X55633999Y-171838999D02*
X55633999Y-164941279D01*
X57023000Y-173228000D02*
X55633999Y-171838999D01*
X55033988Y-164692747D02*
X56107747Y-163618988D01*
X88519000Y-151216543D02*
X88519000Y-144653000D01*
X76116555Y-163618988D02*
X88519000Y-151216543D01*
X56107747Y-163618988D02*
X76116555Y-163618988D01*
X55033988Y-174794988D02*
X55033988Y-164692747D01*
X73213988Y-174794988D02*
X55033988Y-174794988D01*
X74803000Y-176384000D02*
X73213988Y-174794988D01*
X74803000Y-177673000D02*
X74803000Y-176384000D01*
X58169013Y-184146987D02*
X58169013Y-180850466D01*
X54356000Y-177037453D02*
X54356000Y-164522192D01*
X57023000Y-185293000D02*
X58169013Y-184146987D01*
X58169013Y-180850466D02*
X54356000Y-177037453D01*
X85979000Y-152908000D02*
X85979000Y-144653000D01*
X54356000Y-164522192D02*
X55859215Y-163018977D01*
X55859215Y-163018977D02*
X75868023Y-163018977D01*
X75868023Y-163018977D02*
X85979000Y-152908000D01*
X110490000Y-125730000D02*
X112522000Y-127762000D01*
X112522000Y-127762000D02*
X118364000Y-127762000D01*
X110490000Y-123190000D02*
X113785601Y-126485601D01*
X113785601Y-126485601D02*
X119627601Y-126485601D01*
X119627601Y-126485601D02*
X120040401Y-126898401D01*
X120040401Y-126898401D02*
X120904000Y-127762000D01*
X116500388Y-132377614D02*
X116500388Y-130944298D01*
X111699001Y-137179001D02*
X116500388Y-132377614D01*
X109280998Y-137179001D02*
X111699001Y-137179001D01*
X109200999Y-137099001D02*
X109280998Y-137179001D01*
X109200999Y-121939001D02*
X109200999Y-137099001D01*
X110490000Y-120650000D02*
X109200999Y-121939001D01*
X117142686Y-130302000D02*
X118364000Y-130302000D01*
X116500388Y-130944298D02*
X117142686Y-130302000D01*
X120725328Y-130302000D02*
X120904000Y-130302000D01*
X111947534Y-137779010D02*
X117100399Y-132626145D01*
X108600990Y-137347534D02*
X109032467Y-137779011D01*
X119461727Y-131565601D02*
X120725328Y-130302000D01*
X117100399Y-132235471D02*
X117770269Y-131565601D01*
X117770269Y-131565601D02*
X119461727Y-131565601D01*
X117100399Y-132626145D02*
X117100399Y-132235471D01*
X109032467Y-137779011D02*
X111947534Y-137779010D01*
X108600989Y-119999011D02*
X108600990Y-137347534D01*
X110490000Y-118110000D02*
X108600989Y-119999011D01*
X98154000Y-119277998D02*
X99162002Y-119277998D01*
X99162002Y-119277998D02*
X100330000Y-118110000D01*
X74930001Y-145541999D02*
X75819000Y-144653000D01*
X72087648Y-145942001D02*
X74529999Y-145942001D01*
X67499658Y-150529991D02*
X72087648Y-145942001D01*
X66553467Y-150529991D02*
X67499658Y-150529991D01*
X52954002Y-164129456D02*
X66553467Y-150529991D01*
X52954002Y-176508268D02*
X52954002Y-164129456D01*
X57569002Y-181123268D02*
X52954002Y-176508268D01*
X74529999Y-145942001D02*
X74930001Y-145541999D01*
X57569002Y-182714998D02*
X57569002Y-181123268D01*
X48514000Y-191770000D02*
X57569002Y-182714998D01*
X52254000Y-163138000D02*
X52254000Y-175878000D01*
X70739000Y-144653000D02*
X52254000Y-163138000D01*
X98552000Y-165608000D02*
X99941001Y-166997001D01*
X99941001Y-166997001D02*
X104741001Y-166997001D01*
X104741001Y-166997001D02*
X124714000Y-147024002D01*
X124714000Y-147024002D02*
X124714000Y-145307000D01*
X124714000Y-145307000D02*
X124714000Y-144018000D01*
X123825001Y-149986999D02*
X124714000Y-149098000D01*
X105698991Y-168113009D02*
X123825001Y-149986999D01*
X96046991Y-168113009D02*
X105698991Y-168113009D01*
X90932000Y-173228000D02*
X96046991Y-168113009D01*
X123825001Y-155066999D02*
X124714000Y-154178000D01*
X123424999Y-155467001D02*
X123825001Y-155066999D01*
X104696457Y-178427001D02*
X123424999Y-159698459D01*
X99941001Y-178427001D02*
X104696457Y-178427001D01*
X123424999Y-159698459D02*
X123424999Y-155467001D01*
X98552000Y-177038000D02*
X99941001Y-178427001D01*
X123825001Y-160146999D02*
X124714000Y-159258000D01*
X102214001Y-181757999D02*
X123825001Y-160146999D01*
X97970003Y-181757999D02*
X102214001Y-181757999D01*
X96290002Y-180077998D02*
X97970003Y-181757999D01*
X95512002Y-180077998D02*
X96290002Y-180077998D01*
X90932000Y-184658000D02*
X95512002Y-180077998D01*
X70611999Y-166496999D02*
X69723000Y-165608000D01*
X123424999Y-169407003D02*
X107074001Y-185758001D01*
X104298721Y-186047001D02*
X85333279Y-186047001D01*
X82769011Y-173829466D02*
X75936546Y-166997001D01*
X107074001Y-185758001D02*
X104587721Y-185758001D01*
X82769011Y-183482733D02*
X82769011Y-173829466D01*
X71112001Y-166997001D02*
X70611999Y-166496999D01*
X85333279Y-186047001D02*
X82769011Y-183482733D01*
X104587721Y-185758001D02*
X104298721Y-186047001D01*
X123424999Y-165627001D02*
X123424999Y-169407003D01*
X124714000Y-164338000D02*
X123424999Y-165627001D01*
X75936546Y-166997001D02*
X71112001Y-166997001D01*
X62103000Y-173228000D02*
X66453002Y-168877998D01*
X66453002Y-168877998D02*
X67490002Y-168877998D01*
X82169000Y-174077998D02*
X82169000Y-183731265D01*
X82169000Y-183731265D02*
X85084747Y-186647012D01*
X67490002Y-168877998D02*
X68390004Y-169778000D01*
X68390004Y-169778000D02*
X77869002Y-169778000D01*
X77869002Y-169778000D02*
X82169000Y-174077998D01*
X85084747Y-186647012D02*
X104580723Y-186647012D01*
X104580723Y-186647012D02*
X104869723Y-186358012D01*
X104869723Y-186358012D02*
X107773988Y-186358012D01*
X107773988Y-186358012D02*
X123825001Y-170306999D01*
X123825001Y-170306999D02*
X124714000Y-169418000D01*
X84836214Y-187247021D02*
X76651194Y-179062001D01*
X76651194Y-179062001D02*
X71112001Y-179062001D01*
X71112001Y-179062001D02*
X70611999Y-178561999D01*
X70611999Y-178561999D02*
X69723000Y-177673000D01*
X104829255Y-187247022D02*
X84836214Y-187247021D01*
X112253977Y-186958023D02*
X105118255Y-186958023D01*
X124714000Y-174498000D02*
X112253977Y-186958023D01*
X105118255Y-186958023D02*
X104829255Y-187247022D01*
X62103000Y-185293000D02*
X64657031Y-187847031D01*
X64657031Y-187847031D02*
X116444969Y-187847031D01*
X116444969Y-187847031D02*
X123825001Y-180466999D01*
X123825001Y-180466999D02*
X124714000Y-179578000D01*
M02*
