M48
INCH,TZ
T1C0.016
T2C0.040
T3C0.169
%
G90
G05
T1
X18350Y-55200
X18350Y-55200
X18850Y-59700
X20028Y-58950
X20028Y-67200
X20572Y-69243
X21600Y-42200
X22350Y-71450
X25850Y-52450
X26350Y-53450
X26439Y-66763
X27650Y-50650
X29100Y-51700
X29900Y-50650
X30850Y-50950
X33643Y-40149
X34420Y-41770
X34667Y-40661
X37777Y-71172
X37895Y-44007
X38053Y-66606
X38100Y-36200
X38131Y-41015
X38131Y-43102
X38643Y-46960
X39100Y-38950
T2
X15900Y-57900
X15900Y-58900
X15900Y-59900
X15900Y-60900
X16100Y-65500
X16100Y-67500
X16100Y-69500
X16100Y-71500
X16100Y-81700
X16100Y-83700
X16100Y-86700
X16100Y-88700
X16100Y-91700
X16100Y-93700
X18100Y-40500
X18100Y-49500
X18100Y-75500
X18100Y-76500
X18100Y-77500
X18100Y-78500
X18100Y-79500
X19100Y-40500
X19100Y-49500
X19100Y-75500
X19100Y-76500
X19100Y-77500
X19100Y-78500
X19100Y-79500
X20100Y-26000
X20100Y-40500
X20100Y-49500
X20850Y-56950
X20850Y-57950
X20850Y-58950
X20850Y-59950
X20850Y-60950
X20850Y-61950
X21100Y-40500
X21100Y-49500
X22100Y-26000
X22100Y-40500
X22100Y-49500
X22450Y-65200
X22450Y-68200
X22450Y-69950
X22450Y-72950
X22850Y-56950
X23100Y-40500
X23100Y-49500
X23100Y-74700
X23100Y-82700
X23100Y-85700
X23100Y-93700
X23450Y-65200
X23450Y-68200
X23450Y-69950
X23450Y-72950
X23850Y-56950
X24100Y-40500
X24100Y-49500
X24450Y-65200
X24450Y-68200
X24450Y-69950
X24450Y-72950
X24600Y-26000
X24850Y-56950
X25100Y-40500
X25100Y-49500
X25450Y-65200
X25450Y-68200
X25450Y-69950
X25450Y-72950
X25850Y-56950
X26100Y-40500
X26100Y-49500
X26450Y-65200
X26450Y-68200
X26450Y-69950
X26450Y-72950
X26600Y-26000
X27100Y-40500
X27100Y-49500
X27450Y-65200
X27450Y-68200
X27450Y-69950
X27450Y-72950
X27850Y-56950
X28100Y-40500
X28100Y-49500
X28450Y-65200
X28450Y-68200
X28450Y-69950
X28450Y-72950
X28850Y-56950
X29100Y-40500
X29100Y-49500
X29450Y-65200
X29450Y-68200
X29450Y-69950
X29450Y-72950
X29850Y-56950
X30100Y-40500
X30100Y-49500
X30850Y-56950
X31100Y-40500
X31100Y-49500
X32100Y-40500
X32100Y-49500
X33800Y-65200
X33800Y-68200
X33800Y-69700
X33800Y-72700
X33850Y-26000
X33850Y-56950
X34800Y-65200
X34800Y-68200
X34800Y-69700
X34800Y-72700
X34850Y-56950
X35800Y-65200
X35800Y-68200
X35800Y-69700
X35800Y-72700
X35850Y-26000
X35850Y-56950
X36800Y-65200
X36800Y-68200
X36800Y-69700
X36800Y-72700
X36850Y-56950
X37800Y-65200
X37800Y-68200
X37800Y-69700
X37800Y-72700
X38500Y-26000
X38800Y-65200
X38800Y-68200
X38800Y-69700
X38800Y-72700
X38850Y-56950
X39500Y-40500
X39500Y-41500
X39500Y-42500
X39500Y-43500
X39500Y-44500
X39500Y-45500
X39500Y-46500
X39500Y-47500
X39500Y-48500
X39500Y-49500
X39500Y-50500
X39500Y-51500
X39500Y-52500
X39500Y-53500
X39800Y-65200
X39800Y-68200
X39800Y-69700
X39800Y-72700
X39850Y-56950
X40500Y-26000
X40800Y-65200
X40800Y-68200
X40800Y-69700
X40800Y-72700
X40850Y-56950
X41100Y-74700
X41100Y-82700
X41100Y-85700
X41100Y-93700
X41850Y-56950
X43100Y-26000
X43500Y-40500
X43500Y-41500
X43500Y-42500
X43500Y-43500
X43500Y-44500
X43500Y-45500
X43500Y-46500
X43500Y-47500
X43500Y-48500
X43500Y-49500
X43500Y-50500
X43500Y-51500
X43500Y-52500
X43500Y-53500
X43850Y-56950
X43850Y-57950
X43850Y-58950
X43850Y-59950
X43850Y-60950
X43850Y-61950
X45100Y-26000
X46500Y-40500
X46500Y-41500
X46500Y-42500
X46500Y-43500
X46500Y-44500
X46600Y-49300
X46600Y-50300
X46600Y-51300
X46600Y-52300
X46600Y-53300
X47500Y-40500
X47500Y-41500
X47500Y-42500
X47500Y-43500
X47500Y-44500
X47600Y-49300
X47600Y-50300
X47600Y-51300
X47600Y-52300
X47600Y-53300
X49100Y-56700
X49100Y-58700
X49100Y-60700
X49100Y-62700
X49100Y-64700
X49100Y-66700
X49100Y-68700
X49100Y-70700
X49100Y-72700
X49100Y-74700
X49100Y-90200
X49100Y-92200
T3
X19100Y-32700
X19100Y-95700
X46100Y-32700
X46100Y-95700
T0
M30
