G04 #@! TF.FileFunction,Soldermask,Bot*
%FSLAX46Y46*%
G04 Gerber Fmt 4.6, Leading zero omitted, Abs format (unit mm)*
G04 Created by KiCad (PCBNEW 4.0.3-stable) date Thursday, August 18, 2016 'PMt' 02:05:46 PM*
%MOMM*%
%LPD*%
G01*
G04 APERTURE LIST*
%ADD10C,0.100000*%
%ADD11R,2.178000X2.178000*%
%ADD12C,2.178000*%
%ADD13C,4.700000*%
%ADD14R,2.432000X2.127200*%
%ADD15O,2.432000X2.127200*%
%ADD16R,2.127200X2.127200*%
%ADD17O,2.127200X2.127200*%
G04 APERTURE END LIST*
D10*
D11*
X103632000Y-165608000D03*
D12*
X101092000Y-165608000D03*
X98552000Y-165608000D03*
X96012000Y-165608000D03*
X93472000Y-165608000D03*
X90932000Y-165608000D03*
X88392000Y-165608000D03*
X85852000Y-165608000D03*
X85852000Y-173228000D03*
X88392000Y-173228000D03*
X90932000Y-173228000D03*
X93472000Y-173228000D03*
X96012000Y-173228000D03*
X98552000Y-173228000D03*
X101092000Y-173228000D03*
X103632000Y-173228000D03*
D13*
X48514000Y-243078000D03*
X48514000Y-83058000D03*
X117094000Y-243078000D03*
X117094000Y-83058000D03*
D11*
X81534000Y-102870000D03*
D12*
X78994000Y-102870000D03*
X76454000Y-102870000D03*
X73914000Y-102870000D03*
X71374000Y-102870000D03*
X68834000Y-102870000D03*
X66294000Y-102870000D03*
X63754000Y-102870000D03*
X61214000Y-102870000D03*
X58674000Y-102870000D03*
X56134000Y-102870000D03*
X53594000Y-102870000D03*
X51054000Y-102870000D03*
X48514000Y-102870000D03*
X45974000Y-102870000D03*
X45974000Y-125730000D03*
X48514000Y-125730000D03*
X51054000Y-125730000D03*
X53594000Y-125730000D03*
X56134000Y-125730000D03*
X58674000Y-125730000D03*
X61214000Y-125730000D03*
X63754000Y-125730000D03*
X66294000Y-125730000D03*
X68834000Y-125730000D03*
X71374000Y-125730000D03*
X73914000Y-125730000D03*
X76454000Y-125730000D03*
X78994000Y-125730000D03*
X81534000Y-125730000D03*
D11*
X40894000Y-237998000D03*
D12*
X40894000Y-232918000D03*
D11*
X97790000Y-66040000D03*
D12*
X102870000Y-66040000D03*
D11*
X91059000Y-66040000D03*
D12*
X85979000Y-66040000D03*
D11*
X67564000Y-66040000D03*
D12*
X62484000Y-66040000D03*
D11*
X40894000Y-212598000D03*
D12*
X40894000Y-207518000D03*
D11*
X40894000Y-225298000D03*
D12*
X40894000Y-220218000D03*
D11*
X51054000Y-66040000D03*
D12*
X56134000Y-66040000D03*
D11*
X109474000Y-66040000D03*
D12*
X114554000Y-66040000D03*
X58674000Y-189738000D03*
X58674000Y-210058000D03*
X104394000Y-210058000D03*
X104394000Y-189738000D03*
X58674000Y-217678000D03*
X58674000Y-237998000D03*
X104394000Y-237998000D03*
X104394000Y-217678000D03*
D14*
X40386000Y-154686000D03*
D15*
X40386000Y-152146000D03*
X40386000Y-149606000D03*
X40386000Y-147066000D03*
D11*
X40894000Y-166370000D03*
D12*
X40894000Y-171450000D03*
X40894000Y-176530000D03*
X40894000Y-181610000D03*
D16*
X118364000Y-125222000D03*
D17*
X120904000Y-125222000D03*
X118364000Y-127762000D03*
X120904000Y-127762000D03*
X118364000Y-130302000D03*
X120904000Y-130302000D03*
X118364000Y-132842000D03*
X120904000Y-132842000D03*
X118364000Y-135382000D03*
X120904000Y-135382000D03*
D16*
X118110000Y-102870000D03*
D17*
X120650000Y-102870000D03*
X118110000Y-105410000D03*
X120650000Y-105410000D03*
X118110000Y-107950000D03*
X120650000Y-107950000D03*
X118110000Y-110490000D03*
X120650000Y-110490000D03*
X118110000Y-113030000D03*
X120650000Y-113030000D03*
D11*
X103632000Y-177038000D03*
D12*
X101092000Y-177038000D03*
X98552000Y-177038000D03*
X96012000Y-177038000D03*
X93472000Y-177038000D03*
X90932000Y-177038000D03*
X88392000Y-177038000D03*
X85852000Y-177038000D03*
X85852000Y-184658000D03*
X88392000Y-184658000D03*
X90932000Y-184658000D03*
X93472000Y-184658000D03*
X96012000Y-184658000D03*
X98552000Y-184658000D03*
X101092000Y-184658000D03*
X103632000Y-184658000D03*
D11*
X74803000Y-165608000D03*
D12*
X72263000Y-165608000D03*
X69723000Y-165608000D03*
X67183000Y-165608000D03*
X64643000Y-165608000D03*
X62103000Y-165608000D03*
X59563000Y-165608000D03*
X57023000Y-165608000D03*
X57023000Y-173228000D03*
X59563000Y-173228000D03*
X62103000Y-173228000D03*
X64643000Y-173228000D03*
X67183000Y-173228000D03*
X69723000Y-173228000D03*
X72263000Y-173228000D03*
X74803000Y-173228000D03*
D11*
X74803000Y-177673000D03*
D12*
X72263000Y-177673000D03*
X69723000Y-177673000D03*
X67183000Y-177673000D03*
X64643000Y-177673000D03*
X62103000Y-177673000D03*
X59563000Y-177673000D03*
X57023000Y-177673000D03*
X57023000Y-185293000D03*
X59563000Y-185293000D03*
X62103000Y-185293000D03*
X64643000Y-185293000D03*
X67183000Y-185293000D03*
X69723000Y-185293000D03*
X72263000Y-185293000D03*
X74803000Y-185293000D03*
D11*
X110490000Y-135890000D03*
D12*
X110490000Y-133350000D03*
X110490000Y-130810000D03*
X110490000Y-128270000D03*
X110490000Y-125730000D03*
X110490000Y-123190000D03*
X110490000Y-120650000D03*
X110490000Y-118110000D03*
X110490000Y-115570000D03*
X110490000Y-113030000D03*
X110490000Y-110490000D03*
X110490000Y-107950000D03*
X110490000Y-105410000D03*
X110490000Y-102870000D03*
X100330000Y-102870000D03*
X100330000Y-105410000D03*
X100330000Y-107950000D03*
X100330000Y-110490000D03*
X100330000Y-113030000D03*
X100330000Y-115570000D03*
X100330000Y-118110000D03*
X100330000Y-120650000D03*
X100330000Y-123190000D03*
X100330000Y-125730000D03*
X100330000Y-128270000D03*
X100330000Y-130810000D03*
X100330000Y-133350000D03*
X100330000Y-135890000D03*
D11*
X124714000Y-229108000D03*
D12*
X124714000Y-234188000D03*
D11*
X124714000Y-144018000D03*
D12*
X124714000Y-149098000D03*
X124714000Y-154178000D03*
X124714000Y-159258000D03*
X124714000Y-164338000D03*
X124714000Y-169418000D03*
X124714000Y-174498000D03*
X124714000Y-179578000D03*
X124714000Y-184658000D03*
X124714000Y-189738000D03*
X111379000Y-157353000D03*
X111379000Y-154813000D03*
X111379000Y-152273000D03*
X111379000Y-149733000D03*
X111379000Y-147193000D03*
X111379000Y-144653000D03*
X106299000Y-144653000D03*
X103759000Y-144653000D03*
X101219000Y-144653000D03*
X98679000Y-144653000D03*
X93599000Y-144653000D03*
X91059000Y-144653000D03*
X88519000Y-144653000D03*
X85979000Y-144653000D03*
X78359000Y-144653000D03*
X75819000Y-144653000D03*
X73279000Y-144653000D03*
X70739000Y-144653000D03*
X65659000Y-144653000D03*
X63119000Y-144653000D03*
X60579000Y-144653000D03*
X58039000Y-144653000D03*
X52959000Y-144653000D03*
X52959000Y-147193000D03*
X52959000Y-149733000D03*
X52959000Y-152273000D03*
X52959000Y-154813000D03*
X52959000Y-157353000D03*
D16*
X48514000Y-201930000D03*
D17*
X45974000Y-201930000D03*
X48514000Y-199390000D03*
X45974000Y-199390000D03*
X48514000Y-196850000D03*
X45974000Y-196850000D03*
X48514000Y-194310000D03*
X45974000Y-194310000D03*
X48514000Y-191770000D03*
X45974000Y-191770000D03*
M02*
