G04 #@! TF.FileFunction,Copper,L1,Top,Signal*
%FSLAX46Y46*%
G04 Gerber Fmt 4.6, Leading zero omitted, Abs format (unit mm)*
G04 Created by KiCad (PCBNEW 4.0.4-stable) date Thursday, September 01, 2016 'PMt' 05:44:21 PM*
%MOMM*%
%LPD*%
G01*
G04 APERTURE LIST*
%ADD10C,0.100000*%
%ADD11C,0.010000*%
%ADD12C,0.508000*%
%ADD13R,1.727200X1.727200*%
%ADD14C,1.727200*%
%ADD15R,1.778000X1.778000*%
%ADD16C,1.778000*%
%ADD17C,6.400000*%
%ADD18R,0.750000X1.200000*%
%ADD19O,1.727200X1.727200*%
%ADD20R,1.200000X0.900000*%
%ADD21C,0.600000*%
%ADD22C,0.400000*%
%ADD23C,1.000000*%
%ADD24C,0.500000*%
G04 APERTURE END LIST*
D10*
D11*
G36*
X67468361Y-89548743D02*
X67532547Y-89604814D01*
X67615723Y-89684843D01*
X67638223Y-89707498D01*
X67804664Y-89913357D01*
X67954079Y-90175951D01*
X68087259Y-90496920D01*
X68204995Y-90877907D01*
X68208529Y-90891157D01*
X68297653Y-91220324D01*
X68376265Y-91493846D01*
X68447293Y-91718059D01*
X68513663Y-91899298D01*
X68578305Y-92043900D01*
X68644143Y-92158200D01*
X68714108Y-92248533D01*
X68791125Y-92321236D01*
X68878122Y-92382644D01*
X68905244Y-92399014D01*
X69045687Y-92481320D01*
X69356042Y-92168362D01*
X69620290Y-91920560D01*
X69869960Y-91728222D01*
X70113696Y-91587795D01*
X70360141Y-91495725D01*
X70617941Y-91448461D01*
X70895737Y-91442448D01*
X71083924Y-91458127D01*
X71282188Y-91488931D01*
X71424123Y-91529752D01*
X71516430Y-91583585D01*
X71565810Y-91653421D01*
X71572932Y-91676565D01*
X71613858Y-91784893D01*
X71673134Y-91836042D01*
X71753636Y-91830195D01*
X71858245Y-91767536D01*
X71936969Y-91699771D01*
X72041622Y-91611793D01*
X72125001Y-91567228D01*
X72188097Y-91557075D01*
X72256934Y-91561993D01*
X72321622Y-91581196D01*
X72392397Y-91621357D01*
X72479489Y-91689147D01*
X72593132Y-91791240D01*
X72694737Y-91887430D01*
X72864776Y-92042034D01*
X73005790Y-92150616D01*
X73126183Y-92218348D01*
X73234362Y-92250404D01*
X73291505Y-92254703D01*
X73406447Y-92243660D01*
X73469182Y-92207645D01*
X73487496Y-92145280D01*
X73497553Y-92088320D01*
X73524903Y-91986368D01*
X73565316Y-91854089D01*
X73612311Y-91712655D01*
X73666751Y-91544613D01*
X73716532Y-91372557D01*
X73755317Y-91219401D01*
X73773667Y-91128985D01*
X73799843Y-90967354D01*
X73818904Y-90860822D01*
X73836248Y-90802313D01*
X73857275Y-90784751D01*
X73887382Y-90801060D01*
X73931967Y-90844166D01*
X73965477Y-90877573D01*
X74036691Y-90953345D01*
X74095841Y-91033815D01*
X74146990Y-91128965D01*
X74194198Y-91248777D01*
X74241526Y-91403230D01*
X74293035Y-91602306D01*
X74338709Y-91794902D01*
X74449211Y-92218421D01*
X74579836Y-92613701D01*
X74657218Y-92814399D01*
X74806867Y-93210028D01*
X74922659Y-93576426D01*
X75007952Y-93931006D01*
X75066105Y-94291177D01*
X75100476Y-94674350D01*
X75114423Y-95097936D01*
X75115054Y-95187911D01*
X75113299Y-95454986D01*
X75105205Y-95704792D01*
X75089333Y-95944886D01*
X75064244Y-96182825D01*
X75028498Y-96426169D01*
X74980656Y-96682475D01*
X74919278Y-96959300D01*
X74842925Y-97264203D01*
X74750158Y-97604741D01*
X74639537Y-97988472D01*
X74509622Y-98422955D01*
X74480926Y-98517499D01*
X74359101Y-98913436D01*
X74250684Y-99255186D01*
X74153092Y-99549931D01*
X74063742Y-99804857D01*
X73980051Y-100027146D01*
X73899435Y-100223983D01*
X73819312Y-100402551D01*
X73756965Y-100530849D01*
X73575172Y-100860421D01*
X73391983Y-101127096D01*
X73206598Y-101331397D01*
X73018221Y-101473846D01*
X72826052Y-101554963D01*
X72629295Y-101575273D01*
X72427150Y-101535295D01*
X72302001Y-101482110D01*
X72173079Y-101410819D01*
X72043801Y-101326156D01*
X71910214Y-101224071D01*
X71768368Y-101100513D01*
X71614310Y-100951433D01*
X71444088Y-100772780D01*
X71253751Y-100560502D01*
X71039346Y-100310551D01*
X70796923Y-100018874D01*
X70522528Y-99681423D01*
X70416229Y-99549289D01*
X70134859Y-99203741D01*
X69852816Y-98866876D01*
X69579397Y-98549488D01*
X69323899Y-98262368D01*
X69095620Y-98016308D01*
X69095611Y-98016298D01*
X68714603Y-97615896D01*
X68375121Y-97257320D01*
X68074261Y-96937141D01*
X67809121Y-96651927D01*
X67576799Y-96398247D01*
X67374391Y-96172671D01*
X67198995Y-95971766D01*
X67047709Y-95792101D01*
X66917628Y-95630247D01*
X66805851Y-95482771D01*
X66709476Y-95346243D01*
X66625598Y-95217231D01*
X66551316Y-95092304D01*
X66483727Y-94968032D01*
X66434505Y-94870807D01*
X66321627Y-94616244D01*
X66239546Y-94367013D01*
X66184010Y-94104770D01*
X66150767Y-93811166D01*
X66139158Y-93596428D01*
X66138293Y-93262468D01*
X66138398Y-93260975D01*
X70348170Y-93260975D01*
X70361965Y-93270882D01*
X70427677Y-93268665D01*
X70535294Y-93255878D01*
X70674805Y-93234075D01*
X70836199Y-93204813D01*
X71009464Y-93169643D01*
X71172639Y-93132960D01*
X71567047Y-93059336D01*
X71931069Y-93031584D01*
X72260132Y-93049807D01*
X72512402Y-93102542D01*
X72617391Y-93131000D01*
X72693728Y-93146804D01*
X72726197Y-93146865D01*
X72726447Y-93145979D01*
X72698875Y-93126546D01*
X72626227Y-93093829D01*
X72523608Y-93054561D01*
X72512402Y-93050576D01*
X72365387Y-92995723D01*
X72206851Y-92932148D01*
X72103019Y-92887662D01*
X71974417Y-92818898D01*
X71845209Y-92730945D01*
X71729907Y-92635737D01*
X71643020Y-92545209D01*
X71599801Y-92473751D01*
X71574272Y-92418128D01*
X71554537Y-92419582D01*
X71543743Y-92471824D01*
X71545040Y-92568565D01*
X71546018Y-92581199D01*
X71544655Y-92695748D01*
X71516044Y-92792530D01*
X71454436Y-92875491D01*
X71354086Y-92948579D01*
X71209244Y-93015740D01*
X71014163Y-93080919D01*
X70763095Y-93148065D01*
X70696984Y-93164163D01*
X70559873Y-93198226D01*
X70447077Y-93228398D01*
X70372009Y-93250955D01*
X70348170Y-93260975D01*
X66138398Y-93260975D01*
X66161701Y-92932440D01*
X66211451Y-92597062D01*
X66289616Y-92247053D01*
X66398268Y-91873130D01*
X66539477Y-91466013D01*
X66714671Y-91017998D01*
X66777008Y-90870575D01*
X66852614Y-90699684D01*
X66937284Y-90514019D01*
X67026813Y-90322277D01*
X67116995Y-90133150D01*
X67203624Y-89955335D01*
X67282496Y-89797526D01*
X67349405Y-89668417D01*
X67400145Y-89576704D01*
X67430510Y-89531082D01*
X67435542Y-89527611D01*
X67468361Y-89548743D01*
X67468361Y-89548743D01*
G37*
X67468361Y-89548743D02*
X67532547Y-89604814D01*
X67615723Y-89684843D01*
X67638223Y-89707498D01*
X67804664Y-89913357D01*
X67954079Y-90175951D01*
X68087259Y-90496920D01*
X68204995Y-90877907D01*
X68208529Y-90891157D01*
X68297653Y-91220324D01*
X68376265Y-91493846D01*
X68447293Y-91718059D01*
X68513663Y-91899298D01*
X68578305Y-92043900D01*
X68644143Y-92158200D01*
X68714108Y-92248533D01*
X68791125Y-92321236D01*
X68878122Y-92382644D01*
X68905244Y-92399014D01*
X69045687Y-92481320D01*
X69356042Y-92168362D01*
X69620290Y-91920560D01*
X69869960Y-91728222D01*
X70113696Y-91587795D01*
X70360141Y-91495725D01*
X70617941Y-91448461D01*
X70895737Y-91442448D01*
X71083924Y-91458127D01*
X71282188Y-91488931D01*
X71424123Y-91529752D01*
X71516430Y-91583585D01*
X71565810Y-91653421D01*
X71572932Y-91676565D01*
X71613858Y-91784893D01*
X71673134Y-91836042D01*
X71753636Y-91830195D01*
X71858245Y-91767536D01*
X71936969Y-91699771D01*
X72041622Y-91611793D01*
X72125001Y-91567228D01*
X72188097Y-91557075D01*
X72256934Y-91561993D01*
X72321622Y-91581196D01*
X72392397Y-91621357D01*
X72479489Y-91689147D01*
X72593132Y-91791240D01*
X72694737Y-91887430D01*
X72864776Y-92042034D01*
X73005790Y-92150616D01*
X73126183Y-92218348D01*
X73234362Y-92250404D01*
X73291505Y-92254703D01*
X73406447Y-92243660D01*
X73469182Y-92207645D01*
X73487496Y-92145280D01*
X73497553Y-92088320D01*
X73524903Y-91986368D01*
X73565316Y-91854089D01*
X73612311Y-91712655D01*
X73666751Y-91544613D01*
X73716532Y-91372557D01*
X73755317Y-91219401D01*
X73773667Y-91128985D01*
X73799843Y-90967354D01*
X73818904Y-90860822D01*
X73836248Y-90802313D01*
X73857275Y-90784751D01*
X73887382Y-90801060D01*
X73931967Y-90844166D01*
X73965477Y-90877573D01*
X74036691Y-90953345D01*
X74095841Y-91033815D01*
X74146990Y-91128965D01*
X74194198Y-91248777D01*
X74241526Y-91403230D01*
X74293035Y-91602306D01*
X74338709Y-91794902D01*
X74449211Y-92218421D01*
X74579836Y-92613701D01*
X74657218Y-92814399D01*
X74806867Y-93210028D01*
X74922659Y-93576426D01*
X75007952Y-93931006D01*
X75066105Y-94291177D01*
X75100476Y-94674350D01*
X75114423Y-95097936D01*
X75115054Y-95187911D01*
X75113299Y-95454986D01*
X75105205Y-95704792D01*
X75089333Y-95944886D01*
X75064244Y-96182825D01*
X75028498Y-96426169D01*
X74980656Y-96682475D01*
X74919278Y-96959300D01*
X74842925Y-97264203D01*
X74750158Y-97604741D01*
X74639537Y-97988472D01*
X74509622Y-98422955D01*
X74480926Y-98517499D01*
X74359101Y-98913436D01*
X74250684Y-99255186D01*
X74153092Y-99549931D01*
X74063742Y-99804857D01*
X73980051Y-100027146D01*
X73899435Y-100223983D01*
X73819312Y-100402551D01*
X73756965Y-100530849D01*
X73575172Y-100860421D01*
X73391983Y-101127096D01*
X73206598Y-101331397D01*
X73018221Y-101473846D01*
X72826052Y-101554963D01*
X72629295Y-101575273D01*
X72427150Y-101535295D01*
X72302001Y-101482110D01*
X72173079Y-101410819D01*
X72043801Y-101326156D01*
X71910214Y-101224071D01*
X71768368Y-101100513D01*
X71614310Y-100951433D01*
X71444088Y-100772780D01*
X71253751Y-100560502D01*
X71039346Y-100310551D01*
X70796923Y-100018874D01*
X70522528Y-99681423D01*
X70416229Y-99549289D01*
X70134859Y-99203741D01*
X69852816Y-98866876D01*
X69579397Y-98549488D01*
X69323899Y-98262368D01*
X69095620Y-98016308D01*
X69095611Y-98016298D01*
X68714603Y-97615896D01*
X68375121Y-97257320D01*
X68074261Y-96937141D01*
X67809121Y-96651927D01*
X67576799Y-96398247D01*
X67374391Y-96172671D01*
X67198995Y-95971766D01*
X67047709Y-95792101D01*
X66917628Y-95630247D01*
X66805851Y-95482771D01*
X66709476Y-95346243D01*
X66625598Y-95217231D01*
X66551316Y-95092304D01*
X66483727Y-94968032D01*
X66434505Y-94870807D01*
X66321627Y-94616244D01*
X66239546Y-94367013D01*
X66184010Y-94104770D01*
X66150767Y-93811166D01*
X66139158Y-93596428D01*
X66138293Y-93262468D01*
X66138398Y-93260975D01*
X70348170Y-93260975D01*
X70361965Y-93270882D01*
X70427677Y-93268665D01*
X70535294Y-93255878D01*
X70674805Y-93234075D01*
X70836199Y-93204813D01*
X71009464Y-93169643D01*
X71172639Y-93132960D01*
X71567047Y-93059336D01*
X71931069Y-93031584D01*
X72260132Y-93049807D01*
X72512402Y-93102542D01*
X72617391Y-93131000D01*
X72693728Y-93146804D01*
X72726197Y-93146865D01*
X72726447Y-93145979D01*
X72698875Y-93126546D01*
X72626227Y-93093829D01*
X72523608Y-93054561D01*
X72512402Y-93050576D01*
X72365387Y-92995723D01*
X72206851Y-92932148D01*
X72103019Y-92887662D01*
X71974417Y-92818898D01*
X71845209Y-92730945D01*
X71729907Y-92635737D01*
X71643020Y-92545209D01*
X71599801Y-92473751D01*
X71574272Y-92418128D01*
X71554537Y-92419582D01*
X71543743Y-92471824D01*
X71545040Y-92568565D01*
X71546018Y-92581199D01*
X71544655Y-92695748D01*
X71516044Y-92792530D01*
X71454436Y-92875491D01*
X71354086Y-92948579D01*
X71209244Y-93015740D01*
X71014163Y-93080919D01*
X70763095Y-93148065D01*
X70696984Y-93164163D01*
X70559873Y-93198226D01*
X70447077Y-93228398D01*
X70372009Y-93250955D01*
X70348170Y-93260975D01*
X66138398Y-93260975D01*
X66161701Y-92932440D01*
X66211451Y-92597062D01*
X66289616Y-92247053D01*
X66398268Y-91873130D01*
X66539477Y-91466013D01*
X66714671Y-91017998D01*
X66777008Y-90870575D01*
X66852614Y-90699684D01*
X66937284Y-90514019D01*
X67026813Y-90322277D01*
X67116995Y-90133150D01*
X67203624Y-89955335D01*
X67282496Y-89797526D01*
X67349405Y-89668417D01*
X67400145Y-89576704D01*
X67430510Y-89531082D01*
X67435542Y-89527611D01*
X67468361Y-89548743D01*
G36*
X79313007Y-89154556D02*
X80286832Y-89162942D01*
X81245635Y-90573485D01*
X81427482Y-90840461D01*
X81598981Y-91091186D01*
X81756779Y-91320829D01*
X81897522Y-91524559D01*
X82017855Y-91697546D01*
X82114425Y-91834959D01*
X82183877Y-91931967D01*
X82222858Y-91983739D01*
X82229924Y-91991169D01*
X82251939Y-91966993D01*
X82305904Y-91894890D01*
X82388497Y-91779637D01*
X82496395Y-91626011D01*
X82626274Y-91438792D01*
X82774811Y-91222757D01*
X82938683Y-90982684D01*
X83114568Y-90723351D01*
X83210918Y-90580626D01*
X84166425Y-89162942D01*
X85153178Y-89154563D01*
X86139930Y-89146184D01*
X86139930Y-96567312D01*
X83761653Y-96567312D01*
X83761653Y-95228682D01*
X83761409Y-94898542D01*
X83760560Y-94626753D01*
X83758936Y-94408246D01*
X83756363Y-94237954D01*
X83752671Y-94110808D01*
X83747686Y-94021740D01*
X83741236Y-93965681D01*
X83733150Y-93937564D01*
X83723255Y-93932319D01*
X83717768Y-93936484D01*
X83690635Y-93972430D01*
X83632162Y-94054926D01*
X83546496Y-94177959D01*
X83437784Y-94335516D01*
X83310172Y-94521583D01*
X83167806Y-94730147D01*
X83014833Y-94955194D01*
X82986044Y-94997649D01*
X82831814Y-95224741D01*
X82687649Y-95436183D01*
X82557655Y-95626012D01*
X82445944Y-95788261D01*
X82356624Y-95916967D01*
X82293805Y-96006165D01*
X82261595Y-96049890D01*
X82259292Y-96052547D01*
X82242914Y-96053168D01*
X82213428Y-96030219D01*
X82167978Y-95979856D01*
X82103705Y-95898235D01*
X82017754Y-95781511D01*
X81907266Y-95625839D01*
X81769385Y-95427376D01*
X81601253Y-95182277D01*
X81476846Y-94999739D01*
X81317147Y-94765761D01*
X81168081Y-94548853D01*
X81033481Y-94354481D01*
X80917175Y-94188109D01*
X80822997Y-94055202D01*
X80754775Y-93961224D01*
X80716342Y-93911639D01*
X80709531Y-93905203D01*
X80704465Y-93935481D01*
X80699769Y-94022639D01*
X80695557Y-94160135D01*
X80691948Y-94341431D01*
X80689058Y-94559985D01*
X80687005Y-94809256D01*
X80685905Y-95082705D01*
X80685748Y-95235477D01*
X80685748Y-96567312D01*
X78339181Y-96567312D01*
X78339181Y-89999953D01*
X79417334Y-89999953D01*
X79417334Y-95711132D01*
X79734060Y-95711132D01*
X79742176Y-93170305D01*
X79750292Y-90629479D01*
X80983275Y-92425112D01*
X81190448Y-92726403D01*
X81387256Y-93011801D01*
X81570748Y-93277079D01*
X81737974Y-93518012D01*
X81885985Y-93730374D01*
X82011830Y-93909937D01*
X82112558Y-94052476D01*
X82185221Y-94153765D01*
X82226867Y-94209577D01*
X82235834Y-94219488D01*
X82256528Y-94193750D01*
X82309916Y-94119807D01*
X82393056Y-94001912D01*
X82503002Y-93844318D01*
X82636810Y-93651280D01*
X82791536Y-93427052D01*
X82964237Y-93175886D01*
X83151967Y-92902037D01*
X83351782Y-92609760D01*
X83476260Y-92427299D01*
X84697109Y-90636368D01*
X84713341Y-95711132D01*
X85030068Y-95711132D01*
X85030068Y-89999953D01*
X84866775Y-90009537D01*
X84703482Y-90019122D01*
X83479446Y-91824482D01*
X83273796Y-92127190D01*
X83078230Y-92413870D01*
X82895689Y-92680288D01*
X82729113Y-92922208D01*
X82581441Y-93135395D01*
X82455615Y-93315614D01*
X82354575Y-93458628D01*
X82281260Y-93560203D01*
X82238612Y-93616104D01*
X82228810Y-93625963D01*
X82206953Y-93599756D01*
X82152473Y-93525299D01*
X82068323Y-93406849D01*
X81957454Y-93248660D01*
X81822818Y-93054987D01*
X81667368Y-92830085D01*
X81494055Y-92578209D01*
X81305832Y-92303613D01*
X81105649Y-92010553D01*
X80976250Y-91820603D01*
X79750292Y-90019122D01*
X79583813Y-90009537D01*
X79417334Y-89999953D01*
X78339181Y-89999953D01*
X78339181Y-89146171D01*
X79313007Y-89154556D01*
X79313007Y-89154556D01*
G37*
X79313007Y-89154556D02*
X80286832Y-89162942D01*
X81245635Y-90573485D01*
X81427482Y-90840461D01*
X81598981Y-91091186D01*
X81756779Y-91320829D01*
X81897522Y-91524559D01*
X82017855Y-91697546D01*
X82114425Y-91834959D01*
X82183877Y-91931967D01*
X82222858Y-91983739D01*
X82229924Y-91991169D01*
X82251939Y-91966993D01*
X82305904Y-91894890D01*
X82388497Y-91779637D01*
X82496395Y-91626011D01*
X82626274Y-91438792D01*
X82774811Y-91222757D01*
X82938683Y-90982684D01*
X83114568Y-90723351D01*
X83210918Y-90580626D01*
X84166425Y-89162942D01*
X85153178Y-89154563D01*
X86139930Y-89146184D01*
X86139930Y-96567312D01*
X83761653Y-96567312D01*
X83761653Y-95228682D01*
X83761409Y-94898542D01*
X83760560Y-94626753D01*
X83758936Y-94408246D01*
X83756363Y-94237954D01*
X83752671Y-94110808D01*
X83747686Y-94021740D01*
X83741236Y-93965681D01*
X83733150Y-93937564D01*
X83723255Y-93932319D01*
X83717768Y-93936484D01*
X83690635Y-93972430D01*
X83632162Y-94054926D01*
X83546496Y-94177959D01*
X83437784Y-94335516D01*
X83310172Y-94521583D01*
X83167806Y-94730147D01*
X83014833Y-94955194D01*
X82986044Y-94997649D01*
X82831814Y-95224741D01*
X82687649Y-95436183D01*
X82557655Y-95626012D01*
X82445944Y-95788261D01*
X82356624Y-95916967D01*
X82293805Y-96006165D01*
X82261595Y-96049890D01*
X82259292Y-96052547D01*
X82242914Y-96053168D01*
X82213428Y-96030219D01*
X82167978Y-95979856D01*
X82103705Y-95898235D01*
X82017754Y-95781511D01*
X81907266Y-95625839D01*
X81769385Y-95427376D01*
X81601253Y-95182277D01*
X81476846Y-94999739D01*
X81317147Y-94765761D01*
X81168081Y-94548853D01*
X81033481Y-94354481D01*
X80917175Y-94188109D01*
X80822997Y-94055202D01*
X80754775Y-93961224D01*
X80716342Y-93911639D01*
X80709531Y-93905203D01*
X80704465Y-93935481D01*
X80699769Y-94022639D01*
X80695557Y-94160135D01*
X80691948Y-94341431D01*
X80689058Y-94559985D01*
X80687005Y-94809256D01*
X80685905Y-95082705D01*
X80685748Y-95235477D01*
X80685748Y-96567312D01*
X78339181Y-96567312D01*
X78339181Y-89999953D01*
X79417334Y-89999953D01*
X79417334Y-95711132D01*
X79734060Y-95711132D01*
X79742176Y-93170305D01*
X79750292Y-90629479D01*
X80983275Y-92425112D01*
X81190448Y-92726403D01*
X81387256Y-93011801D01*
X81570748Y-93277079D01*
X81737974Y-93518012D01*
X81885985Y-93730374D01*
X82011830Y-93909937D01*
X82112558Y-94052476D01*
X82185221Y-94153765D01*
X82226867Y-94209577D01*
X82235834Y-94219488D01*
X82256528Y-94193750D01*
X82309916Y-94119807D01*
X82393056Y-94001912D01*
X82503002Y-93844318D01*
X82636810Y-93651280D01*
X82791536Y-93427052D01*
X82964237Y-93175886D01*
X83151967Y-92902037D01*
X83351782Y-92609760D01*
X83476260Y-92427299D01*
X84697109Y-90636368D01*
X84713341Y-95711132D01*
X85030068Y-95711132D01*
X85030068Y-89999953D01*
X84866775Y-90009537D01*
X84703482Y-90019122D01*
X83479446Y-91824482D01*
X83273796Y-92127190D01*
X83078230Y-92413870D01*
X82895689Y-92680288D01*
X82729113Y-92922208D01*
X82581441Y-93135395D01*
X82455615Y-93315614D01*
X82354575Y-93458628D01*
X82281260Y-93560203D01*
X82238612Y-93616104D01*
X82228810Y-93625963D01*
X82206953Y-93599756D01*
X82152473Y-93525299D01*
X82068323Y-93406849D01*
X81957454Y-93248660D01*
X81822818Y-93054987D01*
X81667368Y-92830085D01*
X81494055Y-92578209D01*
X81305832Y-92303613D01*
X81105649Y-92010553D01*
X80976250Y-91820603D01*
X79750292Y-90019122D01*
X79583813Y-90009537D01*
X79417334Y-89999953D01*
X78339181Y-89999953D01*
X78339181Y-89146171D01*
X79313007Y-89154556D01*
G36*
X89765623Y-91300593D02*
X90145262Y-91390478D01*
X90504827Y-91534883D01*
X90838977Y-91729708D01*
X91142372Y-91970853D01*
X91409671Y-92254217D01*
X91635533Y-92575699D01*
X91814618Y-92931200D01*
X91916740Y-93223663D01*
X91956669Y-93414802D01*
X91981975Y-93645370D01*
X91992450Y-93895376D01*
X91987885Y-94144830D01*
X91968071Y-94373742D01*
X91932800Y-94562120D01*
X91930781Y-94569559D01*
X91793641Y-94950264D01*
X91596226Y-95320825D01*
X91342276Y-95674713D01*
X91180119Y-95841927D01*
X90971220Y-96010430D01*
X90731289Y-96170481D01*
X90476038Y-96312340D01*
X90221178Y-96426265D01*
X90024450Y-96491751D01*
X89866913Y-96522308D01*
X89666427Y-96543412D01*
X89442814Y-96554651D01*
X89215898Y-96555611D01*
X89005501Y-96545880D01*
X88831448Y-96525044D01*
X88793033Y-96517411D01*
X88405980Y-96399668D01*
X88045962Y-96227123D01*
X87717659Y-96004322D01*
X87425753Y-95735814D01*
X87174927Y-95426148D01*
X86969861Y-95079871D01*
X86815239Y-94701531D01*
X86771585Y-94553704D01*
X86723881Y-94300166D01*
X86702386Y-94013747D01*
X86704334Y-93892100D01*
X87380779Y-93892100D01*
X87387308Y-94062099D01*
X87441650Y-94412496D01*
X87553080Y-94735443D01*
X87721326Y-95030338D01*
X87946113Y-95296578D01*
X87948448Y-95298897D01*
X88226010Y-95532128D01*
X88528351Y-95707856D01*
X88851108Y-95824906D01*
X89189920Y-95882103D01*
X89540423Y-95878275D01*
X89876720Y-95817967D01*
X90166742Y-95711422D01*
X90441915Y-95551196D01*
X90693429Y-95346271D01*
X90912472Y-95105629D01*
X91090236Y-94838251D01*
X91217910Y-94553119D01*
X91259967Y-94407737D01*
X91291106Y-94216202D01*
X91305508Y-93993305D01*
X91303208Y-93763623D01*
X91284246Y-93551735D01*
X91258453Y-93416708D01*
X91156355Y-93133567D01*
X91002842Y-92858493D01*
X90808025Y-92603905D01*
X90582013Y-92382223D01*
X90334919Y-92205867D01*
X90225003Y-92147206D01*
X89896943Y-92022837D01*
X89563193Y-91957815D01*
X89230346Y-91949916D01*
X88904992Y-91996917D01*
X88593722Y-92096593D01*
X88303126Y-92246722D01*
X88039796Y-92445079D01*
X87810322Y-92689442D01*
X87621295Y-92977587D01*
X87591161Y-93035764D01*
X87470759Y-93321464D01*
X87402088Y-93599578D01*
X87380779Y-93892100D01*
X86704334Y-93892100D01*
X86707102Y-93719318D01*
X86738034Y-93441752D01*
X86771367Y-93285289D01*
X86907239Y-92890693D01*
X87095632Y-92528085D01*
X87332880Y-92201703D01*
X87615318Y-91915783D01*
X87939280Y-91674564D01*
X88301101Y-91482284D01*
X88348543Y-91462010D01*
X88642701Y-91358923D01*
X88940354Y-91296541D01*
X89264008Y-91270625D01*
X89371252Y-91269330D01*
X89765623Y-91300593D01*
X89765623Y-91300593D01*
G37*
X89765623Y-91300593D02*
X90145262Y-91390478D01*
X90504827Y-91534883D01*
X90838977Y-91729708D01*
X91142372Y-91970853D01*
X91409671Y-92254217D01*
X91635533Y-92575699D01*
X91814618Y-92931200D01*
X91916740Y-93223663D01*
X91956669Y-93414802D01*
X91981975Y-93645370D01*
X91992450Y-93895376D01*
X91987885Y-94144830D01*
X91968071Y-94373742D01*
X91932800Y-94562120D01*
X91930781Y-94569559D01*
X91793641Y-94950264D01*
X91596226Y-95320825D01*
X91342276Y-95674713D01*
X91180119Y-95841927D01*
X90971220Y-96010430D01*
X90731289Y-96170481D01*
X90476038Y-96312340D01*
X90221178Y-96426265D01*
X90024450Y-96491751D01*
X89866913Y-96522308D01*
X89666427Y-96543412D01*
X89442814Y-96554651D01*
X89215898Y-96555611D01*
X89005501Y-96545880D01*
X88831448Y-96525044D01*
X88793033Y-96517411D01*
X88405980Y-96399668D01*
X88045962Y-96227123D01*
X87717659Y-96004322D01*
X87425753Y-95735814D01*
X87174927Y-95426148D01*
X86969861Y-95079871D01*
X86815239Y-94701531D01*
X86771585Y-94553704D01*
X86723881Y-94300166D01*
X86702386Y-94013747D01*
X86704334Y-93892100D01*
X87380779Y-93892100D01*
X87387308Y-94062099D01*
X87441650Y-94412496D01*
X87553080Y-94735443D01*
X87721326Y-95030338D01*
X87946113Y-95296578D01*
X87948448Y-95298897D01*
X88226010Y-95532128D01*
X88528351Y-95707856D01*
X88851108Y-95824906D01*
X89189920Y-95882103D01*
X89540423Y-95878275D01*
X89876720Y-95817967D01*
X90166742Y-95711422D01*
X90441915Y-95551196D01*
X90693429Y-95346271D01*
X90912472Y-95105629D01*
X91090236Y-94838251D01*
X91217910Y-94553119D01*
X91259967Y-94407737D01*
X91291106Y-94216202D01*
X91305508Y-93993305D01*
X91303208Y-93763623D01*
X91284246Y-93551735D01*
X91258453Y-93416708D01*
X91156355Y-93133567D01*
X91002842Y-92858493D01*
X90808025Y-92603905D01*
X90582013Y-92382223D01*
X90334919Y-92205867D01*
X90225003Y-92147206D01*
X89896943Y-92022837D01*
X89563193Y-91957815D01*
X89230346Y-91949916D01*
X88904992Y-91996917D01*
X88593722Y-92096593D01*
X88303126Y-92246722D01*
X88039796Y-92445079D01*
X87810322Y-92689442D01*
X87621295Y-92977587D01*
X87591161Y-93035764D01*
X87470759Y-93321464D01*
X87402088Y-93599578D01*
X87380779Y-93892100D01*
X86704334Y-93892100D01*
X86707102Y-93719318D01*
X86738034Y-93441752D01*
X86771367Y-93285289D01*
X86907239Y-92890693D01*
X87095632Y-92528085D01*
X87332880Y-92201703D01*
X87615318Y-91915783D01*
X87939280Y-91674564D01*
X88301101Y-91482284D01*
X88348543Y-91462010D01*
X88642701Y-91358923D01*
X88940354Y-91296541D01*
X89264008Y-91270625D01*
X89371252Y-91269330D01*
X89765623Y-91300593D01*
G36*
X93518903Y-89154556D02*
X94492383Y-89162942D01*
X95503365Y-90574053D01*
X95693568Y-90839000D01*
X95873149Y-91088117D01*
X96038653Y-91316682D01*
X96186626Y-91519973D01*
X96313611Y-91693268D01*
X96416155Y-91831843D01*
X96490801Y-91930976D01*
X96534095Y-91985944D01*
X96543493Y-91995735D01*
X96550253Y-91967318D01*
X96556290Y-91879806D01*
X96561517Y-91737524D01*
X96565845Y-91544794D01*
X96569185Y-91305939D01*
X96571449Y-91025282D01*
X96572546Y-90707147D01*
X96572639Y-90576696D01*
X96572639Y-89147087D01*
X98887496Y-89147087D01*
X98887496Y-96567312D01*
X96928061Y-96567312D01*
X94876135Y-93697524D01*
X94867884Y-95132418D01*
X94859634Y-96567312D01*
X92545423Y-96567312D01*
X92545423Y-95711132D01*
X93560155Y-95711132D01*
X93876884Y-95711132D01*
X93893114Y-90599218D01*
X95716460Y-93154399D01*
X97539805Y-95709579D01*
X97706285Y-95710356D01*
X97872764Y-95711132D01*
X97872764Y-90003267D01*
X97556034Y-90003267D01*
X97547920Y-92568096D01*
X97539805Y-95132925D01*
X95716134Y-92576024D01*
X93892462Y-90019122D01*
X93726309Y-90009537D01*
X93560155Y-89999953D01*
X93560155Y-95711132D01*
X92545423Y-95711132D01*
X92545423Y-89146171D01*
X93518903Y-89154556D01*
X93518903Y-89154556D01*
G37*
X93518903Y-89154556D02*
X94492383Y-89162942D01*
X95503365Y-90574053D01*
X95693568Y-90839000D01*
X95873149Y-91088117D01*
X96038653Y-91316682D01*
X96186626Y-91519973D01*
X96313611Y-91693268D01*
X96416155Y-91831843D01*
X96490801Y-91930976D01*
X96534095Y-91985944D01*
X96543493Y-91995735D01*
X96550253Y-91967318D01*
X96556290Y-91879806D01*
X96561517Y-91737524D01*
X96565845Y-91544794D01*
X96569185Y-91305939D01*
X96571449Y-91025282D01*
X96572546Y-90707147D01*
X96572639Y-90576696D01*
X96572639Y-89147087D01*
X98887496Y-89147087D01*
X98887496Y-96567312D01*
X96928061Y-96567312D01*
X94876135Y-93697524D01*
X94867884Y-95132418D01*
X94859634Y-96567312D01*
X92545423Y-96567312D01*
X92545423Y-95711132D01*
X93560155Y-95711132D01*
X93876884Y-95711132D01*
X93893114Y-90599218D01*
X95716460Y-93154399D01*
X97539805Y-95709579D01*
X97706285Y-95710356D01*
X97872764Y-95711132D01*
X97872764Y-90003267D01*
X97556034Y-90003267D01*
X97547920Y-92568096D01*
X97539805Y-95132925D01*
X95716134Y-92576024D01*
X93892462Y-90019122D01*
X93726309Y-90009537D01*
X93560155Y-89999953D01*
X93560155Y-95711132D01*
X92545423Y-95711132D01*
X92545423Y-89146171D01*
X93518903Y-89154556D01*
G36*
X104056285Y-91081419D02*
X102058532Y-91081419D01*
X102058532Y-91937599D01*
X104024575Y-91937599D01*
X104024575Y-93745090D01*
X102058532Y-93745090D01*
X102058532Y-94632980D01*
X104151416Y-94632980D01*
X104151416Y-96567312D01*
X99711965Y-96567312D01*
X99711965Y-90003267D01*
X100790118Y-90003267D01*
X100790118Y-95711132D01*
X103358657Y-95711132D01*
X103358657Y-95425739D01*
X101107221Y-95425739D01*
X101107221Y-92984041D01*
X103231815Y-92984041D01*
X103231815Y-92698648D01*
X101107221Y-92698648D01*
X101107221Y-90288660D01*
X103358657Y-90288660D01*
X103358657Y-90003267D01*
X100790118Y-90003267D01*
X99711965Y-90003267D01*
X99711965Y-89147087D01*
X104056285Y-89147087D01*
X104056285Y-91081419D01*
X104056285Y-91081419D01*
G37*
X104056285Y-91081419D02*
X102058532Y-91081419D01*
X102058532Y-91937599D01*
X104024575Y-91937599D01*
X104024575Y-93745090D01*
X102058532Y-93745090D01*
X102058532Y-94632980D01*
X104151416Y-94632980D01*
X104151416Y-96567312D01*
X99711965Y-96567312D01*
X99711965Y-90003267D01*
X100790118Y-90003267D01*
X100790118Y-95711132D01*
X103358657Y-95711132D01*
X103358657Y-95425739D01*
X101107221Y-95425739D01*
X101107221Y-92984041D01*
X103231815Y-92984041D01*
X103231815Y-92698648D01*
X101107221Y-92698648D01*
X101107221Y-90288660D01*
X103358657Y-90288660D01*
X103358657Y-90003267D01*
X100790118Y-90003267D01*
X99711965Y-90003267D01*
X99711965Y-89147087D01*
X104056285Y-89147087D01*
X104056285Y-91081419D01*
G36*
X109669019Y-91081419D02*
X108273763Y-91081419D01*
X108273763Y-96567312D01*
X105832065Y-96567312D01*
X105832065Y-91081419D01*
X104468520Y-91081419D01*
X104468520Y-90003267D01*
X105292989Y-90003267D01*
X105292989Y-90288660D01*
X106910217Y-90288660D01*
X106910217Y-95711132D01*
X107227321Y-95711132D01*
X107227321Y-90288660D01*
X108812839Y-90288660D01*
X108812839Y-90003267D01*
X105292989Y-90003267D01*
X104468520Y-90003267D01*
X104468520Y-89147087D01*
X109669019Y-89147087D01*
X109669019Y-91081419D01*
X109669019Y-91081419D01*
G37*
X109669019Y-91081419D02*
X108273763Y-91081419D01*
X108273763Y-96567312D01*
X105832065Y-96567312D01*
X105832065Y-91081419D01*
X104468520Y-91081419D01*
X104468520Y-90003267D01*
X105292989Y-90003267D01*
X105292989Y-90288660D01*
X106910217Y-90288660D01*
X106910217Y-95711132D01*
X107227321Y-95711132D01*
X107227321Y-90288660D01*
X108812839Y-90288660D01*
X108812839Y-90003267D01*
X105292989Y-90003267D01*
X104468520Y-90003267D01*
X104468520Y-89147087D01*
X109669019Y-89147087D01*
X109669019Y-91081419D01*
G36*
X91879506Y-90796026D02*
X86805848Y-90796026D01*
X86805848Y-89844715D01*
X87376634Y-89844715D01*
X87376634Y-90066688D01*
X91308719Y-90066688D01*
X91308719Y-89844715D01*
X87376634Y-89844715D01*
X86805848Y-89844715D01*
X86805848Y-89115377D01*
X91879506Y-89115377D01*
X91879506Y-90796026D01*
X91879506Y-90796026D01*
G37*
X91879506Y-90796026D02*
X86805848Y-90796026D01*
X86805848Y-89844715D01*
X87376634Y-89844715D01*
X87376634Y-90066688D01*
X91308719Y-90066688D01*
X91308719Y-89844715D01*
X87376634Y-89844715D01*
X86805848Y-89844715D01*
X86805848Y-89115377D01*
X91879506Y-89115377D01*
X91879506Y-90796026D01*
G36*
X73166050Y-88515083D02*
X73339429Y-88564104D01*
X73504872Y-88634579D01*
X73651403Y-88719256D01*
X73768046Y-88810883D01*
X73843826Y-88902208D01*
X73868020Y-88978901D01*
X73862273Y-89024042D01*
X73837877Y-89044315D01*
X73784106Y-89039565D01*
X73690231Y-89009635D01*
X73598482Y-88975002D01*
X73462081Y-88921042D01*
X73307205Y-88858090D01*
X73202103Y-88814357D01*
X73079782Y-88767020D01*
X72980574Y-88743427D01*
X72873459Y-88738592D01*
X72767002Y-88744447D01*
X72538018Y-88761533D01*
X72589376Y-88683151D01*
X72694509Y-88578408D01*
X72840107Y-88515557D01*
X73016739Y-88497349D01*
X73166050Y-88515083D01*
X73166050Y-88515083D01*
G37*
X73166050Y-88515083D02*
X73339429Y-88564104D01*
X73504872Y-88634579D01*
X73651403Y-88719256D01*
X73768046Y-88810883D01*
X73843826Y-88902208D01*
X73868020Y-88978901D01*
X73862273Y-89024042D01*
X73837877Y-89044315D01*
X73784106Y-89039565D01*
X73690231Y-89009635D01*
X73598482Y-88975002D01*
X73462081Y-88921042D01*
X73307205Y-88858090D01*
X73202103Y-88814357D01*
X73079782Y-88767020D01*
X72980574Y-88743427D01*
X72873459Y-88738592D01*
X72767002Y-88744447D01*
X72538018Y-88761533D01*
X72589376Y-88683151D01*
X72694509Y-88578408D01*
X72840107Y-88515557D01*
X73016739Y-88497349D01*
X73166050Y-88515083D01*
G36*
X70519320Y-88094135D02*
X70769177Y-88164457D01*
X71014837Y-88271986D01*
X71236814Y-88408804D01*
X71351033Y-88502128D01*
X71419449Y-88569778D01*
X71454413Y-88614228D01*
X71449037Y-88626569D01*
X71446709Y-88625918D01*
X71153659Y-88540841D01*
X70896605Y-88483082D01*
X70656073Y-88449211D01*
X70412588Y-88435799D01*
X70364025Y-88435279D01*
X70101165Y-88444028D01*
X69879969Y-88476259D01*
X69681388Y-88537125D01*
X69486373Y-88631773D01*
X69365967Y-88705099D01*
X69256568Y-88774797D01*
X69189742Y-88813872D01*
X69155485Y-88827164D01*
X69143790Y-88819512D01*
X69143176Y-88812865D01*
X69161478Y-88755712D01*
X69208490Y-88668585D01*
X69272372Y-88570272D01*
X69341284Y-88479562D01*
X69380543Y-88436179D01*
X69575065Y-88282424D01*
X69807426Y-88164948D01*
X70058897Y-88091357D01*
X70284749Y-88068935D01*
X70519320Y-88094135D01*
X70519320Y-88094135D01*
G37*
X70519320Y-88094135D02*
X70769177Y-88164457D01*
X71014837Y-88271986D01*
X71236814Y-88408804D01*
X71351033Y-88502128D01*
X71419449Y-88569778D01*
X71454413Y-88614228D01*
X71449037Y-88626569D01*
X71446709Y-88625918D01*
X71153659Y-88540841D01*
X70896605Y-88483082D01*
X70656073Y-88449211D01*
X70412588Y-88435799D01*
X70364025Y-88435279D01*
X70101165Y-88444028D01*
X69879969Y-88476259D01*
X69681388Y-88537125D01*
X69486373Y-88631773D01*
X69365967Y-88705099D01*
X69256568Y-88774797D01*
X69189742Y-88813872D01*
X69155485Y-88827164D01*
X69143790Y-88819512D01*
X69143176Y-88812865D01*
X69161478Y-88755712D01*
X69208490Y-88668585D01*
X69272372Y-88570272D01*
X69341284Y-88479562D01*
X69380543Y-88436179D01*
X69575065Y-88282424D01*
X69807426Y-88164948D01*
X70058897Y-88091357D01*
X70284749Y-88068935D01*
X70519320Y-88094135D01*
G36*
X84107146Y-85993394D02*
X84218952Y-86000324D01*
X84307305Y-86016394D01*
X84392176Y-86045304D01*
X84493536Y-86090753D01*
X84498626Y-86093161D01*
X84741876Y-86242685D01*
X84948099Y-86440102D01*
X85108296Y-86676412D01*
X85134930Y-86729465D01*
X85181181Y-86831996D01*
X85210734Y-86917169D01*
X85227285Y-87004955D01*
X85234536Y-87115325D01*
X85236183Y-87268253D01*
X85236185Y-87276176D01*
X85234818Y-87430289D01*
X85228195Y-87540759D01*
X85212533Y-87627345D01*
X85184047Y-87709807D01*
X85138955Y-87807906D01*
X85131406Y-87823390D01*
X84976971Y-88068676D01*
X84774975Y-88276471D01*
X84534446Y-88437719D01*
X84503085Y-88453677D01*
X84387456Y-88506560D01*
X84287587Y-88539231D01*
X84178679Y-88557348D01*
X84035930Y-88566565D01*
X84002707Y-88567784D01*
X83837348Y-88569392D01*
X83711524Y-88559229D01*
X83602002Y-88534575D01*
X83539681Y-88513630D01*
X83289215Y-88390999D01*
X83066743Y-88221320D01*
X82887510Y-88016299D01*
X82882203Y-88008622D01*
X82756849Y-87792247D01*
X82683211Y-87576390D01*
X82657813Y-87359200D01*
X82973043Y-87359200D01*
X83017836Y-87578195D01*
X83112696Y-87785070D01*
X83258176Y-87970664D01*
X83379850Y-88075331D01*
X83488519Y-88143681D01*
X83605762Y-88200855D01*
X83644107Y-88215158D01*
X83806590Y-88245746D01*
X83997292Y-88247755D01*
X84188799Y-88223061D01*
X84353700Y-88173537D01*
X84371628Y-88165433D01*
X84580188Y-88032978D01*
X84744449Y-87858076D01*
X84859718Y-87647814D01*
X84921300Y-87409277D01*
X84929135Y-87323741D01*
X84913137Y-87069711D01*
X84839849Y-86839714D01*
X84712137Y-86638963D01*
X84532865Y-86472669D01*
X84423093Y-86403131D01*
X84336223Y-86358197D01*
X84260129Y-86330332D01*
X84174761Y-86315531D01*
X84060065Y-86309786D01*
X83951915Y-86309010D01*
X83804857Y-86310805D01*
X83701127Y-86318861D01*
X83620671Y-86337184D01*
X83543438Y-86369779D01*
X83480737Y-86403131D01*
X83283487Y-86545283D01*
X83133539Y-86721129D01*
X83031448Y-86921505D01*
X82977765Y-87137250D01*
X82973043Y-87359200D01*
X82657813Y-87359200D01*
X82655645Y-87340668D01*
X82657908Y-87198358D01*
X82702951Y-86916940D01*
X82804736Y-86659394D01*
X82959113Y-86431855D01*
X83161933Y-86240462D01*
X83405205Y-86093161D01*
X83507736Y-86046910D01*
X83592908Y-86017357D01*
X83680694Y-86000806D01*
X83791065Y-85993555D01*
X83943993Y-85991908D01*
X83951915Y-85991906D01*
X84107146Y-85993394D01*
X84107146Y-85993394D01*
G37*
X84107146Y-85993394D02*
X84218952Y-86000324D01*
X84307305Y-86016394D01*
X84392176Y-86045304D01*
X84493536Y-86090753D01*
X84498626Y-86093161D01*
X84741876Y-86242685D01*
X84948099Y-86440102D01*
X85108296Y-86676412D01*
X85134930Y-86729465D01*
X85181181Y-86831996D01*
X85210734Y-86917169D01*
X85227285Y-87004955D01*
X85234536Y-87115325D01*
X85236183Y-87268253D01*
X85236185Y-87276176D01*
X85234818Y-87430289D01*
X85228195Y-87540759D01*
X85212533Y-87627345D01*
X85184047Y-87709807D01*
X85138955Y-87807906D01*
X85131406Y-87823390D01*
X84976971Y-88068676D01*
X84774975Y-88276471D01*
X84534446Y-88437719D01*
X84503085Y-88453677D01*
X84387456Y-88506560D01*
X84287587Y-88539231D01*
X84178679Y-88557348D01*
X84035930Y-88566565D01*
X84002707Y-88567784D01*
X83837348Y-88569392D01*
X83711524Y-88559229D01*
X83602002Y-88534575D01*
X83539681Y-88513630D01*
X83289215Y-88390999D01*
X83066743Y-88221320D01*
X82887510Y-88016299D01*
X82882203Y-88008622D01*
X82756849Y-87792247D01*
X82683211Y-87576390D01*
X82657813Y-87359200D01*
X82973043Y-87359200D01*
X83017836Y-87578195D01*
X83112696Y-87785070D01*
X83258176Y-87970664D01*
X83379850Y-88075331D01*
X83488519Y-88143681D01*
X83605762Y-88200855D01*
X83644107Y-88215158D01*
X83806590Y-88245746D01*
X83997292Y-88247755D01*
X84188799Y-88223061D01*
X84353700Y-88173537D01*
X84371628Y-88165433D01*
X84580188Y-88032978D01*
X84744449Y-87858076D01*
X84859718Y-87647814D01*
X84921300Y-87409277D01*
X84929135Y-87323741D01*
X84913137Y-87069711D01*
X84839849Y-86839714D01*
X84712137Y-86638963D01*
X84532865Y-86472669D01*
X84423093Y-86403131D01*
X84336223Y-86358197D01*
X84260129Y-86330332D01*
X84174761Y-86315531D01*
X84060065Y-86309786D01*
X83951915Y-86309010D01*
X83804857Y-86310805D01*
X83701127Y-86318861D01*
X83620671Y-86337184D01*
X83543438Y-86369779D01*
X83480737Y-86403131D01*
X83283487Y-86545283D01*
X83133539Y-86721129D01*
X83031448Y-86921505D01*
X82977765Y-87137250D01*
X82973043Y-87359200D01*
X82657813Y-87359200D01*
X82655645Y-87340668D01*
X82657908Y-87198358D01*
X82702951Y-86916940D01*
X82804736Y-86659394D01*
X82959113Y-86431855D01*
X83161933Y-86240462D01*
X83405205Y-86093161D01*
X83507736Y-86046910D01*
X83592908Y-86017357D01*
X83680694Y-86000806D01*
X83791065Y-85993555D01*
X83943993Y-85991908D01*
X83951915Y-85991906D01*
X84107146Y-85993394D01*
G36*
X90140036Y-85983324D02*
X90319861Y-86008816D01*
X90389119Y-86026073D01*
X90493745Y-86061585D01*
X90610417Y-86107466D01*
X90719085Y-86155119D01*
X90799699Y-86195948D01*
X90826089Y-86213444D01*
X90814614Y-86241378D01*
X90778902Y-86310970D01*
X90726339Y-86408901D01*
X90664313Y-86521857D01*
X90600210Y-86636519D01*
X90541417Y-86739572D01*
X90495320Y-86817698D01*
X90469307Y-86857581D01*
X90467936Y-86859115D01*
X90434153Y-86854819D01*
X90365083Y-86828361D01*
X90334760Y-86814354D01*
X90175029Y-86761514D01*
X89998018Y-86741393D01*
X89827929Y-86754684D01*
X89700001Y-86796179D01*
X89559576Y-86899758D01*
X89465362Y-87035809D01*
X89418871Y-87191814D01*
X89421616Y-87355252D01*
X89475108Y-87513607D01*
X89580860Y-87654358D01*
X89594770Y-87667346D01*
X89751230Y-87768048D01*
X89932553Y-87812075D01*
X90135160Y-87799437D01*
X90355467Y-87730144D01*
X90488105Y-87665015D01*
X90508845Y-87686903D01*
X90552495Y-87751296D01*
X90611355Y-87845150D01*
X90677726Y-87955424D01*
X90743910Y-88069077D01*
X90802206Y-88173066D01*
X90844917Y-88254351D01*
X90864341Y-88299888D01*
X90864774Y-88303061D01*
X90837483Y-88330007D01*
X90765716Y-88371417D01*
X90664637Y-88420179D01*
X90549407Y-88469179D01*
X90435187Y-88511305D01*
X90391291Y-88525199D01*
X90194331Y-88562897D01*
X89967190Y-88573716D01*
X89736921Y-88558100D01*
X89530578Y-88516491D01*
X89511952Y-88510807D01*
X89260716Y-88398766D01*
X89041581Y-88234938D01*
X88861992Y-88025965D01*
X88753105Y-87833617D01*
X88663696Y-87565733D01*
X88631991Y-87287930D01*
X88632808Y-87278678D01*
X88978842Y-87278678D01*
X88982473Y-87416315D01*
X88998135Y-87520402D01*
X89032983Y-87620624D01*
X89089411Y-87737414D01*
X89222603Y-87937086D01*
X89394444Y-88088475D01*
X89610368Y-88196133D01*
X89655441Y-88211575D01*
X89787637Y-88238269D01*
X89948770Y-88247979D01*
X90116335Y-88241606D01*
X90267832Y-88220049D01*
X90380757Y-88184207D01*
X90384250Y-88182439D01*
X90457550Y-88138522D01*
X90480412Y-88100315D01*
X90461590Y-88050762D01*
X90456262Y-88042162D01*
X90427743Y-88019297D01*
X90378875Y-88029391D01*
X90321979Y-88057585D01*
X90213065Y-88093463D01*
X90066022Y-88112025D01*
X89903768Y-88113134D01*
X89749222Y-88096655D01*
X89625305Y-88062450D01*
X89623645Y-88061736D01*
X89471899Y-87970691D01*
X89327339Y-87840406D01*
X89213045Y-87693038D01*
X89183180Y-87638893D01*
X89123330Y-87447471D01*
X89112187Y-87235767D01*
X89147647Y-87021449D01*
X89227608Y-86822189D01*
X89292279Y-86722139D01*
X89420369Y-86601415D01*
X89590439Y-86508153D01*
X89785283Y-86447037D01*
X89987693Y-86422749D01*
X90180462Y-86439973D01*
X90253724Y-86460473D01*
X90342054Y-86487025D01*
X90392508Y-86487592D01*
X90422933Y-86465026D01*
X90444906Y-86416639D01*
X90416362Y-86377613D01*
X90331965Y-86342846D01*
X90280485Y-86328765D01*
X90079140Y-86297879D01*
X89866906Y-86298598D01*
X89671318Y-86329939D01*
X89597627Y-86353176D01*
X89390019Y-86458003D01*
X89227167Y-86601498D01*
X89098449Y-86793384D01*
X89082590Y-86824577D01*
X89026024Y-86949034D01*
X88994515Y-87052530D01*
X88981140Y-87165365D01*
X88978842Y-87278678D01*
X88632808Y-87278678D01*
X88656486Y-87010741D01*
X88735680Y-86744698D01*
X88868067Y-86500336D01*
X88960316Y-86382043D01*
X89097049Y-86257957D01*
X89273390Y-86142807D01*
X89465728Y-86050569D01*
X89591098Y-86008727D01*
X89748959Y-85982699D01*
X89940837Y-85974425D01*
X90140036Y-85983324D01*
X90140036Y-85983324D01*
G37*
X90140036Y-85983324D02*
X90319861Y-86008816D01*
X90389119Y-86026073D01*
X90493745Y-86061585D01*
X90610417Y-86107466D01*
X90719085Y-86155119D01*
X90799699Y-86195948D01*
X90826089Y-86213444D01*
X90814614Y-86241378D01*
X90778902Y-86310970D01*
X90726339Y-86408901D01*
X90664313Y-86521857D01*
X90600210Y-86636519D01*
X90541417Y-86739572D01*
X90495320Y-86817698D01*
X90469307Y-86857581D01*
X90467936Y-86859115D01*
X90434153Y-86854819D01*
X90365083Y-86828361D01*
X90334760Y-86814354D01*
X90175029Y-86761514D01*
X89998018Y-86741393D01*
X89827929Y-86754684D01*
X89700001Y-86796179D01*
X89559576Y-86899758D01*
X89465362Y-87035809D01*
X89418871Y-87191814D01*
X89421616Y-87355252D01*
X89475108Y-87513607D01*
X89580860Y-87654358D01*
X89594770Y-87667346D01*
X89751230Y-87768048D01*
X89932553Y-87812075D01*
X90135160Y-87799437D01*
X90355467Y-87730144D01*
X90488105Y-87665015D01*
X90508845Y-87686903D01*
X90552495Y-87751296D01*
X90611355Y-87845150D01*
X90677726Y-87955424D01*
X90743910Y-88069077D01*
X90802206Y-88173066D01*
X90844917Y-88254351D01*
X90864341Y-88299888D01*
X90864774Y-88303061D01*
X90837483Y-88330007D01*
X90765716Y-88371417D01*
X90664637Y-88420179D01*
X90549407Y-88469179D01*
X90435187Y-88511305D01*
X90391291Y-88525199D01*
X90194331Y-88562897D01*
X89967190Y-88573716D01*
X89736921Y-88558100D01*
X89530578Y-88516491D01*
X89511952Y-88510807D01*
X89260716Y-88398766D01*
X89041581Y-88234938D01*
X88861992Y-88025965D01*
X88753105Y-87833617D01*
X88663696Y-87565733D01*
X88631991Y-87287930D01*
X88632808Y-87278678D01*
X88978842Y-87278678D01*
X88982473Y-87416315D01*
X88998135Y-87520402D01*
X89032983Y-87620624D01*
X89089411Y-87737414D01*
X89222603Y-87937086D01*
X89394444Y-88088475D01*
X89610368Y-88196133D01*
X89655441Y-88211575D01*
X89787637Y-88238269D01*
X89948770Y-88247979D01*
X90116335Y-88241606D01*
X90267832Y-88220049D01*
X90380757Y-88184207D01*
X90384250Y-88182439D01*
X90457550Y-88138522D01*
X90480412Y-88100315D01*
X90461590Y-88050762D01*
X90456262Y-88042162D01*
X90427743Y-88019297D01*
X90378875Y-88029391D01*
X90321979Y-88057585D01*
X90213065Y-88093463D01*
X90066022Y-88112025D01*
X89903768Y-88113134D01*
X89749222Y-88096655D01*
X89625305Y-88062450D01*
X89623645Y-88061736D01*
X89471899Y-87970691D01*
X89327339Y-87840406D01*
X89213045Y-87693038D01*
X89183180Y-87638893D01*
X89123330Y-87447471D01*
X89112187Y-87235767D01*
X89147647Y-87021449D01*
X89227608Y-86822189D01*
X89292279Y-86722139D01*
X89420369Y-86601415D01*
X89590439Y-86508153D01*
X89785283Y-86447037D01*
X89987693Y-86422749D01*
X90180462Y-86439973D01*
X90253724Y-86460473D01*
X90342054Y-86487025D01*
X90392508Y-86487592D01*
X90422933Y-86465026D01*
X90444906Y-86416639D01*
X90416362Y-86377613D01*
X90331965Y-86342846D01*
X90280485Y-86328765D01*
X90079140Y-86297879D01*
X89866906Y-86298598D01*
X89671318Y-86329939D01*
X89597627Y-86353176D01*
X89390019Y-86458003D01*
X89227167Y-86601498D01*
X89098449Y-86793384D01*
X89082590Y-86824577D01*
X89026024Y-86949034D01*
X88994515Y-87052530D01*
X88981140Y-87165365D01*
X88978842Y-87278678D01*
X88632808Y-87278678D01*
X88656486Y-87010741D01*
X88735680Y-86744698D01*
X88868067Y-86500336D01*
X88960316Y-86382043D01*
X89097049Y-86257957D01*
X89273390Y-86142807D01*
X89465728Y-86050569D01*
X89591098Y-86008727D01*
X89748959Y-85982699D01*
X89940837Y-85974425D01*
X90140036Y-85983324D01*
G36*
X78886185Y-86016304D02*
X79140576Y-86026955D01*
X79343031Y-86042706D01*
X79504981Y-86066055D01*
X79637859Y-86099500D01*
X79753095Y-86145539D01*
X79862121Y-86206670D01*
X79913820Y-86240878D01*
X80066663Y-86382978D01*
X80177057Y-86564556D01*
X80242097Y-86775508D01*
X80258877Y-87005729D01*
X80224494Y-87245115D01*
X80213810Y-87284422D01*
X80127572Y-87471244D01*
X79989137Y-87631050D01*
X79805805Y-87758781D01*
X79584878Y-87849379D01*
X79333656Y-87897783D01*
X79327822Y-87898338D01*
X79100230Y-87919490D01*
X79100230Y-88512880D01*
X78339181Y-88512880D01*
X78339181Y-87272267D01*
X78687995Y-87272267D01*
X78688111Y-87548134D01*
X78688740Y-87767139D01*
X78690302Y-87935840D01*
X78693220Y-88060797D01*
X78697916Y-88148566D01*
X78704809Y-88205708D01*
X78714323Y-88238780D01*
X78726878Y-88254341D01*
X78742896Y-88258949D01*
X78751416Y-88259197D01*
X78781082Y-88254585D01*
X78799721Y-88232849D01*
X78809870Y-88182136D01*
X78814062Y-88090592D01*
X78814837Y-87962642D01*
X78814837Y-87666088D01*
X79092302Y-87646692D01*
X79297180Y-87627335D01*
X79452637Y-87599299D01*
X79572503Y-87558525D01*
X79670611Y-87500952D01*
X79717390Y-87463230D01*
X79828140Y-87326340D01*
X79897708Y-87156244D01*
X79924097Y-86969604D01*
X79905311Y-86783084D01*
X79839352Y-86613344D01*
X79822526Y-86586177D01*
X79736282Y-86481999D01*
X79628461Y-86405102D01*
X79489027Y-86351714D01*
X79307944Y-86318063D01*
X79075173Y-86300377D01*
X79060592Y-86299789D01*
X78687995Y-86285338D01*
X78687995Y-87272267D01*
X78339181Y-87272267D01*
X78339181Y-85999105D01*
X78886185Y-86016304D01*
X78886185Y-86016304D01*
G37*
X78886185Y-86016304D02*
X79140576Y-86026955D01*
X79343031Y-86042706D01*
X79504981Y-86066055D01*
X79637859Y-86099500D01*
X79753095Y-86145539D01*
X79862121Y-86206670D01*
X79913820Y-86240878D01*
X80066663Y-86382978D01*
X80177057Y-86564556D01*
X80242097Y-86775508D01*
X80258877Y-87005729D01*
X80224494Y-87245115D01*
X80213810Y-87284422D01*
X80127572Y-87471244D01*
X79989137Y-87631050D01*
X79805805Y-87758781D01*
X79584878Y-87849379D01*
X79333656Y-87897783D01*
X79327822Y-87898338D01*
X79100230Y-87919490D01*
X79100230Y-88512880D01*
X78339181Y-88512880D01*
X78339181Y-87272267D01*
X78687995Y-87272267D01*
X78688111Y-87548134D01*
X78688740Y-87767139D01*
X78690302Y-87935840D01*
X78693220Y-88060797D01*
X78697916Y-88148566D01*
X78704809Y-88205708D01*
X78714323Y-88238780D01*
X78726878Y-88254341D01*
X78742896Y-88258949D01*
X78751416Y-88259197D01*
X78781082Y-88254585D01*
X78799721Y-88232849D01*
X78809870Y-88182136D01*
X78814062Y-88090592D01*
X78814837Y-87962642D01*
X78814837Y-87666088D01*
X79092302Y-87646692D01*
X79297180Y-87627335D01*
X79452637Y-87599299D01*
X79572503Y-87558525D01*
X79670611Y-87500952D01*
X79717390Y-87463230D01*
X79828140Y-87326340D01*
X79897708Y-87156244D01*
X79924097Y-86969604D01*
X79905311Y-86783084D01*
X79839352Y-86613344D01*
X79822526Y-86586177D01*
X79736282Y-86481999D01*
X79628461Y-86405102D01*
X79489027Y-86351714D01*
X79307944Y-86318063D01*
X79075173Y-86300377D01*
X79060592Y-86299789D01*
X78687995Y-86285338D01*
X78687995Y-87272267D01*
X78339181Y-87272267D01*
X78339181Y-85999105D01*
X78886185Y-86016304D01*
G36*
X80931503Y-86008001D02*
X81245196Y-86014671D01*
X81503073Y-86034839D01*
X81711457Y-86069307D01*
X81876670Y-86118878D01*
X81908017Y-86131964D01*
X82104266Y-86250334D01*
X82259534Y-86407706D01*
X82371513Y-86594075D01*
X82437895Y-86799435D01*
X82456371Y-87013781D01*
X82424634Y-87227108D01*
X82340376Y-87429410D01*
X82239705Y-87569728D01*
X82116436Y-87709770D01*
X82336548Y-88094957D01*
X82415945Y-88235008D01*
X82482608Y-88354707D01*
X82530845Y-88443671D01*
X82554963Y-88491515D01*
X82556659Y-88496512D01*
X82526844Y-88502403D01*
X82444971Y-88507352D01*
X82322403Y-88510939D01*
X82170502Y-88512746D01*
X82113957Y-88512880D01*
X81671254Y-88512880D01*
X81487677Y-88196177D01*
X81413341Y-88071247D01*
X81349132Y-87969475D01*
X81302206Y-87901807D01*
X81280317Y-87879074D01*
X81270335Y-87908366D01*
X81262416Y-87987671D01*
X81257566Y-88103588D01*
X81256535Y-88195776D01*
X81256535Y-88512880D01*
X80495486Y-88512880D01*
X80495486Y-87272753D01*
X80844300Y-87272753D01*
X80844416Y-87548545D01*
X80845045Y-87767477D01*
X80846609Y-87936107D01*
X80849529Y-88060998D01*
X80854228Y-88148709D01*
X80861127Y-88205799D01*
X80870648Y-88238830D01*
X80883212Y-88254361D01*
X80899242Y-88258952D01*
X80907721Y-88259197D01*
X80937150Y-88254664D01*
X80955744Y-88233235D01*
X80965966Y-88183169D01*
X80970277Y-88092724D01*
X80971141Y-87956759D01*
X80971141Y-87654320D01*
X81262760Y-87663438D01*
X81554378Y-87672555D01*
X81730276Y-87965876D01*
X81815176Y-88102674D01*
X81878369Y-88191427D01*
X81926978Y-88240579D01*
X81968128Y-88258576D01*
X81977734Y-88259197D01*
X82033589Y-88251858D01*
X82049294Y-88239713D01*
X82033825Y-88206398D01*
X81991802Y-88130566D01*
X81929800Y-88023784D01*
X81860862Y-87908310D01*
X81780678Y-87774119D01*
X81730411Y-87684032D01*
X81706455Y-87628321D01*
X81705201Y-87597255D01*
X81723040Y-87581105D01*
X81737526Y-87575730D01*
X81844055Y-87516777D01*
X81949905Y-87417487D01*
X82036482Y-87298359D01*
X82080927Y-87197175D01*
X82113085Y-86983132D01*
X82086928Y-86788200D01*
X82004787Y-86617856D01*
X81868992Y-86477583D01*
X81741735Y-86399469D01*
X81651202Y-86358441D01*
X81567392Y-86331088D01*
X81472172Y-86313998D01*
X81347410Y-86303764D01*
X81201041Y-86297792D01*
X80844300Y-86286310D01*
X80844300Y-87272753D01*
X80495486Y-87272753D01*
X80495486Y-86007761D01*
X80931503Y-86008001D01*
X80931503Y-86008001D01*
G37*
X80931503Y-86008001D02*
X81245196Y-86014671D01*
X81503073Y-86034839D01*
X81711457Y-86069307D01*
X81876670Y-86118878D01*
X81908017Y-86131964D01*
X82104266Y-86250334D01*
X82259534Y-86407706D01*
X82371513Y-86594075D01*
X82437895Y-86799435D01*
X82456371Y-87013781D01*
X82424634Y-87227108D01*
X82340376Y-87429410D01*
X82239705Y-87569728D01*
X82116436Y-87709770D01*
X82336548Y-88094957D01*
X82415945Y-88235008D01*
X82482608Y-88354707D01*
X82530845Y-88443671D01*
X82554963Y-88491515D01*
X82556659Y-88496512D01*
X82526844Y-88502403D01*
X82444971Y-88507352D01*
X82322403Y-88510939D01*
X82170502Y-88512746D01*
X82113957Y-88512880D01*
X81671254Y-88512880D01*
X81487677Y-88196177D01*
X81413341Y-88071247D01*
X81349132Y-87969475D01*
X81302206Y-87901807D01*
X81280317Y-87879074D01*
X81270335Y-87908366D01*
X81262416Y-87987671D01*
X81257566Y-88103588D01*
X81256535Y-88195776D01*
X81256535Y-88512880D01*
X80495486Y-88512880D01*
X80495486Y-87272753D01*
X80844300Y-87272753D01*
X80844416Y-87548545D01*
X80845045Y-87767477D01*
X80846609Y-87936107D01*
X80849529Y-88060998D01*
X80854228Y-88148709D01*
X80861127Y-88205799D01*
X80870648Y-88238830D01*
X80883212Y-88254361D01*
X80899242Y-88258952D01*
X80907721Y-88259197D01*
X80937150Y-88254664D01*
X80955744Y-88233235D01*
X80965966Y-88183169D01*
X80970277Y-88092724D01*
X80971141Y-87956759D01*
X80971141Y-87654320D01*
X81262760Y-87663438D01*
X81554378Y-87672555D01*
X81730276Y-87965876D01*
X81815176Y-88102674D01*
X81878369Y-88191427D01*
X81926978Y-88240579D01*
X81968128Y-88258576D01*
X81977734Y-88259197D01*
X82033589Y-88251858D01*
X82049294Y-88239713D01*
X82033825Y-88206398D01*
X81991802Y-88130566D01*
X81929800Y-88023784D01*
X81860862Y-87908310D01*
X81780678Y-87774119D01*
X81730411Y-87684032D01*
X81706455Y-87628321D01*
X81705201Y-87597255D01*
X81723040Y-87581105D01*
X81737526Y-87575730D01*
X81844055Y-87516777D01*
X81949905Y-87417487D01*
X82036482Y-87298359D01*
X82080927Y-87197175D01*
X82113085Y-86983132D01*
X82086928Y-86788200D01*
X82004787Y-86617856D01*
X81868992Y-86477583D01*
X81741735Y-86399469D01*
X81651202Y-86358441D01*
X81567392Y-86331088D01*
X81472172Y-86313998D01*
X81347410Y-86303764D01*
X81201041Y-86297792D01*
X80844300Y-86286310D01*
X80844300Y-87272753D01*
X80495486Y-87272753D01*
X80495486Y-86007761D01*
X80931503Y-86008001D01*
G36*
X86640936Y-87077986D02*
X86637934Y-87389213D01*
X86634104Y-87643561D01*
X86628110Y-87847566D01*
X86618616Y-88007767D01*
X86604286Y-88130703D01*
X86583786Y-88222912D01*
X86555779Y-88290931D01*
X86518930Y-88341301D01*
X86471902Y-88380558D01*
X86413361Y-88415241D01*
X86362386Y-88441532D01*
X86297264Y-88471213D01*
X86230756Y-88491393D01*
X86148853Y-88503850D01*
X86037543Y-88510363D01*
X85882814Y-88512709D01*
X85800252Y-88512880D01*
X85378882Y-88512880D01*
X85378882Y-88200307D01*
X85632565Y-88200307D01*
X85635955Y-88233381D01*
X85654572Y-88252255D01*
X85701087Y-88259357D01*
X85788170Y-88257118D01*
X85893670Y-88250363D01*
X86027008Y-88239092D01*
X86113733Y-88224112D01*
X86170636Y-88200306D01*
X86214511Y-88162559D01*
X86226629Y-88148932D01*
X86247708Y-88122865D01*
X86264200Y-88094379D01*
X86276668Y-88055884D01*
X86285675Y-87999788D01*
X86291783Y-87918499D01*
X86295556Y-87804426D01*
X86297555Y-87649978D01*
X86298343Y-87447562D01*
X86298482Y-87189588D01*
X86298482Y-87179276D01*
X86298343Y-86919406D01*
X86297594Y-86716036D01*
X86295742Y-86562246D01*
X86292289Y-86451116D01*
X86286742Y-86375726D01*
X86278605Y-86329156D01*
X86267382Y-86304484D01*
X86252579Y-86294791D01*
X86235061Y-86293154D01*
X86216312Y-86295128D01*
X86201676Y-86305704D01*
X86190644Y-86331864D01*
X86182708Y-86380593D01*
X86177357Y-86458872D01*
X86174084Y-86573685D01*
X86172380Y-86732015D01*
X86171736Y-86940844D01*
X86171641Y-87163391D01*
X86171526Y-87420714D01*
X86170803Y-87622007D01*
X86168905Y-87774660D01*
X86165268Y-87886063D01*
X86159323Y-87963608D01*
X86150505Y-88014684D01*
X86138247Y-88046681D01*
X86121983Y-88066992D01*
X86101164Y-88082992D01*
X86010232Y-88117185D01*
X85867195Y-88131892D01*
X85831626Y-88132355D01*
X85722767Y-88134266D01*
X85662898Y-88143273D01*
X85637630Y-88164289D01*
X85632565Y-88200307D01*
X85378882Y-88200307D01*
X85378882Y-87942093D01*
X85567346Y-87942093D01*
X85645847Y-87941785D01*
X85708566Y-87936596D01*
X85757272Y-87920131D01*
X85793736Y-87885995D01*
X85819726Y-87827793D01*
X85837014Y-87739130D01*
X85847370Y-87613610D01*
X85852563Y-87444838D01*
X85854363Y-87226419D01*
X85854541Y-86951958D01*
X85854537Y-86904451D01*
X85854537Y-86007761D01*
X86650430Y-86007761D01*
X86640936Y-87077986D01*
X86640936Y-87077986D01*
G37*
X86640936Y-87077986D02*
X86637934Y-87389213D01*
X86634104Y-87643561D01*
X86628110Y-87847566D01*
X86618616Y-88007767D01*
X86604286Y-88130703D01*
X86583786Y-88222912D01*
X86555779Y-88290931D01*
X86518930Y-88341301D01*
X86471902Y-88380558D01*
X86413361Y-88415241D01*
X86362386Y-88441532D01*
X86297264Y-88471213D01*
X86230756Y-88491393D01*
X86148853Y-88503850D01*
X86037543Y-88510363D01*
X85882814Y-88512709D01*
X85800252Y-88512880D01*
X85378882Y-88512880D01*
X85378882Y-88200307D01*
X85632565Y-88200307D01*
X85635955Y-88233381D01*
X85654572Y-88252255D01*
X85701087Y-88259357D01*
X85788170Y-88257118D01*
X85893670Y-88250363D01*
X86027008Y-88239092D01*
X86113733Y-88224112D01*
X86170636Y-88200306D01*
X86214511Y-88162559D01*
X86226629Y-88148932D01*
X86247708Y-88122865D01*
X86264200Y-88094379D01*
X86276668Y-88055884D01*
X86285675Y-87999788D01*
X86291783Y-87918499D01*
X86295556Y-87804426D01*
X86297555Y-87649978D01*
X86298343Y-87447562D01*
X86298482Y-87189588D01*
X86298482Y-87179276D01*
X86298343Y-86919406D01*
X86297594Y-86716036D01*
X86295742Y-86562246D01*
X86292289Y-86451116D01*
X86286742Y-86375726D01*
X86278605Y-86329156D01*
X86267382Y-86304484D01*
X86252579Y-86294791D01*
X86235061Y-86293154D01*
X86216312Y-86295128D01*
X86201676Y-86305704D01*
X86190644Y-86331864D01*
X86182708Y-86380593D01*
X86177357Y-86458872D01*
X86174084Y-86573685D01*
X86172380Y-86732015D01*
X86171736Y-86940844D01*
X86171641Y-87163391D01*
X86171526Y-87420714D01*
X86170803Y-87622007D01*
X86168905Y-87774660D01*
X86165268Y-87886063D01*
X86159323Y-87963608D01*
X86150505Y-88014684D01*
X86138247Y-88046681D01*
X86121983Y-88066992D01*
X86101164Y-88082992D01*
X86010232Y-88117185D01*
X85867195Y-88131892D01*
X85831626Y-88132355D01*
X85722767Y-88134266D01*
X85662898Y-88143273D01*
X85637630Y-88164289D01*
X85632565Y-88200307D01*
X85378882Y-88200307D01*
X85378882Y-87942093D01*
X85567346Y-87942093D01*
X85645847Y-87941785D01*
X85708566Y-87936596D01*
X85757272Y-87920131D01*
X85793736Y-87885995D01*
X85819726Y-87827793D01*
X85837014Y-87739130D01*
X85847370Y-87613610D01*
X85852563Y-87444838D01*
X85854363Y-87226419D01*
X85854541Y-86951958D01*
X85854537Y-86904451D01*
X85854537Y-86007761D01*
X86650430Y-86007761D01*
X86640936Y-87077986D01*
G36*
X88391366Y-86641968D02*
X87725448Y-86641968D01*
X87725448Y-86959072D01*
X88391366Y-86959072D01*
X88391366Y-87561569D01*
X87725448Y-87561569D01*
X87725448Y-87878673D01*
X88423076Y-87878673D01*
X88423076Y-88512880D01*
X86932689Y-88512880D01*
X86932689Y-86293154D01*
X87281503Y-86293154D01*
X87281503Y-88259197D01*
X87725448Y-88259197D01*
X87901124Y-88258726D01*
X88023128Y-88256387D01*
X88101205Y-88250786D01*
X88145102Y-88240531D01*
X88164565Y-88224230D01*
X88169341Y-88200490D01*
X88169393Y-88195776D01*
X88165660Y-88169005D01*
X88147453Y-88151051D01*
X88104264Y-88140163D01*
X88025581Y-88134591D01*
X87900896Y-88132581D01*
X87788869Y-88132355D01*
X87408345Y-88132355D01*
X87408345Y-87339596D01*
X87773014Y-87339596D01*
X87929698Y-87338924D01*
X88033695Y-87335662D01*
X88095734Y-87327945D01*
X88126546Y-87313907D01*
X88136859Y-87291681D01*
X88137683Y-87276176D01*
X88133816Y-87248926D01*
X88115060Y-87230840D01*
X88070687Y-87220050D01*
X87989966Y-87214692D01*
X87862169Y-87212898D01*
X87773014Y-87212755D01*
X87408345Y-87212755D01*
X87408345Y-86419996D01*
X87788869Y-86419996D01*
X87949499Y-86419374D01*
X88057222Y-86416339D01*
X88122546Y-86409141D01*
X88155983Y-86396027D01*
X88168041Y-86375246D01*
X88169393Y-86356575D01*
X88166100Y-86331479D01*
X88149723Y-86314050D01*
X88110515Y-86302896D01*
X88038730Y-86296625D01*
X87924623Y-86293844D01*
X87758446Y-86293162D01*
X87725448Y-86293154D01*
X87281503Y-86293154D01*
X86932689Y-86293154D01*
X86932689Y-86007761D01*
X88391366Y-86007761D01*
X88391366Y-86641968D01*
X88391366Y-86641968D01*
G37*
X88391366Y-86641968D02*
X87725448Y-86641968D01*
X87725448Y-86959072D01*
X88391366Y-86959072D01*
X88391366Y-87561569D01*
X87725448Y-87561569D01*
X87725448Y-87878673D01*
X88423076Y-87878673D01*
X88423076Y-88512880D01*
X86932689Y-88512880D01*
X86932689Y-86293154D01*
X87281503Y-86293154D01*
X87281503Y-88259197D01*
X87725448Y-88259197D01*
X87901124Y-88258726D01*
X88023128Y-88256387D01*
X88101205Y-88250786D01*
X88145102Y-88240531D01*
X88164565Y-88224230D01*
X88169341Y-88200490D01*
X88169393Y-88195776D01*
X88165660Y-88169005D01*
X88147453Y-88151051D01*
X88104264Y-88140163D01*
X88025581Y-88134591D01*
X87900896Y-88132581D01*
X87788869Y-88132355D01*
X87408345Y-88132355D01*
X87408345Y-87339596D01*
X87773014Y-87339596D01*
X87929698Y-87338924D01*
X88033695Y-87335662D01*
X88095734Y-87327945D01*
X88126546Y-87313907D01*
X88136859Y-87291681D01*
X88137683Y-87276176D01*
X88133816Y-87248926D01*
X88115060Y-87230840D01*
X88070687Y-87220050D01*
X87989966Y-87214692D01*
X87862169Y-87212898D01*
X87773014Y-87212755D01*
X87408345Y-87212755D01*
X87408345Y-86419996D01*
X87788869Y-86419996D01*
X87949499Y-86419374D01*
X88057222Y-86416339D01*
X88122546Y-86409141D01*
X88155983Y-86396027D01*
X88168041Y-86375246D01*
X88169393Y-86356575D01*
X88166100Y-86331479D01*
X88149723Y-86314050D01*
X88110515Y-86302896D01*
X88038730Y-86296625D01*
X87924623Y-86293844D01*
X87758446Y-86293162D01*
X87725448Y-86293154D01*
X87281503Y-86293154D01*
X86932689Y-86293154D01*
X86932689Y-86007761D01*
X88391366Y-86007761D01*
X88391366Y-86641968D01*
G36*
X92608844Y-86641968D02*
X92164899Y-86641968D01*
X92164899Y-88512880D01*
X91340430Y-88512880D01*
X91340430Y-86641968D01*
X90896485Y-86641968D01*
X90896485Y-86356575D01*
X91150168Y-86356575D01*
X91155183Y-86387412D01*
X91178498Y-86406248D01*
X91232513Y-86416001D01*
X91329629Y-86419588D01*
X91419706Y-86419996D01*
X91689244Y-86419996D01*
X91689244Y-87339596D01*
X91689374Y-87604875D01*
X91690079Y-87813526D01*
X91691826Y-87972343D01*
X91695084Y-88088121D01*
X91700322Y-88167653D01*
X91708008Y-88217731D01*
X91718610Y-88245151D01*
X91732597Y-88256704D01*
X91750438Y-88259186D01*
X91752664Y-88259197D01*
X91770959Y-88257301D01*
X91785349Y-88247082D01*
X91796302Y-88221749D01*
X91804287Y-88174506D01*
X91809772Y-88098562D01*
X91813225Y-87987121D01*
X91815116Y-87833390D01*
X91815913Y-87630576D01*
X91816084Y-87371886D01*
X91816085Y-87339596D01*
X91816085Y-86419996D01*
X92085623Y-86419996D01*
X92216681Y-86418816D01*
X92296733Y-86413330D01*
X92338182Y-86400620D01*
X92353428Y-86377770D01*
X92355161Y-86356575D01*
X92352568Y-86334549D01*
X92339198Y-86318315D01*
X92306670Y-86306993D01*
X92246600Y-86299700D01*
X92150607Y-86295553D01*
X92010307Y-86293669D01*
X91817318Y-86293168D01*
X91752664Y-86293154D01*
X91543412Y-86293428D01*
X91389197Y-86294835D01*
X91281637Y-86298259D01*
X91212349Y-86304582D01*
X91172951Y-86314687D01*
X91155059Y-86329455D01*
X91150292Y-86349770D01*
X91150168Y-86356575D01*
X90896485Y-86356575D01*
X90896485Y-86007761D01*
X92608844Y-86007761D01*
X92608844Y-86641968D01*
X92608844Y-86641968D01*
G37*
X92608844Y-86641968D02*
X92164899Y-86641968D01*
X92164899Y-88512880D01*
X91340430Y-88512880D01*
X91340430Y-86641968D01*
X90896485Y-86641968D01*
X90896485Y-86356575D01*
X91150168Y-86356575D01*
X91155183Y-86387412D01*
X91178498Y-86406248D01*
X91232513Y-86416001D01*
X91329629Y-86419588D01*
X91419706Y-86419996D01*
X91689244Y-86419996D01*
X91689244Y-87339596D01*
X91689374Y-87604875D01*
X91690079Y-87813526D01*
X91691826Y-87972343D01*
X91695084Y-88088121D01*
X91700322Y-88167653D01*
X91708008Y-88217731D01*
X91718610Y-88245151D01*
X91732597Y-88256704D01*
X91750438Y-88259186D01*
X91752664Y-88259197D01*
X91770959Y-88257301D01*
X91785349Y-88247082D01*
X91796302Y-88221749D01*
X91804287Y-88174506D01*
X91809772Y-88098562D01*
X91813225Y-87987121D01*
X91815116Y-87833390D01*
X91815913Y-87630576D01*
X91816084Y-87371886D01*
X91816085Y-87339596D01*
X91816085Y-86419996D01*
X92085623Y-86419996D01*
X92216681Y-86418816D01*
X92296733Y-86413330D01*
X92338182Y-86400620D01*
X92353428Y-86377770D01*
X92355161Y-86356575D01*
X92352568Y-86334549D01*
X92339198Y-86318315D01*
X92306670Y-86306993D01*
X92246600Y-86299700D01*
X92150607Y-86295553D01*
X92010307Y-86293669D01*
X91817318Y-86293168D01*
X91752664Y-86293154D01*
X91543412Y-86293428D01*
X91389197Y-86294835D01*
X91281637Y-86298259D01*
X91212349Y-86304582D01*
X91172951Y-86314687D01*
X91155059Y-86329455D01*
X91150292Y-86349770D01*
X91150168Y-86356575D01*
X90896485Y-86356575D01*
X90896485Y-86007761D01*
X92608844Y-86007761D01*
X92608844Y-86641968D01*
G36*
X89474194Y-92188964D02*
X89677404Y-92209956D01*
X89806256Y-92237909D01*
X90104895Y-92355265D01*
X90373961Y-92523608D01*
X90608022Y-92735749D01*
X90801645Y-92984500D01*
X90949396Y-93262670D01*
X91045845Y-93563072D01*
X91085556Y-93878514D01*
X91086278Y-93931752D01*
X91054731Y-94241378D01*
X90965504Y-94539686D01*
X90824244Y-94818743D01*
X90636603Y-95070617D01*
X90408230Y-95287373D01*
X90144773Y-95461078D01*
X89928078Y-95558143D01*
X89761181Y-95601656D01*
X89556126Y-95629445D01*
X89335979Y-95640585D01*
X89123804Y-95634151D01*
X88942665Y-95609220D01*
X88902294Y-95599259D01*
X88620884Y-95490033D01*
X88357047Y-95328542D01*
X88120000Y-95124009D01*
X87918960Y-94885657D01*
X87763141Y-94622707D01*
X87666474Y-94362603D01*
X87612953Y-94045071D01*
X87615636Y-93915330D01*
X88280539Y-93915330D01*
X88280540Y-93919497D01*
X88292188Y-94134212D01*
X88331827Y-94308826D01*
X88406907Y-94463238D01*
X88524878Y-94617351D01*
X88553747Y-94649316D01*
X88749409Y-94816925D01*
X88973617Y-94931279D01*
X89217309Y-94990189D01*
X89471422Y-94991468D01*
X89726893Y-94932925D01*
X89727390Y-94932750D01*
X89945444Y-94823439D01*
X90135296Y-94664084D01*
X90286287Y-94465589D01*
X90378807Y-94266439D01*
X90411284Y-94110742D01*
X90419742Y-93923985D01*
X90405574Y-93730887D01*
X90370177Y-93556169D01*
X90333151Y-93457300D01*
X90193846Y-93235619D01*
X90014660Y-93061449D01*
X89825596Y-92945735D01*
X89711127Y-92892787D01*
X89617356Y-92861584D01*
X89518731Y-92846659D01*
X89389700Y-92842549D01*
X89343344Y-92842597D01*
X89194209Y-92846750D01*
X89083557Y-92860805D01*
X88986650Y-92889614D01*
X88893514Y-92930822D01*
X88677925Y-93067445D01*
X88496972Y-93247275D01*
X88363841Y-93457174D01*
X88362647Y-93459696D01*
X88320628Y-93559293D01*
X88295650Y-93653239D01*
X88283644Y-93764321D01*
X88280539Y-93915330D01*
X87615636Y-93915330D01*
X87619412Y-93732793D01*
X87682418Y-93431723D01*
X87798534Y-93147813D01*
X87964325Y-92887020D01*
X88176355Y-92655295D01*
X88431189Y-92458593D01*
X88725392Y-92302868D01*
X88890858Y-92240695D01*
X89056860Y-92204407D01*
X89259326Y-92187139D01*
X89474194Y-92188964D01*
X89474194Y-92188964D01*
G37*
X89474194Y-92188964D02*
X89677404Y-92209956D01*
X89806256Y-92237909D01*
X90104895Y-92355265D01*
X90373961Y-92523608D01*
X90608022Y-92735749D01*
X90801645Y-92984500D01*
X90949396Y-93262670D01*
X91045845Y-93563072D01*
X91085556Y-93878514D01*
X91086278Y-93931752D01*
X91054731Y-94241378D01*
X90965504Y-94539686D01*
X90824244Y-94818743D01*
X90636603Y-95070617D01*
X90408230Y-95287373D01*
X90144773Y-95461078D01*
X89928078Y-95558143D01*
X89761181Y-95601656D01*
X89556126Y-95629445D01*
X89335979Y-95640585D01*
X89123804Y-95634151D01*
X88942665Y-95609220D01*
X88902294Y-95599259D01*
X88620884Y-95490033D01*
X88357047Y-95328542D01*
X88120000Y-95124009D01*
X87918960Y-94885657D01*
X87763141Y-94622707D01*
X87666474Y-94362603D01*
X87612953Y-94045071D01*
X87615636Y-93915330D01*
X88280539Y-93915330D01*
X88280540Y-93919497D01*
X88292188Y-94134212D01*
X88331827Y-94308826D01*
X88406907Y-94463238D01*
X88524878Y-94617351D01*
X88553747Y-94649316D01*
X88749409Y-94816925D01*
X88973617Y-94931279D01*
X89217309Y-94990189D01*
X89471422Y-94991468D01*
X89726893Y-94932925D01*
X89727390Y-94932750D01*
X89945444Y-94823439D01*
X90135296Y-94664084D01*
X90286287Y-94465589D01*
X90378807Y-94266439D01*
X90411284Y-94110742D01*
X90419742Y-93923985D01*
X90405574Y-93730887D01*
X90370177Y-93556169D01*
X90333151Y-93457300D01*
X90193846Y-93235619D01*
X90014660Y-93061449D01*
X89825596Y-92945735D01*
X89711127Y-92892787D01*
X89617356Y-92861584D01*
X89518731Y-92846659D01*
X89389700Y-92842549D01*
X89343344Y-92842597D01*
X89194209Y-92846750D01*
X89083557Y-92860805D01*
X88986650Y-92889614D01*
X88893514Y-92930822D01*
X88677925Y-93067445D01*
X88496972Y-93247275D01*
X88363841Y-93457174D01*
X88362647Y-93459696D01*
X88320628Y-93559293D01*
X88295650Y-93653239D01*
X88283644Y-93764321D01*
X88280539Y-93915330D01*
X87615636Y-93915330D01*
X87619412Y-93732793D01*
X87682418Y-93431723D01*
X87798534Y-93147813D01*
X87964325Y-92887020D01*
X88176355Y-92655295D01*
X88431189Y-92458593D01*
X88725392Y-92302868D01*
X88890858Y-92240695D01*
X89056860Y-92204407D01*
X89259326Y-92187139D01*
X89474194Y-92188964D01*
G36*
X84237004Y-86477280D02*
X84427110Y-86577634D01*
X84593022Y-86724950D01*
X84722844Y-86911507D01*
X84772872Y-87055997D01*
X84794006Y-87232000D01*
X84786291Y-87414594D01*
X84749772Y-87578859D01*
X84721482Y-87644911D01*
X84617175Y-87792504D01*
X84474555Y-87928311D01*
X84314670Y-88034732D01*
X84195211Y-88084937D01*
X84030012Y-88122162D01*
X83882139Y-88124070D01*
X83719707Y-88090376D01*
X83686031Y-88080376D01*
X83530468Y-88005140D01*
X83379771Y-87884183D01*
X83250386Y-87734136D01*
X83158763Y-87571631D01*
X83144157Y-87532435D01*
X83102700Y-87313571D01*
X83106036Y-87273042D01*
X83428694Y-87273042D01*
X83432547Y-87398145D01*
X83448241Y-87483851D01*
X83481980Y-87553932D01*
X83513666Y-87598634D01*
X83645556Y-87722920D01*
X83805112Y-87795615D01*
X83979375Y-87813831D01*
X84155387Y-87774679D01*
X84204191Y-87752549D01*
X84343921Y-87654186D01*
X84434040Y-87523413D01*
X84479294Y-87352466D01*
X84484758Y-87293380D01*
X84487333Y-87173476D01*
X84473320Y-87089581D01*
X84437193Y-87015258D01*
X84421667Y-86991537D01*
X84298937Y-86851555D01*
X84155566Y-86768709D01*
X83981638Y-86737629D01*
X83951915Y-86737100D01*
X83815396Y-86746846D01*
X83712949Y-86780572D01*
X83666200Y-86808448D01*
X83544263Y-86907046D01*
X83470675Y-87012307D01*
X83435616Y-87143444D01*
X83428694Y-87273042D01*
X83106036Y-87273042D01*
X83120376Y-87098859D01*
X83193077Y-86897269D01*
X83316700Y-86717776D01*
X83487138Y-86569350D01*
X83618957Y-86494775D01*
X83823185Y-86432172D01*
X84032448Y-86427567D01*
X84237004Y-86477280D01*
X84237004Y-86477280D01*
G37*
X84237004Y-86477280D02*
X84427110Y-86577634D01*
X84593022Y-86724950D01*
X84722844Y-86911507D01*
X84772872Y-87055997D01*
X84794006Y-87232000D01*
X84786291Y-87414594D01*
X84749772Y-87578859D01*
X84721482Y-87644911D01*
X84617175Y-87792504D01*
X84474555Y-87928311D01*
X84314670Y-88034732D01*
X84195211Y-88084937D01*
X84030012Y-88122162D01*
X83882139Y-88124070D01*
X83719707Y-88090376D01*
X83686031Y-88080376D01*
X83530468Y-88005140D01*
X83379771Y-87884183D01*
X83250386Y-87734136D01*
X83158763Y-87571631D01*
X83144157Y-87532435D01*
X83102700Y-87313571D01*
X83106036Y-87273042D01*
X83428694Y-87273042D01*
X83432547Y-87398145D01*
X83448241Y-87483851D01*
X83481980Y-87553932D01*
X83513666Y-87598634D01*
X83645556Y-87722920D01*
X83805112Y-87795615D01*
X83979375Y-87813831D01*
X84155387Y-87774679D01*
X84204191Y-87752549D01*
X84343921Y-87654186D01*
X84434040Y-87523413D01*
X84479294Y-87352466D01*
X84484758Y-87293380D01*
X84487333Y-87173476D01*
X84473320Y-87089581D01*
X84437193Y-87015258D01*
X84421667Y-86991537D01*
X84298937Y-86851555D01*
X84155566Y-86768709D01*
X83981638Y-86737629D01*
X83951915Y-86737100D01*
X83815396Y-86746846D01*
X83712949Y-86780572D01*
X83666200Y-86808448D01*
X83544263Y-86907046D01*
X83470675Y-87012307D01*
X83435616Y-87143444D01*
X83428694Y-87273042D01*
X83106036Y-87273042D01*
X83120376Y-87098859D01*
X83193077Y-86897269D01*
X83316700Y-86717776D01*
X83487138Y-86569350D01*
X83618957Y-86494775D01*
X83823185Y-86432172D01*
X84032448Y-86427567D01*
X84237004Y-86477280D01*
G36*
X79044737Y-86420173D02*
X79251395Y-86430145D01*
X79411574Y-86462676D01*
X79539580Y-86522231D01*
X79643575Y-86607066D01*
X79744986Y-86749911D01*
X79789975Y-86913097D01*
X79777945Y-87086872D01*
X79708302Y-87261487D01*
X79685787Y-87298137D01*
X79584360Y-87396346D01*
X79427632Y-87467822D01*
X79218271Y-87511553D01*
X79092866Y-87522803D01*
X78814837Y-87538655D01*
X78814837Y-86673679D01*
X79100230Y-86673679D01*
X79100230Y-87283234D01*
X79219144Y-87261622D01*
X79316315Y-87230582D01*
X79395359Y-87183550D01*
X79401478Y-87177937D01*
X79448565Y-87101387D01*
X79464769Y-86985926D01*
X79464899Y-86971301D01*
X79456852Y-86869011D01*
X79424895Y-86799834D01*
X79375927Y-86750209D01*
X79285404Y-86695538D01*
X79193593Y-86673679D01*
X79100230Y-86673679D01*
X78814837Y-86673679D01*
X78814837Y-86419996D01*
X79044737Y-86420173D01*
X79044737Y-86420173D01*
G37*
X79044737Y-86420173D02*
X79251395Y-86430145D01*
X79411574Y-86462676D01*
X79539580Y-86522231D01*
X79643575Y-86607066D01*
X79744986Y-86749911D01*
X79789975Y-86913097D01*
X79777945Y-87086872D01*
X79708302Y-87261487D01*
X79685787Y-87298137D01*
X79584360Y-87396346D01*
X79427632Y-87467822D01*
X79218271Y-87511553D01*
X79092866Y-87522803D01*
X78814837Y-87538655D01*
X78814837Y-86673679D01*
X79100230Y-86673679D01*
X79100230Y-87283234D01*
X79219144Y-87261622D01*
X79316315Y-87230582D01*
X79395359Y-87183550D01*
X79401478Y-87177937D01*
X79448565Y-87101387D01*
X79464769Y-86985926D01*
X79464899Y-86971301D01*
X79456852Y-86869011D01*
X79424895Y-86799834D01*
X79375927Y-86750209D01*
X79285404Y-86695538D01*
X79193593Y-86673679D01*
X79100230Y-86673679D01*
X78814837Y-86673679D01*
X78814837Y-86419996D01*
X79044737Y-86420173D01*
G36*
X81264462Y-86426199D02*
X81435379Y-86438892D01*
X81561774Y-86460696D01*
X81662309Y-86495279D01*
X81693796Y-86510536D01*
X81833707Y-86614994D01*
X81929042Y-86752227D01*
X81977160Y-86909127D01*
X81975422Y-87072583D01*
X81921186Y-87229484D01*
X81857064Y-87321138D01*
X81743665Y-87419765D01*
X81597600Y-87489327D01*
X81408671Y-87533616D01*
X81235216Y-87552353D01*
X80971141Y-87570989D01*
X80971141Y-87284281D01*
X81256535Y-87284281D01*
X81384761Y-87263777D01*
X81483795Y-87240881D01*
X81564744Y-87210507D01*
X81576017Y-87204231D01*
X81637151Y-87133180D01*
X81672594Y-87023456D01*
X81675587Y-86896916D01*
X81674211Y-86886641D01*
X81631735Y-86796874D01*
X81543892Y-86724249D01*
X81428534Y-86680842D01*
X81359593Y-86673797D01*
X81256535Y-86673679D01*
X81256535Y-87284281D01*
X80971141Y-87284281D01*
X80971141Y-86412431D01*
X81264462Y-86426199D01*
X81264462Y-86426199D01*
G37*
X81264462Y-86426199D02*
X81435379Y-86438892D01*
X81561774Y-86460696D01*
X81662309Y-86495279D01*
X81693796Y-86510536D01*
X81833707Y-86614994D01*
X81929042Y-86752227D01*
X81977160Y-86909127D01*
X81975422Y-87072583D01*
X81921186Y-87229484D01*
X81857064Y-87321138D01*
X81743665Y-87419765D01*
X81597600Y-87489327D01*
X81408671Y-87533616D01*
X81235216Y-87552353D01*
X80971141Y-87570989D01*
X80971141Y-87284281D01*
X81256535Y-87284281D01*
X81384761Y-87263777D01*
X81483795Y-87240881D01*
X81564744Y-87210507D01*
X81576017Y-87204231D01*
X81637151Y-87133180D01*
X81672594Y-87023456D01*
X81675587Y-86896916D01*
X81674211Y-86886641D01*
X81631735Y-86796874D01*
X81543892Y-86724249D01*
X81428534Y-86680842D01*
X81359593Y-86673797D01*
X81256535Y-86673679D01*
X81256535Y-87284281D01*
X80971141Y-87284281D01*
X80971141Y-86412431D01*
X81264462Y-86426199D01*
G36*
X117522445Y-207518660D02*
X117609804Y-207530150D01*
X117652219Y-207547417D01*
X117652509Y-207547862D01*
X117667679Y-207592875D01*
X117690553Y-207684875D01*
X117717410Y-207808227D01*
X117733057Y-207886473D01*
X117758965Y-208016366D01*
X117780989Y-208119648D01*
X117796113Y-208182550D01*
X117800667Y-208195211D01*
X117851264Y-208219483D01*
X117937996Y-208255549D01*
X118041776Y-208296126D01*
X118143515Y-208333927D01*
X118224127Y-208361669D01*
X118264123Y-208372078D01*
X118306343Y-208354679D01*
X118386707Y-208307952D01*
X118491851Y-208239981D01*
X118561506Y-208192201D01*
X118818080Y-208012415D01*
X119264164Y-208458499D01*
X119080880Y-208733913D01*
X118897595Y-209009327D01*
X119006696Y-209253258D01*
X119115796Y-209497188D01*
X119409220Y-209553156D01*
X119540819Y-209579651D01*
X119649414Y-209604104D01*
X119719224Y-209622836D01*
X119734846Y-209629025D01*
X119749277Y-209667928D01*
X119760327Y-209755187D01*
X119766381Y-209875522D01*
X119767048Y-209934197D01*
X119766445Y-210066693D01*
X119757889Y-210157988D01*
X119731252Y-210218190D01*
X119676410Y-210257408D01*
X119583238Y-210285750D01*
X119441611Y-210313323D01*
X119375310Y-210325281D01*
X119257920Y-210347693D01*
X119167951Y-210367039D01*
X119121046Y-210379890D01*
X119117848Y-210381728D01*
X119094403Y-210427995D01*
X119059126Y-210514946D01*
X119019010Y-210623011D01*
X118981051Y-210732623D01*
X118952246Y-210824212D01*
X118939587Y-210878211D01*
X118939479Y-210880696D01*
X118957053Y-210931337D01*
X119003985Y-211017661D01*
X119071594Y-211124309D01*
X119103075Y-211170062D01*
X119266671Y-211402266D01*
X118816545Y-211852392D01*
X118578386Y-211687754D01*
X118450307Y-211601701D01*
X118360445Y-211550286D01*
X118296276Y-211529711D01*
X118245273Y-211536177D01*
X118194909Y-211565884D01*
X118189610Y-211569847D01*
X118127561Y-211606856D01*
X118092023Y-211617591D01*
X118068737Y-211589969D01*
X118026413Y-211512739D01*
X117969674Y-211395391D01*
X117903144Y-211247416D01*
X117843673Y-211107828D01*
X117631124Y-210597053D01*
X117704412Y-210535955D01*
X117764307Y-210491912D01*
X117802273Y-210473798D01*
X117838972Y-210445868D01*
X117889205Y-210375928D01*
X117943422Y-210281297D01*
X117992072Y-210179290D01*
X118025607Y-210087226D01*
X118032911Y-210055551D01*
X118036823Y-209856463D01*
X117985069Y-209671713D01*
X117885426Y-209510369D01*
X117745668Y-209381496D01*
X117573570Y-209294163D01*
X117376907Y-209257436D01*
X117348000Y-209256849D01*
X117148533Y-209285806D01*
X116972546Y-209366633D01*
X116827817Y-209490262D01*
X116722118Y-209647626D01*
X116663227Y-209829659D01*
X116658918Y-210027293D01*
X116663089Y-210055551D01*
X116687380Y-210138224D01*
X116730816Y-210238146D01*
X116783849Y-210338002D01*
X116836927Y-210420475D01*
X116880503Y-210468245D01*
X116893728Y-210473798D01*
X116933534Y-210493081D01*
X116991588Y-210535955D01*
X117064876Y-210597053D01*
X116852327Y-211107828D01*
X116781175Y-211274049D01*
X116715969Y-211417536D01*
X116661332Y-211528799D01*
X116621887Y-211598346D01*
X116603977Y-211617591D01*
X116552401Y-211599009D01*
X116506390Y-211569847D01*
X116450815Y-211536212D01*
X116395859Y-211529262D01*
X116327807Y-211552747D01*
X116232940Y-211610417D01*
X116152323Y-211666638D01*
X116050767Y-211737401D01*
X115965913Y-211793442D01*
X115913737Y-211824271D01*
X115909194Y-211826278D01*
X115869577Y-211811928D01*
X115797856Y-211759356D01*
X115705035Y-211677181D01*
X115648492Y-211622004D01*
X115429790Y-211401612D01*
X115593155Y-211169736D01*
X115666644Y-211059279D01*
X115722988Y-210962886D01*
X115753497Y-210895931D01*
X115756521Y-210880696D01*
X115745780Y-210831333D01*
X115718220Y-210742501D01*
X115680836Y-210633770D01*
X115640624Y-210524707D01*
X115604579Y-210434882D01*
X115579696Y-210383864D01*
X115578153Y-210381728D01*
X115544855Y-210371103D01*
X115464468Y-210353099D01*
X115352638Y-210331148D01*
X115320690Y-210325281D01*
X115158691Y-210295446D01*
X115048871Y-210268562D01*
X114981106Y-210234521D01*
X114945271Y-210183213D01*
X114931241Y-210104531D01*
X114928891Y-209988367D01*
X114928953Y-209934197D01*
X114932332Y-209804451D01*
X114941392Y-209700979D01*
X114954518Y-209639111D01*
X114961121Y-209629046D01*
X115004950Y-209614843D01*
X115095710Y-209593299D01*
X115217624Y-209568010D01*
X115287345Y-209554711D01*
X115581400Y-209500258D01*
X115649764Y-209357864D01*
X115718008Y-209212963D01*
X115758079Y-209107895D01*
X115768911Y-209024893D01*
X115749437Y-208946189D01*
X115698590Y-208854018D01*
X115615303Y-208730610D01*
X115611794Y-208725517D01*
X115429481Y-208460854D01*
X115653350Y-208236986D01*
X115877218Y-208013117D01*
X116137703Y-208192552D01*
X116252759Y-208268964D01*
X116351293Y-208329184D01*
X116419833Y-208365249D01*
X116441297Y-208371987D01*
X116484082Y-208360762D01*
X116566034Y-208332112D01*
X116667760Y-208293571D01*
X116769866Y-208252677D01*
X116852958Y-208216964D01*
X116895333Y-208195561D01*
X116904761Y-208163950D01*
X116922931Y-208083566D01*
X116946829Y-207968201D01*
X116962943Y-207886473D01*
X116990407Y-207752259D01*
X117016005Y-207640493D01*
X117036017Y-207566813D01*
X117043491Y-207547862D01*
X117084715Y-207530468D01*
X117171279Y-207518850D01*
X117285127Y-207513010D01*
X117408201Y-207512946D01*
X117522445Y-207518660D01*
X117522445Y-207518660D01*
G37*
X117522445Y-207518660D02*
X117609804Y-207530150D01*
X117652219Y-207547417D01*
X117652509Y-207547862D01*
X117667679Y-207592875D01*
X117690553Y-207684875D01*
X117717410Y-207808227D01*
X117733057Y-207886473D01*
X117758965Y-208016366D01*
X117780989Y-208119648D01*
X117796113Y-208182550D01*
X117800667Y-208195211D01*
X117851264Y-208219483D01*
X117937996Y-208255549D01*
X118041776Y-208296126D01*
X118143515Y-208333927D01*
X118224127Y-208361669D01*
X118264123Y-208372078D01*
X118306343Y-208354679D01*
X118386707Y-208307952D01*
X118491851Y-208239981D01*
X118561506Y-208192201D01*
X118818080Y-208012415D01*
X119264164Y-208458499D01*
X119080880Y-208733913D01*
X118897595Y-209009327D01*
X119006696Y-209253258D01*
X119115796Y-209497188D01*
X119409220Y-209553156D01*
X119540819Y-209579651D01*
X119649414Y-209604104D01*
X119719224Y-209622836D01*
X119734846Y-209629025D01*
X119749277Y-209667928D01*
X119760327Y-209755187D01*
X119766381Y-209875522D01*
X119767048Y-209934197D01*
X119766445Y-210066693D01*
X119757889Y-210157988D01*
X119731252Y-210218190D01*
X119676410Y-210257408D01*
X119583238Y-210285750D01*
X119441611Y-210313323D01*
X119375310Y-210325281D01*
X119257920Y-210347693D01*
X119167951Y-210367039D01*
X119121046Y-210379890D01*
X119117848Y-210381728D01*
X119094403Y-210427995D01*
X119059126Y-210514946D01*
X119019010Y-210623011D01*
X118981051Y-210732623D01*
X118952246Y-210824212D01*
X118939587Y-210878211D01*
X118939479Y-210880696D01*
X118957053Y-210931337D01*
X119003985Y-211017661D01*
X119071594Y-211124309D01*
X119103075Y-211170062D01*
X119266671Y-211402266D01*
X118816545Y-211852392D01*
X118578386Y-211687754D01*
X118450307Y-211601701D01*
X118360445Y-211550286D01*
X118296276Y-211529711D01*
X118245273Y-211536177D01*
X118194909Y-211565884D01*
X118189610Y-211569847D01*
X118127561Y-211606856D01*
X118092023Y-211617591D01*
X118068737Y-211589969D01*
X118026413Y-211512739D01*
X117969674Y-211395391D01*
X117903144Y-211247416D01*
X117843673Y-211107828D01*
X117631124Y-210597053D01*
X117704412Y-210535955D01*
X117764307Y-210491912D01*
X117802273Y-210473798D01*
X117838972Y-210445868D01*
X117889205Y-210375928D01*
X117943422Y-210281297D01*
X117992072Y-210179290D01*
X118025607Y-210087226D01*
X118032911Y-210055551D01*
X118036823Y-209856463D01*
X117985069Y-209671713D01*
X117885426Y-209510369D01*
X117745668Y-209381496D01*
X117573570Y-209294163D01*
X117376907Y-209257436D01*
X117348000Y-209256849D01*
X117148533Y-209285806D01*
X116972546Y-209366633D01*
X116827817Y-209490262D01*
X116722118Y-209647626D01*
X116663227Y-209829659D01*
X116658918Y-210027293D01*
X116663089Y-210055551D01*
X116687380Y-210138224D01*
X116730816Y-210238146D01*
X116783849Y-210338002D01*
X116836927Y-210420475D01*
X116880503Y-210468245D01*
X116893728Y-210473798D01*
X116933534Y-210493081D01*
X116991588Y-210535955D01*
X117064876Y-210597053D01*
X116852327Y-211107828D01*
X116781175Y-211274049D01*
X116715969Y-211417536D01*
X116661332Y-211528799D01*
X116621887Y-211598346D01*
X116603977Y-211617591D01*
X116552401Y-211599009D01*
X116506390Y-211569847D01*
X116450815Y-211536212D01*
X116395859Y-211529262D01*
X116327807Y-211552747D01*
X116232940Y-211610417D01*
X116152323Y-211666638D01*
X116050767Y-211737401D01*
X115965913Y-211793442D01*
X115913737Y-211824271D01*
X115909194Y-211826278D01*
X115869577Y-211811928D01*
X115797856Y-211759356D01*
X115705035Y-211677181D01*
X115648492Y-211622004D01*
X115429790Y-211401612D01*
X115593155Y-211169736D01*
X115666644Y-211059279D01*
X115722988Y-210962886D01*
X115753497Y-210895931D01*
X115756521Y-210880696D01*
X115745780Y-210831333D01*
X115718220Y-210742501D01*
X115680836Y-210633770D01*
X115640624Y-210524707D01*
X115604579Y-210434882D01*
X115579696Y-210383864D01*
X115578153Y-210381728D01*
X115544855Y-210371103D01*
X115464468Y-210353099D01*
X115352638Y-210331148D01*
X115320690Y-210325281D01*
X115158691Y-210295446D01*
X115048871Y-210268562D01*
X114981106Y-210234521D01*
X114945271Y-210183213D01*
X114931241Y-210104531D01*
X114928891Y-209988367D01*
X114928953Y-209934197D01*
X114932332Y-209804451D01*
X114941392Y-209700979D01*
X114954518Y-209639111D01*
X114961121Y-209629046D01*
X115004950Y-209614843D01*
X115095710Y-209593299D01*
X115217624Y-209568010D01*
X115287345Y-209554711D01*
X115581400Y-209500258D01*
X115649764Y-209357864D01*
X115718008Y-209212963D01*
X115758079Y-209107895D01*
X115768911Y-209024893D01*
X115749437Y-208946189D01*
X115698590Y-208854018D01*
X115615303Y-208730610D01*
X115611794Y-208725517D01*
X115429481Y-208460854D01*
X115653350Y-208236986D01*
X115877218Y-208013117D01*
X116137703Y-208192552D01*
X116252759Y-208268964D01*
X116351293Y-208329184D01*
X116419833Y-208365249D01*
X116441297Y-208371987D01*
X116484082Y-208360762D01*
X116566034Y-208332112D01*
X116667760Y-208293571D01*
X116769866Y-208252677D01*
X116852958Y-208216964D01*
X116895333Y-208195561D01*
X116904761Y-208163950D01*
X116922931Y-208083566D01*
X116946829Y-207968201D01*
X116962943Y-207886473D01*
X116990407Y-207752259D01*
X117016005Y-207640493D01*
X117036017Y-207566813D01*
X117043491Y-207547862D01*
X117084715Y-207530468D01*
X117171279Y-207518850D01*
X117285127Y-207513010D01*
X117408201Y-207512946D01*
X117522445Y-207518660D01*
D12*
X88747600Y-209753200D03*
D13*
X101727000Y-104394000D03*
D14*
X99187000Y-104394000D03*
X96647000Y-104394000D03*
X94107000Y-104394000D03*
X91567000Y-104394000D03*
X89027000Y-104394000D03*
X86487000Y-104394000D03*
X83947000Y-104394000D03*
X81407000Y-104394000D03*
X78867000Y-104394000D03*
X76327000Y-104394000D03*
X73787000Y-104394000D03*
X71247000Y-104394000D03*
X68707000Y-104394000D03*
X66167000Y-104394000D03*
X66167000Y-127254000D03*
X68707000Y-127254000D03*
X71247000Y-127254000D03*
X73787000Y-127254000D03*
X76327000Y-127254000D03*
X78867000Y-127254000D03*
X81407000Y-127254000D03*
X83947000Y-127254000D03*
X86487000Y-127254000D03*
X89027000Y-127254000D03*
X91567000Y-127254000D03*
X94107000Y-127254000D03*
X96647000Y-127254000D03*
X99187000Y-127254000D03*
X101727000Y-127254000D03*
D15*
X145034000Y-162052000D03*
D16*
X145034000Y-167132000D03*
X145034000Y-172212000D03*
X145034000Y-177292000D03*
X145034000Y-182372000D03*
X145034000Y-187452000D03*
X145034000Y-192532000D03*
X145034000Y-197612000D03*
X145034000Y-202692000D03*
X145034000Y-207772000D03*
D17*
X140716000Y-214376000D03*
X65278000Y-214376000D03*
X141478000Y-75946000D03*
D15*
X61214000Y-173355000D03*
D16*
X61214000Y-178435000D03*
X126873000Y-203765212D03*
X106553000Y-203765212D03*
X106553000Y-158045212D03*
X126873000Y-158045212D03*
X99060000Y-203765212D03*
X78740000Y-203765212D03*
X78740000Y-158045212D03*
X99060000Y-158045212D03*
D15*
X125730000Y-176276000D03*
D16*
X123190000Y-176276000D03*
X120650000Y-176276000D03*
X118110000Y-176276000D03*
X115570000Y-176276000D03*
X113030000Y-176276000D03*
X110490000Y-176276000D03*
X107950000Y-176276000D03*
X107950000Y-183896000D03*
X110490000Y-183896000D03*
X113030000Y-183896000D03*
X115570000Y-183896000D03*
X118110000Y-183896000D03*
X120650000Y-183896000D03*
X123190000Y-183896000D03*
X125730000Y-183896000D03*
D15*
X74625200Y-218313000D03*
D16*
X79705200Y-218313000D03*
D15*
X118110000Y-71882000D03*
D16*
X123190000Y-71882000D03*
D15*
X88011000Y-71882000D03*
D16*
X82931000Y-71882000D03*
D15*
X111506000Y-71882000D03*
D16*
X106426000Y-71882000D03*
D15*
X71374000Y-71882000D03*
D16*
X76454000Y-71882000D03*
D15*
X129794000Y-71882000D03*
D16*
X134874000Y-71882000D03*
D18*
X128549400Y-196037200D03*
X128549400Y-194137200D03*
X100939600Y-196316600D03*
X100939600Y-194416600D03*
X129032000Y-183896000D03*
X129032000Y-181996000D03*
X100863400Y-183946800D03*
X100863400Y-182046800D03*
D15*
X125628400Y-188417200D03*
D16*
X123088400Y-188417200D03*
X120548400Y-188417200D03*
X118008400Y-188417200D03*
X115468400Y-188417200D03*
X112928400Y-188417200D03*
X110388400Y-188417200D03*
X107848400Y-188417200D03*
X107848400Y-196037200D03*
X110388400Y-196037200D03*
X112928400Y-196037200D03*
X115468400Y-196037200D03*
X118008400Y-196037200D03*
X120548400Y-196037200D03*
X123088400Y-196037200D03*
X125628400Y-196037200D03*
D15*
X97815400Y-176326800D03*
D16*
X95275400Y-176326800D03*
X92735400Y-176326800D03*
X90195400Y-176326800D03*
X87655400Y-176326800D03*
X85115400Y-176326800D03*
X82575400Y-176326800D03*
X80035400Y-176326800D03*
X80035400Y-183946800D03*
X82575400Y-183946800D03*
X85115400Y-183946800D03*
X87655400Y-183946800D03*
X90195400Y-183946800D03*
X92735400Y-183946800D03*
X95275400Y-183946800D03*
X97815400Y-183946800D03*
D15*
X97764600Y-188696600D03*
D16*
X95224600Y-188696600D03*
X92684600Y-188696600D03*
X90144600Y-188696600D03*
X87604600Y-188696600D03*
X85064600Y-188696600D03*
X82524600Y-188696600D03*
X79984600Y-188696600D03*
X79984600Y-196316600D03*
X82524600Y-196316600D03*
X85064600Y-196316600D03*
X87604600Y-196316600D03*
X90144600Y-196316600D03*
X92684600Y-196316600D03*
X95224600Y-196316600D03*
X97764600Y-196316600D03*
D15*
X133350000Y-218313000D03*
D16*
X128270000Y-218313000D03*
D13*
X68643500Y-201993500D03*
D19*
X66103500Y-201993500D03*
X68643500Y-199453500D03*
X66103500Y-199453500D03*
X68643500Y-196913500D03*
X66103500Y-196913500D03*
X68643500Y-194373500D03*
X66103500Y-194373500D03*
X68643500Y-191833500D03*
X66103500Y-191833500D03*
D10*
G36*
X88991180Y-138943350D02*
X88460850Y-139473680D01*
X87612322Y-138625152D01*
X88142652Y-138094822D01*
X88991180Y-138943350D01*
X88991180Y-138943350D01*
G37*
G36*
X87647678Y-137599848D02*
X87117348Y-138130178D01*
X86268820Y-137281650D01*
X86799150Y-136751320D01*
X87647678Y-137599848D01*
X87647678Y-137599848D01*
G37*
D13*
X120015000Y-104394000D03*
D19*
X122555000Y-104394000D03*
X125095000Y-104394000D03*
X127635000Y-104394000D03*
D10*
G36*
X86606150Y-140820309D02*
X86965360Y-141179519D01*
X86067334Y-142077545D01*
X85708124Y-141718335D01*
X86606150Y-140820309D01*
X86606150Y-140820309D01*
G37*
G36*
X86040464Y-140254624D02*
X86399674Y-140613834D01*
X85501648Y-141511860D01*
X85142438Y-141152650D01*
X86040464Y-140254624D01*
X86040464Y-140254624D01*
G37*
G36*
X85474779Y-139688939D02*
X85833989Y-140048149D01*
X84935963Y-140946175D01*
X84576753Y-140586965D01*
X85474779Y-139688939D01*
X85474779Y-139688939D01*
G37*
G36*
X84909093Y-139123253D02*
X85268303Y-139482463D01*
X84370277Y-140380489D01*
X84011067Y-140021279D01*
X84909093Y-139123253D01*
X84909093Y-139123253D01*
G37*
G36*
X84343408Y-138557568D02*
X84702618Y-138916778D01*
X83804592Y-139814804D01*
X83445382Y-139455594D01*
X84343408Y-138557568D01*
X84343408Y-138557568D01*
G37*
G36*
X83777722Y-137991882D02*
X84136932Y-138351092D01*
X83238906Y-139249118D01*
X82879696Y-138889908D01*
X83777722Y-137991882D01*
X83777722Y-137991882D01*
G37*
G36*
X83212037Y-137426197D02*
X83571247Y-137785407D01*
X82673221Y-138683433D01*
X82314011Y-138324223D01*
X83212037Y-137426197D01*
X83212037Y-137426197D01*
G37*
G36*
X82646352Y-136860511D02*
X83005562Y-137219721D01*
X82107536Y-138117747D01*
X81748326Y-137758537D01*
X82646352Y-136860511D01*
X82646352Y-136860511D01*
G37*
G36*
X79996680Y-136860511D02*
X80894706Y-137758537D01*
X80535496Y-138117747D01*
X79637470Y-137219721D01*
X79996680Y-136860511D01*
X79996680Y-136860511D01*
G37*
G36*
X79430995Y-137426197D02*
X80329021Y-138324223D01*
X79969811Y-138683433D01*
X79071785Y-137785407D01*
X79430995Y-137426197D01*
X79430995Y-137426197D01*
G37*
G36*
X78865310Y-137991882D02*
X79763336Y-138889908D01*
X79404126Y-139249118D01*
X78506100Y-138351092D01*
X78865310Y-137991882D01*
X78865310Y-137991882D01*
G37*
G36*
X78299624Y-138557568D02*
X79197650Y-139455594D01*
X78838440Y-139814804D01*
X77940414Y-138916778D01*
X78299624Y-138557568D01*
X78299624Y-138557568D01*
G37*
G36*
X77733939Y-139123253D02*
X78631965Y-140021279D01*
X78272755Y-140380489D01*
X77374729Y-139482463D01*
X77733939Y-139123253D01*
X77733939Y-139123253D01*
G37*
G36*
X77168253Y-139688939D02*
X78066279Y-140586965D01*
X77707069Y-140946175D01*
X76809043Y-140048149D01*
X77168253Y-139688939D01*
X77168253Y-139688939D01*
G37*
G36*
X76602568Y-140254624D02*
X77500594Y-141152650D01*
X77141384Y-141511860D01*
X76243358Y-140613834D01*
X76602568Y-140254624D01*
X76602568Y-140254624D01*
G37*
G36*
X76036882Y-140820309D02*
X76934908Y-141718335D01*
X76575698Y-142077545D01*
X75677672Y-141179519D01*
X76036882Y-140820309D01*
X76036882Y-140820309D01*
G37*
G36*
X76575698Y-142931165D02*
X76934908Y-143290375D01*
X76036882Y-144188401D01*
X75677672Y-143829191D01*
X76575698Y-142931165D01*
X76575698Y-142931165D01*
G37*
G36*
X77141384Y-143496850D02*
X77500594Y-143856060D01*
X76602568Y-144754086D01*
X76243358Y-144394876D01*
X77141384Y-143496850D01*
X77141384Y-143496850D01*
G37*
G36*
X77707069Y-144062535D02*
X78066279Y-144421745D01*
X77168253Y-145319771D01*
X76809043Y-144960561D01*
X77707069Y-144062535D01*
X77707069Y-144062535D01*
G37*
G36*
X78272755Y-144628221D02*
X78631965Y-144987431D01*
X77733939Y-145885457D01*
X77374729Y-145526247D01*
X78272755Y-144628221D01*
X78272755Y-144628221D01*
G37*
G36*
X78838440Y-145193906D02*
X79197650Y-145553116D01*
X78299624Y-146451142D01*
X77940414Y-146091932D01*
X78838440Y-145193906D01*
X78838440Y-145193906D01*
G37*
G36*
X79404126Y-145759592D02*
X79763336Y-146118802D01*
X78865310Y-147016828D01*
X78506100Y-146657618D01*
X79404126Y-145759592D01*
X79404126Y-145759592D01*
G37*
G36*
X79969811Y-146325277D02*
X80329021Y-146684487D01*
X79430995Y-147582513D01*
X79071785Y-147223303D01*
X79969811Y-146325277D01*
X79969811Y-146325277D01*
G37*
G36*
X80535496Y-146890963D02*
X80894706Y-147250173D01*
X79996680Y-148148199D01*
X79637470Y-147788989D01*
X80535496Y-146890963D01*
X80535496Y-146890963D01*
G37*
G36*
X82107536Y-146890963D02*
X83005562Y-147788989D01*
X82646352Y-148148199D01*
X81748326Y-147250173D01*
X82107536Y-146890963D01*
X82107536Y-146890963D01*
G37*
G36*
X82673221Y-146325277D02*
X83571247Y-147223303D01*
X83212037Y-147582513D01*
X82314011Y-146684487D01*
X82673221Y-146325277D01*
X82673221Y-146325277D01*
G37*
G36*
X83238906Y-145759592D02*
X84136932Y-146657618D01*
X83777722Y-147016828D01*
X82879696Y-146118802D01*
X83238906Y-145759592D01*
X83238906Y-145759592D01*
G37*
G36*
X83804592Y-145193906D02*
X84702618Y-146091932D01*
X84343408Y-146451142D01*
X83445382Y-145553116D01*
X83804592Y-145193906D01*
X83804592Y-145193906D01*
G37*
G36*
X84370277Y-144628221D02*
X85268303Y-145526247D01*
X84909093Y-145885457D01*
X84011067Y-144987431D01*
X84370277Y-144628221D01*
X84370277Y-144628221D01*
G37*
G36*
X84935963Y-144062535D02*
X85833989Y-144960561D01*
X85474779Y-145319771D01*
X84576753Y-144421745D01*
X84935963Y-144062535D01*
X84935963Y-144062535D01*
G37*
G36*
X85501648Y-143496850D02*
X86399674Y-144394876D01*
X86040464Y-144754086D01*
X85142438Y-143856060D01*
X85501648Y-143496850D01*
X85501648Y-143496850D01*
G37*
G36*
X86067334Y-142931165D02*
X86965360Y-143829191D01*
X86606150Y-144188401D01*
X85708124Y-143290375D01*
X86067334Y-142931165D01*
X86067334Y-142931165D01*
G37*
D13*
X130873500Y-140843000D03*
D14*
X128333500Y-140843000D03*
X125793500Y-140843000D03*
X123253500Y-140843000D03*
X120713500Y-140843000D03*
X118173500Y-140843000D03*
X115633500Y-140843000D03*
X113093500Y-140843000D03*
X110553500Y-140843000D03*
X108013500Y-140843000D03*
X108013500Y-153543000D03*
X110553500Y-153543000D03*
X113093500Y-153543000D03*
X115633500Y-153543000D03*
X118173500Y-153543000D03*
X120713500Y-153543000D03*
X123253500Y-153543000D03*
X125793500Y-153543000D03*
X128333500Y-153543000D03*
X130873500Y-153543000D03*
D20*
X81534000Y-152527000D03*
X79334000Y-152527000D03*
X84074000Y-152527000D03*
X86274000Y-152527000D03*
D13*
X137541000Y-114173000D03*
D19*
X140081000Y-114173000D03*
X137541000Y-116713000D03*
X140081000Y-116713000D03*
X137541000Y-119253000D03*
X140081000Y-119253000D03*
X137541000Y-121793000D03*
X140081000Y-121793000D03*
X137541000Y-124333000D03*
X140081000Y-124333000D03*
X137541000Y-126873000D03*
X140081000Y-126873000D03*
X137541000Y-129413000D03*
X140081000Y-129413000D03*
X137541000Y-131953000D03*
X140081000Y-131953000D03*
X137541000Y-134493000D03*
X140081000Y-134493000D03*
X137541000Y-137033000D03*
X140081000Y-137033000D03*
D13*
X122555000Y-119253000D03*
D19*
X125095000Y-119253000D03*
X122555000Y-121793000D03*
X125095000Y-121793000D03*
X122555000Y-124333000D03*
X125095000Y-124333000D03*
X122555000Y-126873000D03*
X125095000Y-126873000D03*
X122555000Y-129413000D03*
X125095000Y-129413000D03*
X122555000Y-131953000D03*
X125095000Y-131953000D03*
X122555000Y-134493000D03*
X125095000Y-134493000D03*
X122555000Y-137033000D03*
X125095000Y-137033000D03*
D15*
X61214000Y-161925000D03*
D16*
X61214000Y-167005000D03*
D20*
X91249500Y-121094500D03*
X89049500Y-121094500D03*
X91249500Y-123190000D03*
X89049500Y-123190000D03*
D17*
X65024000Y-75057000D03*
D14*
X78994000Y-150177500D03*
D13*
X99314000Y-134937500D03*
D14*
X96774000Y-134937500D03*
X94234000Y-134937500D03*
X91694000Y-134937500D03*
X89154000Y-134937500D03*
X86614000Y-134937500D03*
X84074000Y-134937500D03*
X81534000Y-134937500D03*
X78994000Y-134937500D03*
X76454000Y-134937500D03*
X73914000Y-134937500D03*
X71374000Y-134937500D03*
X68834000Y-134937500D03*
X66294000Y-134937500D03*
X63754000Y-134937500D03*
X99314000Y-150177500D03*
X96774000Y-150177500D03*
X94234000Y-150177500D03*
X91694000Y-150177500D03*
X89154000Y-150177500D03*
X86614000Y-150177500D03*
X84074000Y-150177500D03*
X81534000Y-150177500D03*
X76454000Y-150177500D03*
X73914000Y-150177500D03*
X71374000Y-150177500D03*
X68834000Y-150177500D03*
X66294000Y-150177500D03*
X63754000Y-150177500D03*
D16*
X132080000Y-176149000D03*
X132080000Y-173609000D03*
X132080000Y-171069000D03*
X132080000Y-168529000D03*
X132080000Y-165989000D03*
X132080000Y-163449000D03*
X127000000Y-163449000D03*
X124460000Y-163449000D03*
X121920000Y-163449000D03*
X119380000Y-163449000D03*
X114300000Y-163449000D03*
X111760000Y-163449000D03*
X109220000Y-163449000D03*
X106680000Y-163449000D03*
X99060000Y-163449000D03*
X96520000Y-163449000D03*
X93980000Y-163449000D03*
X91440000Y-163449000D03*
X86360000Y-163449000D03*
X83820000Y-163449000D03*
X81280000Y-163449000D03*
X78740000Y-163449000D03*
X73660000Y-163449000D03*
X73660000Y-165989000D03*
X73660000Y-168529000D03*
X73660000Y-171069000D03*
X73660000Y-173609000D03*
X73660000Y-176149000D03*
D21*
X89090500Y-129921000D03*
X66167000Y-154813000D03*
X89001600Y-119456200D03*
X68770500Y-180848000D03*
X74549000Y-192151000D03*
X84201000Y-121793000D03*
X84201000Y-124841000D03*
X97853500Y-140779500D03*
X117157500Y-121793000D03*
X118427500Y-130111500D03*
X107823000Y-121920000D03*
X107886500Y-130238500D03*
X70167500Y-176212500D03*
X144399000Y-128714500D03*
X142303500Y-128714500D03*
X118364000Y-120142000D03*
X120586500Y-121920000D03*
X118237000Y-108331000D03*
X121729500Y-108394500D03*
X120015000Y-178816000D03*
X120015000Y-181737000D03*
X127825500Y-181991000D03*
X126873000Y-193548000D03*
X77152500Y-146685000D03*
X100965000Y-193167000D03*
X100838000Y-180340000D03*
X97155000Y-178752500D03*
X93281500Y-178816000D03*
X87655400Y-183946800D03*
X85090000Y-185928000D03*
X88795374Y-137750881D03*
X82486504Y-139700000D03*
X78359000Y-169354500D03*
X77914500Y-143065500D03*
X85344000Y-152527000D03*
X80333998Y-152527000D03*
X91541600Y-154813000D03*
X126679978Y-116840471D03*
X128265147Y-118597453D03*
X78422500Y-143915510D03*
X100457000Y-144843500D03*
X100457000Y-143891000D03*
X106712880Y-146501345D03*
X80581500Y-144843500D03*
X70265427Y-141448927D03*
X95532928Y-147713444D03*
X103759000Y-138620500D03*
X118236992Y-123490356D03*
D22*
X89090500Y-129921000D02*
X89090500Y-127317500D01*
X89090500Y-127317500D02*
X89027000Y-127254000D01*
X66103500Y-201993500D02*
X67367101Y-200729899D01*
X66103500Y-154876500D02*
X66167000Y-154813000D01*
X67367101Y-200729899D02*
X67367101Y-191226971D01*
X67367101Y-191226971D02*
X66103500Y-189963370D01*
X66103500Y-189963370D02*
X66103500Y-154876500D01*
X68643500Y-201993500D02*
X66103500Y-201993500D01*
X89001600Y-119456200D02*
X89001600Y-121046600D01*
X89001600Y-121046600D02*
X89049500Y-121094500D01*
X89049500Y-123190000D02*
X89049500Y-121094500D01*
X89027000Y-127254000D02*
X89027000Y-123212500D01*
X89027000Y-123212500D02*
X89049500Y-123190000D01*
X75590401Y-151041099D02*
X76454000Y-150177500D01*
X73118513Y-153512987D02*
X75590401Y-151041099D01*
X65582466Y-153512987D02*
X73118513Y-153512987D01*
X61214000Y-157881453D02*
X65582466Y-153512987D01*
X61214000Y-161925000D02*
X61214000Y-157881453D01*
X81374877Y-147519581D02*
X81917734Y-147519581D01*
X79980559Y-148913899D02*
X81374877Y-147519581D01*
X77717601Y-148913899D02*
X79980559Y-148913899D01*
X76454000Y-150177500D02*
X77717601Y-148913899D01*
X81917734Y-147519581D02*
X82376944Y-147519581D01*
X74549000Y-186626500D02*
X68770500Y-180848000D01*
X74549000Y-192151000D02*
X74549000Y-186626500D01*
X84201000Y-124841000D02*
X84201000Y-121793000D01*
X108013500Y-140843000D02*
X97917000Y-140843000D01*
X97917000Y-140843000D02*
X97853500Y-140779500D01*
X118427500Y-125349000D02*
X117157500Y-124079000D01*
X117157500Y-124079000D02*
X117157500Y-121793000D01*
X118427500Y-130111500D02*
X118427500Y-125349000D01*
X107886500Y-130238500D02*
X107886500Y-121983500D01*
X107886500Y-121983500D02*
X107823000Y-121920000D01*
X73660000Y-176149000D02*
X70231000Y-176149000D01*
X70231000Y-176149000D02*
X70167500Y-176212500D01*
X125095000Y-129540000D02*
X134105601Y-120529399D01*
X134105601Y-120529399D02*
X138804601Y-120529399D01*
X138804601Y-120529399D02*
X139217401Y-120116599D01*
X139217401Y-120116599D02*
X140081000Y-119253000D01*
X142303500Y-128714500D02*
X144399000Y-128714500D01*
X120586500Y-121920000D02*
X120142000Y-121920000D01*
X120142000Y-121920000D02*
X118364000Y-120142000D01*
X121729500Y-108394500D02*
X118300500Y-108394500D01*
X118300500Y-108394500D02*
X118237000Y-108331000D01*
X120015000Y-181737000D02*
X120015000Y-178816000D01*
X129032000Y-181996000D02*
X127830500Y-181996000D01*
X127830500Y-181996000D02*
X127825500Y-181991000D01*
X128549400Y-194137200D02*
X127462200Y-194137200D01*
X127462200Y-194137200D02*
X126873000Y-193548000D01*
X78569032Y-145822524D02*
X77706556Y-146685000D01*
X77706556Y-146685000D02*
X77152500Y-146685000D01*
X100939600Y-194416600D02*
X100939600Y-193192400D01*
X100939600Y-193192400D02*
X100965000Y-193167000D01*
X100838000Y-180340000D02*
X100838000Y-182021400D01*
X100838000Y-182021400D02*
X100863400Y-182046800D01*
X93281500Y-178816000D02*
X97091500Y-178816000D01*
X97091500Y-178816000D02*
X97155000Y-178752500D01*
X85090000Y-185928000D02*
X85674200Y-185928000D01*
X85674200Y-185928000D02*
X87655400Y-183946800D01*
X84742429Y-140780499D02*
X85205371Y-140317557D01*
X84074000Y-139186186D02*
X83611057Y-139649129D01*
X84204585Y-140780499D02*
X84742429Y-140780499D01*
X83611057Y-139649129D02*
X83611057Y-140186971D01*
X83611057Y-140186971D02*
X84204585Y-140780499D01*
X88795374Y-138175145D02*
X88795374Y-137750881D01*
X88795374Y-138290628D02*
X88795374Y-138175145D01*
X88301751Y-138784251D02*
X88795374Y-138290628D01*
X85205371Y-140317557D02*
X86738677Y-138784251D01*
X86738677Y-138784251D02*
X88301751Y-138784251D01*
X75777612Y-148313888D02*
X79471781Y-148313888D01*
X79471781Y-148313888D02*
X79746365Y-148039304D01*
X73914000Y-150177500D02*
X75777612Y-148313888D01*
X79746365Y-148039304D02*
X80266088Y-147519581D01*
X71374000Y-73171000D02*
X71374000Y-71882000D01*
X59899934Y-127948321D02*
X59899934Y-85422892D01*
X59899934Y-85422892D02*
X71374000Y-73948826D01*
X63225996Y-151511000D02*
X62484000Y-150769004D01*
X71374000Y-73948826D02*
X71374000Y-73171000D01*
X62484000Y-150769004D02*
X62484000Y-130532387D01*
X71374000Y-150177500D02*
X70040500Y-151511000D01*
X70040500Y-151511000D02*
X63225996Y-151511000D01*
X62484000Y-130532387D02*
X59899934Y-127948321D01*
X72237599Y-149021801D02*
X73785782Y-147473618D01*
X73785782Y-147473618D02*
X79180680Y-147473618D01*
X79180680Y-147473618D02*
X79700403Y-146953895D01*
X71374000Y-150177500D02*
X72237599Y-149313901D01*
X72237599Y-149313901D02*
X72237599Y-149021801D01*
D23*
X78740000Y-203765212D02*
X80629001Y-205654213D01*
X80629001Y-205654213D02*
X104663999Y-205654213D01*
X104663999Y-205654213D02*
X105664001Y-204654211D01*
X105664001Y-204654211D02*
X106553000Y-203765212D01*
X74625200Y-218313000D02*
X74625200Y-207880012D01*
X74625200Y-207880012D02*
X78740000Y-203765212D01*
D22*
X111378999Y-183007001D02*
X110490000Y-183896000D01*
X111779001Y-182606999D02*
X111378999Y-183007001D01*
X124440999Y-182606999D02*
X111779001Y-182606999D01*
X125730000Y-183896000D02*
X124440999Y-182606999D01*
X96164399Y-177215799D02*
X95275400Y-176326800D01*
X97491002Y-178052498D02*
X97001098Y-178052498D01*
X98704399Y-183057801D02*
X98704399Y-179265895D01*
X97815400Y-183946800D02*
X98704399Y-183057801D01*
X97001098Y-178052498D02*
X96164399Y-177215799D01*
X98704399Y-179265895D02*
X97491002Y-178052498D01*
X76871976Y-144125468D02*
X76871976Y-144108024D01*
X76871976Y-144108024D02*
X77914500Y-143065500D01*
X82486504Y-139642310D02*
X82486504Y-139700000D01*
X83508314Y-138620500D02*
X82486504Y-139642310D01*
X100939600Y-196316600D02*
X101714600Y-196316600D01*
X109099399Y-197326201D02*
X109499401Y-196926199D01*
X101714600Y-196316600D02*
X102724201Y-197326201D01*
X102724201Y-197326201D02*
X109099399Y-197326201D01*
X109499401Y-196926199D02*
X110388400Y-196037200D01*
X97764600Y-196316600D02*
X100939600Y-196316600D01*
X97815400Y-183946800D02*
X100863400Y-183946800D01*
X99314000Y-150177500D02*
X97663000Y-151828500D01*
X97663000Y-151828500D02*
X93345000Y-151828500D01*
X93345000Y-151828500D02*
X92557599Y-151041099D01*
X92557599Y-151041099D02*
X91694000Y-150177500D01*
X78646399Y-177769899D02*
X82575400Y-181698900D01*
X82575400Y-181698900D02*
X82575400Y-183946800D01*
X78359000Y-169354500D02*
X78359000Y-169980437D01*
X78646399Y-170267836D02*
X78646399Y-177769899D01*
X78359000Y-169980437D02*
X78646399Y-170267836D01*
X110388400Y-196037200D02*
X111677401Y-194748199D01*
X111677401Y-194748199D02*
X124339399Y-194748199D01*
X124339399Y-194748199D02*
X124739401Y-195148201D01*
X124739401Y-195148201D02*
X125628400Y-196037200D01*
X125730000Y-183896000D02*
X125730000Y-178816000D01*
X125730000Y-178816000D02*
X123190000Y-176276000D01*
X123088400Y-188417200D02*
X123088400Y-186537600D01*
X123088400Y-186537600D02*
X125730000Y-183896000D01*
X125628400Y-196037200D02*
X125628400Y-190957200D01*
X125628400Y-190957200D02*
X123088400Y-188417200D01*
X82524600Y-196316600D02*
X83813601Y-195027599D01*
X83813601Y-195027599D02*
X96475599Y-195027599D01*
X96475599Y-195027599D02*
X96875601Y-195427601D01*
X96875601Y-195427601D02*
X97764600Y-196316600D01*
X82575400Y-183946800D02*
X83864401Y-182657799D01*
X83864401Y-182657799D02*
X96526399Y-182657799D01*
X96526399Y-182657799D02*
X96926401Y-183057801D01*
X96926401Y-183057801D02*
X97815400Y-183946800D01*
X97764600Y-196316600D02*
X99053601Y-195027599D01*
X99053601Y-195027599D02*
X99053601Y-185185001D01*
X99053601Y-185185001D02*
X98704399Y-184835799D01*
X98704399Y-184835799D02*
X97815400Y-183946800D01*
X97764600Y-196316600D02*
X97764600Y-191236600D01*
X97764600Y-191236600D02*
X95224600Y-188696600D01*
D24*
X77484919Y-143495081D02*
X77484919Y-143512525D01*
X77914500Y-143065500D02*
X77484919Y-143495081D01*
D22*
X125653800Y-196113400D02*
X128828800Y-196113400D01*
X125730000Y-183896000D02*
X129032000Y-183896000D01*
X135137156Y-147437844D02*
X141344601Y-141230399D01*
X141344601Y-141230399D02*
X141344601Y-127479529D01*
X135137156Y-160391844D02*
X135137156Y-147437844D01*
X132080000Y-163449000D02*
X135137156Y-160391844D01*
X140081000Y-114173000D02*
X141344601Y-115436601D01*
X141344601Y-115436601D02*
X141344601Y-127479529D01*
X141344601Y-127479529D02*
X140687529Y-128136601D01*
X138817399Y-128136601D02*
X138404599Y-128549401D01*
X140687529Y-128136601D02*
X138817399Y-128136601D01*
X138404599Y-128549401D02*
X137541000Y-129413000D01*
X132080000Y-165989000D02*
X132080000Y-163449000D01*
X73660000Y-163449000D02*
X73660000Y-158051000D01*
X73660000Y-158051000D02*
X79184000Y-152527000D01*
X79184000Y-152527000D02*
X79334000Y-152527000D01*
X73660000Y-165989000D02*
X73660000Y-163449000D01*
X83508314Y-138620500D02*
X84688065Y-137440749D01*
X84688065Y-137440749D02*
X86958249Y-137440749D01*
X84639685Y-139751871D02*
X84647127Y-139751871D01*
X84647127Y-139751871D02*
X86958249Y-137440749D01*
D24*
X85344000Y-152527000D02*
X86274000Y-152527000D01*
X79334000Y-152527000D02*
X80333998Y-152527000D01*
D22*
X75242432Y-167105731D02*
X75168445Y-167179718D01*
X83924000Y-152527000D02*
X82717500Y-153733500D01*
X75549012Y-159337488D02*
X75549012Y-166824716D01*
X75168445Y-168302340D02*
X74949001Y-168521784D01*
X75168445Y-167179718D02*
X75168445Y-168302340D01*
X74548999Y-170180001D02*
X73660000Y-171069000D01*
X74949001Y-169147721D02*
X74548999Y-169547723D01*
X81153000Y-153733500D02*
X75549012Y-159337488D01*
X75549012Y-166824716D02*
X75242432Y-167105731D01*
X84074000Y-152527000D02*
X83924000Y-152527000D01*
X74548999Y-169547723D02*
X74548999Y-170180001D01*
X82717500Y-153733500D02*
X81153000Y-153733500D01*
X74949001Y-168521784D02*
X74949001Y-169147721D01*
X86335724Y-147473524D02*
X85725000Y-147473524D01*
X127460676Y-161153411D02*
X116388268Y-161153411D01*
X132080000Y-171069000D02*
X130413191Y-169402191D01*
X87877601Y-149015401D02*
X86335724Y-147473524D01*
X87877601Y-152185005D02*
X87877601Y-149015401D01*
X91205598Y-155513002D02*
X87877601Y-152185005D01*
X110747859Y-155513002D02*
X91205598Y-155513002D01*
X116388268Y-161153411D02*
X110747859Y-155513002D01*
X128889012Y-165554277D02*
X128889012Y-162581747D01*
X128889012Y-162581747D02*
X127460676Y-161153411D01*
X130413191Y-167078456D02*
X128889012Y-165554277D01*
X130413191Y-169402191D02*
X130413191Y-167078456D01*
X84074000Y-150177500D02*
X84074000Y-152527000D01*
X84074000Y-150177500D02*
X85725000Y-148526500D01*
X85725000Y-147473524D02*
X84593723Y-146342247D01*
X85725000Y-148526500D02*
X85725000Y-147473524D01*
X84593723Y-146342247D02*
X84074000Y-145822524D01*
X74660284Y-166817836D02*
X74548999Y-166929121D01*
X81384000Y-152527000D02*
X74949001Y-158961999D01*
X74949001Y-158961999D02*
X74949001Y-166560761D01*
X74949001Y-166560761D02*
X74842106Y-166658742D01*
X74548999Y-167640001D02*
X73660000Y-168529000D01*
X74548999Y-166929121D02*
X74548999Y-167640001D01*
X81534000Y-152527000D02*
X81384000Y-152527000D01*
X74842106Y-166658742D02*
X74660284Y-166817836D01*
X116433599Y-160350200D02*
X110896399Y-154813000D01*
X110896399Y-154813000D02*
X91541600Y-154813000D01*
X127690042Y-160534234D02*
X125757215Y-160534234D01*
X129641600Y-162485792D02*
X127690042Y-160534234D01*
X125573181Y-160350200D02*
X116433599Y-160350200D01*
X129641600Y-165458322D02*
X129641600Y-162485792D01*
X125757215Y-160534234D02*
X125573181Y-160350200D01*
X131191001Y-167007723D02*
X129641600Y-165458322D01*
X132080000Y-168529000D02*
X131191001Y-167640001D01*
X131191001Y-167640001D02*
X131191001Y-167007723D01*
X81534000Y-150177500D02*
X81534000Y-152527000D01*
X83060576Y-149148220D02*
X84028037Y-148180759D01*
X81534000Y-150177500D02*
X82563280Y-149148220D01*
X84028037Y-148180759D02*
X84028037Y-146907933D01*
X82563280Y-149148220D02*
X83060576Y-149148220D01*
X84028037Y-146907933D02*
X83508314Y-146388210D01*
X127000000Y-163449000D02*
X127000000Y-175006000D01*
X127000000Y-175006000D02*
X125730000Y-176276000D01*
X106560999Y-175609279D02*
X115032234Y-167138045D01*
X107950000Y-183896000D02*
X107950000Y-178331722D01*
X107950000Y-178331722D02*
X106560999Y-176942721D01*
X106560999Y-176942721D02*
X106560999Y-175609279D01*
X115032234Y-167138045D02*
X120770955Y-167138045D01*
X120770955Y-167138045D02*
X123571001Y-164337999D01*
X123571001Y-164337999D02*
X124460000Y-163449000D01*
X129807001Y-168359486D02*
X129807001Y-185527599D01*
X121920000Y-163449000D02*
X123209001Y-162159999D01*
X128289001Y-162830279D02*
X128289001Y-166841486D01*
X127618721Y-162159999D02*
X128289001Y-162830279D01*
X128289001Y-166841486D02*
X129807001Y-168359486D01*
X129807001Y-185527599D02*
X126917400Y-188417200D01*
X126917400Y-188417200D02*
X125628400Y-188417200D01*
X123209001Y-162159999D02*
X127618721Y-162159999D01*
X114783702Y-166538034D02*
X105960988Y-175360747D01*
X117548201Y-166538034D02*
X114783702Y-166538034D01*
X119380000Y-164706235D02*
X117548201Y-166538034D01*
X106959401Y-195148201D02*
X107848400Y-196037200D01*
X119380000Y-163449000D02*
X119380000Y-164706235D01*
X105960988Y-175360747D02*
X105960988Y-194149788D01*
X105960988Y-194149788D02*
X106959401Y-195148201D01*
X97815400Y-175037800D02*
X97815400Y-176326800D01*
X112807622Y-161956622D02*
X104138493Y-161956622D01*
X114300000Y-163449000D02*
X112807622Y-161956622D01*
X104138493Y-161956622D02*
X97815400Y-168279715D01*
X97815400Y-168279715D02*
X97815400Y-175037800D01*
X77568489Y-176651532D02*
X78046388Y-177129431D01*
X77568489Y-168255666D02*
X77568489Y-176651532D01*
X79651133Y-166173022D02*
X77568489Y-168255666D01*
X87365064Y-166173022D02*
X79651133Y-166173022D01*
X89020522Y-164517564D02*
X87365064Y-166173022D01*
X91637731Y-161356611D02*
X89020522Y-163973818D01*
X114918721Y-164738001D02*
X115589001Y-164067721D01*
X113049001Y-164738001D02*
X114918721Y-164738001D01*
X111760000Y-163449000D02*
X113049001Y-164738001D01*
X115589001Y-162899773D02*
X114045842Y-161356614D01*
X78046388Y-181957788D02*
X79146401Y-183057801D01*
X114045842Y-161356614D02*
X91637731Y-161356611D01*
X79146401Y-183057801D02*
X80035400Y-183946800D01*
X115589001Y-164067721D02*
X115589001Y-162899773D01*
X78046388Y-177129431D02*
X78046388Y-181957788D01*
X89020522Y-163973818D02*
X89020522Y-164517564D01*
X85822742Y-186628001D02*
X86192543Y-186258200D01*
X79377883Y-165573011D02*
X76968478Y-167982416D01*
X87116532Y-165573011D02*
X79377883Y-165573011D01*
X88420511Y-163373808D02*
X88420511Y-164269032D01*
X91139320Y-160655000D02*
X88420511Y-163373808D01*
X116189012Y-162651241D02*
X114192771Y-160655000D01*
X115167253Y-165338012D02*
X116189012Y-164316253D01*
X111109012Y-165338012D02*
X115167253Y-165338012D01*
X109220000Y-163449000D02*
X111109012Y-165338012D01*
X76996989Y-176928575D02*
X76996989Y-182816111D01*
X76968478Y-167982416D02*
X76968478Y-176900064D01*
X114192771Y-160655000D02*
X91139320Y-160655000D01*
X116189012Y-164316253D02*
X116189012Y-162651241D01*
X80808879Y-186628001D02*
X85822742Y-186628001D01*
X88420511Y-164269032D02*
X87116532Y-165573011D01*
X97764600Y-187407600D02*
X97764600Y-188696600D01*
X76968478Y-176900064D02*
X76996989Y-176928575D01*
X96615200Y-186258200D02*
X97764600Y-187407600D01*
X76996989Y-182816111D02*
X80808879Y-186628001D01*
X86192543Y-186258200D02*
X96615200Y-186258200D01*
X90835868Y-160054989D02*
X114441303Y-160054989D01*
X76368467Y-167720456D02*
X79115923Y-164973000D01*
X116063119Y-165938023D02*
X109169023Y-165938023D01*
X79984600Y-196316600D02*
X76114467Y-192446467D01*
X76149023Y-169018848D02*
X76368467Y-168799404D01*
X117287609Y-164713533D02*
X116063119Y-165938023D01*
X107568999Y-164337999D02*
X106680000Y-163449000D01*
X87820500Y-163070357D02*
X90835868Y-160054989D01*
X117287609Y-162901295D02*
X117287609Y-164713533D01*
X86868000Y-164973000D02*
X87820500Y-164020500D01*
X76114467Y-169679341D02*
X76149023Y-169644785D01*
X114441303Y-160054989D02*
X117287609Y-162901295D01*
X76114467Y-192446467D02*
X76114467Y-169679341D01*
X76149023Y-169644785D02*
X76149023Y-169018848D01*
X76368467Y-168799404D02*
X76368467Y-167720456D01*
X87820500Y-164020500D02*
X87820500Y-163070357D01*
X79115923Y-164973000D02*
X86868000Y-164973000D01*
X109169023Y-165938023D02*
X107568999Y-164337999D01*
X75768456Y-167457201D02*
X77851001Y-165374656D01*
X75514456Y-169430809D02*
X75549012Y-169396253D01*
X75549012Y-169396253D02*
X75549012Y-168770316D01*
X68643500Y-199453500D02*
X75514456Y-192582544D01*
X77851001Y-165374656D02*
X77851001Y-164337999D01*
X77851001Y-164337999D02*
X78740000Y-163449000D01*
X75549012Y-168770316D02*
X75768456Y-168550872D01*
X75514456Y-192582544D02*
X75514456Y-169430809D01*
X75768456Y-168550872D02*
X75768456Y-167457201D01*
X122555000Y-124460000D02*
X123818601Y-123196399D01*
X123818601Y-123196399D02*
X124361471Y-123196399D01*
X124361471Y-123196399D02*
X124501269Y-123056601D01*
X127053076Y-118369919D02*
X126497919Y-118369919D01*
X124501269Y-123056601D02*
X125828529Y-123056601D01*
X125828529Y-123056601D02*
X129295589Y-119589541D01*
X129295589Y-118637931D02*
X128427869Y-117770211D01*
X129295589Y-119589541D02*
X129295589Y-118637931D01*
X125603000Y-117602000D02*
X107315000Y-117602000D01*
X128427869Y-117770211D02*
X127652784Y-117770211D01*
X126492000Y-118364000D02*
X126365000Y-118364000D01*
X127652784Y-117770211D02*
X127053076Y-118369919D01*
X126497919Y-118369919D02*
X126492000Y-118364000D01*
X126365000Y-118364000D02*
X125603000Y-117602000D01*
X107315000Y-117602000D02*
X94970599Y-105257599D01*
X94970599Y-105257599D02*
X94107000Y-104394000D01*
X125095000Y-104394000D02*
X125095000Y-115255493D01*
X125095000Y-115255493D02*
X126379979Y-116540472D01*
X126379979Y-116540472D02*
X126679978Y-116840471D01*
X91249500Y-121094500D02*
X92249500Y-121094500D01*
X92249500Y-121094500D02*
X94107000Y-122952000D01*
X94107000Y-122952000D02*
X94107000Y-126032686D01*
X94107000Y-126032686D02*
X94107000Y-127254000D01*
X91099500Y-121094500D02*
X91249500Y-121094500D01*
X91249500Y-121094500D02*
X91399500Y-121094500D01*
X125095000Y-121920000D02*
X128265147Y-118749853D01*
X128265147Y-118749853D02*
X128265147Y-118597453D01*
X91249500Y-123190000D02*
X91249500Y-126936500D01*
X91249500Y-126936500D02*
X91567000Y-127254000D01*
X83915044Y-74688956D02*
X86722000Y-71882000D01*
X61099956Y-127451258D02*
X61099956Y-86006132D01*
X72417132Y-74688956D02*
X83915044Y-74688956D01*
X86722000Y-71882000D02*
X88011000Y-71882000D01*
X61099956Y-86006132D02*
X72417132Y-74688956D01*
X76631544Y-132575044D02*
X66223742Y-132575044D01*
X66223742Y-132575044D02*
X61099956Y-127451258D01*
X78994000Y-134937500D02*
X76631544Y-132575044D01*
X79700403Y-138054815D02*
X78994000Y-137348412D01*
X78994000Y-137348412D02*
X78994000Y-134937500D01*
X62299978Y-126954194D02*
X62299978Y-86503196D01*
X106210022Y-75888978D02*
X110217000Y-71882000D01*
X110217000Y-71882000D02*
X111506000Y-71882000D01*
X62299978Y-86503196D02*
X72914196Y-75888978D01*
X72914196Y-75888978D02*
X106210022Y-75888978D01*
X66720806Y-131375022D02*
X62299978Y-126954194D01*
X80511522Y-131375022D02*
X66720806Y-131375022D01*
X84074000Y-134937500D02*
X80511522Y-131375022D01*
X85771056Y-140883242D02*
X84795298Y-141859000D01*
X84795298Y-141859000D02*
X83262725Y-141859000D01*
X83262725Y-141859000D02*
X81341998Y-139938273D01*
X81341998Y-139938273D02*
X81341998Y-137599163D01*
X81341998Y-137599163D02*
X83140062Y-135801099D01*
X83140062Y-135801099D02*
X83210401Y-135801099D01*
X83210401Y-135801099D02*
X84074000Y-134937500D01*
X61699967Y-127202726D02*
X61699967Y-86254664D01*
X78571533Y-131975033D02*
X66472274Y-131975033D01*
X105537001Y-72770999D02*
X106426000Y-71882000D01*
X103019033Y-75288967D02*
X105537001Y-72770999D01*
X61699967Y-86254664D02*
X72665664Y-75288967D01*
X72665664Y-75288967D02*
X103019033Y-75288967D01*
X66472274Y-131975033D02*
X61699967Y-127202726D01*
X81534000Y-134937500D02*
X78571533Y-131975033D01*
X80266088Y-137489129D02*
X80266088Y-136205412D01*
X80266088Y-136205412D02*
X81534000Y-134937500D01*
X64903399Y-127860529D02*
X67217870Y-130175000D01*
X63500000Y-126353742D02*
X64903399Y-127757141D01*
X84391500Y-130175000D02*
X87947500Y-133731000D01*
X129794000Y-71882000D02*
X128505000Y-71882000D01*
X128505000Y-71882000D02*
X123298000Y-77089000D01*
X123298000Y-77089000D02*
X73411260Y-77089000D01*
X73411260Y-77089000D02*
X63500000Y-87000260D01*
X63500000Y-87000260D02*
X63500000Y-126353742D01*
X64903399Y-127757141D02*
X64903399Y-127860529D01*
X67217870Y-130175000D02*
X84391500Y-130175000D01*
X89154000Y-134937500D02*
X87947500Y-133731000D01*
X87947500Y-133731000D02*
X87680800Y-133464300D01*
X89817590Y-135295498D02*
X89664794Y-135448294D01*
X90678000Y-138811000D02*
X90678000Y-137795000D01*
X89817590Y-136934590D02*
X89817590Y-135295498D01*
X87589917Y-141899083D02*
X90678000Y-138811000D01*
X89664794Y-135448294D02*
X89154000Y-134937500D01*
X86336742Y-143559783D02*
X87589917Y-142306609D01*
X90678000Y-137795000D02*
X89817590Y-136934590D01*
X87589917Y-142306609D02*
X87589917Y-141899083D01*
X82451511Y-130775011D02*
X85750401Y-134073901D01*
X66969338Y-130775011D02*
X82451511Y-130775011D01*
X62899989Y-126705662D02*
X66969338Y-130775011D01*
X113934057Y-71882000D02*
X109327068Y-76488989D01*
X73162728Y-76488989D02*
X62899989Y-86751728D01*
X109327068Y-76488989D02*
X73162728Y-76488989D01*
X118110000Y-71882000D02*
X113934057Y-71882000D01*
X62899989Y-86751728D02*
X62899989Y-126705662D01*
X85750401Y-134073901D02*
X86614000Y-134937500D01*
X86795952Y-141448927D02*
X86336742Y-141448927D01*
X86614000Y-134937500D02*
X87877603Y-136201103D01*
X89925589Y-137891131D02*
X89925589Y-138574643D01*
X87051305Y-141448927D02*
X86795952Y-141448927D01*
X89925589Y-138574643D02*
X87051305Y-141448927D01*
X87877603Y-136201103D02*
X88235559Y-136201103D01*
X88235559Y-136201103D02*
X89925589Y-137891131D01*
X65466998Y-154476998D02*
X65830998Y-154112998D01*
X78130401Y-151041099D02*
X78994000Y-150177500D01*
X76542001Y-151676999D02*
X77494501Y-151676999D01*
X77494501Y-151676999D02*
X78130401Y-151041099D01*
X74106002Y-154112998D02*
X76542001Y-151676999D01*
X65830998Y-154112998D02*
X74106002Y-154112998D01*
X65466998Y-162752002D02*
X65466998Y-154476998D01*
X61214000Y-167005000D02*
X65466998Y-162752002D01*
X83405572Y-147623297D02*
X82942629Y-147160354D01*
X83405572Y-147954681D02*
X83405572Y-147623297D01*
X82812044Y-148548209D02*
X83405572Y-147954681D01*
X81194791Y-148548209D02*
X82812044Y-148548209D01*
X79565500Y-150177500D02*
X81194791Y-148548209D01*
X78994000Y-150177500D02*
X79565500Y-150177500D01*
X82942629Y-147160354D02*
X82942629Y-146953895D01*
X77437661Y-144691153D02*
X78213304Y-143915510D01*
X78213304Y-143915510D02*
X78422500Y-143915510D01*
X74691555Y-133175055D02*
X75590401Y-134073901D01*
X65975210Y-133175055D02*
X74691555Y-133175055D01*
X75590401Y-134073901D02*
X76454000Y-134937500D01*
X60499945Y-127699790D02*
X65975210Y-133175055D01*
X80724055Y-74088945D02*
X72082426Y-74088945D01*
X82931000Y-71882000D02*
X80724055Y-74088945D01*
X60499945Y-85671426D02*
X60499945Y-127699790D01*
X72082426Y-74088945D02*
X60499945Y-85671426D01*
X76454000Y-134937500D02*
X77317599Y-135801099D01*
X77317599Y-135801099D02*
X77317599Y-136803381D01*
X78614995Y-138100777D02*
X79134718Y-138620500D01*
X77317599Y-136803381D02*
X78614995Y-138100777D01*
X86290779Y-144645191D02*
X85771056Y-144125468D01*
X95738822Y-145623005D02*
X94848405Y-146513422D01*
X96774000Y-134937500D02*
X95738822Y-135972678D01*
X95738822Y-135972678D02*
X95738822Y-145623005D01*
X88159010Y-146513422D02*
X86290779Y-144645191D01*
X94848405Y-146513422D02*
X88159010Y-146513422D01*
X100881264Y-144843500D02*
X100457000Y-144843500D01*
X130168745Y-144843500D02*
X100881264Y-144843500D01*
X132997511Y-142014734D02*
X130168745Y-144843500D01*
X132997511Y-131416489D02*
X132997511Y-142014734D01*
X137541000Y-126873000D02*
X132997511Y-131416489D01*
X99314000Y-136201100D02*
X99314000Y-134937500D01*
X85770162Y-145210876D02*
X87672719Y-147113433D01*
X96338833Y-139176267D02*
X99314000Y-136201100D01*
X85205371Y-144691153D02*
X85725094Y-145210876D01*
X87672719Y-147113433D02*
X95096937Y-147113433D01*
X85725094Y-145210876D02*
X85770162Y-145210876D01*
X95096937Y-147113433D02*
X96338833Y-145871537D01*
X96338833Y-145871537D02*
X96338833Y-139176267D01*
X138817399Y-125609399D02*
X140081000Y-126873000D01*
X132397500Y-129603500D02*
X136391601Y-125609399D01*
X132397500Y-141766202D02*
X132397500Y-129603500D01*
X130272702Y-143891000D02*
X132397500Y-141766202D01*
X100457000Y-143891000D02*
X130272702Y-143891000D01*
X136391601Y-125609399D02*
X138817399Y-125609399D01*
X106412881Y-146801344D02*
X106712880Y-146501345D01*
X89154000Y-150177500D02*
X90918055Y-148413445D01*
X90918055Y-148413445D02*
X104800780Y-148413445D01*
X104800780Y-148413445D02*
X106412881Y-146801344D01*
X80581500Y-144843500D02*
X80581500Y-144941428D01*
X80581500Y-144941428D02*
X79134718Y-146388210D01*
X69697599Y-135801099D02*
X68834000Y-134937500D01*
X73716788Y-139820288D02*
X69697599Y-135801099D01*
X76940392Y-139820288D02*
X73716788Y-139820288D01*
X77437661Y-140317557D02*
X76940392Y-139820288D01*
X76871976Y-140883242D02*
X76665517Y-140883242D01*
X76202574Y-140420299D02*
X71776799Y-140420299D01*
X67157599Y-135801099D02*
X66294000Y-134937500D01*
X71776799Y-140420299D02*
X67157599Y-135801099D01*
X76665517Y-140883242D02*
X76202574Y-140420299D01*
X76306290Y-141448927D02*
X70265427Y-141448927D01*
X70265427Y-141448927D02*
X63754000Y-134937500D01*
X63754000Y-150177500D02*
X70371717Y-143559783D01*
X70371717Y-143559783D02*
X76306290Y-143559783D01*
X96938844Y-139759858D02*
X100901500Y-135797202D01*
X96938844Y-146307528D02*
X96938844Y-139759858D01*
X95532928Y-147713444D02*
X96938844Y-146307528D01*
X87424187Y-147713444D02*
X95532928Y-147713444D01*
X86584256Y-146873513D02*
X87424187Y-147713444D01*
X86256359Y-146873513D02*
X86584256Y-146873513D01*
X84639685Y-145256839D02*
X86256359Y-146873513D01*
X103759000Y-138620500D02*
X100935702Y-135797202D01*
X100935702Y-135797202D02*
X100901500Y-135797202D01*
X100901500Y-135797202D02*
X100901500Y-134077798D01*
X95497601Y-133673899D02*
X95097599Y-134073901D01*
X100497601Y-133673899D02*
X95497601Y-133673899D01*
X95097599Y-134073901D02*
X94234000Y-134937500D01*
X100901500Y-134077798D02*
X100497601Y-133673899D01*
X75656777Y-139220277D02*
X72237599Y-135801099D01*
X77471753Y-139220277D02*
X75656777Y-139220277D01*
X78003347Y-139751871D02*
X77471753Y-139220277D01*
X72237599Y-135801099D02*
X71374000Y-134937500D01*
X78569032Y-139186186D02*
X74320346Y-134937500D01*
X74320346Y-134937500D02*
X73914000Y-134937500D01*
X77483624Y-145776562D02*
X78003347Y-145256839D01*
X73234938Y-145776562D02*
X77483624Y-145776562D01*
X68834000Y-150177500D02*
X73234938Y-145776562D01*
X129895600Y-118389399D02*
X128676401Y-117170200D01*
X125851532Y-117001989D02*
X125364622Y-117001989D01*
X126584011Y-117734468D02*
X125851532Y-117001989D01*
X128676401Y-117170200D02*
X127404252Y-117170200D01*
X111493032Y-103130399D02*
X92830601Y-103130399D01*
X129895600Y-120880714D02*
X129895600Y-118389399D01*
X126839984Y-117734468D02*
X126584011Y-117734468D01*
X125364622Y-117001989D02*
X111493032Y-103130399D01*
X125095000Y-124460000D02*
X126316314Y-124460000D01*
X126316314Y-124460000D02*
X129895600Y-120880714D01*
X92430599Y-103530401D02*
X91567000Y-104394000D01*
X127404252Y-117170200D02*
X126839984Y-117734468D01*
X92830601Y-103130399D02*
X92430599Y-103530401D01*
X120713500Y-140843000D02*
X123825000Y-137731500D01*
X123825000Y-137731500D02*
X123825000Y-133350000D01*
X123825000Y-133350000D02*
X124231401Y-132943599D01*
X124231401Y-132943599D02*
X125095000Y-132080000D01*
X118236992Y-123490356D02*
X119316500Y-124569864D01*
X119316500Y-124569864D02*
X119316500Y-129095500D01*
X119761000Y-129540000D02*
X122555000Y-129540000D01*
X119316500Y-129095500D02*
X119761000Y-129540000D01*
X123253500Y-140843000D02*
X126936500Y-137160000D01*
X126936500Y-137160000D02*
X126936500Y-132051370D01*
X126936500Y-132051370D02*
X126873000Y-131987870D01*
X125574529Y-130689399D02*
X125568130Y-130683000D01*
X126873000Y-131987870D02*
X126873000Y-131318000D01*
X126873000Y-131318000D02*
X126244399Y-130689399D01*
X126244399Y-130689399D02*
X125574529Y-130689399D01*
X125568130Y-130683000D02*
X123952000Y-130683000D01*
X123952000Y-130683000D02*
X123418599Y-131216401D01*
X123418599Y-131216401D02*
X122555000Y-132080000D01*
X118173500Y-140843000D02*
X118173500Y-139001500D01*
X118173500Y-139001500D02*
X122555000Y-134620000D01*
X140081000Y-141645457D02*
X140081000Y-138254314D01*
X110553500Y-153543000D02*
X116760689Y-159750189D01*
X140081000Y-138254314D02*
X140081000Y-137033000D01*
X134537145Y-147189312D02*
X140081000Y-141645457D01*
X134537145Y-155723712D02*
X134537145Y-147189312D01*
X126005747Y-159934224D02*
X130326632Y-159934224D01*
X125821712Y-159750189D02*
X126005747Y-159934224D01*
X130326632Y-159934224D02*
X134537145Y-155723712D01*
X116760689Y-159750189D02*
X125821712Y-159750189D01*
X136277399Y-136499246D02*
X137020044Y-135756601D01*
X136277478Y-143751896D02*
X136277479Y-137639609D01*
X136277479Y-137639609D02*
X136277399Y-137639529D01*
X133337123Y-146692248D02*
X136277478Y-143751896D01*
X136277399Y-137639529D02*
X136277399Y-136499246D01*
X115633500Y-153543000D02*
X118797134Y-156706634D01*
X137020044Y-135756601D02*
X138817399Y-135756601D01*
X118797134Y-156706634D02*
X131857136Y-156706634D01*
X131857136Y-156706634D02*
X133337123Y-155226649D01*
X133337123Y-155226649D02*
X133337123Y-146692248D01*
X138817399Y-135756601D02*
X140017500Y-134556500D01*
X139217401Y-132816599D02*
X140081000Y-131953000D01*
X135077457Y-138136673D02*
X135077377Y-138136593D01*
X138817399Y-133216601D02*
X139217401Y-132816599D01*
X135820022Y-135186763D02*
X135820022Y-133904935D01*
X135077457Y-143254831D02*
X135077457Y-138136673D01*
X132137101Y-154729585D02*
X132137101Y-146195183D01*
X131410495Y-155456189D02*
X132137101Y-154729585D01*
X122626689Y-155456189D02*
X131410495Y-155456189D01*
X135077377Y-135929407D02*
X135820022Y-135186763D01*
X132137101Y-146195183D02*
X135077457Y-143254831D01*
X135820022Y-133904935D02*
X136508356Y-133216601D01*
X136508356Y-133216601D02*
X138817399Y-133216601D01*
X120713500Y-153543000D02*
X122626689Y-155456189D01*
X135077377Y-138136593D02*
X135077377Y-135929407D01*
X134477367Y-135680875D02*
X135220012Y-134938232D01*
X134477367Y-138385125D02*
X134477367Y-135680875D01*
X134477447Y-138385205D02*
X134477367Y-138385125D01*
X134477447Y-142319053D02*
X134477447Y-138385205D01*
X136259824Y-132616591D02*
X136877409Y-132616591D01*
X136877409Y-132616591D02*
X137541000Y-131953000D01*
X135220013Y-133656402D02*
X136259824Y-132616591D01*
X135220012Y-134938232D02*
X135220013Y-133656402D01*
X123253500Y-153543000D02*
X134477447Y-142319053D01*
X135677388Y-136177939D02*
X137362327Y-134493000D01*
X135677388Y-137888061D02*
X135677388Y-136177939D01*
X131659027Y-156056200D02*
X132737112Y-154978117D01*
X132737112Y-146443716D02*
X135677468Y-143503363D01*
X135677468Y-143503363D02*
X135677468Y-137888141D01*
X120686700Y-156056200D02*
X131659027Y-156056200D01*
X118173500Y-153543000D02*
X120686700Y-156056200D01*
X137362327Y-134493000D02*
X137541000Y-134493000D01*
X132737112Y-154978117D02*
X132737112Y-146443716D01*
X135677468Y-137888141D02*
X135677388Y-137888061D01*
X133937134Y-155475180D02*
X133937134Y-146940780D01*
X125867044Y-158946978D02*
X126254279Y-159334213D01*
X126254279Y-159334213D02*
X130078099Y-159334213D01*
X113093500Y-153543000D02*
X118497478Y-158946978D01*
X133937134Y-146940780D02*
X137541000Y-143336915D01*
X130078099Y-159334213D02*
X133937134Y-155475180D01*
X118497478Y-158946978D02*
X125867044Y-158946978D01*
X137541000Y-138254314D02*
X137541000Y-137033000D01*
X137541000Y-143336915D02*
X137541000Y-138254314D01*
M02*
