G04 #@! TF.FileFunction,Paste,Top*
%FSLAX46Y46*%
G04 Gerber Fmt 4.6, Leading zero omitted, Abs format (unit mm)*
G04 Created by KiCad (PCBNEW 4.0.4-stable) date Thursday, September 01, 2016 'PMt' 05:44:21 PM*
%MOMM*%
%LPD*%
G01*
G04 APERTURE LIST*
%ADD10C,0.100000*%
%ADD11R,0.750000X1.200000*%
%ADD12R,1.200000X0.900000*%
G04 APERTURE END LIST*
D10*
D11*
X128549400Y-196037200D03*
X128549400Y-194137200D03*
X100939600Y-196316600D03*
X100939600Y-194416600D03*
X129032000Y-183896000D03*
X129032000Y-181996000D03*
X100863400Y-183946800D03*
X100863400Y-182046800D03*
D10*
G36*
X88991180Y-138943350D02*
X88460850Y-139473680D01*
X87612322Y-138625152D01*
X88142652Y-138094822D01*
X88991180Y-138943350D01*
X88991180Y-138943350D01*
G37*
G36*
X87647678Y-137599848D02*
X87117348Y-138130178D01*
X86268820Y-137281650D01*
X86799150Y-136751320D01*
X87647678Y-137599848D01*
X87647678Y-137599848D01*
G37*
G36*
X86606150Y-140820309D02*
X86965360Y-141179519D01*
X86067334Y-142077545D01*
X85708124Y-141718335D01*
X86606150Y-140820309D01*
X86606150Y-140820309D01*
G37*
G36*
X86040464Y-140254624D02*
X86399674Y-140613834D01*
X85501648Y-141511860D01*
X85142438Y-141152650D01*
X86040464Y-140254624D01*
X86040464Y-140254624D01*
G37*
G36*
X85474779Y-139688939D02*
X85833989Y-140048149D01*
X84935963Y-140946175D01*
X84576753Y-140586965D01*
X85474779Y-139688939D01*
X85474779Y-139688939D01*
G37*
G36*
X84909093Y-139123253D02*
X85268303Y-139482463D01*
X84370277Y-140380489D01*
X84011067Y-140021279D01*
X84909093Y-139123253D01*
X84909093Y-139123253D01*
G37*
G36*
X84343408Y-138557568D02*
X84702618Y-138916778D01*
X83804592Y-139814804D01*
X83445382Y-139455594D01*
X84343408Y-138557568D01*
X84343408Y-138557568D01*
G37*
G36*
X83777722Y-137991882D02*
X84136932Y-138351092D01*
X83238906Y-139249118D01*
X82879696Y-138889908D01*
X83777722Y-137991882D01*
X83777722Y-137991882D01*
G37*
G36*
X83212037Y-137426197D02*
X83571247Y-137785407D01*
X82673221Y-138683433D01*
X82314011Y-138324223D01*
X83212037Y-137426197D01*
X83212037Y-137426197D01*
G37*
G36*
X82646352Y-136860511D02*
X83005562Y-137219721D01*
X82107536Y-138117747D01*
X81748326Y-137758537D01*
X82646352Y-136860511D01*
X82646352Y-136860511D01*
G37*
G36*
X79996680Y-136860511D02*
X80894706Y-137758537D01*
X80535496Y-138117747D01*
X79637470Y-137219721D01*
X79996680Y-136860511D01*
X79996680Y-136860511D01*
G37*
G36*
X79430995Y-137426197D02*
X80329021Y-138324223D01*
X79969811Y-138683433D01*
X79071785Y-137785407D01*
X79430995Y-137426197D01*
X79430995Y-137426197D01*
G37*
G36*
X78865310Y-137991882D02*
X79763336Y-138889908D01*
X79404126Y-139249118D01*
X78506100Y-138351092D01*
X78865310Y-137991882D01*
X78865310Y-137991882D01*
G37*
G36*
X78299624Y-138557568D02*
X79197650Y-139455594D01*
X78838440Y-139814804D01*
X77940414Y-138916778D01*
X78299624Y-138557568D01*
X78299624Y-138557568D01*
G37*
G36*
X77733939Y-139123253D02*
X78631965Y-140021279D01*
X78272755Y-140380489D01*
X77374729Y-139482463D01*
X77733939Y-139123253D01*
X77733939Y-139123253D01*
G37*
G36*
X77168253Y-139688939D02*
X78066279Y-140586965D01*
X77707069Y-140946175D01*
X76809043Y-140048149D01*
X77168253Y-139688939D01*
X77168253Y-139688939D01*
G37*
G36*
X76602568Y-140254624D02*
X77500594Y-141152650D01*
X77141384Y-141511860D01*
X76243358Y-140613834D01*
X76602568Y-140254624D01*
X76602568Y-140254624D01*
G37*
G36*
X76036882Y-140820309D02*
X76934908Y-141718335D01*
X76575698Y-142077545D01*
X75677672Y-141179519D01*
X76036882Y-140820309D01*
X76036882Y-140820309D01*
G37*
G36*
X76575698Y-142931165D02*
X76934908Y-143290375D01*
X76036882Y-144188401D01*
X75677672Y-143829191D01*
X76575698Y-142931165D01*
X76575698Y-142931165D01*
G37*
G36*
X77141384Y-143496850D02*
X77500594Y-143856060D01*
X76602568Y-144754086D01*
X76243358Y-144394876D01*
X77141384Y-143496850D01*
X77141384Y-143496850D01*
G37*
G36*
X77707069Y-144062535D02*
X78066279Y-144421745D01*
X77168253Y-145319771D01*
X76809043Y-144960561D01*
X77707069Y-144062535D01*
X77707069Y-144062535D01*
G37*
G36*
X78272755Y-144628221D02*
X78631965Y-144987431D01*
X77733939Y-145885457D01*
X77374729Y-145526247D01*
X78272755Y-144628221D01*
X78272755Y-144628221D01*
G37*
G36*
X78838440Y-145193906D02*
X79197650Y-145553116D01*
X78299624Y-146451142D01*
X77940414Y-146091932D01*
X78838440Y-145193906D01*
X78838440Y-145193906D01*
G37*
G36*
X79404126Y-145759592D02*
X79763336Y-146118802D01*
X78865310Y-147016828D01*
X78506100Y-146657618D01*
X79404126Y-145759592D01*
X79404126Y-145759592D01*
G37*
G36*
X79969811Y-146325277D02*
X80329021Y-146684487D01*
X79430995Y-147582513D01*
X79071785Y-147223303D01*
X79969811Y-146325277D01*
X79969811Y-146325277D01*
G37*
G36*
X80535496Y-146890963D02*
X80894706Y-147250173D01*
X79996680Y-148148199D01*
X79637470Y-147788989D01*
X80535496Y-146890963D01*
X80535496Y-146890963D01*
G37*
G36*
X82107536Y-146890963D02*
X83005562Y-147788989D01*
X82646352Y-148148199D01*
X81748326Y-147250173D01*
X82107536Y-146890963D01*
X82107536Y-146890963D01*
G37*
G36*
X82673221Y-146325277D02*
X83571247Y-147223303D01*
X83212037Y-147582513D01*
X82314011Y-146684487D01*
X82673221Y-146325277D01*
X82673221Y-146325277D01*
G37*
G36*
X83238906Y-145759592D02*
X84136932Y-146657618D01*
X83777722Y-147016828D01*
X82879696Y-146118802D01*
X83238906Y-145759592D01*
X83238906Y-145759592D01*
G37*
G36*
X83804592Y-145193906D02*
X84702618Y-146091932D01*
X84343408Y-146451142D01*
X83445382Y-145553116D01*
X83804592Y-145193906D01*
X83804592Y-145193906D01*
G37*
G36*
X84370277Y-144628221D02*
X85268303Y-145526247D01*
X84909093Y-145885457D01*
X84011067Y-144987431D01*
X84370277Y-144628221D01*
X84370277Y-144628221D01*
G37*
G36*
X84935963Y-144062535D02*
X85833989Y-144960561D01*
X85474779Y-145319771D01*
X84576753Y-144421745D01*
X84935963Y-144062535D01*
X84935963Y-144062535D01*
G37*
G36*
X85501648Y-143496850D02*
X86399674Y-144394876D01*
X86040464Y-144754086D01*
X85142438Y-143856060D01*
X85501648Y-143496850D01*
X85501648Y-143496850D01*
G37*
G36*
X86067334Y-142931165D02*
X86965360Y-143829191D01*
X86606150Y-144188401D01*
X85708124Y-143290375D01*
X86067334Y-142931165D01*
X86067334Y-142931165D01*
G37*
D12*
X81534000Y-152527000D03*
X79334000Y-152527000D03*
X84074000Y-152527000D03*
X86274000Y-152527000D03*
X91249500Y-121094500D03*
X89049500Y-121094500D03*
X91249500Y-123190000D03*
X89049500Y-123190000D03*
M02*
