M48
INCH,TZ
T1C0.016
T2C0.040
T3C0.126
%
G90
G05
T1
X26050Y-60950
X27075Y-71200
X27625Y-69375
X27664Y-55689
X29350Y-75650
X30375Y-57750
X30675Y-56325
X30850Y-66675
X30875Y-56660
X31628Y-60050
X31725Y-57025
X32475Y-55000
X33150Y-47950
X33150Y-49150
X33500Y-73200
X33600Y-60050
X34510Y-72420
X34959Y-54233
X35040Y-47030
X35075Y-51150
X36040Y-60950
X36725Y-70400
X37611Y-58155
X38250Y-70375
X38525Y-55425
X39550Y-56650
X39550Y-57025
X39700Y-71000
X39750Y-76050
X40850Y-54575
X42013Y-57678
X42450Y-48000
X42475Y-51275
X46125Y-47950
X46550Y-48618
X46550Y-42650
X46600Y-47300
X46625Y-51225
X47250Y-70400
X47250Y-71550
X47475Y-48000
X47925Y-42675
X49874Y-46000
X49950Y-76200
X50325Y-71650
X50498Y-46692
X56025Y-50675
X56850Y-50675
T2
X24100Y-63750
X24100Y-65750
X24100Y-68250
X24100Y-70250
X25100Y-53125
X25100Y-59125
X26025Y-75525
X26025Y-76525
X26025Y-77525
X26025Y-78525
X26025Y-79525
X26050Y-41100
X26050Y-50100
X26100Y-53125
X26100Y-59125
X27025Y-75525
X27025Y-76525
X27025Y-77525
X27025Y-78525
X27025Y-79525
X27050Y-41100
X27050Y-50100
X27100Y-53125
X27100Y-59125
X28050Y-41100
X28050Y-50100
X28100Y-28300
X28100Y-53125
X28100Y-59125
X29000Y-64350
X29000Y-65350
X29000Y-66350
X29000Y-67350
X29000Y-68350
X29000Y-69350
X29050Y-41100
X29050Y-50100
X29100Y-53125
X29100Y-59125
X29380Y-85950
X30050Y-41100
X30050Y-50100
X30100Y-28300
X30100Y-53125
X30100Y-59125
X31000Y-62223
X31000Y-64350
X31000Y-80223
X31050Y-41100
X31050Y-50100
X31100Y-53125
X31100Y-59125
X31380Y-85950
X31490Y-74290
X31490Y-77290
X31510Y-69420
X31510Y-72420
X32000Y-64350
X32050Y-41100
X32050Y-50100
X32100Y-53125
X32100Y-59125
X32490Y-74290
X32490Y-77290
X32510Y-69420
X32510Y-72420
X32650Y-28300
X33000Y-64350
X33050Y-41100
X33050Y-50100
X33100Y-53125
X33100Y-59125
X33490Y-74290
X33490Y-77290
X33510Y-69420
X33510Y-72420
X34000Y-64350
X34050Y-41100
X34050Y-50100
X34100Y-53125
X34100Y-59125
X34490Y-74290
X34490Y-77290
X34510Y-69420
X34510Y-72420
X34650Y-28300
X35050Y-41100
X35050Y-50100
X35100Y-53125
X35100Y-59125
X35490Y-74290
X35490Y-77290
X35510Y-69420
X35510Y-72420
X36000Y-64350
X36050Y-41100
X36050Y-50100
X36100Y-53125
X36100Y-59125
X36490Y-74290
X36490Y-77290
X36510Y-69420
X36510Y-72420
X37000Y-64350
X37050Y-41100
X37050Y-50100
X37100Y-53125
X37100Y-59125
X37490Y-74290
X37490Y-77290
X37510Y-69420
X37510Y-72420
X38000Y-64350
X38050Y-41100
X38050Y-50100
X38100Y-53125
X38100Y-59125
X38490Y-74290
X38490Y-77290
X38510Y-69420
X38510Y-72420
X39000Y-62223
X39000Y-64350
X39000Y-80223
X39050Y-41100
X39050Y-50100
X39100Y-53125
X39100Y-59125
X40050Y-41100
X40050Y-50100
X41900Y-28300
X41950Y-62223
X41950Y-80223
X42000Y-64350
X42460Y-74180
X42460Y-77180
X42500Y-69400
X42500Y-72400
X42525Y-55450
X42525Y-60450
X43000Y-64350
X43460Y-74180
X43460Y-77180
X43500Y-69400
X43500Y-72400
X43525Y-55450
X43525Y-60450
X43900Y-28300
X44000Y-64350
X44460Y-74180
X44460Y-77180
X44500Y-69400
X44500Y-72400
X44525Y-55450
X44525Y-60450
X45000Y-64350
X45460Y-74180
X45460Y-77180
X45500Y-69400
X45500Y-72400
X45525Y-55450
X45525Y-60450
X46460Y-74180
X46460Y-77180
X46500Y-28300
X46500Y-69400
X46500Y-72400
X46525Y-55450
X46525Y-60450
X47000Y-64350
X47250Y-41100
X47460Y-74180
X47460Y-77180
X47500Y-69400
X47500Y-72400
X47525Y-55450
X47525Y-60450
X48000Y-64350
X48250Y-41100
X48250Y-46950
X48250Y-47950
X48250Y-48950
X48250Y-49950
X48250Y-50950
X48250Y-51950
X48250Y-52950
X48250Y-53950
X48460Y-74180
X48460Y-77180
X48500Y-28300
X48500Y-69400
X48500Y-72400
X48525Y-55450
X48525Y-60450
X49000Y-64350
X49250Y-41100
X49250Y-46950
X49250Y-47950
X49250Y-48950
X49250Y-49950
X49250Y-50950
X49250Y-51950
X49250Y-52950
X49250Y-53950
X49460Y-74180
X49460Y-77180
X49500Y-69400
X49500Y-72400
X49525Y-55450
X49525Y-60450
X49950Y-62223
X49950Y-80223
X50000Y-64350
X50250Y-41100
X50500Y-85950
X50525Y-55450
X50525Y-60450
X51100Y-28300
X51525Y-55450
X51525Y-60450
X52000Y-64350
X52000Y-65350
X52000Y-66350
X52000Y-67350
X52000Y-68350
X52000Y-69350
X52500Y-85950
X53100Y-28300
X54150Y-44950
X54150Y-45950
X54150Y-46950
X54150Y-47950
X54150Y-48950
X54150Y-49950
X54150Y-50950
X54150Y-51950
X54150Y-52950
X54150Y-53950
X55150Y-44950
X55150Y-45950
X55150Y-46950
X55150Y-47950
X55150Y-48950
X55150Y-49950
X55150Y-50950
X55150Y-51950
X55150Y-52950
X55150Y-53950
X57100Y-63800
X57100Y-65800
X57100Y-67800
X57100Y-69800
X57100Y-71800
X57100Y-73800
X57100Y-75800
X57100Y-77800
X57100Y-79800
X57100Y-81800
T3
X25600Y-29550
X25700Y-84400
X55400Y-84400
X55700Y-29900
T0
M30
