G04 #@! TF.FileFunction,Profile,NP*
%FSLAX46Y46*%
G04 Gerber Fmt 4.6, Leading zero omitted, Abs format (unit mm)*
G04 Created by KiCad (PCBNEW 4.0.4-stable) date Thursday, September 01, 2016 'PMt' 05:44:21 PM*
%MOMM*%
%LPD*%
G01*
G04 APERTURE LIST*
%ADD10C,0.100000*%
%ADD11C,0.150000*%
G04 APERTURE END LIST*
D10*
D11*
X147574000Y-211328000D02*
X147574000Y-210693000D01*
X147447000Y-212090000D02*
X147574000Y-211328000D01*
X147320000Y-212979000D02*
X147447000Y-212090000D01*
X146939000Y-214249000D02*
X147320000Y-212979000D01*
X146431000Y-215392000D02*
X146939000Y-214249000D01*
X145796000Y-216408000D02*
X146431000Y-215392000D01*
X145161000Y-217297000D02*
X145796000Y-216408000D01*
X144399000Y-218059000D02*
X145161000Y-217297000D01*
X143637000Y-218694000D02*
X144399000Y-218059000D01*
X142748000Y-219329000D02*
X143637000Y-218694000D01*
X141605000Y-219964000D02*
X142748000Y-219329000D01*
X140208000Y-220472000D02*
X141605000Y-219964000D01*
X139065000Y-220726000D02*
X140208000Y-220472000D01*
X137414000Y-220853000D02*
X139065000Y-220726000D01*
X58928000Y-212852000D02*
X58674000Y-210947000D01*
X58674000Y-210947000D02*
X58674000Y-210693000D01*
X59182000Y-213868000D02*
X58928000Y-212852000D01*
X59563000Y-214884000D02*
X59182000Y-213868000D01*
X60071000Y-215773000D02*
X59563000Y-214884000D01*
X60706000Y-216789000D02*
X60071000Y-215773000D01*
X61214000Y-217424000D02*
X60706000Y-216789000D01*
X61849000Y-218059000D02*
X61214000Y-217424000D01*
X62738000Y-218821000D02*
X61849000Y-218059000D01*
X63881000Y-219583000D02*
X62738000Y-218821000D01*
X65659000Y-220345000D02*
X63881000Y-219583000D01*
X67310000Y-220726000D02*
X65659000Y-220345000D01*
X68834000Y-220853000D02*
X67310000Y-220726000D01*
X138049000Y-69342000D02*
X137414000Y-69342000D01*
X139065000Y-69469000D02*
X138049000Y-69342000D01*
X140208000Y-69723000D02*
X139065000Y-69469000D01*
X140970000Y-69977000D02*
X140208000Y-69723000D01*
X141859000Y-70358000D02*
X140970000Y-69977000D01*
X143002000Y-70993000D02*
X141859000Y-70358000D01*
X144018000Y-71755000D02*
X143002000Y-70993000D01*
X145161000Y-72898000D02*
X144018000Y-71755000D01*
X146177000Y-74295000D02*
X145161000Y-72898000D01*
X146685000Y-75311000D02*
X146177000Y-74295000D01*
X147066000Y-76200000D02*
X146685000Y-75311000D01*
X147447000Y-77597000D02*
X147066000Y-76200000D01*
X147574000Y-79502000D02*
X147447000Y-77597000D01*
X68326000Y-69342000D02*
X68834000Y-69342000D01*
X67183000Y-69469000D02*
X68326000Y-69342000D01*
X66040000Y-69723000D02*
X67183000Y-69469000D01*
X64643000Y-70231000D02*
X66040000Y-69723000D01*
X63246000Y-70993000D02*
X64643000Y-70231000D01*
X61976000Y-72009000D02*
X63246000Y-70993000D01*
X60960000Y-73025000D02*
X61976000Y-72009000D01*
X60325000Y-73914000D02*
X60960000Y-73025000D01*
X59817000Y-74803000D02*
X60325000Y-73914000D01*
X59309000Y-75819000D02*
X59817000Y-74803000D01*
X59055000Y-76581000D02*
X59309000Y-75819000D01*
X58801000Y-77597000D02*
X59055000Y-76581000D01*
X58674000Y-78486000D02*
X58801000Y-77597000D01*
X58674000Y-79502000D02*
X58674000Y-78486000D01*
X58674000Y-79502000D02*
X58674000Y-210693000D01*
X137414000Y-69342000D02*
X68834000Y-69342000D01*
X147574000Y-210693000D02*
X147574000Y-79502000D01*
X68834000Y-220853000D02*
X137414000Y-220853000D01*
M02*
