M48
INCH,TZ
T1C0.016
T2C0.031
T3C0.040
%
G90
G05
T1
X13050Y-76610
X24600Y-68500
X25500Y-67250
T2
X28500Y-74000
X28500Y-77000
X28500Y-80000
X28500Y-83000
X28500Y-87000
X28500Y-90000
X28500Y-93000
X28500Y-96000
X29500Y-74000
X29500Y-77000
X29500Y-80000
X29500Y-83000
X29500Y-87000
X29500Y-90000
X29500Y-93000
X29500Y-96000
X30500Y-74000
X30500Y-77000
X30500Y-80000
X30500Y-83000
X30500Y-87000
X30500Y-90000
X30500Y-93000
X30500Y-96000
X31500Y-74000
X31500Y-77000
X31500Y-80000
X31500Y-83000
X31500Y-87000
X31500Y-90000
X31500Y-93000
X31500Y-96000
X32500Y-74000
X32500Y-77000
X32500Y-80000
X32500Y-83000
X32500Y-87000
X32500Y-90000
X32500Y-93000
X32500Y-96000
X33500Y-74000
X33500Y-77000
X33500Y-80000
X33500Y-83000
X33500Y-87000
X33500Y-90000
X33500Y-93000
X33500Y-96000
X34500Y-74000
X34500Y-77000
X34500Y-80000
X34500Y-83000
X34500Y-87000
X34500Y-90000
X34500Y-93000
X34500Y-96000
X35500Y-74000
X35500Y-77000
X35500Y-80000
X35500Y-83000
X35500Y-87000
X35500Y-90000
X35500Y-93000
X35500Y-96000
X36500Y-58500
X36500Y-59500
X36500Y-60500
X36500Y-61500
X36500Y-62500
X36500Y-63500
X36500Y-64500
X36500Y-65500
X36500Y-66500
X36500Y-67500
X36500Y-68500
X36500Y-69500
X36500Y-70500
X36500Y-71500
X39500Y-58500
X39500Y-59500
X39500Y-60500
X39500Y-61500
X39500Y-62500
X39500Y-63500
X39500Y-64500
X39500Y-65500
X39500Y-66500
X39500Y-67500
X39500Y-68500
X39500Y-69500
X39500Y-70500
X39500Y-71500
T3
X11000Y-40000
X11000Y-55000
X11000Y-56000
X11000Y-57000
X11000Y-58000
X11000Y-75000
X11000Y-77000
X11000Y-79500
X11000Y-81500
X11000Y-84000
X11000Y-86000
X11000Y-89000
X11000Y-91000
X11000Y-93000
X11000Y-95000
X11000Y-97000
X11000Y-99000
X11000Y-101000
X11000Y-103000
X11000Y-106000
X11000Y-108000
X11000Y-111000
X11000Y-113000
X11000Y-116000
X11000Y-118000
X13000Y-40000
X13000Y-61500
X13000Y-70500
X14000Y-61500
X14000Y-70500
X15000Y-61500
X15000Y-70500
X15500Y-40000
X16000Y-61500
X16000Y-70500
X17000Y-61500
X17000Y-70500
X17500Y-40000
X18000Y-61500
X18000Y-70500
X18000Y-99000
X18000Y-107000
X18000Y-110000
X18000Y-118000
X19000Y-61500
X19000Y-70500
X19000Y-74000
X19000Y-76000
X19000Y-77000
X19000Y-78000
X19000Y-79000
X19000Y-81000
X19000Y-82000
X19000Y-83000
X19000Y-84000
X19000Y-86000
X19000Y-87000
X19000Y-88000
X19000Y-89000
X19000Y-91000
X19000Y-92000
X19000Y-93000
X19000Y-94000
X19000Y-96000
X20000Y-61500
X20000Y-70500
X20000Y-74000
X20000Y-96000
X21000Y-61500
X21000Y-70500
X21000Y-74000
X21000Y-96000
X22000Y-61500
X22000Y-70500
X22000Y-74000
X22000Y-96000
X23000Y-61500
X23000Y-70500
X23000Y-74000
X23000Y-96000
X24000Y-61500
X24000Y-70500
X24000Y-74000
X24000Y-96000
X25000Y-61500
X25000Y-70500
X26000Y-61500
X26000Y-70500
X27000Y-61500
X27000Y-70500
X30500Y-40000
X32500Y-40000
X35000Y-40000
X36000Y-99000
X36000Y-107000
X36000Y-110000
X36000Y-118000
X37000Y-40000
X39500Y-40000
X41500Y-40000
X42000Y-118000
X44000Y-40000
X44000Y-42000
X44000Y-44000
X44000Y-46000
X44000Y-48000
X44000Y-50000
X44000Y-52000
X44000Y-54000
X44000Y-56000
X44000Y-58000
X44000Y-60500
X44000Y-62500
X44000Y-64500
X44000Y-66500
X44000Y-68500
X44000Y-70500
X44000Y-72500
X44000Y-74500
X44000Y-76500
X44000Y-78500
X44000Y-81000
X44000Y-83000
X44000Y-86000
X44000Y-88000
X44000Y-90500
X44000Y-92500
X44000Y-95000
X44000Y-97000
X44000Y-99500
X44000Y-101500
X44000Y-104000
X44000Y-106000
X44000Y-108500
X44000Y-110500
X44000Y-113000
X44000Y-115000
X44000Y-118000
T0
M30
